<svg width="16" height="16" viewBox="0 0 16 16" fill="none" xmlns="http://www.w3.org/2000/svg">
<path d="M7.99999 15.3333C12.0501 15.3333 15.3333 12.0501 15.3333 7.99999C15.3333 3.9499 12.0501 0.666656 7.99999 0.666656C3.9499 0.666656 0.666656 3.9499 0.666656 7.99999C0.666656 12.0501 3.9499 15.3333 7.99999 15.3333Z" fill="#75787B"/>
<path d="M7.99881 2.66428V6.6082L11.3322 8.09773L7.99881 2.66428Z" fill="white" fill-opacity="0.6"/>
<path d="M7.9992 2.66428L4.66531 8.09773L7.9992 6.6082V2.66428Z" fill="white"/>
<path d="M7.99881 10.6535V13.3333L11.3345 8.71844L7.99881 10.6535Z" fill="white" fill-opacity="0.6"/>
<path d="M7.99886 13.3333V10.6531L4.66498 8.71844L7.99886 13.3333Z" fill="white"/>
<path d="M7.99881 10.0333L11.3322 8.09777L7.99881 6.60913V10.0333Z" fill="white" fill-opacity="0.2"/>
<path d="M4.66498 8.09777L7.99886 10.0333V6.60913L4.66498 8.09777Z" fill="white" fill-opacity="0.6"/>
</svg>
