<svg width="16" height="16" viewBox="0 0 16 16" fill="none" xmlns="http://www.w3.org/2000/svg">
<path d="M12.342 13.9104C14.1561 12.5754 15.3333 10.4252 15.3333 8.00008C15.3333 3.95003 12.0501 0.666687 7.99995 0.666687C3.94986 0.666687 0.666656 3.95003 0.666656 8.00008C0.666656 10.4253 1.84389 12.5755 3.65809 13.9105L7.40537 7.98502H3.57109V6.72188H7.40537V5.4219H3.57109V4.15875H12.4289V5.4219H8.59539V6.72188H12.4289V7.98502H8.59539L12.342 13.9104Z" fill="#75787B"/>
<path d="M11.311 14.5451L7.99995 9.3071L4.68897 14.5451C5.68357 15.0493 6.80858 15.3334 7.99995 15.3334C9.19133 15.3334 10.3163 15.0493 11.311 14.5451Z" fill="#75787B"/>
</svg>
