<svg width="22" height="22" viewBox="0 0 22 22" fill="none" xmlns="http://www.w3.org/2000/svg">
<path fill-rule="evenodd" clip-rule="evenodd" d="M22 11.0001C22 17.0752 17.0752 22 10.9999 22C4.92481 22 0 17.0752 0 11.0001C0 4.92501 4.92481 0 10.9999 0C17.0752 0 22 4.92501 22 11.0001" fill="white"/>
<path d="M11.334 3.30005C8.11736 3.31297 5.51292 5.91741 5.5 9.13404C5.5 9.77823 5.60398 10.4181 5.80763 11.0291C5.95961 11.445 6.4106 11.669 6.8339 11.5404C7.24306 11.3835 7.46025 10.9362 7.32981 10.5178C7.15692 10.0416 7.08001 9.53643 7.10278 9.03067C7.17292 6.70741 9.11286 4.88068 11.4361 4.95082C13.7594 5.02096 15.5861 6.9609 15.516 9.28416C15.4501 11.4591 13.7372 13.2256 11.5647 13.3579C11.5647 13.3579 10.7458 13.4077 10.3385 13.4575C10.1884 13.4791 10.0395 13.5086 9.89241 13.5461C9.87149 13.5677 9.83765 13.5677 9.81612 13.5468L9.8155 13.5461C9.80074 13.5271 9.80074 13.5 9.8155 13.4809L9.94225 12.7894L10.7113 9.33031C10.8036 8.89839 10.5286 8.47324 10.0967 8.38095C9.66476 8.28866 9.23961 8.56368 9.14732 8.9956C9.14732 8.9956 7.31812 17.4623 7.31812 17.5392C7.21353 17.9509 7.4621 18.3692 7.87371 18.4738C7.87802 18.4751 7.88294 18.4763 7.88725 18.4769H7.9297C8.3407 18.5834 8.76031 18.336 8.86614 17.925C8.86799 17.9182 8.86983 17.9115 8.87106 17.9041C8.86983 17.8912 8.86983 17.8783 8.87106 17.8659C8.89383 17.7663 9.12455 16.6397 9.12455 16.6397C9.29929 15.7894 9.9847 15.1378 10.8424 15.0062C11.019 14.9791 11.761 14.9293 11.761 14.9293C14.9653 14.6099 17.304 11.7532 16.984 8.54892C16.6924 5.62638 14.2713 3.37634 11.334 3.30005Z" fill="#1E1E1E"/>
<path d="M11.6881 16.7516C11.1621 16.6421 10.6477 16.9798 10.5382 17.5053C10.5369 17.5102 10.5363 17.5151 10.5351 17.5201C10.4213 18.0424 10.7523 18.5586 11.2753 18.6725C11.2759 18.6725 11.2765 18.6725 11.2771 18.6731H11.3042C11.8161 18.7968 12.3311 18.4817 12.4541 17.9704C12.4554 17.9667 12.456 17.9624 12.4572 17.9587V17.9052C12.5477 17.3773 12.2105 16.8709 11.6881 16.7516Z" fill="#E6007A"/>
</svg>
