<svg width="49" height="44" viewBox="0 0 49 44" fill="none" xmlns="http://www.w3.org/2000/svg">
<path d="M24.5 29.5312L13.9727 23.3242L24.5 38.1719L35.0547 23.3242L24.5 29.5312ZM3.5 21C3.5 17.1901 4.4388 13.681 6.31641 10.4727C8.21224 7.26432 10.7643 4.72135 13.9727 2.84375C17.181 0.947917 20.6901 0 24.5 0C28.3099 0 31.819 0.947917 35.0273 2.84375C38.2357 4.72135 40.7786 7.26432 42.6562 10.4727C44.5521 13.681 45.5 17.1901 45.5 21C45.5 24.8099 44.5521 28.319 42.6562 31.5273C40.7786 34.7357 38.2357 37.2786 35.0273 39.1562C31.819 41.0521 28.3099 42 24.5 42C20.6901 42 17.181 41.0521 13.9727 39.1562C10.7643 37.2786 8.21224 34.7357 6.31641 31.5273C4.4388 28.319 3.5 24.8099 3.5 21ZM24.5 27.5352L35.0547 21.3008L24.5 3.82812L13.9727 21.3008L24.5 27.5352Z" fill="#627EEA"/>
</svg>
