<svg width="38" height="37" viewBox="0 0 38 37" fill="none" xmlns="http://www.w3.org/2000/svg">
<path d="M18.9998 36.8334C29.1251 36.8334 37.3332 28.6253 37.3332 18.5001C37.3332 8.37486 29.1251 0.166748 18.9998 0.166748C8.87462 0.166748 0.666504 8.37486 0.666504 18.5001C0.666504 28.6253 8.87462 36.8334 18.9998 36.8334Z" fill="#627EEA"/>
<path d="M18.9971 5.16089V15.0207L27.3307 18.7445L18.9971 5.16089Z" fill="white" fill-opacity="0.6"/>
<path d="M18.9978 5.16089L10.6631 18.7445L18.9978 15.0207V5.16089Z" fill="white"/>
<path d="M18.9971 25.1338V31.8333L27.3362 20.2961L18.9971 25.1338Z" fill="white" fill-opacity="0.6"/>
<path d="M18.9968 31.8333V25.1327L10.6621 20.2961L18.9968 31.8333Z" fill="white"/>
<path d="M18.9971 23.5833L27.3307 18.7446L18.9971 15.0229V23.5833Z" fill="white" fill-opacity="0.2"/>
<path d="M10.6621 18.7446L18.9968 23.5833V15.0229L10.6621 18.7446Z" fill="white" fill-opacity="0.6"/>
</svg>
