<svg width="100" height="100" viewBox="0 0 100 100" fill="none" xmlns="http://www.w3.org/2000/svg">
<path fill-rule="evenodd" clip-rule="evenodd" d="M51.7727 31.8636V48.2273H64.8636V51.7727H48.2273V31.8636H51.7727ZM50 84.5C30.9462 84.5 15.5 69.0538 15.5 50C15.5 30.9462 30.9462 15.5 50 15.5C69.0538 15.5 84.5 30.9462 84.5 50C84.5 69.0538 69.0538 84.5 50 84.5ZM50 80.9545C67.0957 80.9545 80.9545 67.0957 80.9545 50C80.9545 32.9043 67.0957 19.0455 50 19.0455C32.9043 19.0455 19.0455 32.9043 19.0455 50C19.0455 67.0957 32.9043 80.9545 50 80.9545Z" fill="#D0021B"/>
</svg>
