<svg width="100" height="100" viewBox="0 0 100 100" fill="none" xmlns="http://www.w3.org/2000/svg">
<path fill-rule="evenodd" clip-rule="evenodd" d="M73.8056 33.5002H65.9004V37.7002H80.9006V22.7001H76.7005V29.9437L74.0442 26.7288C68.1196 19.5585 59.6497 15.5 50.0003 15.5C31.4489 15.5 16.3174 30.1422 15.532 48.5003H19.7365C20.5184 32.4628 33.7689 19.7001 50.0003 19.7001C59.1071 19.7001 66.9524 23.8219 72.1297 31.1333L73.8056 33.5002ZM34.0998 66.5002H26.1947L27.8706 68.867C33.0478 76.1784 40.8932 80.3003 50 80.3003C66.2314 80.3003 79.4819 67.5376 80.2637 51.5H84.4683C83.6829 69.8581 68.5514 84.5003 50 84.5003C40.3506 84.5003 31.8807 80.4419 25.9561 73.2715L23.2997 70.0566V77.3003H19.0997V62.3001H34.0998V66.5002ZM52.1018 60.7941C52.1018 61.9535 51.1616 62.8942 50.0006 62.8942C48.8397 62.8942 47.8994 61.9535 47.8994 60.7941C47.8994 59.6348 48.8397 58.6941 50.0006 58.6941C51.1616 58.6941 52.1018 59.6348 52.1018 60.7941ZM52.1126 33.4938H47.9102V52.094H52.1126V33.4938Z" fill="#D0021B"/>
</svg>
