<svg width="36" height="36" viewBox="0 0 36 36" fill="none" xmlns="http://www.w3.org/2000/svg">
<rect width="36" height="36" rx="18" fill="url(#linear)"/>
<path d="M26.1429 24.0839C26.1429 23.0769 25.6927 22.1329 24.7923 21.2517C23.9065 20.3706 22.7956 19.6713 21.4596 19.1538C20.1236 18.6224 18.8312 18.3566 17.5823 18.3566C16.3335 18.3566 15.0338 18.6224 13.6832 19.1538C12.3472 19.6713 11.2291 20.3706 10.3287 21.2517C9.44291 22.1329 9 23.0769 9 24.0839C9 25.035 9.23961 25.7133 9.71882 26.1189C10.2126 26.5245 10.9822 26.7762 12.0278 26.8741C13.0733 26.958 14.8305 27 17.2991 27H18.0615C20.356 27 22.0187 26.951 23.0497 26.8531C24.0953 26.7552 24.8722 26.5035 25.3805 26.0979C25.8887 25.6923 26.1429 25.021 26.1429 24.0839ZM13.0516 12.7972C13.0516 13.5245 13.2549 14.2587 13.6615 15C14.0826 15.7413 14.6417 16.3566 15.3387 16.8462C16.0358 17.3357 16.7836 17.5804 17.5823 17.5804C18.381 17.5804 19.1216 17.3357 19.8041 16.8462C20.5012 16.3566 21.053 15.7413 21.4596 15C21.8807 14.2587 22.0913 13.5245 22.0913 12.7972C22.0768 12.1119 21.859 11.4825 21.4378 10.9091C21.0312 10.3217 20.4867 9.86014 19.8041 9.52448C19.1361 9.17483 18.3955 9 17.5823 9C16.7836 9 16.0358 9.16783 15.3387 9.5035C14.6562 9.83916 14.1044 10.3007 13.6832 10.8881C13.2766 11.4615 13.0661 12.0979 13.0516 12.7972Z" fill="white"/>
<defs>
<linearGradient id="linear" x1="0" y1="0" x2="29.0642" y2="-4.92559" gradientUnits="userSpaceOnUse">
<stop stop-color="#FF4E88"/>
<stop offset="0.331451" stop-color="#F35B3A" stop-opacity="0.68"/>
<stop offset="0.659846" stop-color="#FF2069" stop-opacity="0.38"/>
<stop offset="0.922164" stop-color="#EE27FF" stop-opacity="0.57"/>
<stop offset="1" stop-color="#0FF1FF" stop-opacity="0.5"/>
</linearGradient>
</defs>
</svg>
