<svg width="22" height="22" viewBox="0 0 22 22" fill="none" xmlns="http://www.w3.org/2000/svg">
<path d="M0 11C0 17.0751 4.92487 22 11 22C17.0751 22 22 17.0751 22 11C22 4.92487 17.0751 0 11 0C4.92487 0 0 4.92487 0 11Z" fill="black"/>
<path d="M18.3652 6.06332C18.1064 5.85856 17.7978 5.57889 17.2354 5.50897C16.7079 5.43905 16.1704 5.79364 15.8071 6.02836C15.4438 6.26309 14.757 6.95228 14.4734 7.16204C14.1897 7.37179 13.4631 7.56657 12.2936 8.27074C11.124 8.97492 6.53549 11.9315 6.53549 11.9315L7.7299 11.9464L2.4048 14.6982H2.93731L2.1709 15.2826C2.1709 15.2826 2.84773 15.4623 3.41508 15.1028V15.2676C3.41508 15.2676 9.75543 12.7605 10.9797 13.4097L10.2332 13.6295C10.2979 13.6295 11.5023 13.7094 11.5023 13.7094C11.5315 13.9597 11.6153 14.2004 11.7478 14.4145C11.8803 14.6285 12.0581 14.8107 12.2687 14.9479C12.9953 15.4274 13.0102 15.6921 13.0102 15.6921C13.0102 15.6921 12.632 15.8469 12.632 16.0417C12.632 16.0417 13.1894 15.8719 13.7069 15.8868C14.0354 15.8993 14.3613 15.9513 14.6774 16.0417C14.6774 16.0417 14.6376 15.8319 14.1349 15.6921C13.6323 15.5522 13.1346 15.0029 12.8908 14.7032C12.7414 14.5125 12.644 14.286 12.6083 14.0461C12.5725 13.8062 12.5995 13.5611 12.6867 13.3348C12.8609 12.8804 13.4681 12.6307 14.7222 11.9814C16.2003 11.2123 16.5387 10.643 16.7477 10.1985C16.9567 9.75401 17.2653 8.87004 17.4395 8.45553C17.6585 7.92115 17.9272 7.63648 18.1512 7.46668C18.3751 7.29688 19.3705 6.92232 19.3705 6.92232C19.3705 6.92232 18.609 6.25809 18.3652 6.06332Z" fill="white"/>
</svg>
