<svg width="24" height="24" viewBox="0 0 24 24" fill="none" xmlns="http://www.w3.org/2000/svg">
<path fill-rule="evenodd" clip-rule="evenodd" d="M13.7595 1.75696C16.1021 -0.58177 19.8992 -0.581748 22.2418 1.75703C24.5855 4.09689 24.5858 7.8914 22.2427 10.2316L20.9121 11.5622C20.3263 12.148 19.3765 12.148 18.7908 11.5622C18.205 10.9765 18.205 10.0267 18.7908 9.44092L20.1214 8.1103C21.2915 6.94212 21.2923 5.04827 20.1222 3.88008C18.9508 2.71055 17.0505 2.71055 15.879 3.88008L11.2863 8.4647C10.368 9.38163 10.1687 10.7477 10.6957 11.8592C11.0506 12.6077 10.7315 13.5023 9.98291 13.8572C9.23435 14.2121 8.33982 13.893 7.98492 13.1444C6.93107 10.9217 7.3227 8.1827 9.16675 6.34165L13.7595 1.75696Z" fill="#FDF7FB"/>
<path fill-rule="evenodd" clip-rule="evenodd" d="M13.942 10.1568C14.6881 9.79696 15.5848 10.1101 15.9446 10.8563C17.0209 13.0879 16.6362 15.8507 14.782 17.7049L10.2449 22.242C7.90209 24.5848 4.10362 24.5848 1.76079 22.242C-0.582028 19.8992 -0.582028 16.1007 1.76079 13.7579L3.0772 12.4415C3.66299 11.8557 4.61273 11.8557 5.19852 12.4415C5.78431 13.0273 5.78431 13.977 5.19852 14.5628L3.88211 15.8792C2.71086 17.0504 2.71086 18.9494 3.88211 20.1207C5.05336 21.2919 6.95233 21.2919 8.12358 20.1207L12.6607 15.5835C13.5851 14.6591 13.7819 13.278 13.2425 12.1595C12.8826 11.4133 13.1958 10.5167 13.942 10.1568Z" fill="#FDF7FB"/>
</svg>
