<svg width="28" height="17" viewBox="0 0 28 17" fill="none" xmlns="http://www.w3.org/2000/svg">
<path d="M28 8.24219C28 7.02083 27.9362 5.89974 27.8086 4.87891C27.681 3.83984 27.5078 3.01953 27.2891 2.41797C27.0885 1.81641 26.8698 1.51562 26.6328 1.51562C26.2318 1.51562 25.8945 2.17188 25.6211 3.48438C25.3477 4.79688 25.2109 6.38281 25.2109 8.24219C25.2109 10.1016 25.3477 11.6875 25.6211 13C25.8945 14.2943 26.2318 14.9414 26.6328 14.9414C26.8698 14.9414 27.0885 14.6406 27.2891 14.0391C27.5078 13.4375 27.681 12.6263 27.8086 11.6055C27.9362 10.5664 28 9.44531 28 8.24219ZM0 8.24219C0 9.68229 0.355469 11.013 1.06641 12.2344C1.77734 13.4557 2.73438 14.4219 3.9375 15.1328C5.14062 15.8438 6.46224 16.1992 7.90234 16.1992C9.34245 16.1992 10.6641 15.8438 11.8672 15.1328C13.0703 14.4219 14.0273 13.4557 14.7383 12.2344C15.4492 11.013 15.8047 9.68229 15.8047 8.24219C15.8047 6.80208 15.4492 5.47135 14.7383 4.25C14.0273 3.02865 13.0703 2.0625 11.8672 1.35156C10.6641 0.640625 9.34245 0.285156 7.90234 0.285156C6.46224 0.285156 5.14062 0.640625 3.9375 1.35156C2.73438 2.0625 1.77734 3.02865 1.06641 4.25C0.355469 5.47135 0 6.80208 0 8.24219ZM16.5703 8.24219C16.5703 9.59115 16.7435 10.8398 17.0898 11.9883C17.4544 13.1367 17.9375 14.0482 18.5391 14.7227C19.1406 15.3971 19.7969 15.7344 20.5078 15.7344C21.2188 15.7344 21.875 15.3971 22.4766 14.7227C23.0781 14.0482 23.5521 13.1367 23.8984 11.9883C24.263 10.8398 24.4453 9.59115 24.4453 8.24219C24.4453 6.875 24.263 5.61719 23.8984 4.46875C23.5521 3.32031 23.0781 2.41797 22.4766 1.76172C21.875 1.08724 21.2188 0.75 20.5078 0.75C19.7969 0.75 19.1406 1.08724 18.5391 1.76172C17.9375 2.41797 17.4544 3.32031 17.0898 4.46875C16.7435 5.61719 16.5703 6.875 16.5703 8.24219Z" fill="#A19A9D"/>
</svg>
