<svg width="70" height="71" viewBox="0 0 70 71" fill="none" xmlns="http://www.w3.org/2000/svg">
<path fill-rule="evenodd" fill="#D5CDD0" d="M62,66.3c-0.8,0-1.6-0.3-2.1-0.9L40.7,46.4c-3.8,2.6-8.2,4-12.8,4
	C16.3,50.4,6.3,41.5,5.1,29.9C3.6,15.4,15.8,3.3,30.3,4.8c10.5,1.1,19,9.4,20.2,19.9c0.8,6.5-1.2,12.8-5.3,17.6l18.9,18.9
	c0.6,0.6,0.9,1.3,0.9,2.1c0,0.8-0.3,1.6-0.9,2.1C63.5,66,62.8,66.3,62,66.3z M29.7,9.8C18.4,8.7,9,18.1,10.1,29.3
	C11,37.7,17.7,44.4,26,45.2c11.3,1.1,20.7-8.3,19.5-19.5C44.7,17.4,38,10.6,29.7,9.8z M24.1,39.8c-1.7,0-2.9-1.6-2.4-3.3
	c0.3-1,1.4-1.7,2.5-1.7h6.8c1.7,0,2.7,0.7,3.1,1.7c0.6,1.7-0.7,3.3-2.4,3.3H24.1z M39.3,30.6c-0.7,0-1.4-0.3-1.8-0.8l-1.1-1.1
	l-1.1,1.1c-0.5,0.5-1.1,0.8-1.8,0.8c-0.9,0-1.7-0.5-2.2-1.3c-0.6-1-0.3-2.5,0.5-3.3l1.1-1.1l-1.1-1.1c-0.8-0.8-1.1-2.3-0.5-3.3
	c0.5-0.8,1.3-1.3,2.2-1.3c0.7,0,1.4,0.3,1.8,0.8l1.1,1.1l1.1-1.1c0.5-0.5,1.1-0.8,1.8-0.8c0.9,0,1.7,0.5,2.2,1.3
	c0.6,1,0.3,2.5-0.5,3.3L40,25L41,26c0.8,0.8,1.1,2.3,0.5,3.3C41,30.1,40.2,30.6,39.3,30.6z M22.4,30.6c-0.7,0-1.4-0.3-1.8-0.8
	l-1.1-1.1l-1.1,1.1c-0.5,0.5-1.1,0.8-1.8,0.8c-0.9,0-1.7-0.5-2.2-1.3c-0.6-1-0.3-2.5,0.5-3.3l1.1-1.1l-1.1-1.1
	c-0.8-0.8-1.1-2.3-0.5-3.3c0.5-0.8,1.3-1.3,2.2-1.3c0.7,0,1.4,0.3,1.8,0.8l1.1,1.1l1.1-1.1c0.5-0.5,1.1-0.8,1.8-0.8
	c0.9,0,1.7,0.5,2.2,1.3c0.6,1,0.3,2.5-0.5,3.3L23.1,25l1.1,1.1c0.8,0.8,1.1,2.3,0.5,3.3C24.1,30.1,23.3,30.6,22.4,30.6z"/>
</svg>