<svg width="70" height="71" viewBox="0 0 70 71" fill="none" xmlns="http://www.w3.org/2000/svg">
<path fill-rule="evenodd" clip-rule="evenodd" d="M26.0001 51.4C11.9721 51.4 0.600098 40.028 0.600098 26C0.600098 11.9719 11.9721 0.599976 26.0001 0.599976C40.0281 0.599976 51.4001 11.9719 51.4001 26C51.4001 32.8441 48.6926 39.0566 44.2912 43.6237C44.3515 43.6709 44.4095 43.7222 44.4649 43.7776L67.7994 67.1121C68.5414 67.8541 68.5414 69.0571 67.7994 69.7991C67.0574 70.5411 65.8544 70.5411 65.1124 69.7991L41.7779 46.4646C41.6718 46.3585 41.5808 46.2427 41.5049 46.1202C37.2154 49.4305 31.8372 51.4 26.0001 51.4ZM26 1.00037C14.5324 1.00037 4.86818 8.72148 1.92234 19.2487C4.86805 8.72128 14.5324 0.999976 26.0001 0.999976C39.8072 0.999976 51.0001 12.1929 51.0001 26C51.0001 27.0598 50.9341 28.1041 50.8061 29.1292C50.9341 28.1043 51 27.06 51 26.0004C51 12.1932 39.8071 1.00037 26 1.00037ZM43.6415 43.7142L43.6418 43.7138C43.7708 43.7615 43.8947 43.8274 44.0092 43.9118C44.0696 43.9562 44.1274 44.0058 44.1821 44.0604L67.5166 67.3949C67.7972 67.6755 67.9433 68.0395 67.9551 68.4071C67.9432 68.0397 67.797 67.6758 67.5165 67.3953L44.182 44.0608C44.0236 43.9024 43.8387 43.7869 43.6415 43.7142ZM3.18581 26C3.18581 38.6 13.4001 48.8143 26.0001 48.8143C38.6001 48.8143 48.8144 38.6 48.8144 26C48.8144 13.4 38.6001 3.18569 26.0001 3.18569C13.4001 3.18569 3.18581 13.4 3.18581 26ZM31.7572 37.6071C31.7572 38.3211 31.1784 38.9 30.4644 38.9H21.5358C20.8218 38.9 20.243 38.3211 20.243 37.6071C20.243 36.8931 20.8218 36.3143 21.5358 36.3143H30.4644C31.1784 36.3143 31.7572 36.8931 31.7572 37.6071ZM26.0001 49.2143C13.1792 49.2143 2.78581 38.8209 2.78581 26C2.78581 24.4807 2.93175 22.9955 3.2104 21.5576C2.9317 22.9956 2.78571 24.4809 2.78571 26.0004C2.78571 38.8213 13.1791 49.2147 26 49.2147C36.2685 49.2147 44.9797 42.5476 48.0413 33.3062C44.9796 42.5474 36.2684 49.2143 26.0001 49.2143ZM21.5357 36.7147C21.1581 36.7147 20.8352 36.9491 20.7047 37.2803C20.8351 36.9489 21.1581 36.7143 21.5358 36.7143H30.4644C30.9575 36.7143 31.3572 37.114 31.3572 37.6071C31.3572 37.6688 31.351 37.7289 31.3391 37.7871C31.3509 37.7291 31.3571 37.669 31.3571 37.6075C31.3571 37.1144 30.9574 36.7147 30.4643 36.7147H21.5357ZM11.4745 18.4749C12.0212 17.9281 12.9077 17.9281 13.4544 18.4749L16.0001 21.0206L18.5457 18.4749C19.0925 17.9282 19.9789 17.9282 20.5256 18.4749C21.0724 19.0217 21.0724 19.9081 20.5256 20.4548L17.98 23.0005L20.5255 25.5459C21.0722 26.0927 21.0722 26.9791 20.5255 27.5258C19.9787 28.0726 19.0923 28.0726 18.5456 27.5258L16.0001 24.9804L13.4546 27.5259C12.9078 28.0726 12.0214 28.0726 11.4747 27.5259C10.9279 26.9792 10.9279 26.0927 11.4747 25.546L14.0202 23.0005L11.4745 20.4548C10.9278 19.908 10.9278 19.0216 11.4745 18.4749ZM11.7573 20.1719C11.604 20.0185 11.5108 19.8277 11.4779 19.6289C11.5109 19.8275 11.604 20.0181 11.7572 20.1713L14.5858 22.9999L14.5855 23.0001L11.7573 20.1719ZM20.2427 20.1714C20.4798 19.9343 20.573 19.6077 20.5221 19.3002C20.5732 19.6078 20.4801 19.9347 20.2428 20.172L17.4146 23.0002L17.4142 22.9999L20.2427 20.1714ZM20.2425 27.2424C20.4797 27.0053 20.5728 26.6787 20.522 26.3712C20.573 26.6788 20.4799 27.0057 20.2426 27.243C19.8521 27.6335 19.2189 27.6335 18.8284 27.243L16.0001 24.4147L13.1717 27.2431C12.7812 27.6336 12.148 27.6336 11.7575 27.2431C11.6041 27.0897 11.511 26.8989 11.4781 26.7C11.5111 26.8986 11.6042 27.0892 11.7574 27.2425C12.1479 27.633 12.7811 27.633 13.1716 27.2425L16 24.4141L18.8283 27.2424C19.2188 27.6329 19.852 27.6329 20.2425 27.2424ZM31.4745 18.4749C32.0212 17.9281 32.9077 17.9281 33.4544 18.4749L36.0001 21.0206L38.5457 18.4749C39.0925 17.9282 39.9789 17.9282 40.5256 18.4749C41.0724 19.0217 41.0724 19.9081 40.5256 20.4548L37.98 23.0005L40.5255 25.5459C41.0722 26.0927 41.0722 26.9791 40.5255 27.5258C39.9787 28.0726 39.0923 28.0726 38.5456 27.5258L36.0001 24.9804L33.4546 27.5259C32.9078 28.0726 32.0214 28.0726 31.4747 27.5259C30.9279 26.9792 30.9279 26.0927 31.4747 25.546L34.0202 23.0005L31.4745 20.4548C30.9278 19.908 30.9278 19.0216 31.4745 18.4749ZM31.7573 20.1719C31.604 20.0185 31.5108 19.8277 31.4779 19.6289C31.5109 19.8275 31.604 20.0181 31.7572 20.1713L34.5858 22.9999L34.5855 23.0001L31.7573 20.1719ZM40.2427 20.1714C40.4798 19.9343 40.573 19.6077 40.5221 19.3002C40.5732 19.6078 40.4801 19.9347 40.2428 20.172L37.4146 23.0002L37.4142 22.9999L40.2427 20.1714ZM40.2425 27.2424C40.4797 27.0053 40.5728 26.6787 40.522 26.3712C40.573 26.6788 40.4799 27.0057 40.2426 27.243C39.8521 27.6335 39.2189 27.6335 38.8284 27.243L36.0001 24.4147L33.1717 27.2431C32.7812 27.6336 32.148 27.6336 31.7575 27.2431C31.6041 27.0897 31.511 26.8989 31.4781 26.7C31.5111 26.8986 31.6042 27.0892 31.7574 27.2425C32.1479 27.633 32.7811 27.633 33.1716 27.2425L36 24.4141L38.8283 27.2424C39.2188 27.6329 39.852 27.6329 40.2425 27.2424Z" fill="#A3A4A8"/>
</svg>
