<svg width="150" height="40" viewBox="0 0 150 40" fill="none" xmlns="http://www.w3.org/2000/svg">
<path d="M19.9484 33.5225C18.9281 33.5225 18.0498 33.2886 17.3287 32.8207C16.6037 32.3528 16.0667 31.6779 15.7292 30.8188C15.3955 29.9751 15.2804 28.9089 15.3878 27.6548C15.4454 26.953 15.6064 26.2013 15.8673 25.4228C16.1319 24.6405 16.5385 23.8888 17.0717 23.1946C17.6087 22.5005 18.2952 21.8984 19.1122 21.4075C19.9407 20.9128 20.8881 20.6405 21.9314 20.6021C22.0081 20.5983 22.081 20.5983 22.1539 20.5983C23.2739 20.5983 24.1906 20.8936 24.8849 21.4803C25.6175 22.0978 26.1046 22.9223 26.3348 23.931C26.6378 25.2656 26.5074 26.3969 26.3808 27.1333C26.235 27.977 25.863 29.047 25.3567 30.0709C25.2032 30.3893 24.9117 30.7958 24.6778 31.1256L24.5282 31.3365C23.8608 32.1803 22.9939 32.8092 22.0197 33.1659C21.0607 33.5225 20.2246 33.5225 19.9484 33.5225ZM22.0657 22.7651C22.0197 22.7651 21.9698 22.7651 21.9199 22.7689C21.4673 22.7881 20.9764 22.9952 20.4585 23.3864C19.9331 23.7852 19.4536 24.4142 19.0432 25.2617C18.6251 26.1131 18.3796 26.976 18.3067 27.8236C18.23 29.0086 18.3604 29.9252 18.698 30.5388C19.0163 31.1141 19.4843 31.3902 20.1364 31.3902C20.681 31.3902 21.0646 31.1831 21.3177 31.0451C21.7051 30.8341 22.0427 30.5427 22.3188 30.1822C22.5145 29.9789 22.664 29.768 22.7829 29.5417C22.9709 29.1697 23.0668 28.9243 23.1167 28.7709C23.3199 28.1841 23.5271 27.2598 23.6651 26.2972C23.7572 25.6529 23.7572 25.0815 23.669 24.441C23.5999 23.9425 23.412 23.5206 23.109 23.187C22.8482 22.9032 22.5068 22.7651 22.0657 22.7651Z" fill="#0D0248"/>
<path d="M6.97243 17.6299C7.19873 17.6337 7.77024 17.6913 8.06175 18.0556C8.38395 18.4583 8.31491 19.0834 8.28806 19.2982C8.26121 19.5129 8.19983 19.7469 8.11545 20.0729C8.04641 20.3413 7.78558 21.814 7.72421 22.1668C7.63983 22.6692 7.7549 23.0834 8.10011 23.5014C8.43381 23.9003 8.98231 24.1035 9.47711 24.1189C9.56149 24.1227 9.62286 24.1227 9.68423 24.1227C10.3631 24.1227 11.0114 24.0805 11.6212 23.8773C12.3078 23.6472 12.9407 23.2905 13.3741 22.6232C13.8076 21.9559 14.1796 20.8744 14.2103 19.7929C14.2372 18.8687 13.7577 17.8178 13.3319 17.1083C12.9062 16.3989 12.1352 15.8082 11.3259 15.3519C10.5127 14.8955 9.56149 14.6347 8.49134 14.581C8.35326 14.5734 8.21901 14.5695 8.08477 14.5695C6.73462 14.5695 5.50337 14.907 4.42172 15.5781C3.24801 16.303 2.60746 17.2311 2.38115 18.2934C2.15485 19.3557 2.59978 20.5561 3.43596 21.5532C3.58938 21.7833 3.60089 22.0326 3.48199 22.3126C3.37459 22.5695 3.14828 22.7804 2.81075 22.9338C2.63814 23.0144 2.46937 23.0527 2.31595 23.0527C2.14334 23.0527 1.98224 23.0067 1.84032 22.9108C1.19977 22.4199 0.808536 21.7795 0.50552 21.2119C0.171818 20.5829 0.0835974 19.8466 0.022227 19.1486C-0.0621574 18.1745 0.0912677 17.3538 0.524696 16.4871C0.942782 15.651 1.2458 15.0604 2.17403 14.2665C2.93349 13.6184 3.73514 13.0892 4.80145 12.7747C5.80255 12.4756 6.86503 12.326 7.96202 12.326H8.16148C8.95162 12.3452 9.82231 12.4717 10.762 12.698C11.7095 12.9281 12.5725 13.2924 13.3319 13.7757C14.0914 14.2589 14.6552 14.8418 15.1462 15.4362C15.641 16.0345 16.1051 16.7709 16.3468 17.5455C16.5884 18.3126 16.7917 19.2752 16.7495 20.1304C16.6881 21.4036 16.3774 22.4506 15.8174 23.3787C15.2574 24.3106 14.3829 25.1007 13.4739 25.5954C12.5686 26.0901 11.5138 26.3509 10.344 26.3701H10.1905C9.66505 26.3701 9.1319 26.3241 8.59874 26.2359C8.50285 26.2205 8.40312 26.2128 8.30723 26.2128C7.77024 26.2128 7.26394 26.5005 6.99544 26.9185C6.84201 27.1601 6.71544 27.4171 6.71544 27.5321L5.94831 32.2186C5.94447 32.3183 5.89077 33.0431 5.30392 33.3691C5.00474 33.534 4.70939 33.5187 4.65186 33.5149C4.22226 33.488 3.84253 33.2311 3.63541 32.9473C3.29787 32.4871 3.38609 31.9118 3.42061 31.697L5.56858 19.2675C5.67214 18.4391 6.22831 17.6222 6.97243 17.6299Z" fill="#0D0248"/>
<path d="M104.989 40C104.67 40 104.394 39.8811 104.191 39.6587C103.911 39.348 103.8 38.8571 103.869 38.2742C104.306 35.2215 104.44 34.7344 104.9 31.7354C104.908 31.6779 104.897 31.628 104.858 31.5858C104.82 31.5398 104.759 31.5129 104.705 31.5129C104.663 31.5129 104.62 31.5321 104.59 31.5666C103.577 32.652 102.48 33.2042 101.329 33.2042C100.973 33.2042 100.589 33.0853 100.19 32.8437C99.776 32.5983 99.4461 32.1534 99.2083 31.5206C99.1393 31.3404 99.0856 31.1448 99.0472 30.9453C99.0242 30.8303 98.9283 30.7766 98.8516 30.7766C98.8132 30.7766 98.7596 30.7881 98.7174 30.8533C98.2226 31.6395 97.7354 32.2186 97.2675 32.5714C96.5656 33.1045 95.7984 33.3845 94.9968 33.4075H94.8817C94.1798 33.4075 93.5507 33.2234 93.0176 32.8629C92.4576 32.4832 92.005 31.8965 91.6789 31.1179C91.5715 30.8687 91.491 30.5925 91.4296 30.3011C91.4066 30.1937 91.3184 30.1362 91.2417 30.1362C91.2072 30.1362 91.1726 30.1477 91.142 30.1707C90.9233 30.3432 90.6893 30.4928 90.4439 30.6155C90.045 30.815 89.6691 30.9875 89.3008 31.1524C88.5069 31.5129 87.7589 31.8504 86.869 32.4449L86.8077 32.4871C86.0712 32.978 85.4383 33.4036 83.7622 33.4036H83.6471C82.7457 33.3806 82.0323 33.047 81.5221 32.4104C81.2421 32.0614 81.0427 31.6472 80.9238 31.1831C80.8969 31.0719 80.8049 31.0259 80.732 31.0259C80.6821 31.0259 80.6438 31.0451 80.6092 31.0872C80.3945 31.3595 80.1605 31.6242 79.9073 31.8658C79.3742 32.3835 78.772 32.7709 78.1161 33.024C77.5062 33.2579 76.9002 33.3768 76.3095 33.3768C76.2635 33.3768 76.2136 33.3768 76.1676 33.373C75.224 33.3308 74.4914 32.9626 73.9889 32.2838C73.5785 31.7277 73.3599 30.9875 73.3369 30.0825C73.03 30.3701 72.7117 30.5887 72.3204 30.861L72.121 30.999C71.561 31.3902 70.9434 31.6587 70.3451 31.9156C70.0612 32.0383 69.7697 32.1649 69.482 32.303C69.4322 32.3298 69.3746 32.3643 69.2979 32.4142C69.133 32.5177 68.8798 32.6788 68.4196 32.9128C67.7368 33.2617 67.0004 33.4382 66.2294 33.4382H66.099C65.6425 33.4382 65.1669 33.3308 64.6913 33.1237C64.208 32.9127 63.7938 32.6098 63.4524 32.2186C63.111 31.8274 62.8655 31.348 62.7236 30.7919C62.5817 30.2474 62.5548 29.6491 62.6431 29.0163C62.7083 28.7785 62.8502 28.6021 63.065 28.4564C63.2338 28.3452 63.4332 28.2876 63.6633 28.2876C63.7362 28.2876 63.8129 28.2915 63.8897 28.303C63.951 28.3106 64.0086 28.3222 64.0623 28.3375C64.3806 28.4257 64.5992 28.744 64.5724 29.0815C64.5187 29.722 64.6299 30.2397 64.9061 30.6232C65.2014 31.0297 65.585 31.2291 66.0875 31.2291C66.4787 31.2291 66.7434 31.0604 66.9352 30.9338C67.0042 30.8878 67.0502 30.861 67.0924 30.838C67.2382 30.7498 67.2612 30.7383 67.5489 30.3241C67.9094 29.8025 67.8557 28.9281 67.8135 28.5753L67.7867 28.349C67.7522 28.046 67.7406 27.954 67.6754 27.6318C67.5412 27.0067 67.3763 26.6347 67.0464 25.8984C66.9505 25.6874 66.8469 25.4458 66.7242 25.162C66.1642 23.8658 65.8267 22.9722 65.6962 22.4238C65.6694 22.3049 65.6425 22.1937 65.6195 22.0901C65.5965 21.9866 65.5083 21.9329 65.4277 21.9329C65.3779 21.9329 65.3357 21.9521 65.3088 21.9942C64.9982 22.4123 64.6798 22.907 64.3691 23.4708C63.9702 24.1918 63.4869 25.2809 62.9384 26.7114C62.9346 26.7383 62.9269 26.7689 62.9154 26.8035C62.8003 27.1218 62.6776 27.4324 62.5549 27.7315L62.5011 27.8773C62.4935 27.8926 62.482 27.9195 62.4666 27.9386C61.8107 29.4919 61.0781 30.7152 60.2803 31.5666C59.2677 32.652 58.1707 33.2004 57.02 33.2004C56.6633 33.2004 56.2797 33.0815 55.8808 32.8399C55.4666 32.5944 55.1367 32.1496 54.8989 31.5168C54.8298 31.3365 54.7761 31.1409 54.7378 30.9415C54.7148 30.8265 54.6189 30.7728 54.5422 30.7728C54.5038 30.7728 54.4501 30.7843 54.4079 30.8495C53.9131 31.6357 53.426 32.2148 52.958 32.5676C52.2561 33.1007 51.4928 33.3806 50.6873 33.4036H50.5723C49.8703 33.4036 49.2413 33.2196 48.7081 32.8591C48.1481 32.4794 47.6955 31.8926 47.3695 31.1141C47.2851 30.9108 47.2122 30.6961 47.1585 30.466C46.5372 31.3672 45.8544 32.0767 45.1371 32.5829C44.3393 33.1429 43.507 33.4267 42.6632 33.4267C41.781 33.4267 41.033 33.1429 40.4346 32.5829C39.445 31.651 38.8889 30.0019 38.7355 27.5475C38.7201 27.2828 38.862 27.0489 39.1037 26.9492C39.9207 26.6117 40.6226 26.2244 41.1979 25.8025C41.827 25.3423 42.2949 24.8821 42.5903 24.4372C42.8741 24.0115 43.0122 23.6318 43.0007 23.3097C42.9892 23.0297 42.8818 22.838 42.6555 22.7076C42.4906 22.6079 42.3141 22.558 42.1032 22.558C41.9306 22.558 41.7349 22.5925 41.5278 22.6577C41.0253 22.815 40.5037 23.1218 39.9744 23.5705C39.4412 24.023 38.9618 24.5868 38.559 25.2464C38.1563 25.9022 37.8878 26.5964 37.765 27.3059C37.4198 29.3615 37.159 31.1026 36.9902 32.4794C36.948 32.7018 36.7946 32.8744 36.5184 33.024C36.273 33.1582 35.9393 33.2272 35.5327 33.2272C35.1146 33.2272 34.7886 33.1582 34.5392 33.0163C34.3897 32.9319 34.2784 32.8207 34.2094 32.6903C34.1212 32.7517 34.0291 32.8054 33.9409 32.8591C33.2735 33.2502 32.5064 33.4458 31.6587 33.4458C31.417 33.4458 31.1677 33.4305 30.9146 33.3998C29.3113 33.2119 28.2258 32.2416 27.6888 30.5197C27.1748 28.8706 27.1978 26.3279 27.7463 22.9684C28.0877 20.8169 28.6017 18.8111 29.2767 17.0086C29.9595 15.1831 30.7765 13.8907 31.697 13.1659C32.1611 12.7939 32.6598 12.5561 33.1853 12.464C33.3387 12.4372 33.4998 12.4219 33.6532 12.4219C34.0368 12.4219 34.4242 12.5062 34.8077 12.6711C35.3601 12.9089 35.805 13.3461 36.1272 13.9674C36.4379 14.5657 36.6105 15.2292 36.6412 15.9463C36.6719 16.652 36.5721 17.4151 36.342 18.2167C36.0236 19.3442 35.5212 20.4564 34.8423 21.5225C34.1634 22.5887 33.3809 23.5014 32.514 24.2339C31.7124 24.9128 30.9376 25.4727 30.2126 25.8945C30.182 25.9099 30.1474 25.9444 30.1398 26.0019C30.063 26.6807 30.0247 27.4286 30.0247 28.2263C30.0247 29.0623 30.1666 29.7872 30.4466 30.3739C30.7036 30.9108 31.091 31.1985 31.6242 31.2483C31.72 31.2598 31.8083 31.2675 31.8965 31.2675C32.2264 31.2675 32.5792 31.187 32.9398 31.0336C33.4077 30.8341 33.8834 30.4583 34.359 29.9175C34.4127 29.8562 34.4625 29.791 34.5162 29.7296L34.5354 29.7066C34.731 28.5139 34.9458 27.2522 35.176 25.9559C35.5864 23.6357 36.1234 20.9128 36.7678 17.8639C37.416 14.7958 37.7689 13.0278 37.8264 12.7747C37.8302 12.7632 37.8341 12.7479 37.8379 12.7363C37.9453 12.4756 38.2944 12.4027 38.5475 12.372C38.6165 12.3643 38.6856 12.3605 38.7585 12.3605C39.0576 12.3605 39.3952 12.4334 39.7672 12.5791C40.4461 12.8437 40.5651 13.2081 40.5497 13.4688C40.542 13.5455 40.519 13.7987 40.4116 14.2704C40.3349 14.6117 40.0204 16.0268 39.4642 18.5158C39.1689 19.8466 38.9272 20.9741 38.747 21.86C38.7355 21.9175 38.747 21.9636 38.7815 22.0058C38.8198 22.0518 38.8774 22.0786 38.9311 22.0786C38.9733 22.0786 39.0116 22.0633 39.0423 22.0288C39.1037 21.9636 39.165 21.9022 39.2302 21.837C39.7519 21.3231 40.3886 20.9012 41.1251 20.5906C41.7042 20.3452 42.2681 20.2224 42.8012 20.2224C42.9585 20.2224 43.1158 20.2339 43.2692 20.2531C43.9519 20.349 44.4813 20.5638 44.838 20.8936C45.1908 21.2196 45.4555 21.6568 45.632 22.1937C45.8084 22.7383 45.7739 23.4209 45.5361 24.2224C45.2983 25.0201 44.7651 25.7833 43.9481 26.4928C43.2078 27.1333 42.3333 27.6472 41.3437 28.0153C41.2746 28.0422 41.2286 28.1074 41.2363 28.1803C41.3053 29.0623 41.4933 29.7987 41.7925 30.3662C42.0955 30.9415 42.5136 31.233 43.0621 31.2483C43.8829 31.2483 44.7076 30.8035 45.5092 29.9291C46.1651 29.2119 46.7481 28.2224 47.2429 26.9875C47.569 25.6146 48.2172 24.326 49.1684 23.1448C50.4304 21.5762 51.9186 20.629 53.5986 20.3298C54.009 20.2608 54.4424 20.2186 54.8912 20.2263C56.1225 20.2455 56.8896 20.6481 57.2885 21.0125C57.3 21.0201 57.3077 21.0316 57.3192 21.0431C57.4995 21.2694 57.4764 21.5762 57.254 21.9482C57.0622 22.2704 56.8512 22.4813 56.6173 22.6002C56.4753 22.6692 56.3488 22.7037 56.2299 22.7037C56.111 22.7037 56.0151 22.6385 55.9077 22.6002C55.2479 22.3662 54.6419 22.4314 54.4309 22.4698C54.0857 22.5235 53.683 22.6846 53.2227 22.9415C52.7624 23.2023 52.2983 23.6127 51.8419 24.1649C51.3816 24.721 50.9942 25.35 50.695 26.0326C50.2654 26.9799 50.0429 27.9693 50.0276 28.9741C50.0123 29.9406 50.1925 30.6117 50.5608 30.9645C50.7065 31.1064 50.8791 31.1755 51.0901 31.1755C51.1898 31.1755 51.2972 31.1601 51.4123 31.1294C51.815 31.0259 52.2868 30.6577 52.8123 30.0403C53.3531 29.4036 53.8901 28.5062 54.4003 27.3672C54.9142 26.2282 55.2748 25.1697 55.4819 23.7929C55.4857 23.7737 55.4896 23.7584 55.4972 23.7392C55.5816 23.536 55.7964 23.2944 56.3449 23.2944C56.3948 23.2944 56.4447 23.2943 56.4945 23.2982C56.9586 23.3289 57.3422 23.4439 57.626 23.6357C57.7411 23.7124 57.8332 23.7891 57.9099 23.8619C58.0748 24.0268 58.1477 24.2646 58.1055 24.4871C57.6567 26.8686 57.4074 28.0614 57.3575 28.4564C57.3077 28.8552 57.277 29.1352 57.2732 29.2848C57.2195 29.9406 57.2463 30.4276 57.3499 30.7306C57.4304 30.9684 57.5532 31.0642 57.7756 31.0642C58.0902 31.0642 58.4584 30.8802 58.8803 30.5158C59.3252 30.1323 59.8008 29.5379 60.2918 28.7479C60.614 28.2301 60.9094 27.6395 61.1702 26.9952C62.3822 23.4784 63.6979 21.0393 65.0825 19.7584C65.4891 19.3826 65.9149 19.1409 66.3483 19.0336C66.5324 18.9875 66.7089 18.9645 66.8738 18.9645C67.1154 18.9645 67.3417 19.0144 67.5412 19.1103C67.8979 19.2828 68.1319 19.5628 68.2124 19.9233C68.2815 20.2301 68.2201 20.5484 68.0245 20.8667C68.0091 20.8936 67.99 20.9358 67.9938 20.978C68.0437 21.2656 68.1165 21.5916 68.2124 21.9482C68.3237 22.3663 68.4502 22.7613 68.5883 23.1256C68.7264 23.4938 69.133 24.4449 69.7966 25.9521C70.3105 27.1218 70.5368 28.4257 70.4371 29.6222C70.4333 29.6836 70.4601 29.7296 70.4831 29.7526C70.5215 29.7948 70.5752 29.8178 70.6251 29.8178C70.6481 29.8178 70.6749 29.814 70.6979 29.8025C71.9062 29.2656 73.1182 27.8121 73.7895 26.1016C73.9391 25.3384 74.1347 24.4909 74.3687 23.5513C74.6985 22.2435 74.9018 21.419 74.9709 21.0968C74.9824 21.047 74.9977 20.9818 75.0399 20.9166C75.1665 20.7172 75.3928 20.5753 75.7303 20.4794C75.8722 20.441 76.0257 20.418 76.1906 20.418C76.4322 20.418 76.7046 20.464 76.9884 20.5561C77.744 20.7939 77.7977 21.1851 77.7632 21.3998C76.9807 24.4602 76.4783 26.9453 76.275 28.7977C76.1254 29.9942 76.2366 30.5005 76.3517 30.7152C76.5051 30.999 76.7314 31.1448 77.0613 31.1755C77.0766 31.1755 77.1265 31.1755 77.1265 31.1755C77.6865 31.1755 78.3309 30.8034 79.0481 30.0671C79.8153 29.2771 80.4021 28.1649 80.7934 26.7613L82.1358 21.0585C82.1397 21.047 82.1435 21.0355 82.1474 21.024C82.2126 20.8591 82.3506 20.721 82.5616 20.5983C82.7649 20.4794 83.0295 20.4219 83.3671 20.4219C83.6893 20.4219 84.0076 20.4832 84.3183 20.5983C84.84 20.7939 84.9167 21.139 84.9129 21.3269C84.9129 21.35 84.909 21.3691 84.9052 21.3883C84.8745 21.4957 84.7326 22.0249 84.2378 23.931C83.8389 25.4535 83.5589 26.9799 83.3978 28.4679C83.2789 29.4688 83.2827 30.1937 83.4093 30.627C83.5435 31.0796 83.789 31.1371 84.0115 31.1371C84.3874 31.1371 84.7748 31.0106 85.1737 30.7613C85.5381 30.5312 85.8564 30.2359 86.1173 29.8792C86.2131 29.7335 86.2783 29.6338 86.3436 29.5379C86.4701 29.3538 86.6005 29.162 87.011 28.4871C87.6093 27.5014 88.0849 26.094 88.2729 25.2004C88.5299 23.9808 88.7217 21.9367 88.7485 21.0086C88.76 20.5753 89.3277 20.4487 89.5118 20.4065C89.6806 20.3682 89.8532 20.349 90.0219 20.349C90.2866 20.349 90.5513 20.395 90.8121 20.4871C91.422 20.7057 91.5754 21.0623 91.5984 21.3269C91.6483 22.1438 91.5831 23.0297 91.4104 23.9655C91.0461 25.9482 90.954 26.2972 90.5206 27.3749C90.4208 27.6242 90.2981 27.8926 90.16 28.1726C90.1293 28.2339 90.1332 28.2915 90.1677 28.3452C90.2061 28.4027 90.2713 28.441 90.3326 28.441C90.371 28.441 90.4093 28.4257 90.4439 28.395C90.6203 28.2378 90.7776 28.0652 90.9156 27.8811C91.2187 27.4746 91.4181 26.9952 91.5946 26.5695C91.6751 26.3778 91.748 26.2052 91.8209 26.0556C92.1814 25.024 92.7414 24.0345 93.4817 23.1103C94.7436 21.5417 96.2319 20.5944 97.9119 20.2953C98.3223 20.2263 98.7557 20.1611 99.2045 20.1918C100.459 20.2761 101.26 20.4104 101.659 20.7785C101.671 20.7862 101.678 20.7977 101.686 20.8092C101.866 21.0355 101.847 21.3423 101.621 21.7143C101.425 22.0364 101.218 22.2512 100.984 22.3663C100.842 22.4353 100.716 22.4813 100.597 22.4698C100.236 22.4353 100.029 22.3969 99.3963 22.3778C99.17 22.3778 98.9475 22.3969 98.7404 22.4391C98.3952 22.4928 97.9924 22.6539 97.5321 22.9108C97.0719 23.1716 96.6078 23.582 96.1513 24.1342C95.6872 24.6941 95.3036 25.3231 95.0044 26.0019C94.5749 26.9492 94.3524 27.9386 94.3371 28.9434C94.3217 29.9099 94.502 30.581 94.8702 30.9338C95.016 31.0757 95.1886 31.1448 95.3995 31.1448C95.4992 31.1448 95.6067 31.1294 95.7217 31.0988C96.1245 30.9952 96.5963 30.627 97.1217 30.0096C97.6626 29.373 98.1995 28.4755 98.7097 27.3365C99.2237 26.1975 99.5842 25.139 99.7913 23.7622C99.7952 23.7431 99.799 23.7277 99.8067 23.7085C99.8911 23.5053 100.106 23.2637 100.654 23.2637C100.7 23.2637 100.754 23.2637 100.804 23.2675C101.268 23.2982 101.652 23.4132 101.935 23.605C102.051 23.6817 102.143 23.7546 102.219 23.8313C102.384 23.9962 102.457 24.2339 102.419 24.4525C101.97 26.8341 101.717 28.0269 101.667 28.4219C101.617 28.8207 101.586 29.1007 101.583 29.2502C101.529 29.906 101.552 30.3893 101.659 30.6999C101.74 30.9338 101.863 31.0336 102.085 31.0336C102.4 31.0336 102.772 30.8495 103.19 30.4851C103.635 30.1016 104.11 29.5072 104.601 28.7172C105.062 27.9808 105.449 27.1333 105.76 26.2013C106.04 24.441 106.323 22.6769 106.615 20.8782C106.68 20.5753 106.956 20.3912 107.436 20.3183C107.547 20.303 107.658 20.2915 107.769 20.2915C108.084 20.2915 108.395 20.3605 108.69 20.4986C109.258 20.7632 109.38 21.1314 109.384 21.3921C109.384 21.4113 109.38 21.4305 109.377 21.4497L109.323 21.6836C109.745 21.3308 110.197 21.1007 110.754 20.9166C111.858 20.5446 112.656 20.6673 113.366 20.8361C114.075 21.0048 114.536 21.2042 115.211 21.7066C115.985 22.2819 116.484 22.999 116.703 23.7392C116.944 24.5599 116.925 25.0278 116.86 25.8562C116.772 26.9492 116.549 27.8044 116.423 28.2186C116.265 28.7363 115.974 29.5302 115.667 30.0633C115.406 30.5158 115.276 30.6692 115.057 30.9223L114.915 31.0911C114.294 31.8236 113.634 32.372 112.951 32.7248C112.53 32.9434 111.824 33.3039 110.788 33.35C110.711 33.3538 110.635 33.3538 110.562 33.3538C109.933 33.3538 109.323 33.2387 108.751 33.0086C108.368 32.8552 108.011 32.652 107.7 32.4104C107.666 32.3835 107.628 32.372 107.589 32.372C107.524 32.372 107.447 32.4142 107.436 32.5062C107.294 33.534 107.16 34.5005 106.883 36.372C106.722 37.465 106.458 38.6424 106.454 38.6731C106.281 39.582 105.802 40 104.989 40ZM110.412 23.2445C109.707 23.5398 108.993 23.9271 108.836 24.4909C108.828 24.5177 108.809 24.5369 108.805 24.5638C108.494 26.3049 108.18 28.1764 107.873 30.1246C107.865 30.1822 107.877 30.2359 107.911 30.2742C108.237 30.6424 108.679 30.9147 109.216 31.0911C109.407 31.1524 109.603 31.1946 109.799 31.2176C109.902 31.2291 110.002 31.233 110.098 31.233C110.554 31.233 110.903 31.1179 111.068 31.0604C111.843 30.7996 112.131 30.5618 112.553 30.0173C112.986 29.4612 113.162 29.2272 113.377 28.6673C113.554 28.2071 113.78 27.5628 113.922 26.838C114.125 25.814 114.148 25.3768 114.114 24.9626C114.06 24.3413 113.937 23.9732 113.465 23.5475C112.564 22.7344 111.164 22.93 110.412 23.2445ZM33.7376 14.7804C33.4001 14.7804 32.6866 15.2713 31.7047 18.5542C31.2636 20.0614 30.9069 21.4535 30.6422 22.6846C30.6307 22.7421 30.6422 22.7919 30.6767 22.8341C30.7151 22.8802 30.7765 22.9108 30.834 22.9108C30.8762 22.9108 30.9107 22.8955 30.9452 22.861C31.3058 22.4736 31.6472 22.0441 31.9694 21.5839C32.5639 20.7363 33.028 19.8504 33.3502 18.953C33.7798 17.7488 34.0291 16.7057 34.0866 15.8504C34.1327 15.1716 34.0138 14.93 33.9409 14.8495C33.914 14.8188 33.8718 14.7843 33.7798 14.7804H33.7376Z" fill="#0D0248"/>
<path d="M142.359 21.3423C143.568 22.5503 143.568 24.5139 142.359 25.722C141.151 26.93 139.187 26.93 137.979 25.722C136.771 24.5139 134.262 17.6261 134.262 17.6261C134.262 17.6261 141.151 20.1342 142.359 21.3423Z" fill="#ED145B"/>
<path d="M132.452 17.6261C132.452 17.6261 129.943 24.5101 128.735 25.722C127.527 26.93 125.563 26.93 124.355 25.722C123.147 24.5139 123.147 22.5503 124.355 21.3423C125.563 20.1342 132.452 17.6261 132.452 17.6261Z" fill="#ED145B"/>
<path d="M142.359 7.72004C143.568 8.9281 143.568 10.8917 142.359 12.0997C141.151 13.3078 134.262 15.8159 134.262 15.8159C134.262 15.8159 136.771 8.93193 137.979 7.72004C139.191 6.50815 141.151 6.50815 142.359 7.72004Z" fill="#ED145B"/>
<path d="M128.735 7.72004C129.943 8.9281 132.452 15.8159 132.452 15.8159C132.452 15.8159 125.567 13.3078 124.355 12.0997C123.147 10.8917 123.147 8.9281 124.355 7.72004C125.563 6.50815 127.527 6.50815 128.735 7.72004Z" fill="#ED145B"/>
<path d="M150 16.721C150 18.4314 148.615 19.8159 146.905 19.8159C145.194 19.8159 135.137 16.721 135.137 16.721C135.137 16.721 145.194 13.6261 146.905 13.6261C148.615 13.6261 150 15.0105 150 16.721Z" fill="#ED145B"/>
<path d="M131.42 16.721C131.42 16.721 121.363 19.8159 119.652 19.8159C117.942 19.8159 116.557 18.4314 116.557 16.721C116.557 15.0105 117.942 13.6261 119.652 13.6261C121.363 13.6261 131.42 16.721 131.42 16.721Z" fill="#ED145B"/>
<path d="M133.277 33.442C131.566 33.442 130.181 32.0575 130.181 30.3471C130.181 28.6366 133.277 18.581 133.277 18.581C133.277 18.581 136.372 28.6366 136.372 30.3471C136.372 32.0575 134.987 33.442 133.277 33.442Z" fill="#ED145B"/>
<path d="M133.277 14.861C133.277 14.861 130.181 4.80537 130.181 3.09492C130.181 1.38447 131.566 0 133.277 0C134.987 0 136.372 1.38447 136.372 3.09492C136.372 4.80537 133.277 14.861 133.277 14.861Z" fill="#ED145B"/>
</svg>
