<svg width="151" height="42" viewBox="0 0 151 42" fill="none" xmlns="http://www.w3.org/2000/svg">
<path d="M20.9218 34.5274C19.9013 34.5274 19.0227 34.2934 18.3015 33.8254C17.5764 33.3573 17.0393 32.6821 16.7017 31.8227C16.3679 30.9787 16.2528 29.9122 16.3602 28.6577C16.4178 27.9556 16.5789 27.2037 16.8398 26.4249C17.1045 25.6422 17.5112 24.8903 18.0444 24.1959C18.5815 23.5015 19.2683 22.8992 20.0854 22.4081C20.9141 21.9132 21.8617 21.6408 22.9052 21.6025C22.9819 21.5986 23.0548 21.5986 23.1277 21.5986C24.2479 21.5986 25.1649 21.894 25.8593 22.481C26.592 23.0987 27.0792 23.9235 27.3094 24.9325C27.6125 26.2676 27.4821 27.3993 27.3555 28.1359C27.2097 28.9799 26.8375 30.0503 26.3311 31.0746C26.1777 31.3931 25.8861 31.7997 25.6521 32.1296L25.5025 32.3407C24.8349 33.1847 23.9679 33.8138 22.9934 34.1706C22.0343 34.5274 21.198 34.5274 20.9218 34.5274ZM23.0395 23.7662C22.9934 23.7662 22.9436 23.7662 22.8937 23.77C22.441 23.7892 21.9499 23.9964 21.432 24.3877C20.9064 24.7867 20.4269 25.4159 20.0164 26.2637C19.5982 27.1154 19.3527 27.9786 19.2798 28.8265C19.203 30.0119 19.3335 30.9288 19.6711 31.5427C19.9895 32.1181 20.4576 32.3944 21.1097 32.3944C21.6545 32.3944 22.0382 32.1872 22.2914 32.0491C22.6788 31.8381 23.0165 31.5465 23.2927 31.1859C23.4883 30.9826 23.638 30.7715 23.7569 30.5452C23.9449 30.1731 24.0408 29.9275 24.0907 29.7741C24.294 29.1871 24.5012 28.2625 24.6393 27.2996C24.7313 26.6551 24.7313 26.0834 24.6431 25.4427C24.574 24.944 24.3861 24.522 24.083 24.1882C23.8221 23.9043 23.4807 23.7662 23.0395 23.7662Z" fill="#0D0248"/>
<path d="M7.94309 18.629C8.16944 18.6329 8.74107 18.6904 9.03264 19.0549C9.3549 19.4577 9.28585 20.083 9.25899 20.2979C9.23214 20.5127 9.17075 20.7467 9.08635 21.0728C9.01729 21.3414 8.75642 22.8146 8.69504 23.1675C8.61063 23.6701 8.72573 24.0844 9.071 24.5026C9.40477 24.9016 9.95339 25.1049 10.4483 25.1203C10.5327 25.1241 10.5941 25.1241 10.6555 25.1241C11.3345 25.1241 11.9829 25.0819 12.5929 24.8786C13.2796 24.6484 13.9126 24.2916 14.3461 23.6241C14.7796 22.9565 15.1518 21.8747 15.1825 20.7928C15.2093 19.8682 14.7297 18.817 14.3039 18.1073C13.8781 17.3975 13.1069 16.8067 12.2974 16.3502C11.4841 15.8936 10.5327 15.6328 9.46232 15.5791C9.32421 15.5714 9.18994 15.5676 9.05566 15.5676C7.70524 15.5676 6.47374 15.9052 5.39186 16.5765C4.21791 17.3016 3.57723 18.23 3.35088 19.2927C3.12453 20.3554 3.56956 21.5562 4.4059 22.5537C4.55936 22.7839 4.57087 23.0333 4.45194 23.3133C4.34452 23.5704 4.11817 23.7814 3.78056 23.9348C3.60792 24.0154 3.43912 24.0538 3.28566 24.0538C3.11302 24.0538 2.95189 24.0077 2.80994 23.9118C2.16925 23.4207 1.77794 22.7801 1.47486 22.2123C1.14109 21.5831 1.05285 20.8465 0.99147 20.1483C0.907068 19.1738 1.06052 18.3528 1.49404 17.4858C1.91221 16.6494 2.21529 16.0586 3.14371 15.2645C3.90333 14.6161 4.70514 14.0867 5.77167 13.7721C6.77298 13.4729 7.83567 13.3232 8.93289 13.3232H9.13239C9.9227 13.3424 10.7936 13.469 11.7335 13.6954C12.6811 13.9256 13.5443 14.29 14.3039 14.7734C15.0635 15.2568 15.6275 15.8399 16.1185 16.4346C16.6134 17.0331 17.0776 17.7697 17.3193 18.5446C17.561 19.3119 17.7644 20.2749 17.7222 21.1304C17.6608 22.4041 17.35 23.4514 16.7899 24.3799C16.2298 25.3121 15.3551 26.1024 14.4459 26.5973C13.5405 27.0922 12.4854 27.3531 11.3153 27.3723H11.1619C10.6363 27.3723 10.103 27.3262 9.56974 27.238C9.47383 27.2227 9.37408 27.215 9.27817 27.215C8.74107 27.215 8.23466 27.5027 7.96611 27.9209C7.81265 28.1626 7.68605 28.4196 7.68605 28.5347L6.91876 33.2228C6.91493 33.3226 6.86122 34.0477 6.27424 34.3738C5.975 34.5387 5.67959 34.5234 5.62205 34.5196C5.19237 34.4927 4.81256 34.2357 4.60539 33.9518C4.26779 33.4914 4.35602 32.9159 4.39055 32.7011L6.53896 20.2672C6.64254 19.4385 7.19883 18.6214 7.94309 18.629Z" fill="#0D0248"/>
<path d="M105.979 41.0076C105.661 41.0076 105.385 40.8887 105.181 40.6662C104.901 40.3554 104.79 39.8643 104.859 39.2812C105.297 36.2274 105.431 35.7402 105.891 32.7401C105.899 32.6825 105.887 32.6327 105.849 32.5905C105.811 32.5444 105.749 32.5176 105.696 32.5176C105.653 32.5176 105.611 32.5367 105.58 32.5713C104.568 33.657 103.47 34.2094 102.32 34.2094C101.963 34.2094 101.579 34.0905 101.18 33.8488C100.766 33.6033 100.436 33.1582 100.198 32.5252C100.129 32.3449 100.075 32.1493 100.037 31.9498C100.014 31.8347 99.9179 31.781 99.8412 31.781C99.8028 31.781 99.7491 31.7925 99.7069 31.8577C99.212 32.6442 98.7248 33.2235 98.2567 33.5764C97.5547 34.1097 96.7874 34.3898 95.9855 34.4128H95.8705C95.1684 34.4128 94.5392 34.2286 94.006 33.868C93.4458 33.4882 92.9931 32.9012 92.667 32.1224C92.5596 31.873 92.4791 31.5968 92.4177 31.3053C92.3947 31.1978 92.3064 31.1403 92.2297 31.1403C92.1951 31.1403 92.1606 31.1518 92.1299 31.1748C91.9113 31.3475 91.6772 31.4971 91.4317 31.6198C91.0327 31.8193 90.6567 31.992 90.2884 32.1569C89.4943 32.5176 88.7462 32.8552 87.8561 33.4498L87.7948 33.492C87.0582 33.9831 86.4251 34.4089 84.7486 34.4089H84.6335C83.732 34.3859 83.0184 34.0521 82.5081 33.4153C82.2281 33.0662 82.0286 32.6518 81.9097 32.1876C81.8828 32.0764 81.7907 32.0303 81.7178 32.0303C81.668 32.0303 81.6296 32.0495 81.5951 32.0917C81.3802 32.3641 81.1462 32.6288 80.893 32.8705C80.3597 33.3884 79.7574 33.7759 79.1014 34.0291C78.4914 34.2631 77.8852 34.3821 77.2944 34.3821C77.2484 34.3821 77.1985 34.3821 77.1525 34.3782C76.2087 34.336 75.476 33.9677 74.9734 33.2887C74.5629 32.7324 74.3442 31.992 74.3212 31.0866C74.0143 31.3743 73.6959 31.593 73.3045 31.8654L73.105 32.0035C72.5449 32.3948 71.9273 32.6633 71.3288 32.9204C71.0449 33.0432 70.7533 33.1698 70.4656 33.3079C70.4157 33.3347 70.3582 33.3693 70.2814 33.4191C70.1165 33.5227 69.8633 33.6838 69.4029 33.9179C68.72 34.267 67.9834 34.4435 67.2123 34.4435H67.0818C66.6253 34.4435 66.1496 34.336 65.6739 34.1289C65.1905 33.9179 64.7761 33.6148 64.4347 33.2235C64.0933 32.8322 63.8477 32.3526 63.7058 31.7963C63.5638 31.2515 63.537 30.6531 63.6252 30.02C63.6904 29.7822 63.8324 29.6057 64.0472 29.4599C64.216 29.3487 64.4155 29.2911 64.6457 29.2911C64.7186 29.2911 64.7953 29.295 64.8721 29.3065C64.9334 29.3141 64.991 29.3257 65.0447 29.341C65.3631 29.4292 65.5818 29.7477 65.5549 30.0853C65.5012 30.726 65.6125 31.2439 65.8887 31.6275C66.1841 32.0342 66.5678 32.2337 67.0703 32.2337C67.4617 32.2337 67.7264 32.0649 67.9182 31.9383C67.9872 31.8922 68.0333 31.8654 68.0755 31.8424C68.2213 31.7541 68.2443 31.7426 68.532 31.3283C68.8926 30.8065 68.8389 29.9318 68.7967 29.5789L68.7699 29.3525C68.7353 29.0494 68.7238 28.9574 68.6586 28.6351C68.5243 28.0098 68.3594 27.6376 68.0294 26.901C67.9335 26.69 67.83 26.4483 67.7072 26.1644C67.1471 24.8677 66.8094 23.9738 66.679 23.4252C66.6522 23.3063 66.6253 23.195 66.6023 23.0914C66.5793 22.9879 66.491 22.9341 66.4105 22.9341C66.3606 22.9341 66.3184 22.9533 66.2915 22.9955C65.9808 23.4137 65.6624 23.9086 65.3516 24.4726C64.9526 25.1938 64.4692 26.2833 63.9206 27.7143C63.9168 27.7412 63.9091 27.7719 63.8976 27.8064C63.7825 28.1248 63.6597 28.4356 63.537 28.7348L63.4833 28.8806C63.4756 28.896 63.4641 28.9228 63.4487 28.942C62.7927 30.4958 62.0599 31.7196 61.262 32.5713C60.2491 33.657 59.1519 34.2056 58.001 34.2056C57.6442 34.2056 57.2606 34.0867 56.8616 33.845C56.4472 33.5994 56.1173 33.1544 55.8794 32.5214C55.8104 32.3411 55.7567 32.1454 55.7183 31.9459C55.6953 31.8308 55.5994 31.7771 55.5227 31.7771C55.4843 31.7771 55.4306 31.7886 55.3884 31.8539C54.8935 32.6403 54.4063 33.2196 53.9382 33.5726C53.2361 34.1059 52.4727 34.3859 51.667 34.4089H51.5519C50.8499 34.4089 50.2207 34.2248 49.6874 33.8641C49.1273 33.4843 48.6746 32.8974 48.3485 32.1186C48.2641 31.9152 48.1912 31.7004 48.1375 31.4702C47.516 32.3718 46.8331 33.0815 46.1157 33.5879C45.3177 34.1481 44.4852 34.4319 43.6412 34.4319C42.7588 34.4319 42.0107 34.1481 41.4122 33.5879C40.4224 32.6557 39.8662 31.006 39.7127 28.5507C39.6974 28.286 39.8393 28.052 40.081 27.9522C40.8982 27.6146 41.6002 27.2271 42.1757 26.8051C42.8049 26.3447 43.2729 25.8844 43.5683 25.4393C43.8522 25.0135 43.9903 24.6337 43.9788 24.3114C43.9673 24.0314 43.8599 23.8396 43.6335 23.7091C43.4686 23.6094 43.2921 23.5595 43.0811 23.5595C42.9085 23.5595 42.7128 23.594 42.5056 23.6592C42.0031 23.8165 41.4813 24.1234 40.9519 24.5723C40.4186 25.025 39.9391 25.589 39.5362 26.2488C39.1334 26.9049 38.8648 27.5993 38.7421 28.309C38.3968 30.3653 38.1359 32.1071 37.9671 33.4843C37.9249 33.7069 37.7715 33.8795 37.4952 34.0291C37.2497 34.1634 36.9159 34.2325 36.5093 34.2325C36.0911 34.2325 35.765 34.1634 35.5156 34.0214C35.366 33.937 35.2548 33.8258 35.1857 33.6954C35.0975 33.7567 35.0054 33.8104 34.9172 33.8641C34.2496 34.2555 33.4823 34.4511 32.6345 34.4511C32.3928 34.4511 32.1434 34.4358 31.8902 34.4051C30.2866 34.2171 29.2009 33.2465 28.6638 31.5239C28.1497 29.8743 28.1727 27.3307 28.7213 23.97C29.0628 21.8177 29.5768 19.8113 30.2521 18.0082C30.9349 16.182 31.7521 14.8891 32.6728 14.1641C33.1371 13.7919 33.6358 13.5541 34.1614 13.462C34.3148 13.4351 34.476 13.4198 34.6294 13.4198C35.0131 13.4198 35.4005 13.5042 35.7842 13.6691C36.3366 13.907 36.7817 14.3444 37.1039 14.9659C37.4147 15.5644 37.5873 16.2281 37.618 16.9455C37.6487 17.6514 37.549 18.4148 37.3188 19.2166C37.0003 20.3445 36.4978 21.4571 35.8187 22.5236C35.1397 23.5902 34.357 24.5032 33.49 25.236C32.6882 25.9151 31.9132 26.4752 31.1881 26.8972C31.1575 26.9125 31.1229 26.9471 31.1152 27.0046C31.0385 27.6837 31.0002 28.4318 31.0002 29.2297C31.0002 30.0661 31.1421 30.7912 31.4222 31.3781C31.6792 31.9152 32.0667 32.203 32.5999 32.2529C32.6959 32.2644 32.7841 32.272 32.8723 32.272C33.2023 32.272 33.5552 32.1915 33.9158 32.038C34.3839 31.8385 34.8596 31.4625 35.3353 30.9216C35.389 30.8602 35.4389 30.795 35.4926 30.7336L35.5118 30.7106C35.7075 29.5175 35.9223 28.2553 36.1525 26.9586C36.563 24.6375 37.1001 21.9137 37.7446 18.8637C38.393 15.7945 38.7459 14.0259 38.8035 13.7727C38.8073 13.7612 38.8111 13.7459 38.815 13.7344C38.9224 13.4735 39.2715 13.4006 39.5247 13.3699C39.5938 13.3622 39.6628 13.3584 39.7357 13.3584C40.035 13.3584 40.3726 13.4313 40.7447 13.5771C41.4238 13.8418 41.5427 14.2062 41.5273 14.4671C41.5197 14.5439 41.4966 14.7971 41.3892 15.2689C41.3125 15.6104 40.9979 17.026 40.4416 19.5159C40.1462 20.8471 39.9045 21.975 39.7242 22.8612C39.7127 22.9188 39.7242 22.9648 39.7587 23.007C39.7971 23.0531 39.8547 23.0799 39.9084 23.0799C39.9506 23.0799 39.9889 23.0646 40.0196 23.0301C40.081 22.9648 40.1424 22.9035 40.2076 22.8382C40.7294 22.3241 41.3662 21.9021 42.1028 21.5914C42.6821 21.3459 43.2461 21.2231 43.7793 21.2231C43.9366 21.2231 44.0939 21.2346 44.2474 21.2538C44.9303 21.3497 45.4597 21.5645 45.8165 21.8945C46.1694 22.2206 46.4341 22.6579 46.6106 23.195C46.7871 23.7398 46.7526 24.4227 46.5147 25.2245C46.2768 26.0225 45.7436 26.7859 44.9264 27.4957C44.186 28.1364 43.3113 28.6504 42.3215 29.0187C42.2524 29.0456 42.2064 29.1108 42.2141 29.1837C42.2831 30.0661 42.4711 30.8027 42.7703 31.3705C43.0734 31.9459 43.4916 32.2375 44.0402 32.2529C44.8612 32.2529 45.686 31.8078 46.4878 30.9331C47.1439 30.2157 47.727 29.2259 48.2219 27.9906C48.548 26.6171 49.1964 25.3281 50.1478 24.1465C51.41 22.5774 52.8985 21.6298 54.5789 21.3305C54.9894 21.2615 55.4229 21.2193 55.8718 21.2269C57.1033 21.2461 57.8706 21.6489 58.2695 22.0134C58.2811 22.0211 58.2887 22.0326 58.3002 22.0441C58.4806 22.2704 58.4575 22.5774 58.235 22.9495C58.0432 23.2718 57.8322 23.4827 57.5982 23.6017C57.4562 23.6707 57.3296 23.7053 57.2107 23.7053C57.0918 23.7053 56.9958 23.64 56.8884 23.6017C56.2286 23.3677 55.6224 23.4329 55.4114 23.4712C55.0661 23.525 54.6633 23.6861 54.2029 23.9431C53.7426 24.204 53.2783 24.6145 52.8218 25.167C52.3614 25.7232 51.974 26.3524 51.6747 27.0353C51.245 27.9829 51.0225 28.9727 51.0072 29.9778C50.9918 30.9446 51.1721 31.616 51.5404 31.969C51.6862 32.1109 51.8589 32.18 52.0699 32.18C52.1696 32.18 52.277 32.1646 52.3921 32.1339C52.7949 32.0303 53.2668 31.662 53.7924 31.0444C54.3334 30.4075 54.8705 29.5098 55.3807 28.3704C55.8948 27.231 56.2554 26.1721 56.4626 24.7948C56.4664 24.7756 56.4703 24.7603 56.4779 24.7411C56.5623 24.5378 56.7772 24.2961 57.3258 24.2961C57.3757 24.2961 57.4255 24.2961 57.4754 24.2999C57.9396 24.3306 58.3233 24.4457 58.6072 24.6375C58.7222 24.7143 58.8143 24.791 58.8911 24.8639C59.056 25.0288 59.1289 25.2667 59.0867 25.4892C58.6378 27.8716 58.3885 29.0648 58.3386 29.4599C58.2887 29.8589 58.258 30.139 58.2542 30.2886C58.2005 30.9446 58.2273 31.4319 58.3309 31.7349C58.4115 31.9728 58.5343 32.0687 58.7568 32.0687C59.0714 32.0687 59.4397 31.8846 59.8617 31.5201C60.3067 31.1364 60.7824 30.5418 61.2735 29.7515C61.5957 29.2336 61.8911 28.6428 62.152 27.9982C63.3643 24.4802 64.6802 22.0403 66.0652 20.7589C66.4719 20.3829 66.8977 20.1412 67.3312 20.0338C67.5154 19.9878 67.6918 19.9647 67.8568 19.9647C68.0985 19.9647 68.3249 20.0146 68.5243 20.1105C68.8811 20.2832 69.1152 20.5632 69.1957 20.9239C69.2648 21.2308 69.2034 21.5492 69.0077 21.8676C68.9924 21.8945 68.9732 21.9367 68.977 21.9789C69.0269 22.2666 69.0998 22.5927 69.1957 22.9495C69.307 23.3677 69.4336 23.7628 69.5717 24.1273C69.7098 24.4956 70.1165 25.447 70.7802 26.9547C71.2942 28.1248 71.5206 29.4292 71.4209 30.6262C71.417 30.6876 71.4439 30.7336 71.4669 30.7566C71.5053 30.7988 71.559 30.8219 71.6088 30.8219C71.6319 30.8219 71.6587 30.818 71.6817 30.8065C72.8902 30.2694 74.1025 28.8154 74.7739 27.1043C74.9235 26.3409 75.1192 25.493 75.3532 24.5531C75.6831 23.2449 75.8865 22.4201 75.9555 22.0978C75.967 22.0479 75.9824 21.9827 76.0246 21.9175C76.1512 21.718 76.3775 21.576 76.7151 21.4801C76.8571 21.4418 77.0105 21.4188 77.1755 21.4188C77.4172 21.4188 77.6896 21.4648 77.9735 21.5569C78.7293 21.7947 78.783 22.186 78.7484 22.4009C77.9658 25.4624 77.4632 27.9484 77.2599 29.8014C77.1103 30.9983 77.2215 31.5047 77.3366 31.7196C77.4901 32.0035 77.7164 32.1493 78.0464 32.18C78.0617 32.18 78.1116 32.18 78.1116 32.18C78.6717 32.18 79.3162 31.8078 80.0337 31.0712C80.8009 30.2809 81.3879 29.1684 81.7792 27.7642L83.122 22.0594C83.1258 22.0479 83.1297 22.0364 83.1335 22.0249C83.1987 21.8599 83.3368 21.7218 83.5478 21.5991C83.7512 21.4801 84.0159 21.4226 84.3535 21.4226C84.6757 21.4226 84.9942 21.484 85.3049 21.5991C85.8267 21.7947 85.9034 22.14 85.8996 22.328C85.8996 22.351 85.8957 22.3702 85.8919 22.3894C85.8612 22.4968 85.7193 23.0262 85.2244 24.9329C84.8254 26.456 84.5453 27.9829 84.3842 29.4714C84.2652 30.4727 84.2691 31.1978 84.3957 31.6314C84.53 32.0841 84.7755 32.1416 84.998 32.1416C85.374 32.1416 85.7615 32.015 86.1604 31.7656C86.5249 31.5354 86.8433 31.24 87.1042 30.8832C87.2001 30.7375 87.2653 30.6377 87.3306 30.5418C87.4572 30.3577 87.5876 30.1658 87.9981 29.4906C88.5966 28.5046 89.0723 27.0967 89.2603 26.2028C89.5173 24.9828 89.7091 22.938 89.736 22.0096C89.7475 21.576 90.3153 21.4494 90.4995 21.4072C90.6683 21.3689 90.8409 21.3497 91.0097 21.3497C91.2744 21.3497 91.5391 21.3957 91.8 21.4878C92.41 21.7065 92.5635 22.0633 92.5865 22.328C92.6364 23.1452 92.5711 24.0314 92.3985 24.9675C92.034 26.9509 91.9419 27.3 91.5084 28.378C91.4087 28.6274 91.2859 28.896 91.1478 29.176C91.1171 29.2374 91.121 29.295 91.1555 29.3487C91.1938 29.4062 91.2591 29.4446 91.3204 29.4446C91.3588 29.4446 91.3972 29.4292 91.4317 29.3985C91.6082 29.2412 91.7655 29.0686 91.9036 28.8845C92.2067 28.4778 92.4062 27.9982 92.5826 27.5724C92.6632 27.3806 92.7361 27.2079 92.809 27.0583C93.1696 26.0263 93.7297 25.0365 94.4702 24.1119C95.7323 22.5428 97.2209 21.5952 98.9012 21.296C99.3117 21.2269 99.7453 21.1617 100.194 21.1924C101.449 21.2768 102.25 21.4111 102.649 21.7794C102.661 21.787 102.669 21.7986 102.676 21.8101C102.857 22.0364 102.837 22.3433 102.611 22.7155C102.415 23.0377 102.208 23.2526 101.974 23.3677C101.832 23.4367 101.706 23.4828 101.587 23.4712C101.226 23.4367 101.019 23.3984 100.386 23.3792C100.16 23.3792 99.9371 23.3984 99.7299 23.4406C99.3846 23.4943 98.9818 23.6554 98.5214 23.9124C98.0611 24.1733 97.5969 24.5838 97.1403 25.1363C96.6761 25.6964 96.2925 26.3256 95.9932 27.0046C95.5635 27.9522 95.341 28.942 95.3257 29.9472C95.3103 30.9139 95.4907 31.5853 95.859 31.9383C96.0047 32.0802 96.1774 32.1493 96.3884 32.1493C96.4881 32.1493 96.5956 32.1339 96.7106 32.1032C97.1135 31.9996 97.5854 31.6313 98.1109 31.0137C98.6519 30.3768 99.189 29.4791 99.6992 28.3397C100.213 27.2003 100.574 26.1414 100.781 24.7641C100.785 24.7449 100.789 24.7296 100.796 24.7104C100.881 24.5071 101.096 24.2654 101.644 24.2654C101.69 24.2654 101.744 24.2654 101.794 24.2692C102.258 24.2999 102.642 24.415 102.926 24.6068C103.041 24.6836 103.133 24.7565 103.21 24.8332C103.375 24.9982 103.447 25.236 103.409 25.4547C102.96 27.8371 102.707 29.0302 102.657 29.4254C102.607 29.8244 102.577 30.1045 102.573 30.2541C102.519 30.9101 102.542 31.3935 102.649 31.7042C102.73 31.9383 102.853 32.038 103.075 32.038C103.39 32.038 103.762 31.8539 104.18 31.4894C104.625 31.1058 105.101 30.5111 105.592 29.7208C106.052 28.9842 106.44 28.1364 106.751 27.2041C107.031 25.4432 107.315 23.6784 107.606 21.8791C107.671 21.576 107.948 21.3919 108.427 21.319C108.538 21.3037 108.65 21.2921 108.761 21.2921C109.075 21.2921 109.386 21.3612 109.682 21.4993C110.249 21.764 110.372 22.1323 110.376 22.3932C110.376 22.4124 110.372 22.4316 110.368 22.4507L110.315 22.6848C110.737 22.3318 111.189 22.1016 111.746 21.9175C112.851 21.5454 113.649 21.6681 114.358 21.8369C115.068 22.0057 115.528 22.2052 116.204 22.7078C116.979 23.2833 117.477 24.0007 117.696 24.7411C117.938 25.5621 117.918 26.0302 117.853 26.8588C117.765 27.9522 117.542 28.8077 117.416 29.2221C117.259 29.74 116.967 30.5341 116.66 31.0674C116.399 31.5201 116.269 31.6735 116.05 31.9268L115.908 32.0956C115.287 32.8283 114.627 33.3769 113.944 33.7299C113.522 33.9486 112.816 34.3092 111.78 34.3552C111.703 34.3591 111.627 34.3591 111.554 34.3591C110.925 34.3591 110.315 34.244 109.743 34.0138C109.359 33.8603 109.003 33.657 108.692 33.4153C108.657 33.3884 108.619 33.3769 108.581 33.3769C108.515 33.3769 108.439 33.4191 108.427 33.5112C108.285 34.5394 108.151 35.5061 107.875 37.3783C107.714 38.4717 107.449 39.6495 107.445 39.6802C107.272 40.5894 106.793 41.0076 105.979 41.0076ZM111.404 24.2462C110.698 24.5416 109.985 24.9291 109.827 25.4931C109.82 25.5199 109.801 25.5391 109.797 25.5659C109.486 27.3077 109.171 29.1799 108.864 31.1288C108.857 31.1863 108.868 31.24 108.903 31.2784C109.229 31.6467 109.67 31.9191 110.207 32.0956C110.399 32.1569 110.595 32.1991 110.79 32.2222C110.894 32.2337 110.994 32.2375 111.09 32.2375C111.546 32.2375 111.895 32.1224 112.06 32.0649C112.835 31.804 113.123 31.5661 113.545 31.0214C113.978 30.4651 114.155 30.231 114.37 29.6709C114.546 29.2106 114.773 28.566 114.915 27.841C115.118 26.8166 115.141 26.3793 115.106 25.9649C115.053 25.3434 114.93 24.9751 114.458 24.5493C113.556 23.736 112.156 23.9316 111.404 24.2462ZM34.7138 15.7792C34.3762 15.7792 33.6626 16.2703 32.6805 19.5542C32.2393 21.062 31.8825 22.4546 31.6178 23.6861C31.6063 23.7436 31.6178 23.7935 31.6523 23.8357C31.6907 23.8817 31.7521 23.9124 31.8096 23.9124C31.8518 23.9124 31.8864 23.8971 31.9209 23.8626C32.2815 23.4751 32.623 23.0454 32.9452 22.585C33.5399 21.7372 34.0041 20.851 34.3263 19.9532C34.756 18.7486 35.0054 17.7051 35.0629 16.8496C35.109 16.1705 34.9901 15.9288 34.9172 15.8482C34.8903 15.8176 34.8481 15.783 34.756 15.7792H34.7138Z" fill="#0D0248"/>
<path d="M143.358 22.3435C144.566 23.552 144.566 25.5162 143.358 26.7247C142.149 27.9332 140.185 27.9332 138.976 26.7247C137.768 25.5162 135.259 18.626 135.259 18.626C135.259 18.626 142.149 21.135 143.358 22.3435Z" fill="#ED145B"/>
<path d="M133.448 18.626C133.448 18.626 130.939 25.5124 129.73 26.7247C128.522 27.9332 126.558 27.9332 125.349 26.7247C124.141 25.5162 124.141 23.552 125.349 22.3435C126.558 21.135 133.448 18.626 133.448 18.626Z" fill="#ED145B"/>
<path d="M143.358 8.71588C144.566 9.92435 144.566 11.8886 143.358 13.0971C142.149 14.3056 135.259 16.8146 135.259 16.8146C135.259 16.8146 137.768 9.92819 138.976 8.71588C140.189 7.50356 142.149 7.50356 143.358 8.71588Z" fill="#ED145B"/>
<path d="M129.73 8.71588C130.939 9.92435 133.448 16.8146 133.448 16.8146C133.448 16.8146 126.562 14.3056 125.349 13.0971C124.141 11.8886 124.141 9.92435 125.349 8.71588C126.558 7.50356 128.522 7.50356 129.73 8.71588Z" fill="#ED145B"/>
<path d="M151 17.72C151 19.4311 149.615 20.816 147.904 20.816C146.193 20.816 136.134 17.72 136.134 17.72C136.134 17.72 146.193 14.624 147.904 14.624C149.615 14.624 151 16.009 151 17.72Z" fill="#ED145B"/>
<path d="M132.416 17.72C132.416 17.72 122.357 20.816 120.646 20.816C118.935 20.816 117.55 19.4311 117.55 17.72C117.55 16.009 118.935 14.624 120.646 14.624C122.357 14.624 132.416 17.72 132.416 17.72Z" fill="#ED145B"/>
<path d="M134.273 34.4473C132.562 34.4473 131.177 33.0623 131.177 31.3512C131.177 29.6402 134.273 19.5811 134.273 19.5811C134.273 19.5811 137.369 29.6402 137.369 31.3512C137.369 33.0623 135.984 34.4473 134.273 34.4473Z" fill="#ED145B"/>
<path d="M134.273 15.8594C134.273 15.8594 131.177 5.80022 131.177 4.08917C131.177 2.37812 132.562 0.993164 134.273 0.993164C135.984 0.993164 137.369 2.37812 137.369 4.08917C137.369 5.80022 134.273 15.8594 134.273 15.8594Z" fill="#ED145B"/>
</svg>
