<svg width="150" height="40" viewBox="0 0 150 40" xmlns="http://www.w3.org/2000/svg">
<path fill="#0D0248" d="M19.9,33.5c-1,0-1.9-0.2-2.6-0.7c-0.7-0.5-1.3-1.1-1.6-2c-0.3-0.8-0.4-1.9-0.3-3.2c0.1-0.7,0.2-1.5,0.5-2.2
	c0.3-0.8,0.7-1.5,1.2-2.2c0.5-0.7,1.2-1.3,2-1.8c0.8-0.5,1.8-0.8,2.8-0.8c0.1,0,0.1,0,0.2,0c1.1,0,2,0.3,2.7,0.9
	c0.7,0.6,1.2,1.4,1.4,2.5c0.3,1.3,0.2,2.5,0,3.2c-0.1,0.8-0.5,1.9-1,2.9c-0.2,0.3-0.4,0.7-0.7,1.1l-0.1,0.2
	c-0.7,0.8-1.5,1.5-2.5,1.8C21.1,33.5,20.2,33.5,19.9,33.5z M22.1,22.8c0,0-0.1,0-0.1,0c-0.5,0-0.9,0.2-1.5,0.6c-0.5,0.4-1,1-1.4,1.9
	c-0.4,0.9-0.7,1.7-0.7,2.6c-0.1,1.2,0.1,2.1,0.4,2.7c0.3,0.6,0.8,0.9,1.4,0.9c0.5,0,0.9-0.2,1.2-0.3c0.4-0.2,0.7-0.5,1-0.9
	c0.2-0.2,0.3-0.4,0.5-0.6c0.2-0.4,0.3-0.6,0.3-0.8c0.2-0.6,0.4-1.5,0.5-2.5c0.1-0.6,0.1-1.2,0-1.9c-0.1-0.5-0.3-0.9-0.6-1.3
	C22.8,22.9,22.5,22.8,22.1,22.8z M7,17.6c0.2,0,0.8,0.1,1.1,0.4c0.3,0.4,0.3,1,0.2,1.2c0,0.2-0.1,0.4-0.2,0.8
	c-0.1,0.3-0.3,1.7-0.4,2.1c-0.1,0.5,0,0.9,0.4,1.3c0.3,0.4,0.9,0.6,1.4,0.6c0.1,0,0.1,0,0.2,0c0.7,0,1.3,0,1.9-0.2
	c0.7-0.2,1.3-0.6,1.8-1.3c0.4-0.7,0.8-1.7,0.8-2.8c0-0.9-0.5-2-0.9-2.7c-0.4-0.7-1.2-1.3-2-1.8c-0.8-0.5-1.8-0.7-2.8-0.8
	c-0.1,0-0.3,0-0.4,0c-1.4,0-2.6,0.3-3.7,1c-1.2,0.7-1.8,1.7-2,2.7c-0.2,1.1,0.2,2.3,1.1,3.3c0.2,0.2,0.2,0.5,0,0.8
	c-0.1,0.3-0.3,0.5-0.7,0.6c-0.2,0.1-0.3,0.1-0.5,0.1c-0.2,0-0.3,0-0.5-0.1c-0.6-0.5-1-1.1-1.3-1.7c-0.3-0.6-0.4-1.4-0.5-2.1
	c-0.1-1,0.1-1.8,0.5-2.7c0.4-0.8,0.7-1.4,1.6-2.2c0.8-0.6,1.6-1.2,2.6-1.5c1-0.3,2.1-0.4,3.2-0.4h0.2c0.8,0,1.7,0.1,2.6,0.4
	c0.9,0.2,1.8,0.6,2.6,1.1c0.8,0.5,1.3,1.1,1.8,1.7c0.5,0.6,1,1.3,1.2,2.1c0.2,0.8,0.4,1.7,0.4,2.6c-0.1,1.3-0.4,2.3-0.9,3.2
	c-0.6,0.9-1.4,1.7-2.3,2.2c-0.9,0.5-2,0.8-3.1,0.8h-0.2c-0.5,0-1.1,0-1.6-0.1c-0.1,0-0.2,0-0.3,0c-0.5,0-1,0.3-1.3,0.7
	c-0.2,0.2-0.3,0.5-0.3,0.6l-0.8,4.7c0,0.1-0.1,0.8-0.6,1.2c-0.3,0.2-0.6,0.1-0.7,0.1c-0.4,0-0.8-0.3-1-0.6c-0.3-0.5-0.2-1-0.2-1.3
	l2.1-12.4C5.7,18.4,6.2,17.6,7,17.6z M105,40c-0.3,0-0.6-0.1-0.8-0.3c-0.3-0.3-0.4-0.8-0.3-1.4c0.4-3.1,0.6-3.5,1-6.5
	c0-0.1,0-0.1,0-0.1c0,0-0.1-0.1-0.2-0.1c0,0-0.1,0-0.1,0.1c-1,1.1-2.1,1.6-3.3,1.6c-0.4,0-0.7-0.1-1.1-0.4c-0.4-0.2-0.7-0.7-1-1.3
	c-0.1-0.2-0.1-0.4-0.2-0.6c0-0.1-0.1-0.2-0.2-0.2c0,0-0.1,0-0.1,0.1c-0.5,0.8-1,1.4-1.4,1.7c-0.7,0.5-1.5,0.8-2.3,0.8h-0.1
	c-0.7,0-1.3-0.2-1.9-0.5c-0.6-0.4-1-1-1.3-1.7c-0.1-0.2-0.2-0.5-0.2-0.8c0-0.1-0.1-0.2-0.2-0.2c0,0-0.1,0-0.1,0
	c-0.2,0.2-0.5,0.3-0.7,0.4c-0.4,0.2-0.8,0.4-1.1,0.5c-0.8,0.4-1.5,0.7-2.4,1.3l-0.1,0c-0.7,0.5-1.4,0.9-3,0.9h-0.1
	c-0.9,0-1.6-0.4-2.1-1c-0.3-0.3-0.5-0.8-0.6-1.2c0-0.1-0.1-0.2-0.2-0.2c0,0-0.1,0-0.1,0.1c-0.2,0.3-0.4,0.5-0.7,0.8
	c-0.5,0.5-1.1,0.9-1.8,1.2c-0.6,0.2-1.2,0.4-1.8,0.4c0,0-0.1,0-0.1,0c-0.9,0-1.7-0.4-2.2-1.1c-0.4-0.6-0.6-1.3-0.7-2.2
	c-0.3,0.3-0.6,0.5-1,0.8L72.1,31c-0.6,0.4-1.2,0.7-1.8,0.9c-0.3,0.1-0.6,0.2-0.9,0.4c0,0-0.1,0.1-0.2,0.1c-0.2,0.1-0.4,0.3-0.9,0.5
	c-0.7,0.3-1.4,0.5-2.2,0.5h-0.1c-0.5,0-0.9-0.1-1.4-0.3c-0.5-0.2-0.9-0.5-1.2-0.9c-0.3-0.4-0.6-0.9-0.7-1.4
	c-0.1-0.5-0.2-1.1-0.1-1.8c0.1-0.2,0.2-0.4,0.4-0.6c0.2-0.1,0.4-0.2,0.6-0.2c0.1,0,0.1,0,0.2,0c0.1,0,0.1,0,0.2,0
	c0.3,0.1,0.5,0.4,0.5,0.7c-0.1,0.6,0.1,1.2,0.3,1.5c0.3,0.4,0.7,0.6,1.2,0.6c0.4,0,0.7-0.2,0.8-0.3c0.1,0,0.1-0.1,0.2-0.1
	c0.1-0.1,0.2-0.1,0.5-0.5c0.4-0.5,0.3-1.4,0.3-1.7l0-0.2c0-0.3,0-0.4-0.1-0.7c-0.1-0.6-0.3-1-0.6-1.7c-0.1-0.2-0.2-0.5-0.3-0.7
	c-0.6-1.3-0.9-2.2-1-2.7c0-0.1-0.1-0.2-0.1-0.3c0-0.1-0.1-0.2-0.2-0.2c0,0-0.1,0-0.1,0.1c-0.3,0.4-0.6,0.9-0.9,1.5
	c-0.4,0.7-0.9,1.8-1.4,3.2c0,0,0,0.1,0,0.1c-0.1,0.3-0.2,0.6-0.4,0.9l-0.1,0.1c0,0,0,0,0,0.1c-0.7,1.6-1.4,2.8-2.2,3.6
	c-1,1.1-2.1,1.6-3.3,1.6c-0.4,0-0.7-0.1-1.1-0.4c-0.4-0.2-0.7-0.7-1-1.3c-0.1-0.2-0.1-0.4-0.2-0.6c0-0.1-0.1-0.2-0.2-0.2
	c0,0-0.1,0-0.1,0.1c-0.5,0.8-1,1.4-1.4,1.7c-0.7,0.5-1.5,0.8-2.3,0.8h-0.1c-0.7,0-1.3-0.2-1.9-0.5c-0.6-0.4-1-1-1.3-1.7
	c-0.1-0.2-0.2-0.4-0.2-0.6c-0.6,0.9-1.3,1.6-2,2.1c-0.8,0.6-1.6,0.8-2.5,0.8c-0.9,0-1.6-0.3-2.2-0.8c-1-0.9-1.5-2.6-1.7-5
	c0-0.3,0.1-0.5,0.4-0.6c0.8-0.3,1.5-0.7,2.1-1.1c0.6-0.5,1.1-0.9,1.4-1.4c0.3-0.4,0.4-0.8,0.4-1.1c0-0.3-0.1-0.5-0.3-0.6
	c-0.2-0.1-0.3-0.1-0.6-0.1c-0.2,0-0.4,0-0.6,0.1c-0.5,0.2-1,0.5-1.6,0.9c-0.5,0.5-1,1-1.4,1.7c-0.4,0.7-0.7,1.3-0.8,2.1
	c-0.3,2.1-0.6,3.8-0.8,5.2c0,0.2-0.2,0.4-0.5,0.5c-0.2,0.1-0.6,0.2-1,0.2c-0.4,0-0.7-0.1-1-0.2c-0.1-0.1-0.3-0.2-0.3-0.3
	c-0.1,0.1-0.2,0.1-0.3,0.2c-0.7,0.4-1.4,0.6-2.3,0.6c-0.2,0-0.5,0-0.7,0c-1.6-0.2-2.7-1.2-3.2-2.9c-0.5-1.6-0.5-4.2,0.1-7.6
	c0.3-2.2,0.9-4.2,1.5-6c0.7-1.8,1.5-3.1,2.4-3.8c0.5-0.4,1-0.6,1.5-0.7c0.2,0,0.3,0,0.5,0c0.4,0,0.8,0.1,1.2,0.2
	c0.6,0.2,1,0.7,1.3,1.3c0.3,0.6,0.5,1.3,0.5,2c0,0.7-0.1,1.5-0.3,2.3c-0.3,1.1-0.8,2.2-1.5,3.3c-0.7,1.1-1.5,2-2.3,2.7
	c-0.8,0.7-1.6,1.2-2.3,1.7c0,0-0.1,0-0.1,0.1c-0.1,0.7-0.1,1.4-0.1,2.2c0,0.8,0.1,1.6,0.4,2.1c0.3,0.5,0.6,0.8,1.2,0.9
	c0.1,0,0.2,0,0.3,0c0.3,0,0.7-0.1,1-0.2c0.5-0.2,0.9-0.6,1.4-1.1c0.1-0.1,0.1-0.1,0.2-0.2l0,0c0.2-1.2,0.4-2.5,0.6-3.8
	c0.4-2.3,0.9-5,1.6-8.1c0.6-3.1,1-4.8,1.1-5.1c0,0,0,0,0,0c0.1-0.3,0.5-0.3,0.7-0.4c0.1,0,0.1,0,0.2,0c0.3,0,0.6,0.1,1,0.2
	c0.7,0.3,0.8,0.6,0.8,0.9c0,0.1,0,0.3-0.1,0.8c-0.1,0.3-0.4,1.8-0.9,4.2c-0.3,1.3-0.5,2.5-0.7,3.3c0,0.1,0,0.1,0,0.1
	c0,0,0.1,0.1,0.1,0.1c0,0,0.1,0,0.1,0c0.1-0.1,0.1-0.1,0.2-0.2c0.5-0.5,1.2-0.9,1.9-1.2c0.6-0.2,1.1-0.4,1.7-0.4c0.2,0,0.3,0,0.5,0
	c0.7,0.1,1.2,0.3,1.6,0.6c0.4,0.3,0.6,0.8,0.8,1.3c0.2,0.5,0.1,1.2-0.1,2c-0.2,0.8-0.8,1.6-1.6,2.3c-0.7,0.6-1.6,1.2-2.6,1.5
	c-0.1,0-0.1,0.1-0.1,0.2c0.1,0.9,0.3,1.6,0.6,2.2c0.3,0.6,0.7,0.9,1.3,0.9c0.8,0,1.6-0.4,2.4-1.3c0.7-0.7,1.2-1.7,1.7-2.9
	c0.3-1.4,1-2.7,1.9-3.8c1.3-1.6,2.8-2.5,4.4-2.8c0.4-0.1,0.8-0.1,1.3-0.1c1.2,0,2,0.4,2.4,0.8c0,0,0,0,0,0c0.2,0.2,0.2,0.5-0.1,0.9
	c-0.2,0.3-0.4,0.5-0.6,0.7c-0.1,0.1-0.3,0.1-0.4,0.1s-0.2-0.1-0.3-0.1c-0.7-0.2-1.3-0.2-1.5-0.1c-0.3,0.1-0.7,0.2-1.2,0.5
	c-0.5,0.3-0.9,0.7-1.4,1.2c-0.5,0.6-0.8,1.2-1.1,1.9C50.3,27,50,28,50,29c0,1,0.2,1.6,0.5,2c0.1,0.1,0.3,0.2,0.5,0.2
	c0.1,0,0.2,0,0.3,0c0.4-0.1,0.9-0.5,1.4-1.1c0.5-0.6,1.1-1.5,1.6-2.7c0.5-1.1,0.9-2.2,1.1-3.6c0,0,0,0,0-0.1
	c0.1-0.2,0.3-0.4,0.8-0.4c0,0,0.1,0,0.1,0c0.5,0,0.8,0.1,1.1,0.3c0.1,0.1,0.2,0.2,0.3,0.2c0.2,0.2,0.2,0.4,0.2,0.6
	c-0.4,2.4-0.7,3.6-0.7,4c0,0.4-0.1,0.7-0.1,0.8c-0.1,0.7,0,1.1,0.1,1.4c0.1,0.2,0.2,0.3,0.4,0.3c0.3,0,0.7-0.2,1.1-0.5
	c0.4-0.4,0.9-1,1.4-1.8c0.3-0.5,0.6-1.1,0.9-1.8c1.2-3.5,2.5-6,3.9-7.2c0.4-0.4,0.8-0.6,1.3-0.7c0.2,0,0.4-0.1,0.5-0.1
	c0.2,0,0.5,0,0.7,0.1c0.4,0.2,0.6,0.5,0.7,0.8c0.1,0.3,0,0.6-0.2,0.9c0,0,0,0.1,0,0.1c0,0.3,0.1,0.6,0.2,1c0.1,0.4,0.2,0.8,0.4,1.2
	c0.1,0.4,0.5,1.3,1.2,2.8c0.5,1.2,0.7,2.5,0.6,3.7c0,0.1,0,0.1,0,0.1c0,0,0.1,0.1,0.1,0.1c0,0,0,0,0.1,0c1.2-0.5,2.4-2,3.1-3.7
	c0.1-0.8,0.3-1.6,0.6-2.6c0.3-1.3,0.5-2.1,0.6-2.5c0,0,0-0.1,0.1-0.2c0.1-0.2,0.4-0.3,0.7-0.4c0.1,0,0.3-0.1,0.5-0.1
	c0.2,0,0.5,0,0.8,0.1c0.8,0.2,0.8,0.6,0.8,0.8c-0.8,3.1-1.3,5.5-1.5,7.4c-0.1,1.2,0,1.7,0.1,1.9c0.2,0.3,0.4,0.4,0.7,0.5
	c0,0,0.1,0,0.1,0c0.6,0,1.2-0.4,1.9-1.1c0.8-0.8,1.4-1.9,1.7-3.3l1.3-5.7c0,0,0,0,0,0c0.1-0.2,0.2-0.3,0.4-0.4
	c0.2-0.1,0.5-0.2,0.8-0.2c0.3,0,0.6,0.1,1,0.2c0.5,0.2,0.6,0.5,0.6,0.7c0,0,0,0,0,0.1c0,0.1-0.2,0.6-0.7,2.5c-0.4,1.5-0.7,3-0.8,4.5
	c-0.1,1-0.1,1.7,0,2.2c0.1,0.5,0.4,0.5,0.6,0.5c0.4,0,0.8-0.1,1.2-0.4c0.4-0.2,0.7-0.5,0.9-0.9c0.1-0.1,0.2-0.2,0.2-0.3
	c0.1-0.2,0.3-0.4,0.7-1.1c0.6-1,1.1-2.4,1.3-3.3c0.3-1.2,0.4-3.3,0.5-4.2c0-0.4,0.6-0.6,0.8-0.6c0.2,0,0.3-0.1,0.5-0.1
	c0.3,0,0.5,0,0.8,0.1c0.6,0.2,0.8,0.6,0.8,0.8c0,0.8,0,1.7-0.2,2.6c-0.4,2-0.5,2.3-0.9,3.4c-0.1,0.2-0.2,0.5-0.4,0.8
	c0,0.1,0,0.1,0,0.2c0,0.1,0.1,0.1,0.2,0.1c0,0,0.1,0,0.1,0c0.2-0.2,0.3-0.3,0.5-0.5c0.3-0.4,0.5-0.9,0.7-1.3
	c0.1-0.2,0.2-0.4,0.2-0.5c0.4-1,0.9-2,1.7-2.9c1.3-1.6,2.8-2.5,4.4-2.8c0.4-0.1,0.8-0.1,1.3-0.1c1.3,0.1,2.1,0.2,2.5,0.6
	c0,0,0,0,0,0c0.2,0.2,0.2,0.5-0.1,0.9c-0.2,0.3-0.4,0.5-0.6,0.7c-0.1,0.1-0.3,0.1-0.4,0.1c-0.4,0-0.6-0.1-1.2-0.1
	c-0.2,0-0.4,0-0.7,0.1c-0.3,0.1-0.7,0.2-1.2,0.5c-0.5,0.3-0.9,0.7-1.4,1.2c-0.5,0.6-0.8,1.2-1.1,1.9c-0.4,0.9-0.7,1.9-0.7,2.9
	c0,1,0.2,1.6,0.5,2c0.1,0.1,0.3,0.2,0.5,0.2c0.1,0,0.2,0,0.3,0c0.4-0.1,0.9-0.5,1.4-1.1c0.5-0.6,1.1-1.5,1.6-2.7
	c0.5-1.1,0.9-2.2,1.1-3.6c0,0,0,0,0-0.1c0.1-0.2,0.3-0.4,0.8-0.4c0,0,0.1,0,0.2,0c0.5,0,0.8,0.1,1.1,0.3c0.1,0.1,0.2,0.1,0.3,0.2
	c0.2,0.2,0.2,0.4,0.2,0.6c-0.4,2.4-0.7,3.6-0.8,4c-0.1,0.4-0.1,0.7-0.1,0.8c-0.1,0.7,0,1.1,0.1,1.4c0.1,0.2,0.2,0.3,0.4,0.3
	c0.3,0,0.7-0.2,1.1-0.5c0.4-0.4,0.9-1,1.4-1.8c0.5-0.7,0.8-1.6,1.2-2.5c0.3-1.8,0.6-3.5,0.9-5.3c0.1-0.3,0.3-0.5,0.8-0.6
	c0.1,0,0.2,0,0.3,0c0.3,0,0.6,0.1,0.9,0.2c0.6,0.3,0.7,0.6,0.7,0.9c0,0,0,0,0,0.1l-0.1,0.2c0.4-0.4,0.9-0.6,1.4-0.8
	c1.1-0.4,1.9-0.2,2.6-0.1c0.7,0.2,1.2,0.4,1.8,0.9c0.8,0.6,1.3,1.3,1.5,2c0.2,0.8,0.2,1.3,0.2,2.1c-0.1,1.1-0.3,1.9-0.4,2.4
	c-0.2,0.5-0.4,1.3-0.8,1.8c-0.3,0.5-0.4,0.6-0.6,0.9l-0.1,0.2c-0.6,0.7-1.3,1.3-2,1.6c-0.4,0.2-1.1,0.6-2.2,0.6c-0.1,0-0.2,0-0.2,0
	c-0.6,0-1.2-0.1-1.8-0.3c-0.4-0.2-0.7-0.4-1.1-0.6c0,0-0.1,0-0.1,0c-0.1,0-0.1,0-0.2,0.1c-0.1,1-0.3,2-0.6,3.9
	c-0.2,1.1-0.4,2.3-0.4,2.3C106.3,39.6,105.8,40,105,40z M110.4,23.2c-0.7,0.3-1.4,0.7-1.6,1.2c0,0,0,0,0,0.1
	c-0.3,1.7-0.6,3.6-0.9,5.6c0,0.1,0,0.1,0,0.1c0.3,0.4,0.8,0.6,1.3,0.8c0.2,0.1,0.4,0.1,0.6,0.1c0.1,0,0.2,0,0.3,0
	c0.5,0,0.8-0.1,1-0.2c0.8-0.3,1.1-0.5,1.5-1c0.4-0.6,0.6-0.8,0.8-1.4c0.2-0.5,0.4-1.1,0.5-1.8c0.2-1,0.2-1.5,0.2-1.9
	c-0.1-0.6-0.2-1-0.6-1.4C112.6,22.7,111.2,22.9,110.4,23.2z M33.7,14.8c-0.3,0-1.1,0.5-2,3.8c-0.4,1.5-0.8,2.9-1.1,4.1
	c0,0.1,0,0.1,0,0.1c0,0,0.1,0.1,0.2,0.1c0,0,0.1,0,0.1,0c0.4-0.4,0.7-0.8,1-1.3c0.6-0.8,1.1-1.7,1.4-2.6c0.4-1.2,0.7-2.2,0.7-3.1
	c0-0.7-0.1-0.9-0.1-1C33.9,14.8,33.9,14.8,33.7,14.8L33.7,14.8z"/>
<path fill="#ED145B" d="M142.4,21.3c1.2,1.2,1.2,3.2,0,4.4c-1.2,1.2-3.2,1.2-4.4,0c-1.2-1.2-3.7-8.1-3.7-8.1S141.2,20.1,142.4,21.3z
	 M132.5,17.6c0,0-2.5,6.9-3.7,8.1c-1.2,1.2-3.2,1.2-4.4,0c-1.2-1.2-1.2-3.2,0-4.4C125.6,20.1,132.5,17.6,132.5,17.6z M142.4,7.7
	c1.2,1.2,1.2,3.2,0,4.4c-1.2,1.2-8.1,3.7-8.1,3.7s2.5-6.9,3.7-8.1C139.2,6.5,141.2,6.5,142.4,7.7z M128.7,7.7
	c1.2,1.2,3.7,8.1,3.7,8.1s-6.9-2.5-8.1-3.7c-1.2-1.2-1.2-3.2,0-4.4C125.6,6.5,127.5,6.5,128.7,7.7z M150,16.7c0,1.7-1.4,3.1-3.1,3.1
	c-1.7,0-11.8-3.1-11.8-3.1s10.1-3.1,11.8-3.1C148.6,13.6,150,15,150,16.7z M131.4,16.7c0,0-10.1,3.1-11.8,3.1
	c-1.7,0-3.1-1.4-3.1-3.1c0-1.7,1.4-3.1,3.1-3.1C121.4,13.6,131.4,16.7,131.4,16.7z M133.3,33.4c-1.7,0-3.1-1.4-3.1-3.1
	c0-1.7,3.1-11.8,3.1-11.8s3.1,10.1,3.1,11.8C136.4,32.1,135,33.4,133.3,33.4z M133.3,14.9c0,0-3.1-10.1-3.1-11.8s1.4-3.1,3.1-3.1
	c1.7,0,3.1,1.4,3.1,3.1S133.3,14.9,133.3,14.9z"/>
</svg>