<svg width="22" height="22" viewBox="0 0 22 22" fill="none" xmlns="http://www.w3.org/2000/svg">
<path fill-rule="evenodd" clip-rule="evenodd" d="M3.49643e-07 10.9999C-1.81463e-07 4.92476 4.92481 2.80406e-06 11.0001 2.27295e-06C17.0752 1.74184e-06 22 4.92476 22 10.9999C22 17.075 17.0752 22 11.0001 22C4.92481 22 8.80744e-07 17.075 3.49643e-07 10.9999" fill="url(#paint0_linear)"/>
<path d="M16.3753 13.7351C17.0897 14.4494 17.0897 15.6136 16.3753 16.328C15.661 17.0423 14.4968 17.0423 13.7824 16.328C13.0681 15.6136 11.5822 11.5349 11.5822 11.5349C11.5822 11.5349 15.659 13.0207 16.3753 13.7351ZM10.5107 11.5349C10.5107 11.5349 9.02483 15.6097 8.3105 16.328C7.59616 17.0423 6.43193 17.0423 5.7176 16.328C5.00326 15.6136 5.00326 14.4494 5.7176 13.7351C6.43193 13.0207 10.5107 11.5349 10.5107 11.5349ZM16.3753 5.67024C17.0897 6.38457 17.0897 7.54881 16.3753 8.26314C15.661 8.97747 11.5822 10.4634 11.5822 10.4634C11.5822 10.4634 13.0681 6.38852 13.7824 5.67024C14.4987 4.95196 15.659 4.95196 16.3753 5.67024ZM8.3105 5.67024C9.02483 6.38457 10.5107 10.4634 10.5107 10.4634C10.5107 10.4634 6.43587 8.97747 5.7176 8.26314C5.00326 7.54881 5.00326 6.38457 5.7176 5.67024C6.43193 4.95196 7.59419 4.95196 8.3105 5.67024ZM20.8981 11.0001C20.8981 12.0124 20.0792 12.8333 19.0649 12.8333C18.0526 12.8333 12.0992 11.0001 12.0992 11.0001C12.0992 11.0001 18.0526 9.16691 19.0649 9.16691C20.0772 9.16691 20.8981 9.98582 20.8981 11.0001ZM9.899 11.0001C9.899 11.0001 3.94558 12.8333 2.93328 12.8333C1.92098 12.8333 1.1001 12.0144 1.1001 11.0001C1.1001 9.9878 1.91901 9.16691 2.93328 9.16691C3.94558 9.16691 9.899 11.0001 9.899 11.0001ZM10.9981 20.9001C9.98582 20.9001 9.16493 20.0812 9.16493 19.0669C9.16493 18.0526 10.9981 12.1012 10.9981 12.1012C10.9981 12.1012 12.8313 18.0546 12.8313 19.0669C12.8313 20.0792 12.0104 20.9001 10.9981 20.9001ZM10.9981 9.899C10.9981 9.899 9.16493 3.94558 9.16493 2.93328C9.16493 1.92099 9.98385 1.1001 10.9981 1.1001C12.0104 1.1001 12.8313 1.91901 12.8313 2.93328C12.8313 3.94756 10.9981 9.899 10.9981 9.899Z" fill="white"/>
<defs>
<linearGradient id="paint0_linear" x1="-5.05443e-07" y1="11" x2="22" y2="11" gradientUnits="userSpaceOnUse">
<stop stop-color="#E3232C"/>
<stop offset="1" stop-color="#8000FF"/>
</linearGradient>
</defs>
</svg>
