<svg width="28" height="29" viewBox="0 0 28 29" fill="none" xmlns="http://www.w3.org/2000/svg">
<path d="M17.1992 14.2969C17.582 14.2969 17.9102 14.4427 18.1836 14.7344C18.457 15.026 18.5938 15.3633 18.5938 15.7461C18.5938 16.1289 18.457 16.457 18.1836 16.7305C17.9284 17.0039 17.6185 17.1497 17.2539 17.168H17.1992V17.1133C16.8164 17.1133 16.4792 16.9766 16.1875 16.7031C15.9141 16.4297 15.7773 16.0924 15.7773 15.6914C15.7773 15.3268 15.9141 15.0078 16.1875 14.7344C16.4792 14.4427 16.8164 14.2969 17.1992 14.2969ZM0 14.2695C0 16.8034 0.628906 19.1367 1.88672 21.2695C3.14453 23.4023 4.83984 25.0885 6.97266 26.3281C9.1237 27.5859 11.4661 28.2148 14 28.2148C16.5339 28.2148 18.8672 27.5859 21 26.3281C23.1328 25.0885 24.8281 23.4023 26.0859 21.2695C27.3438 19.1367 27.9727 16.8034 27.9727 14.2695C27.9727 11.7357 27.3438 9.40234 26.0859 7.26953C24.8464 5.11849 23.151 3.41406 21 2.15625C18.8672 0.898438 16.5339 0.269531 14 0.269531C11.4661 0.269531 9.1237 0.898438 6.97266 2.15625C4.82161 3.41406 3.11719 5.11849 1.85938 7.26953C0.619792 9.42057 0 11.7539 0 14.2695ZM5.19531 12.8477C5.59635 12.3919 6.09766 12.1641 6.69922 12.1641C7.24609 12.1641 7.72005 12.3555 8.12109 12.7383C8.88672 12.1914 9.73438 11.7812 10.6641 11.5078C11.5938 11.2161 12.5508 11.0521 13.5352 11.0156L14.5469 6.14844C14.5833 6.03906 14.6562 5.95703 14.7656 5.90234C14.875 5.82943 14.9844 5.80208 15.0938 5.82031L18.5117 6.50391C18.8398 6.04818 19.2318 5.82031 19.6875 5.82031C20.0885 5.82031 20.4349 5.95703 20.7266 6.23047C21.0182 6.48568 21.1641 6.82292 21.1641 7.24219C21.1641 7.625 21.0273 7.95312 20.7539 8.22656C20.4805 8.48177 20.1341 8.60938 19.7148 8.60938C19.3685 8.60938 19.0677 8.5 18.8125 8.28125C18.5573 8.04427 18.4023 7.74349 18.3477 7.37891L15.3945 6.77734L14.4648 11.1523C16.4336 11.1888 18.2292 11.763 19.8516 12.875C20.2526 12.5104 20.7174 12.3281 21.2461 12.3281C21.8112 12.3281 22.2943 12.5286 22.6953 12.9297C23.0964 13.3125 23.2969 13.7865 23.2969 14.3516C23.2969 14.7344 23.1966 15.0807 22.9961 15.3906C22.7956 15.7005 22.5312 15.9284 22.2031 16.0742V16.6758C22.2031 17.6966 21.8294 18.6445 21.082 19.5195C20.3529 20.3945 19.3594 21.0872 18.1016 21.5977C16.862 22.1081 15.5039 22.3633 14.0273 22.3633C12.5508 22.3633 11.1836 22.1081 9.92578 21.5977C8.6862 21.0872 7.70182 20.4036 6.97266 19.5469C6.24349 18.6719 5.87891 17.7148 5.87891 16.6758V16.0742C5.71484 16.0013 5.52344 15.8737 5.30469 15.6914C4.88542 15.3268 4.67578 14.8438 4.67578 14.2422C4.67578 13.6771 4.84896 13.2122 5.19531 12.8477ZM9.35156 15.6641C9.35156 16.0651 9.47917 16.4023 9.73438 16.6758C10.0078 16.931 10.3359 17.0586 10.7188 17.0586C11.1198 17.0586 11.4479 16.931 11.7031 16.6758C11.9766 16.4023 12.1133 16.0651 12.1133 15.6641C12.1133 15.2812 11.9766 14.9531 11.7031 14.6797C11.4479 14.4062 11.1198 14.2695 10.7188 14.2695C10.3359 14.2695 10.0078 14.4062 9.73438 14.6797C9.47917 14.9531 9.35156 15.2812 9.35156 15.6641ZM10.5273 19.4922C10.4727 19.4375 10.4453 19.3646 10.4453 19.2734C10.4453 19.1641 10.4909 19.0638 10.582 18.9727C10.6549 18.8997 10.737 18.8633 10.8281 18.8633C10.9375 18.8633 11.0195 18.8997 11.0742 18.9727C11.4753 19.2826 11.931 19.5195 12.4414 19.6836C12.9518 19.8477 13.4714 19.9115 14 19.875C14.5286 19.9115 15.0391 19.8568 15.5312 19.7109C16.0417 19.5469 16.4974 19.319 16.8984 19.0273C16.9714 18.9362 17.0625 18.8906 17.1719 18.8906C17.2995 18.8906 17.3997 18.9362 17.4727 19.0273C17.5638 19.1185 17.6094 19.2096 17.6094 19.3008C17.6094 19.3919 17.5638 19.4831 17.4727 19.5742V19.4922C16.9622 19.875 16.4062 20.1576 15.8047 20.3398C15.2031 20.5221 14.6016 20.6042 14 20.5859C12.7604 20.6406 11.6029 20.276 10.5273 19.4922Z" fill="#A19A9D"/>
</svg>
