<svg width="64" height="59" viewBox="0 0 64 59" fill="none" xmlns="http://www.w3.org/2000/svg">
<path d="M62.375 40.9629L42 6.15039C40.9583 4.40039 39.5417 3.02539 37.75 2.02539C36 0.983724 34.0833 0.462891 32 0.462891C29.9583 0.462891 28.0417 0.983724 26.25 2.02539C24.4583 3.02539 23.0417 4.40039 22 6.15039L1.625 40.9629C0.583333 42.7546 0.0416667 44.6921 0 46.7754C0 48.8587 0.520833 50.7962 1.5625 52.5879C2.5625 54.4212 3.95833 55.8587 5.75 56.9004C7.54167 57.9837 9.47917 58.5254 11.5625 58.5254H52.375C54.5 58.4837 56.4583 57.9421 58.25 56.9004C60.0417 55.8587 61.4375 54.4212 62.4375 52.5879C63.4792 50.7962 63.9792 48.8587 63.9375 46.7754C63.9375 44.6921 63.4167 42.7546 62.375 40.9629ZM29.0625 44.0254C29.0625 43.1921 29.3333 42.5046 29.875 41.9629C30.4583 41.3796 31.1667 41.0879 32 41.0879C32.8333 41.0879 33.5208 41.3796 34.0625 41.9629C34.6458 42.5046 34.9375 43.1921 34.9375 44.0254C34.9375 44.8171 34.6458 45.5046 34.0625 46.0879C33.5208 46.6296 32.8333 46.9004 32 46.9004C31.1667 46.9004 30.4583 46.6296 29.875 46.0879C29.3333 45.5046 29.0625 44.8171 29.0625 44.0254ZM29.0625 38.1504V17.9004H34.9375V38.1504H29.0625Z" fill="#F754A3"/>
</svg>
