<?xml version="1.0" encoding="UTF-8"?>
<svg id="_レイヤー_1" data-name="レイヤー_1" xmlns="http://www.w3.org/2000/svg" baseProfile="tiny" version="1.2" viewBox="0 0 640 640">
  <!-- Generator: Adobe Illustrator 30.2.1, SVG Export Plug-In . SVG Version: 2.1.1 Build 1)  -->
  <g>
    <path d="M320,628.3c-.8-.3-1.8-1.1-2.2-1.7l-.8-1.1v-30l-2-34c-1.1-18.7-2.6-42.5-3.2-52.8l-1.1-18.8-2.6.3-2.6.3-1.3,8c-.7,4.4-2.2,12.4-3.3,17.7l-2,9.8-2.5,5.7c-1.4,3.2-3.4,7.4-4.5,9.3-1.1,1.9-2.9,5.4-4,7.7l-1.9,4.2-1.1,5.8-1.1,5.8,1.1,12.6,1.1,12.6-1.5,6.8c-2.1,9-3.5,11.4-10.3,18.3l-5.7,5.9-2.9.7-2.9.7-2.9-3.1c-1.5-1.7-2.8-3.3-2.8-3.5s2-2.7,4.5-5.6l4.5-5.2,1.7-4.5,1.6-4.4-2.8-17-2.8-16.9,1.1-8.4,1.1-8.3,4.5-8.9,4.4-8.8,1.6-6.1,1.6-6.2v-29l-1.5-1.2-1.5-1.2-1.5.6-1.6.6-2.6,5.7c-1.4,3.2-5,11.7-8.1,18.8-12.4,29.4-14.3,33.7-21.5,49-4.1,8.8-8,17.8-8.7,20s-3.2,8.3-5.6,13.6c-2.4,5.3-4.4,10.3-4.4,11.1s-.5,1.9-1.2,2.6l-1.2,1.2h-6.1l-2.2-1.8-2.2-1.7,2.3-8c1.3-4.4,3.4-10.2,4.6-13,1.2-2.7,3.4-9.5,5-15,1.5-5.5,5.4-17.9,8.5-27.5,3.2-9.6,8.6-26.7,12.1-38s7.1-22.3,7.9-24.4l1.6-3.9-2-2-2-2-1.4,1.2c-.8.6-4.3,6.6-7.7,13.3l-6.2,12.1-3.1,3.9-3.2,3.9-6,4.4-6.1,4.3-5.8,6.6-5.8,6.7-3.8,11.7c-2.1,6.4-5,14.3-6.5,17.6l-2.8,5.9-3.7,3.7c-2.1,2.1-5.8,5-8.3,6.4l-4.5,2.7-4.8.5-4.9.6-1.8-2-1.9-2,.4-2.3.3-2.2,6-4.7,6-4.6,2.2-4,2.2-4,2.5-12.6,2.6-12.7,3.2-7.8,3.2-7.8,12.1-12,12.1-12,3.8-10c2.1-5.5,4.8-11.9,6.1-14.1l2.4-4.1-2.3-2.2c-1.2-1.1-2.6-2.1-3-2.1s-4.2,3.5-8.4,7.8c-4.3,4.3-15.2,14.9-24.4,23.6s-26,25-37.5,36.2l-20.8,20.4-2.3.6-2.3.6-1.9-1.7-2-1.8v-2.9l3.7-5.2c2-2.8,5.4-7.1,7.5-9.6,2.2-2.5,6.1-7.1,8.8-10.3,2.8-3.1,5-6.1,5-6.6s2.1-3.3,4.8-6.3c7.5-8.7,22.4-26.8,26.1-31.8,1.9-2.5,6-7.4,9.1-11s8-9.5,10.9-13.3l5.3-6.7-.5-1.3c-.2-.7-1.6-1.9-3-2.6l-2.6-1.4-6.7,6.2-6.8,6.2-5.6,3.4-5.6,3.4-8.8,2.5c-4.9,1.4-9.5,2.6-10.3,2.6s-4.2,1.4-7.4,3.2l-6,3.1-5.6,7.6c-10.2,13.9-15.7,18.6-25.8,22.3l-5,1.8h-9.1l-5.5-2.7-5.4-2.8-.3-1.8-.4-1.8,1.2-1.4,1.2-1.5h13.9l4.3-3,4.3-2.9,3.1-4.8c1.6-2.6,3.8-6.4,4.9-8.3,3-5.7,9.7-14.2,15.5-19.6l5.4-5.1,6-1.7c3.2-.9,8.5-2.7,11.8-4l5.8-2.3,4.3-3.4c2.3-1.9,5.3-4.9,6.6-6.8,1.3-1.8,4.5-5.7,7.2-8.6,2.6-2.8,4.7-5.5,4.7-5.8s-1.4-1.3-3.1-2.1l-3.2-1.6-9.1,3.5c-5,1.9-16.3,6.2-25.1,9.6-8.8,3.3-20.5,7.8-26,9.9s-12.5,4.8-15.5,6-8.2,3.2-11.5,4.4c-3.3,1.3-7.3,2.8-9,3.5-1.6.6-4.3,1.7-6,2.3-1.6.6-3.9,1.8-5,2.5l-1.9,1.3h-6.5l-1.6-1.6-1.6-1.7.3-3,.3-3.1,6-3.5c3.3-1.8,14.6-7.7,25-13.1,10.5-5.3,20.9-10.9,23.2-12.3,2.4-1.5,4.5-2.7,4.8-2.7,1.1,0,47.1-24.3,48.8-25.7l1.7-1.6v-5.7h-2.2c-1.3,0-5.9,1.2-10.3,2.6l-8,2.6-7.5.5-7.5.5-10.8-2.2-10.9-2.2-3.2.5c-3.6.6-9.2,3.2-21.5,10.1l-8.5,4.7-4.3,1.1-4.4,1.1-5.6-.6-5.6-.6-6.3-3.1-6.3-3.1-2.1-2.6c-2.5-3.2-2.5-4.4,0-7.4l1.9-2.3,5.4,1.7,5.5,1.7h7.8l5.4-2.5c3-1.4,7.5-4.1,10-5.9,5.9-4.4,13.4-8.7,19.1-11.1l4.5-1.9h17.5c0-.1,17.5-.1,17.5-.1l8.5-3.3c4.6-1.9,10.1-4.4,12.2-5.5l3.8-2.2v-4.4l-2.1-1.1-2-1.1-28.7-2c-15.8-1.1-34.8-2.4-42.2-2.9-7.4-.5-18.9-1.2-25.5-1.5s-14.2-.8-17-1.1l-5-.5-1.2-1.1-1.3-1v-6.3c0,0,1.4-1.7,1.4-1.7l1.2-1.7,10-.6c5.4-.3,15.4-1,22.1-1.7l12.3-1.1,7.7,1.1c4.3.6,11.4,1.5,15.8,1.8l8,.6,5-2c5.9-2.4,12.9-3.8,24-4.7,4.4-.3,9.7-1,11.8-1.6l3.7-1v-4.8l-5.1-1.5c-2.8-.9-7.8-2-11.2-2.6s-8.7-1.8-11.7-2.6l-5.5-1.6-7.5-5.2-7.5-5.2-7.1-3.2-7.1-3.2h-3.2c-1.8,0-7.1.7-11.7,1.7l-8.5,1.6-5.2-1.2-5.1-1.2-7.3-4.5-7.2-4.5-3-3.8-3.1-3.9v-3.3l2.5-2.4,2.4-2.5h3.8l3.2,4,3.1,3.9,5.2,1.6c6.9,2,9.1,1.9,22.1-1.1l11.2-2.6,8.5.5,8.5.6,10.7,5.5,10.7,5.5,6.3,1.1c3.5.5,8.5,1,11.1,1h4.8l6.5-1.6,6.5-1.7-.3-1.4-.3-1.5-11-5.9c-6-3.3-14.4-7.5-18.5-9.5-4.1-1.9-8.6-4.1-10-4.9-30.8-16.1-61.7-31.5-63.3-31.5s-2.6-.9-4.4-2l-3.2-1.9-1.6-2.4-1.6-2.5.7-2.7.6-2.6,2.4-1.5,2.3-1.6,3.8,1.2c6.5,2.1,50.2,18.6,62.8,23.8,6.6,2.7,13.4,5.2,15,5.6,1.6.4,7.6,3,13.2,5.7l10.3,4.9,6.5,1.6,6.5,1.6,1.5-1.2,1.6-1.3-.3-2-.3-2-7-4.7c-3.8-2.5-9.5-6.3-12.7-8.4-3.1-2-7.2-5.3-9.1-7.1l-3.6-3.5-3.2-6.1-3.3-6.1-4.4-5-4.5-4.9-3.6-1.8c-2-1-6.5-2.6-10.1-3.5s-8.8-2.7-11.5-4.1l-5-2.4-5.8-5.8-5.7-5.7-2-4.1-1.9-4-.7-5.2-.7-5.3,1.7-2.5,1.6-2.5h5l2.6,5.8,2.5,5.7,3.2,2.8c1.8,1.5,5.2,3.9,7.6,5.2l4.4,2.5h6.5l8.6,2.5c9,2.6,17.7,6.5,21,9.4,1,.9,3.3,3.9,5.1,6.6,1.8,2.8,5.1,7.1,7.4,9.7l4.1,4.6,5.6,3.7c6.1,4.1,12.8,6.9,21.3,9l5.4,1.3,1.4-.5,1.3-.5v-2.8l-4.9-5.4c-2.7-2.9-6.7-7.8-8.9-10.9-2.3-3-6.5-8.1-9.5-11.3-2.9-3.3-7.8-9.3-10.9-13.4-3.1-4.1-9-11.1-13-15.5-4.1-4.4-13.8-16.1-21.6-25.9l-14.2-17.9v-1.9c0-1.1.5-2.8,1-3.9l1.1-1.9h5.6l3.9,3.1c2.1,1.7,5.4,4.7,7.4,6.7,15.2,16.1,36.3,37.4,40,40.6,6.9,5.8,26,23.5,30.8,28.5,2.3,2.4,5.7,5.5,7.4,6.8l3.2,2.3h4.7l.5-1.3.5-1.3-2-4.5-1.9-4.4-2.6-2.7c-1.4-1.4-3.4-2.9-4.5-3.3l-1.9-.6-3.2-6.7c-5-10.5-6.6-14.9-9-25.7l-2.3-10-2.9-5.3-3-5.2-5.6-4.3c-3-2.3-8.1-6.7-11.2-9.7l-5.7-5.6-2.2-6.4-2.2-6.5-.5-9-.6-9,2-3.5,1.9-3.5,2.6-.3,2.6-.3,1.4,2.3,1.5,2.3.5,5.3.6,5.3,3.3,6.1,3.3,6.1,6,4.5c3.3,2.4,7.6,5.2,9.5,6.2l3.6,1.8,4,4.4c2.3,2.4,5.3,6.4,6.7,8.9l2.6,4.4,2.7,9.5,2.7,9.5,3.7,7.5,3.8,7.5,5.8,5.5c7,6.6,14.8,13,15.8,13h.8l-.7-5-.7-4.9-5-13.3c-4.4-11.9-9.7-28.1-15.5-48.3-1.8-6.2-5.3-16.4-16.3-47.3-3.4-9.6-3.6-10.9-1.4-14l1.5-2.2h6.6l1.7,1.8,1.6,1.9,2.9,8.4c3.8,10.9,8.7,22.5,11.1,26.4,1.9,3.1,3,5.7,12.4,28,2.6,6.1,5,11.9,5.6,13,.5,1.1,4.7,10.3,9.4,20.4,4.7,10.1,9.3,19.2,10.2,20.3l1.7,1.8h2.7v-2.5c0-1.4-1-7.9-2.1-14.3l-2.1-11.7.8-12.5c.4-6.9.7-16.5.6-21.5v-9c-.1,0-1.3-4.5-1.3-4.5l-1.2-4.5-3.3-5.5c-4.2-7.1-7.5-15.3-8.4-21l-.8-4.5.9-5.4c.5-3,1.5-7.8,2.4-10.7l1.5-5.3,2.6-3,2.6-3.1h8.1l-.8,5.2c-.5,2.9-.8,9.4-.9,14.3v9l2.3,4c1.3,2.2,4.3,6.4,6.7,9.5l4.3,5.5,2.8,6,2.8,6v46l3,8,2.9,8,3.3,5.4c1.8,3,3.5,6.3,3.9,7.3.3,1,.9,1.8,1.4,1.8h.9l1-3.7c1.7-6.7,2-12.2,3.5-50.3.9-20.6,2-45.8,2.6-56l1.1-18.5,1.1-5,1-5,1.6-1.3c.9-.6,2.4-1.2,3.4-1.2h1.8l1,2.6,1,2.6,1.5,23.1c.9,12.8,2,37.4,2.6,54.7,1,34,2,47.1,3.8,53.8l1.2,4.3,1.2-.4,1.2-.4,1.2-3.4,1.1-3.4.7-9.5.6-9.5,1.5-5.9,1.4-5.9,4.7-8.6c2.5-4.7,6.4-12,8.5-16.1l4-7.5-.6-8c-.3-4.4-.9-13-1.2-19.2l-.6-11.1,2.1-6.9,2.1-6.8,3.9-4.6,4-4.6,3.5-1.7,3.4-1.6h7.1l.9,1.6.9,1.7-.5,2.1c-.3,1.2-2,4-3.8,6.3-4.3,5.2-5.1,7.4-5.9,15.9l-.7,6.9,2.1,10.2,2.1,10.2v15.6l-1.1,4-1.1,4-4.8,8.5-4.8,8.5-1.1,5c-.5,2.8-1.5,9.5-2.2,15l-1.1,9.9.6,3.9c.4,2.1,1.3,5.4,2.1,7.3l1.4,3.5,2.1-1.1,2-1.1,1.6-3.2c1.6-2.9,6.2-14.2,13.4-32.2,2.5-6.4,11.6-26.1,16-34.5,2.8-5.4,13-29.6,13-30.8s.9-2.7,2-4.9c1-2.1,3-6.5,4.2-9.8l2.3-6h10l.3,3.5.3,3.5-2.5,7c-1.3,3.9-2.9,8.4-3.5,10-5.2,15-31.5,96.2-32.6,100.9l-1.4,6.1.5,2.3.6,2.2h1.9l2.7-4.6c1.5-2.5,5.8-9.4,9.7-15.2l7-10.7,5.5-5.5c3-3.1,8.5-8.3,12.3-11.7l6.7-6.1,2.5-5.6,2.4-5.5,1-5.9.9-5.9,3.7-7.8,3.7-7.8,4.7-4.5,4.6-4.5,4.3-1.9,4.2-1.9,4.8-.6,4.9-.5,2.1,1.1,2.2,1.2v2.7c0,3.6-.8,4.6-5.6,7l-4.1,2.1-2.8,3.3c-1.5,1.8-3.6,5.3-4.7,7.7l-1.8,4.3-1.5,8.2c-2.3,13.2-2.7,14.8-5.2,20.6-3.1,7-6.7,11.5-17.5,22.1l-8.7,8.6-6.1,12.4-6.1,12.3.3,5.5.3,5.4,1.2.4,1.1.4,17.3-16.8c9.6-9.2,26.6-25.9,37.9-36.9,11.3-11.1,24.1-23.5,28.5-27.7l8-7.5,2.6-.7,2.7-.7,1.6,2.3c.9,1.3,1.6,3.1,1.6,3.9v1.6l-3,4.5c-4.1,6.1-12.8,16.9-21.3,26.5-4,4.5-9.2,10.8-11.7,14s-7,8.6-10,12-8.2,9.4-11.5,13.5c-3.3,4-8,9.6-10.5,12.4-2.5,2.9-6.6,7.8-9.2,11l-4.8,5.7v3.5l2,1.8,2,1.8,2.7-2.4c1.5-1.3,3.4-3.1,4.2-4,2.5-2.6,12.2-9.9,13.2-9.9s3-1.3,5.6-2.9l4.8-3,6.5-2c3.6-1.1,8.4-2.5,10.7-3.1l4.1-1,6.1-4.1,6.1-4,4.6-6.9,4.6-6.8,5.8-5.1,5.9-5.2,7.8-2,7.8-2,5.4.7,5.4.7,1.7,1.7,1.8,1.8-.4,3.3-.4,3.3-1.3.8-1.2.8h-10l-3.1,1.9-3.1,1.9-3.6,4.4c-2,2.5-6,8.4-8.7,13.3-2.8,4.8-5.6,9.2-6.3,9.9-5.8,5.4-17.1,11.5-27,14.6l-6.7,2.1-7.5,6-7.5,6.1-3.7,4.6c-2.1,2.6-4.1,4.9-4.4,5.2-1.3,1.1-2.9,5-2.9,6.9v2.1h2.3c1.3,0,5.8-.9,10.1-2l7.8-2.1,6.1-3.1c5.9-2.9,21.9-9.2,38.2-14.8,4.4-1.6,11.8-4.4,16.5-6.4,4.6-2,8.8-3.6,9.3-3.6s6.2-2,12.8-4.5l12-4.5,2.8-.2,2.9-.2,1.6,1.3,1.6,1.3v4.4l-1.2,1.7-1.3,1.7-34.5,17.4c-30.4,15.2-55.8,28.3-70,36-2.5,1.4-4.9,3.1-5.4,3.9l-.9,1.4.6,1.7.6,1.6h6.7l7.4-2.5,7.5-2.5,8.6-.7,8.6-.6,7.8,1.8,7.8,1.7,7.6-.4,7.6-.3,5.5-2.9c3-1.6,7.9-4.2,10.8-5.8l5.3-2.9,7-1.5,7-1.4,6.5,1.1,6.5,1.1,4.7,3.2,4.7,3.1.3,4.1.3,4.2-1.6,1.6-1.6,1.6-2.7-.7c-1.5-.3-4-1.5-5.7-2.5l-3-1.8h-5.4l-5.7,2.5-5.7,2.5-7.1,5.5-7.1,5.4-6,2.8-6,2.8-17.8-.3-17.8-.2-7.2,3c-13.7,5.9-16.7,7.3-18.3,9.1l-1.6,1.8.7,2,.6,2,3.2.5c1.8.2,13.2,1,25.5,1.6s24.9,1.5,28,2,12.8,1.6,21.6,2.5l15.9,1.6,6.1-.2c7.4-.2,19.4,1,21.9,2.3l1.7.9v5.9l-2.4,1.5-2.4,1.6-3.3.4c-4.6.6-31.6,2.3-46.9,3-6.9.4-20.6,1.3-30.5,2.1-9.9.8-21.3,1.4-25.5,1.5-4.1.1-8.6.4-10,.8l-2.5.7-.3,2.8-.4,2.8.9.9.8.8,10,1.5,10,1.5,5.5,1.9c7.7,2.7,12.9,5.4,17,9.1l3.5,3.1,5.5,2.2,5.5,2.1h7.5c4.1.1,11.2-.2,15.6-.7l8.2-.9,7.2,2.2,7.2,2.2,5,5,4.9,4.9,1.5,3.5,1.4,3.4v5.7l-1.2,1.2c-.7.7-2,1.2-2.9,1.2h-1.7l-2.9-3.1-2.8-3-3.8-2-3.8-2-6.2-.5-6.2-.6-6.5,1.5c-3.6.9-9.6,1.8-13.5,2.2l-7,.7-6.6-1.6-6.6-1.5-11.3-5.5-11.3-5.6h-28.7v1.8c-.5,4.9,0,5.3,12,11.5,4.7,2.4,18.4,9.5,30.5,15.9,12.1,6.3,31,16.1,42,21.8l20,10.2,2.3,2.1,2.2,2v5.6l-2.2,1.5-2.2,1.6h-4.1l-4.3-2.5c-2.3-1.3-8.6-3.9-14-5.8-5.3-1.9-13.7-5-18.7-6.9-18.3-7.1-41.2-15.7-48-18.1-3.8-1.4-11.4-4.3-16.9-6.6-5.4-2.3-10.4-4.1-11.2-4.1h-1.3l-1.5,2.8-1.4,2.8,8,4.8c4.4,2.6,10.7,6.9,14,9.4l6.1,4.7,9.8,13.2,9.9,13.1,2.5,2,2.6,2.1,9.7,3.1,9.7,3.1,7,4.2,7,4.3,4.2,7.3,4.1,7.3,1,5.6,1,5.7-.9,1.7c-.5,1-1.8,2.2-2.9,2.8l-1.9,1-1.4-.6-1.4-.5-2.9-5.6-2.9-5.6-6.5-4.6-6.5-4.5-8.3-1.8c-4.5-.9-11.5-2.7-15.5-3.9l-7.2-2.1-7-7.3c-3.8-4-10.1-10.7-14-14.7l-7-7.4-8.5-4.1c-9.6-4.7-17.6-8.3-18.4-8.3s-1,.9-1.7,2.1l-1.1,2.1,3,3.2c3,3.1,6.2,7.2,17,21.6,3.1,4.1,9,11.6,13.2,16.5,8.9,10.6,25.6,31.1,32,39.3,2.5,3.2,7.3,9.1,10.8,13.1l6.2,7.2v4.9l-2.1,2.1-2,2-2.2-.7-2.2-.7-35-34c-19.2-18.8-39.9-39-45.8-44.9l-10.8-10.9-1.8.6-1.9.6-.6,1.5-.6,1.4,4.4,5.8,4.3,5.7,5.5,10.5c6,11.2,6.3,12.2,8.3,24.6l1.3,8.1,2.5,4.9,2.5,4.9,4.4,4.1c2.3,2.2,6,5.2,8,6.7s5.3,4.4,7.3,6.5l3.6,3.7,2.9,5.7,3,5.7,1.1,7.2,1.1,7.2-.6,4-.7,3.9-1.9,3.9-2,3.9h-4.8l-1.2-1.5-1.3-1.5-.8-8.5-.7-8.5-1.9-3.3-1.9-3.2-9.9-6.7-10-6.7-5.8-6.3-5.8-6.3-2.5-4.7-2.4-4.8-2.6-9.2c-1.5-5.1-3.6-11.1-4.7-13.3l-1.9-4-6.7-7c-3.7-3.8-8.7-9.4-11.2-12.4l-4.6-5.5-1.3,2.3-1.2,2.3,2.7,8.6c4,13.3,14.3,45.4,18.2,57.2,2,5.8,4.1,12.3,4.8,14.5,3.5,11.1,14.5,46.3,15,48.3l.7,2.3-1.2,1.4-1.2,1.5h-3.2c-1.7,0-3.6-.4-4.2-.8l-1.1-.7-6.7-16c-3.7-8.8-9.2-21.2-12.1-27.5s-6.9-15.3-9-20c-2-4.7-5.8-13.2-8.5-19-2.6-5.8-6.8-15-9.2-20.5-9.2-20.6-9.6-21.3-12.4-18.5l-1.1,1.1,1.9,8.7c1,4.8,2.3,10.1,2.9,11.7l1,3,.6,8,.5,8-2.1,12.4-2.2,12.4,1.1,5.1,1.1,5.1,4.8,9.5,4.9,9.5,1.6,5.4,1.6,5.5v14.4l-2.1,6.8-2.1,6.9-1.9,2.6-1.9,2.7-2.7.6-2.6.7-1.9-1.9-1.9-1.9,1.5-6,1.6-6.1v-8.7l-2.6-5.5c-1.4-3-3.6-6.8-4.8-8.5-3.4-4.4-10.1-18.2-12-24.4l-1.6-5.5v-5c0-2.8.5-9.4,1.2-14.7l1.2-9.6-4.3-13.4c-2.3-7.4-5.3-15.8-6.6-18.6l-2.4-5.3h-1.3c-.7,0-1.8.4-2.4.8l-1.2.7-.5,11.5c-.3,6.3-1,19.4-1.6,29-2.6,45.7-3.1,55.9-3.7,74.8l-.7,20.3-1.4,1.5-1.4,1.4h-2.2c-1.2,0-2.9-.4-3.7-.7h0ZM345.8,473.9l9.7-1.2,11.5-3.9,11.5-4,10.7-5.3c12.7-6.3,20-11.2,31.6-21,11.9-10,15.7-14.1,25.1-27.4l8.1-11.4,6-12.1,6-12.1,4.1-15.5,4-15.5.7-13.5.8-13.5-.8-10.8-.7-10.7-1.6-7.5c-.8-4.1-3.3-12.8-5.5-19.2l-4-11.8-4.9-10.1-5-10.1-8.9-11.9-8.9-11.9-6.4-6.1c-12-11.6-20.7-17.9-38.7-27.7l-10.2-5.7-3.8-.9c-2-.5-9.1-2.3-15.7-4l-11.9-3.2-10.6-1.1-10.5-1-11.5.6-11.5.6-7,1.4c-17.2,3.5-32.7,8.5-41.5,13.4-3.6,2-8.2,4.5-10.2,5.7-2,1.1-6.2,3.7-9.3,5.9l-5.6,3.8-13.2,13.2-13.3,13.1-3.5,5.5c-2,3-6,9.3-8.9,14l-5.3,8.4-3,7.6c-5.8,14.9-9,26.9-10.9,41.2l-1.3,9.3.2,13,.2,13,1.1,8c4.4,30.1,18.2,59.7,38.3,82.6l7.6,8.7,6.5,5.5c7.6,6.4,20.7,15.2,31.1,20.9l7.5,4,11.7,3.9,11.8,4,10.5,1.9,10.5,1.8h13.8c0,.1,13.9.2,13.9.2l9.6-1.1h0Z" fill="#edd999"/>
    <path d="M378.9,421.5c-3.1-.7-8.2-2.5-11.4-3.9l-5.7-2.6-6.3-4.5-6.2-4.4-4-4.8c-2.2-2.6-5.5-7-7.2-9.7l-3.1-5-2.7-8.5-2.7-8.6v-9.6c.1,0,.2-9.6.2-9.6l2.2-8.4c2.9-10.7,3.9-12.7,11.5-22.4l6.3-8,4.6-3,4.6-3v-2c.1,0,7.3-3.2,7.3-3.2l7.2-3.2,6.6-1c3.6-.6,8.6-1.1,11.1-1.1h4.6l7.9,1.6c4.3,1,9.6,1.7,11.8,1.8h4c0,.1.7-4.4.7-4.4.3-2.5.7-10.1.7-17v-12.5c.1,0-1.5-6.5-1.5-6.5-.8-3.6-2.9-10.5-4.5-15.5l-3.1-9-2.9-5.3c-1.7-3-5.7-9.3-9-14l-6-8.7-8.6-8.7-8.6-8.8-4.9-3.1c-2.7-1.7-4.7-3.3-4.6-3.4.2-.2,2.4.1,5,.6l4.8.8,8.2,4,8.3,3.9,10.8,7.2,10.7,7.2,5.3,5.2c14.2,14,29.6,34.8,30.2,40.9.4,3.6.4,3.7,1.8,3.7h1.2l3.4,8.5,3.3,8.6.3,3.4c.2,1.9,1.1,5.9,1.9,8.9,1.6,5.5,2.7,11.6,4.8,26.5l1.1,8.4-1.2,11.5-1.2,11.5-1.9,8.7c-1.1,4.8-3.7,13.6-5.8,19.6l-3.8,10.9-4.4,7.5-4.3,7.5-7.6,7.6-7.6,7.5-5.5,3.1c-3,1.7-8.4,4.1-12,5.3l-6.5,2.2-11,.4-11,.4-5.6-1.5h0Z" fill="#edd999"/>
    <path d="M182.7,351.3c-.9-4.3-2.2-10.9-2.8-14.8l-1.2-6.9.6-14.1.6-14,2-12.3,1.9-12.3.9-1.2c.6-.7,2.2-4.2,3.6-7.9,1.5-3.7,4.7-10.9,7.1-16l4.5-9.3,7.9-10.5,8-10.5,10.4-10.1,10.3-10,9.5-5.6c20.3-12,29.2-15.6,49.3-20.3l10.9-2.5h23.3l6.5,1.4,6.5,1.4,8.6,4.1,8.6,4.1,4.1,3.9c2.2,2.1,5.9,6.3,8.2,9.2l4.2,5.3,3.7,7.6c2.1,4.1,4.4,9.8,5.2,12.5l1.4,5v11.5c-.1,0-.2,11.5-.2,11.5l-2.7,7.9-2.7,8-3.7,5.9-3.6,5.9-7.7,7.2-7.7,7.1-5.4,3.2-5.3,3.2-6.5,1.7-6.5,1.7h-10c0,.1-10,.1-10,.1l-5.5-1.3-5.5-1.4-7.2-3.4-7.3-3.4-4.7-4.1c-2.6-2.2-5.9-5.6-7.3-7.4-6.2-8.2-8.9-12.2-10.8-15.9l-2-4.1-1.7-9.2-1.7-9.2h-3.7l-6.4,3.4c-3.6,1.8-10.5,6-15.4,9.1l-8.8,5.8-5.8,5.6-5.9,5.6-5.7,8c-7.6,10.4-11.3,17.1-15.6,28.1l-3.5,8.9-2,9.6-2,9.6-.7,11.2-.8,11.1-1.8-7.7h0Z" fill="#edd999"/>
  </g>
  <g>
    <path d="M320,628.3c-.8-.3-1.8-1.1-2.2-1.7l-.8-1.1v-30l-2-34c-1.1-18.7-2.6-42.5-3.2-52.8l-1.1-18.8-2.6.3-2.6.3-1.3,8c-.7,4.4-2.2,12.4-3.3,17.7l-2,9.8-2.5,5.7c-1.4,3.2-3.4,7.4-4.5,9.3-1.1,1.9-2.9,5.4-4,7.7l-1.9,4.2-1.1,5.8-1.1,5.8,1.1,12.6,1.1,12.6-1.5,6.8c-2.1,9-3.5,11.4-10.3,18.3l-5.7,5.9-2.9.7-2.9.7-2.9-3.1c-1.5-1.7-2.8-3.3-2.8-3.5s2-2.7,4.5-5.6l4.5-5.2,1.7-4.5,1.6-4.4-2.8-17-2.8-16.9,1.1-8.4,1.1-8.3,4.5-8.9,4.4-8.8,1.6-6.1,1.6-6.2v-29l-1.5-1.2-1.5-1.2-1.5.6-1.6.6-2.6,5.7c-1.4,3.2-5,11.7-8.1,18.8-12.4,29.4-14.3,33.7-21.5,49-4.1,8.8-8,17.8-8.7,20s-3.2,8.3-5.6,13.6c-2.4,5.3-4.4,10.3-4.4,11.1s-.5,1.9-1.2,2.6l-1.2,1.2h-6.1l-2.2-1.8-2.2-1.7,2.3-8c1.3-4.4,3.4-10.2,4.6-13,1.2-2.7,3.4-9.5,5-15,1.5-5.5,5.4-17.9,8.5-27.5,3.2-9.6,8.6-26.7,12.1-38s7.1-22.3,7.9-24.4l1.6-3.9-2-2-2-2-1.4,1.2c-.8.6-4.3,6.6-7.7,13.3l-6.2,12.1-3.1,3.9-3.2,3.9-6,4.4-6.1,4.3-5.8,6.6-5.8,6.7-3.8,11.7c-2.1,6.4-5,14.3-6.5,17.6l-2.8,5.9-3.7,3.7c-2.1,2.1-5.8,5-8.3,6.4l-4.5,2.7-4.8.5-4.9.6-1.8-2-1.9-2,.4-2.3.3-2.2,6-4.7,6-4.6,2.2-4,2.2-4,2.5-12.6,2.6-12.7,3.2-7.8,3.2-7.8,12.1-12,12.1-12,3.8-10c2.1-5.5,4.8-11.9,6.1-14.1l2.4-4.1-2.3-2.2c-1.2-1.1-2.6-2.1-3-2.1s-4.2,3.5-8.4,7.8c-4.3,4.3-15.2,14.9-24.4,23.6s-26,25-37.5,36.2l-20.8,20.4-2.3.6-2.3.6-1.9-1.7-2-1.8v-2.9l3.7-5.2c2-2.8,5.4-7.1,7.5-9.6,2.2-2.5,6.1-7.1,8.8-10.3,2.8-3.1,5-6.1,5-6.6s2.1-3.3,4.8-6.3c7.5-8.7,22.4-26.8,26.1-31.8,1.9-2.5,6-7.4,9.1-11s8-9.5,10.9-13.3l5.3-6.7-.5-1.3c-.2-.7-1.6-1.9-3-2.6l-2.6-1.4-6.7,6.2-6.8,6.2-5.6,3.4-5.6,3.4-8.8,2.5c-4.9,1.4-9.5,2.6-10.3,2.6s-4.2,1.4-7.4,3.2l-6,3.1-5.6,7.6c-10.2,13.9-15.7,18.6-25.8,22.3l-5,1.8h-9.1l-5.5-2.7-5.4-2.8-.3-1.8-.4-1.8,1.2-1.4,1.2-1.5h13.9l4.3-3,4.3-2.9,3.1-4.8c1.6-2.6,3.8-6.4,4.9-8.3,3-5.7,9.7-14.2,15.5-19.6l5.4-5.1,6-1.7c3.2-.9,8.5-2.7,11.8-4l5.8-2.3,4.3-3.4c2.3-1.9,5.3-4.9,6.6-6.8,1.3-1.8,4.5-5.7,7.2-8.6,2.6-2.8,4.7-5.5,4.7-5.8s-1.4-1.3-3.1-2.1l-3.2-1.6-9.1,3.5c-5,1.9-16.3,6.2-25.1,9.6-8.8,3.3-20.5,7.8-26,9.9s-12.5,4.8-15.5,6-8.2,3.2-11.5,4.4c-3.3,1.3-7.3,2.8-9,3.5-1.6.6-4.3,1.7-6,2.3-1.6.6-3.9,1.8-5,2.5l-1.9,1.3h-6.5l-1.6-1.6-1.6-1.7.3-3,.3-3.1,6-3.5c3.3-1.8,14.6-7.7,25-13.1,10.5-5.3,20.9-10.9,23.2-12.3,2.4-1.5,4.5-2.7,4.8-2.7,1.1,0,47.1-24.3,48.8-25.7l1.7-1.6v-5.7h-2.2c-1.3,0-5.9,1.2-10.3,2.6l-8,2.6-7.5.5-7.5.5-10.8-2.2-10.9-2.2-3.2.5c-3.6.6-9.2,3.2-21.5,10.1l-8.5,4.7-4.3,1.1-4.4,1.1-5.6-.6-5.6-.6-6.3-3.1-6.3-3.1-2.1-2.6c-2.5-3.2-2.5-4.4,0-7.4l1.9-2.3,5.4,1.7,5.5,1.7h7.8l5.4-2.5c3-1.4,7.5-4.1,10-5.9,5.9-4.4,13.4-8.7,19.1-11.1l4.5-1.9h17.5c0-.1,17.5-.1,17.5-.1l8.5-3.3c4.6-1.9,10.1-4.4,12.2-5.5l3.8-2.2v-4.4l-2.1-1.1-2-1.1-28.7-2c-15.8-1.1-34.8-2.4-42.2-2.9-7.4-.5-18.9-1.2-25.5-1.5s-14.2-.8-17-1.1l-5-.5-1.2-1.1-1.3-1v-6.3c0,0,1.5-1.9,1.5-1.9l1.4-1.9,17.8-.4,17.8-.4,4.3,4,4.3,4.1h60.7l.6-1.5.5-1.5h14.4l4.1-1.2c2.2-.6,4.8-1.7,5.7-2.5.8-.7,2.3-1.3,3.1-1.3h1.5l.7,12.3c1.6,27.4,6.4,45.8,17.7,67.9,7,13.4,13.1,22.6,22.2,32.9l7.6,8.7,6.5,5.5c7.6,6.4,20.7,15.2,31.1,20.9l7.5,4,11.7,3.9,11.8,4,11.3,2,11.4,1.9h26l9.6-1.1,9.7-1.2,11.5-3.9,11.5-4,10.7-5.3c12.7-6.3,20-11.2,31.6-21,11.9-10,15.7-14.1,25.1-27.4l8.1-11.4,6-12.1,6-12.1,4.1-15.5,4-15.5.6-12.5.5-12.5,1.9-1.7,1.8-1.8h3.8c0-.1,3.8-.2,3.8-.2l-3.4-.8-3.4-.8-.7-1.2-.7-1.1-.6-11.2-.5-11.2-2.7-7.4-2.7-7.5.5-5,.5-5.1-1.9-3.7-1.9-3.8h-3.5c0-.1-2-1.8-2-1.8l-2.1-1.7-4.7-8.8-4.7-8.9-8.4-11.1-8.4-11.2-6.3-6.1c-12-11.6-20.7-17.8-38.7-27.7l-10.2-5.7-3.8-.9c-2-.5-9.1-2.3-15.7-4.1l-12-3.1-12.2-1.1-12.3-1.1v-.8c0-.4-1.3-1.4-3-2.2l-3-1.5-18.2.4c-10,.2-19,.6-19.9.9l-1.7.6-2.6,5.8-2.6,5.9-6.3,2.2-6.2,2.2-2.5-.2c-3.3-.2-4.5-.2-11,.3l-5.5.4-2.2,1.1c-1.2.7-3.4,2.7-4.8,4.6l-2.6,3.4-2.8.5-2.9.6-.6,2.3-.6,2.3-6.4,3.3c-7.4,3.6-8.7,3.8-12.1,1.6l-2.3-1.5-1,1.7-1,1.8,1.4,1.4,1.4,1.3v5.7c.2,3.1.1,6.5,0,7.6l-.2,1.9,1.2.7,1.1.7-4.8,6.5c-2.6,3.6-7.5,11.1-10.8,16.6l-6,10.1h-1.6c0,.1-1.7.1-1.7.1l-.9,1.3c-.5.6-2.6,5-4.6,9.5l-3.7,8.4v8.7l-2.4,3.8c-1.4,2.1-3.4,4.9-4.4,6.3-1.1,1.4-2.5,4.1-3.2,6.2l-1.3,3.6,2,5,2.1,4.9-.7,1c-.3.5-2.5,1.4-4.7,2.1l-4.1,1.2h-10.5l-3.8-3c-2.1-1.6-4.8-3.4-6.1-3.8l-2.3-.9,7.4-.7c4.1-.4,9.2-1.2,11.3-1.7l3.7-1v-4.8l-5.1-1.5c-2.8-.9-7.8-2-11.2-2.6s-8.7-1.8-11.7-2.6l-5.5-1.6-7.5-5.2-7.5-5.2-7.1-3.2-7.1-3.2h-3.2c-1.8,0-7.1.7-11.7,1.7l-8.5,1.6-5.2-1.2-5.1-1.2-7.3-4.5-7.2-4.5-3-3.8-3.1-3.9v-3.3l2.5-2.4,2.4-2.5h3.8l3.2,4,3.1,3.9,5.2,1.6c6.9,2,9.1,1.9,22.1-1.1l11.2-2.6,8.5.5,8.5.6,10.7,5.5,10.7,5.5,6.3,1.1c3.5.5,8.5,1,11.1,1h4.8l6.5-1.6,6.5-1.7-.3-1.4-.3-1.5-11-5.9c-6-3.3-14.8-7.7-19.5-9.9s-9.6-4.7-11-5.6c-1.4-.8-5-2.7-8.2-4.2l-5.6-2.7-.6-2.5-.6-2.5-4.5-4.8-4.6-4.7h-9.5l-2.2-1.5-2.2-1.6-4.3.2-4.3.3-6.8-3.2c-3.8-1.8-7.4-3.2-8.1-3.2h-1.3l-.4-5.2-.4-5.3.9-1.3.9-1.2h4.9l3.9,2,3.9,2h6.3l15.7,5.9c8.6,3.3,21,8.2,27.6,10.9s13.4,5.2,15,5.6c1.6.4,7.6,3,13.2,5.7l10.3,4.9,6.5,1.6,6.5,1.6,1.5-1.2,1.6-1.3-.3-2-.3-2-7-4.7c-3.8-2.5-9.5-6.3-12.7-8.4-3.1-2-7.2-5.3-9.1-7.1l-3.6-3.5-3.2-6.1-3.3-6.1-4.4-5-4.5-4.9-3.6-1.8c-2-1-6.5-2.6-10.1-3.5s-8.8-2.7-11.5-4.1l-5-2.4-5.8-5.8-5.7-5.7-2-4.1-1.9-4-.7-5.2-.7-5.3,1.7-2.5,1.6-2.5h5l2.6,5.8,2.5,5.7,3.2,2.8c1.8,1.5,5.2,3.9,7.6,5.2l4.4,2.5h6.5l8.6,2.5c9,2.6,17.7,6.5,21,9.4,1,.9,3.3,3.9,5.1,6.6,1.8,2.8,5.1,7.1,7.4,9.7l4.1,4.6,5.6,3.7c6.1,4.1,12.8,6.9,21.3,9l5.4,1.3,1.4-.5,1.3-.5v-2.8l-4.9-5.4c-2.7-2.9-6.6-7.8-8.8-10.7-2.2-3-6.7-8.3-9.9-11.9-3.3-3.6-7-8.1-8.3-10-1.4-1.9-4.3-5.7-6.6-8.5l-4.2-5-.7-3.5-.6-3.6,3-4.7,3-4.7h3.9l1,1.8c.5.9,5.9,6,12,11.2s11.1,9.7,11.1,10,3.8,3.9,8.4,7.9l8.5,7.4,1.1,2.6,1.1,2.6,4.3,2.7,4.4,2.8h1.8c1.1,0,2.5-.4,3.3-.9l1.5-.9-1.4-4.2-1.4-4.2-2.9-3.7c-2.9-3.7-6.6-6.3-7.9-5.5l-.7.4-.7-2.2c-.4-1.3-2.2-5.5-4-9.4l-3.3-7.1-2.6-11.4c-2.8-12.4-3.8-15.4-6.3-18.3-4.7-5.2-11.9-11.9-14.3-13.1l-2.6-1.4-4.6-5.1-4.5-5-2.2-6.3-2.1-6.2-.5-9-.6-9,2-3.5,1.9-3.5,2.6-.3,2.6-.3,1.4,2.3,1.5,2.3.5,5.3.6,5.3,3.3,6.1,3.3,6.2,6.2,4.5,6.3,4.6v4.6l1.5.5,1.5.6v2.7l5.4,3.3,5.4,3.3,1.7,2.8,1.6,2.7-.3,1.9-.3,1.8,1.4,1.6,1.3,1.7h2.7l1.1,4.3c2,7.4,2.2,8.1,6,15.7l3.8,7.5,5.8,5.5c7,6.6,14.8,13,15.8,13h.8l-.7-5-.7-4.9-5-13.3c-4.4-11.9-9.7-28.1-15.5-48.3-1.8-6.2-5.3-16.4-16.3-47.3-3.4-9.6-3.6-10.9-1.4-14l1.5-2.2h6.6l1.7,1.8,1.6,1.9,2.9,8.4c3.8,10.9,8.7,22.5,11.1,26.4,1.9,3.1,3,5.7,12.4,28,2.6,6.1,5,11.9,5.6,13,.5,1.1,4.7,10.3,9.4,20.4,4.7,10.1,9.3,19.2,10.2,20.3l1.7,1.8h2.7v-2.5c0-1.4-1-7.9-2.1-14.3l-2.1-11.7.8-12.5c.4-6.9.7-16.5.6-21.5v-9c-.1,0-1.3-4.5-1.3-4.5l-1.2-4.5-3.3-5.5c-4.2-7.1-7.5-15.3-8.4-21l-.8-4.5.9-5.4c.5-3,1.5-7.8,2.4-10.7l1.5-5.3,2.6-3,2.6-3.1h8.1l-.8,5.2c-.5,2.9-.8,9.4-.9,14.3v9l2.2,3.8,2.3,3.9-1.3,2.6-1.3,2.7.3,2.3.4,2.3,2.1.9c1.2.5,3.8,1.1,5.8,1.5l3.7.5,2.3,5.3,2.4,5.2v46l3,8,2.9,8,3.3,5.4c1.8,3,3.5,6.3,3.9,7.3.3,1,.9,1.8,1.4,1.8h.9l1-3.7c1.7-6.7,2-12.2,3.5-50.3.9-20.6,2-45.8,2.6-56l1.1-18.5,1.1-5,1-5,1.6-1.3c.9-.6,2.4-1.2,3.4-1.2h1.8l1,2.6,1,2.6,1.5,23.1c.9,12.8,2,37.4,2.6,54.7,1,34,2,47.1,3.8,53.8l1.2,4.3,1.2-.4,1.2-.4,1.2-3.4,1.1-3.4.7-9.5.6-9.5,1.5-5.9,1.4-5.9,4.7-8.6c2.5-4.7,6.4-12,8.5-16.1l4-7.5-.6-8c-.3-4.4-.9-13-1.2-19.2l-.6-11.1,2.1-6.9,2.1-6.8,3.9-4.6,4-4.6,3.5-1.7,3.4-1.6h7.1l.9,1.6.9,1.7-.5,2.1c-.3,1.2-2,4-3.8,6.3-4.3,5.2-5.1,7.4-5.9,15.9l-.7,6.9,2.1,10.2,2.1,10.2v15.6l-1.1,4-1.1,4-4.8,8.5-4.8,8.5-1.1,5c-.5,2.8-1.5,9.5-2.2,15l-1.1,9.9.6,3.9c.4,2.1,1.3,5.4,2.1,7.3l1.4,3.5,2.1-1.1,2-1.1,1.6-3.2c1.6-2.9,6.2-14.2,13.4-32.2,2.5-6.4,11.6-26.1,16-34.5,2.8-5.4,13-29.6,13-30.8s.9-2.7,2-4.9c1-2.1,3-6.5,4.2-9.8l2.3-6h10l.3,3.5.3,3.5-2.5,7c-1.3,3.9-2.9,8.4-3.5,10-5.2,15-31.5,96.2-32.6,100.9l-1.4,6.1.5,2.3.6,2.2h1.9l2.7-4.6c1.5-2.5,5.8-9.4,9.7-15.2l7-10.7,5.5-5.5c3-3.1,8.5-8.3,12.3-11.7l6.7-6.1,2.5-5.6,2.4-5.5,1-5.9.9-5.9,3.7-7.8,3.7-7.8,4.7-4.5,4.6-4.5,4.3-1.9,4.2-1.9,4.8-.6,4.9-.5,2.1,1.1,2.2,1.2v2.7c0,3.6-.8,4.6-5.6,7l-4.1,2.1-2.8,3.3c-1.5,1.8-3.6,5.3-4.7,7.7l-1.8,4.3-1.5,8.2c-.8,4.4-1.7,9.7-2.1,11.6-.9,4.4-5.6,14.7-8.3,18l-1.9,2.4-4.1-.3-4-.2-3.8,2.5c-2.1,1.4-4.3,2.6-5,2.6h-1.3v2.4c0,2.6-1.3,5.5-4.7,10.3l-2.3,3.1v5l1.2.4,1.3.5-4.3,9-4.3,9.1.3,5.3.3,5.2,1.2.4,1.1.4,17.3-16.8c9.6-9.2,26.6-25.9,37.9-36.9,11.3-11.1,24.1-23.5,28.5-27.7l8-7.5,2.6-.7,2.7-.7,1.6,2.3c.9,1.3,1.6,3.1,1.6,3.9v1.6l-3,4.5c-4.1,6.1-12.8,16.9-21.3,26.5-4,4.5-9.2,10.8-11.7,14s-7,8.6-10,12-8.2,9.4-11.5,13.5c-3.3,4-8,9.6-10.5,12.4-2.5,2.9-6.6,7.8-9.2,11l-4.8,5.7v3.5l2,1.8,2,1.8,2.7-2.4c1.5-1.3,3.4-3.1,4.2-4,2.5-2.6,12.2-9.9,13.2-9.9s3-1.3,5.6-2.9l4.8-3,6.5-2c3.6-1.1,8.4-2.5,10.7-3.1l4.1-1,6.1-4.1,6.1-4,4.6-6.9,4.6-6.8,5.8-5.1,5.9-5.2,7.8-2,7.8-2,5.4.7,5.4.7,1.7,1.7,1.8,1.8-.4,3.3-.4,3.3-1.3.8-1.2.8h-10l-3.1,1.9-3.1,1.9-3.6,4.4c-2,2.5-6,8.4-8.7,13.3-2.8,4.8-5.6,9.2-6.3,9.9-5.8,5.4-17.1,11.5-27,14.6l-6.7,2.1-7.5,6-7.5,6.1-3.7,4.6c-2.1,2.6-4.1,4.9-4.4,5.2-1.3,1.1-2.9,5-2.9,6.9v2.1h2.3c1.3,0,5.8-.9,10.1-2l7.8-2.1,6.1-3.1c5.9-2.9,21.9-9.2,38.2-14.8,4.4-1.6,11.8-4.4,16.5-6.4,4.6-2,8.8-3.6,9.3-3.6s6.2-2,12.8-4.5l12-4.5,2.8-.2,2.9-.2,1.6,1.3,1.6,1.3v4.4l-1.2,1.7-1.3,1.7-34.5,17.4c-30.4,15.2-55.8,28.3-70,36-2.5,1.4-4.9,3.1-5.4,3.9l-.9,1.4.6,1.7.6,1.6h6.7l7.4-2.5,7.5-2.5,8.6-.7,8.6-.6,7.8,1.8,7.8,1.7,7.6-.4,7.6-.3,5.5-2.9c3-1.6,7.9-4.2,10.8-5.8l5.3-2.9,7-1.5,7-1.4,6.5,1.1,6.5,1.1,4.7,3.2,4.7,3.1.3,4.1.3,4.2-1.6,1.6-1.6,1.6-2.7-.7c-1.5-.3-4-1.5-5.7-2.5l-3-1.8h-5.4l-5.7,2.5-5.7,2.5-7.1,5.5-7.1,5.4-6,2.8-6,2.8-17.8-.3-17.8-.2-7.2,3c-13.7,5.9-16.7,7.3-18.3,9.1l-1.6,1.8.6,1.9.7,2,2.2.6c1.2.3,6.1.6,10.8.6s10.1.3,11.8.6l3.1.7v3.1l-2.7,2.8-2.8,2.9,1.4.8c1.4.9,10.2,2.4,13.6,2.3,1.1,0,6.5-.6,12-1.3l10-1.2,25.2-.3,25.3-.3,1.9-1.1,2-1h6.2l2,1,1.9,1.1v5.9l-2.4,1.5-2.4,1.6-3.3.4c-4.6.6-31.6,2.3-46.9,3-6.9.4-20.6,1.3-30.5,2.1-9.9.8-21.3,1.4-25.5,1.5-4.1.1-8.6.4-10,.8l-2.5.7-.3,2.8-.4,2.8.9.9.8.8,10,1.5,10,1.5,5.5,1.9c7.7,2.7,12.9,5.4,17,9.1l3.5,3.1,5.5,2.2,5.5,2.1h7.5c4.1.1,11.2-.2,15.6-.7l8.2-.9,7.2,2.2,7.2,2.2,5,5,4.9,4.9,1.5,3.5,1.4,3.4v5.7l-1.2,1.2c-.7.7-2,1.2-2.9,1.2h-1.7l-2.9-3.1-2.8-3-3.8-2-3.8-2-6.2-.5-6.2-.6-6.5,1.5c-3.6.9-9.6,1.8-13.5,2.2l-7,.7-6.6-1.6-6.6-1.5-11.3-5.5-11.3-5.6h-28.7v1.8c-.5,4.9,0,5.3,12,11.5,4.7,2.4,18.4,9.5,30.5,15.9,12.1,6.3,31,16.1,42,21.8l20,10.2,2.3,2.1,2.2,2v5.6l-2.2,1.5-2.2,1.6h-4.1l-4.3-2.5c-2.3-1.3-8.6-3.9-14-5.8-5.3-1.9-13.7-5-18.7-6.9-18.3-7.1-41.2-15.7-48-18.1-3.8-1.4-11.4-4.3-16.9-6.6-5.4-2.3-10.4-4.1-11.2-4.1h-1.3l-1.5,2.8-1.4,2.8,8,4.8c4.4,2.6,10.7,6.9,14,9.4l6.1,4.7,9.8,13.2,9.9,13.1,2.5,2,2.6,2.1,9.7,3.1,9.7,3.1,7,4.2,7,4.3,4.2,7.3,4.1,7.3,1,5.6,1,5.7-.9,1.7c-.5,1-1.8,2.2-2.9,2.8l-1.9,1-1.4-.6-1.4-.5-2.9-5.6-2.9-5.6-6.5-4.6-6.5-4.5-8.3-1.8c-4.5-.9-11.5-2.7-15.5-3.9l-7.2-2.1-7-7.3c-3.8-4-10.1-10.7-14-14.7l-7-7.4-8.5-4.1c-9.6-4.7-17.6-8.3-18.4-8.3s-1,.9-1.7,2.1l-1.1,2.1,3,3.2c3,3.1,6.2,7.2,17,21.6,3.1,4.1,9,11.6,13.2,16.5,8.9,10.6,25.6,31.1,32,39.3,2.5,3.2,7.3,9.1,10.8,13.1l6.2,7.2v4.9l-2.1,2.1-2,2-2.2-.7-2.2-.7-35-34c-19.2-18.8-39.9-39-45.8-44.9l-10.8-10.9-1.8.6-1.9.6-.6,1.5-.6,1.4,4.4,5.8,4.3,5.7,5.5,10.5c6,11.2,6.3,12.2,8.3,24.6l1.3,8.1,2.5,4.9,2.5,4.9,4.4,4.1c2.3,2.2,6,5.2,8,6.7s5.3,4.4,7.3,6.5l3.6,3.7,2.9,5.7,3,5.7,1.1,7.2,1.1,7.2-.6,4-.7,3.9-1.9,3.9-2,3.9h-4.8l-1.2-1.5-1.3-1.5-.8-8.5-.7-8.5-1.9-3.3-1.9-3.2-9.9-6.7-10-6.7-5.8-6.3-5.8-6.3-2.5-4.7-2.4-4.8-2.6-9.2c-1.5-5.1-3.6-11.1-4.7-13.3l-1.9-4-6.7-7c-3.7-3.8-8.7-9.4-11.2-12.4l-4.6-5.5-1.3,2.3-1.2,2.3,2.7,8.6c4,13.3,14.3,45.4,18.2,57.2,2,5.8,4.1,12.3,4.8,14.5,3.5,11.1,14.5,46.3,15,48.3l.7,2.3-1.2,1.4-1.2,1.5h-3.2c-1.7,0-3.6-.4-4.2-.8l-1.1-.7-6.7-16c-3.7-8.8-9.2-21.2-12.1-27.5s-6.9-15.3-9-20c-2-4.7-5.8-13.2-8.5-19-2.6-5.8-6.8-15-9.2-20.5-9.2-20.6-9.6-21.3-12.4-18.5l-1.1,1.1,1.9,8.7c1,4.8,2.3,10.1,2.9,11.7l1,3,.6,8,.5,8-2.1,12.4-2.2,12.4,1.1,5.1,1.1,5.1,4.8,9.5,4.9,9.5,1.6,5.4,1.6,5.5v14.4l-2.1,6.8-2.1,6.9-1.9,2.6-1.9,2.7-2.7.6-2.6.7-1.9-1.9-1.9-1.9,1.5-6,1.6-6.1v-8.7l-2.6-5.5c-1.4-3-3.6-6.8-4.8-8.5-3.4-4.4-10.1-18.2-12-24.4l-1.6-5.5v-5c0-2.8.5-9.4,1.2-14.7l1.2-9.6-4.3-13.4c-2.3-7.4-5.3-15.8-6.6-18.6l-2.4-5.3h-1.3c-.7,0-1.8.4-2.4.8l-1.2.7-.5,11.5c-.3,6.3-1,19.4-1.6,29-2.6,45.7-3.1,55.9-3.7,74.8l-.7,20.3-1.4,1.5-1.4,1.4h-2.2c-1.2,0-2.9-.4-3.7-.7h0Z" fill="#ddd5a6"/>
    <path d="M378.9,421.5c-3.1-.7-8.2-2.5-11.4-3.9l-5.7-2.6-6.3-4.5-6.2-4.4-4-4.8c-2.2-2.6-5.5-7-7.2-9.7l-3.1-5-2.7-8.5-2.7-8.6v-9.6c.1,0,.2-9.6.2-9.6l2.2-8.4c2.9-10.7,3.9-12.7,11.5-22.4l6.3-8,4.6-3,4.6-3v-2c.1,0,7.3-3.2,7.3-3.2l7.2-3.2,6.6-1c3.6-.6,8.8-1.1,11.5-1.1h4.9c0,.1,7,1.6,7,1.6,3.9.8,8.9,1.7,11.1,2l4.1.6.8-1.2.8-1.3.6-15.3.6-15.4,4.6,2.3c2.5,1.3,5.7,3.1,7,4l2.3,1.7h2.6c1.4,0,3.5-.3,4.8-.6l2.2-.6v-4.1l2.1-3.3,2.1-3.4-.3-3.5-.3-3.5,1.2-1.2,1.2-1.2v2.4h2.5l3.4,8.5,3.3,8.6.3,3.4c.2,1.9,1.1,5.9,1.9,8.9,1.6,5.5,2.7,11.6,4.8,26.5l1.1,8.4-1.2,11.5-1.2,11.5-1.9,8.7c-1.1,4.8-3.7,13.6-5.8,19.6l-3.8,10.9-4.4,7.5-4.3,7.5-7.6,7.6-7.6,7.5-5.5,3.1c-3,1.7-8.4,4.1-12,5.3l-6.5,2.2-11,.4-11,.4-5.6-1.5h0Z" fill="#ddd5a6"/>
    <path d="M182.7,351.3c-.9-4.3-2.2-10.9-2.8-14.8l-1.2-6.9.6-14.1.6-14,2-12,1.9-12,2.1-4.2c1.2-2.3,2.1-4.7,2.1-5.4v-1.1l1.5,1.2c.8.6,4,2.7,7.1,4.6l5.6,3.4h3.5l2.6-2,2.5-2h3.2v.8c0,.4-2.3,3.9-5.1,7.7-6.8,9.5-11.3,17.6-15.4,28.1l-3.5,8.9-2,9.6-2,9.6-.7,11.2-.8,11.1-1.8-7.7h0Z" fill="#ddd5a6"/>
    <path d="M317,302.4c-1.4-.2-5-.9-8-1.5l-5.5-1.1-7.2-3.5-7.3-3.4-4.7-4.1c-5.5-4.7-10.3-10.5-10.3-12.4v-1.2l3.3-.7c1.7-.4,5.1-1.8,7.4-3.1l4.2-2.4h4.1l5,3.6,5.1,3.7,3.9-1.8,3.9-1.7,3.3,1.2,3.3,1.1,9.5.6,9.5.6,1.4-1.7,1.3-1.6h22.9l7.5-1.6c4.2-.8,7.8-1.3,8.1-1.1.2.3-.7,2.3-2,4.4l-2.5,4-7.5,6.9-7.5,6.9-5.4,3.2-5.3,3.2-5.8,1.5-5.7,1.5-8.3.5c-4.5.2-9.3.3-10.7,0h0Z" fill="#ddd5a6"/>
  </g>
  <g>
    <path d="M320,628.3c-.8-.3-1.8-1.1-2.2-1.7l-.8-1.1v-30l-2-34c-1.1-18.7-2.6-42.5-3.2-52.8l-1.1-18.8-2.6.3-2.6.3-1.3,8c-.7,4.4-2.2,12.4-3.3,17.7l-2,9.8-2.5,5.7c-1.4,3.2-3.4,7.4-4.5,9.3-1.1,1.9-2.9,5.4-4,7.7l-1.9,4.2-1.1,5.8-1.1,5.8,1.1,12.6,1.1,12.6-1.5,6.8c-2.1,9-3.5,11.4-10.3,18.3l-5.7,5.9-2.9.7-2.9.7-2.9-3.1c-1.5-1.7-2.8-3.3-2.8-3.5s2-2.7,4.5-5.6l4.5-5.2,1.7-4.5,1.6-4.4-2.8-17-2.8-16.9,1.1-8.4,1.1-8.3,4.5-8.9,4.4-8.8,1.6-6.1,1.6-6.2v-29l-1.5-1.2-1.5-1.2-1.5.6-1.6.6-2.6,5.7c-1.4,3.2-5,11.7-8.1,18.8-12.4,29.4-14.3,33.7-21.5,49-4.1,8.8-8,17.8-8.7,20s-3.2,8.3-5.6,13.6c-2.4,5.3-4.4,10.3-4.4,11.1s-.5,1.9-1.2,2.6l-1.2,1.2h-6.1l-2.2-1.8-2.2-1.7,2.3-8c1.3-4.4,3.4-10.2,4.6-13,1.2-2.7,3.4-9.5,5-15,1.5-5.5,5.4-17.9,8.5-27.5,3.2-9.6,8.6-26.7,12.1-38s7.1-22.3,7.9-24.4l1.6-3.9-2-2-2-2-1.4,1.2c-.8.6-4.3,6.6-7.7,13.3l-6.2,12.1-3.1,3.9-3.2,3.9-6,4.4-6.1,4.3-5.8,6.6-5.8,6.7-3.8,11.7c-2.1,6.4-5,14.3-6.5,17.6l-2.8,5.9-3.7,3.7c-2.1,2.1-5.8,5-8.3,6.4l-4.5,2.7-4.8.5-4.9.6-1.8-2-1.9-2,.4-2.3.3-2.2,6-4.7,6-4.6,2.2-4,2.2-4,2.5-12.6,2.6-12.7,3.2-7.8,3.2-7.8,12.1-12,12.1-12,3.8-10c2.1-5.5,4.8-11.9,6.1-14.1l2.4-4.1-2.3-2.2c-1.2-1.1-2.6-2.1-3-2.1s-4.2,3.5-8.4,7.8c-4.3,4.3-15.2,14.9-24.4,23.6s-26,25-37.5,36.2l-20.8,20.4-2.3.6-2.3.6-1.9-1.7-2-1.8v-2.9l3.7-5.2c2-2.8,5.4-7.1,7.5-9.6,2.2-2.5,6.1-7.1,8.8-10.3,2.8-3.1,5-6.1,5-6.6s2.1-3.3,4.8-6.3c7.5-8.7,22.4-26.8,26.1-31.8,1.9-2.5,6-7.4,9.1-11s8-9.5,10.9-13.3l5.3-6.7-.5-1.3c-.2-.7-1.6-1.9-3-2.6l-2.6-1.4-6.7,6.2-6.8,6.2-5.6,3.4-5.6,3.4-8.8,2.5c-4.9,1.4-9.5,2.6-10.3,2.6s-4.2,1.4-7.4,3.2l-6,3.1-5.6,7.6c-10.2,13.9-15.7,18.6-25.8,22.3l-5,1.8h-9.1l-5.5-2.7-5.4-2.8-.3-1.8-.4-1.8,1.2-1.4,1.2-1.5h13.9l4.3-3,4.3-2.9,3.1-4.8c1.6-2.6,3.8-6.4,4.9-8.3,3-5.7,9.7-14.2,15.5-19.6l5.4-5.1,6-1.7c3.2-.9,8.5-2.7,11.8-4l5.8-2.3,4.3-3.4c2.3-1.9,5.3-4.9,6.6-6.8,1.3-1.8,4.5-5.7,7.2-8.6,2.6-2.8,4.7-5.5,4.7-5.8s-1.4-1.3-3.1-2.1l-3.2-1.6-9.1,3.5c-5,1.9-16.3,6.2-25.1,9.6-8.8,3.3-20.5,7.8-26,9.9s-12.5,4.8-15.5,6-8.2,3.2-11.5,4.4c-3.3,1.3-7.3,2.8-9,3.5-1.6.6-4.3,1.7-6,2.3-1.6.6-3.9,1.8-5,2.5l-1.9,1.3h-6.5l-1.6-1.6-1.6-1.7.3-3,.3-3.1,6-3.5c3.3-1.8,14.6-7.7,25-13.1,10.5-5.3,20.9-10.9,23.2-12.3,2.4-1.5,4.5-2.7,4.8-2.7,1.1,0,47.1-24.3,48.8-25.7l1.7-1.6v-5.7h-2.2c-1.3,0-5.9,1.2-10.3,2.6l-8,2.6-7.5.5-7.5.5-10.8-2.2-10.9-2.2-3.2.5c-3.6.6-9.2,3.2-21.5,10.1l-8.5,4.7-4.3,1.1-4.4,1.1-5.6-.6-5.6-.6-6.3-3.1-6.3-3.1-2.1-2.6c-2.5-3.2-2.5-4.4,0-7.4l1.9-2.3,5.4,1.7,5.5,1.7h7.8l5.4-2.5c3-1.4,7.5-4.1,10-5.9,5.9-4.4,13.4-8.7,19.1-11.1l4.5-1.9h17.5c0-.1,17.5-.1,17.5-.1l8.5-3.3c4.6-1.9,10.1-4.4,12.2-5.5l3.8-2.2v-4.4l-2.1-1.1-2-1.1-28.7-2c-15.8-1.1-34.8-2.4-42.2-2.9-7.4-.5-18.9-1.2-25.5-1.5s-14.2-.8-17-1.1l-5-.5-1.2-1.1c-.7-.6-1.3-1.7-1.3-2.4v-1.4h137.7l.7,3.8c.3,2,.6,5.7.6,8.2,0,5.5,2.3,19.3,4.4,27.8,5.9,22.6,19.1,47.4,34.9,65.3l7.6,8.7,6.5,5.5c7.6,6.4,20.7,15.2,31.1,20.9l7.5,4,11.7,3.9,11.8,4,11.3,2,11.4,1.9h26l9.6-1.1,9.7-1.2,11.5-3.9,11.5-4,10.7-5.3c12.7-6.3,20-11.2,31.6-21,11.9-10,15.7-14.1,25.1-27.4l8.1-11.4,6-12.1,6-12.1,4.1-15.5,4-15.5.7-13,.7-13,3.5-.5c1.9-.4,4.4-1.1,5.5-1.8l2-1.1h-2.7c0-.1-2.7-.1-2.7-.1l-1.4-1.4-1.4-1.4-.6-11.4-.5-11.3-2.7-7.4-2.7-7.5.5-5,.5-5.1-1.9-3.7-1.9-3.8h-3.5c0-.1-2-1.8-2-1.8l-2.1-1.7-4.7-8.8-4.7-8.9-8.4-11.1-8.4-11.2-6.3-6.1c-12-11.6-20.7-17.8-38.7-27.7l-10.2-5.7-3.8-.9c-2-.5-9.1-2.3-15.7-4.1l-12-3.1-12.2-1.1-12.3-1.1v-.8c0-.4-1.3-1.4-3-2.2l-3-1.5-18.2.4c-10,.2-19,.6-19.9.9l-1.7.6-2.6,5.8-2.6,5.9-6.3,2.2-6.2,2.2-2.5-.2c-3.3-.2-4.5-.2-11,.3l-5.5.4-2.2,1.1c-1.2.7-3.4,2.7-4.8,4.6l-2.6,3.4-2.8.5-2.9.6-.6,2.3-.6,2.3-6.4,3.3c-7.4,3.6-8.7,3.8-12.1,1.6l-2.3-1.5-1,1.7-1,1.8,1.4,1.4,1.4,1.3v5.7c.2,3.1.1,6.5,0,7.6l-.2,1.9,1.2.7,1.1.7-4.8,6.5c-2.6,3.6-7.5,11.1-10.8,16.6l-6,10.1h-1.6c0,.1-1.7.1-1.7.1l-.9,1.3c-.5.6-2.6,5-4.6,9.5l-3.7,8.4v8.7l-2.4,3.8c-1.4,2.1-3.4,4.9-4.4,6.3-1.1,1.4-2.5,4.1-3.2,6.2l-1.3,3.6,2,5,2.1,4.9-.7,1c-.3.5-2.5,1.4-4.7,2.1l-4.1,1.2h-10.5l-3.8-3c-2.1-1.6-4.8-3.4-6.1-3.8l-2.3-.9,7.4-.7c4.1-.4,9.2-1.2,11.3-1.7l3.7-1v-4.8l-5.1-1.5c-2.8-.9-7.8-2-11.2-2.6s-8.7-1.8-11.7-2.6l-5.5-1.6-7.5-5.2-7.5-5.2-7.1-3.2-7.1-3.2h-3.2c-1.8,0-7.1.7-11.7,1.7l-8.5,1.6-5.2-1.2-5.1-1.2-7.3-4.5-7.2-4.5-3-3.8-3.1-3.9v-3.3l2.5-2.4,2.4-2.5h3.8l3.2,4,3.1,3.9,5.2,1.6c6.9,2,9.1,1.9,22.1-1.1l11.2-2.6,8.5.5,8.5.6,10.7,5.5,10.7,5.5,6.3,1.1c3.5.5,8.5,1,11.1,1h4.8l6.5-1.6,6.5-1.7-.3-1.4-.3-1.5-11-5.9c-6-3.3-14.8-7.7-19.5-9.9s-9.6-4.7-11-5.6c-1.4-.8-5-2.7-8.2-4.2l-5.6-2.7-.6-2.5-.6-2.5-4.5-4.8-4.6-4.7h-9.5l-2.2-1.5-2.2-1.6-4.3.2-4.3.3-6.8-3.2c-3.8-1.8-7.4-3.2-8.1-3.2h-1.3l-.4-5.2-.4-5.3.9-1.3.9-1.2h4.9l3.9,2,3.9,2h6.3l15.7,5.9c8.6,3.3,21,8.2,27.6,10.9s13.4,5.2,15,5.6c1.6.4,7.6,3,13.2,5.7l10.3,4.9,6.5,1.6,6.5,1.6,1.5-1.2,1.6-1.3-.3-2-.3-2-7-4.7c-3.8-2.5-9.5-6.3-12.7-8.4-3.1-2-7.2-5.3-9.1-7.1l-3.6-3.5-3.2-6.1-3.3-6.1-4.4-5-4.5-4.9-3.6-1.8c-2-1-6.5-2.6-10.1-3.5s-8.8-2.7-11.5-4.1l-5-2.4-5.8-5.8-5.7-5.7-2-4.1-1.9-4-.7-5.2-.7-5.3,1.7-2.5,1.6-2.5h5l2.6,5.8,2.5,5.7,3.2,2.8c1.8,1.5,5.2,3.9,7.6,5.2l4.4,2.5h6.5l8.6,2.5c9,2.6,17.7,6.5,21,9.4,1,.9,3.3,3.9,5.1,6.6,1.8,2.8,5.1,7.1,7.4,9.7l4.1,4.6,5.6,3.7c6.1,4.1,12.8,6.9,21.3,9l5.4,1.3,1.4-.5,1.3-.5v-2.8l-4.9-5.4c-2.7-2.9-6.6-7.8-8.8-10.7-2.2-3-6.7-8.3-9.9-11.9-3.3-3.6-7-8.1-8.3-10-1.4-1.9-4.3-5.7-6.6-8.5l-4.2-5-.7-3.5-.6-3.6,3-4.7,3-4.7h3.9l1,1.8c.5.9,5.9,6,12,11.2s11.1,9.7,11.1,10,3.8,3.9,8.4,7.9l8.5,7.4,1.1,2.6,1.1,2.6,4.3,2.7,4.4,2.8h1.8c1.1,0,2.5-.4,3.3-.9l1.5-.9-1.4-4.2-1.4-4.2-2.9-3.7c-2.9-3.7-6.6-6.3-7.9-5.5l-.7.4-.7-2.2c-.4-1.3-2.2-5.5-4-9.4l-3.3-7.1-2.6-11.4c-2.8-12.4-3.8-15.4-6.3-18.3-4.7-5.2-11.9-11.9-14.3-13.1l-2.6-1.4-4.6-5.1-4.5-5-2.2-6.3-2.1-6.2-.5-9-.6-9,2-3.5,1.9-3.5,2.6-.3,2.6-.3,1.4,2.3,1.5,2.3.5,5.3.6,5.3,3.3,6.1,3.3,6.2,6.2,4.5,6.3,4.6v4.6l1.5.5,1.5.6v2.7l5.4,3.3,5.4,3.3,1.7,2.8,1.6,2.7-.3,1.9-.3,1.8,1.4,1.6,1.3,1.7h2.7l1.1,4.3c2,7.4,2.2,8.1,6,15.7l3.8,7.5,5.8,5.5c7,6.6,14.8,13,15.8,13h.8l-.7-5-.7-4.9-5-13.3c-4.4-11.9-9.7-28.1-15.5-48.3-1.8-6.2-5.3-16.4-16.3-47.3-3.4-9.6-3.6-10.9-1.4-14l1.5-2.2h6.6l1.7,1.8,1.6,1.9,2.9,8.4c3.8,10.9,8.7,22.5,11.1,26.4,1.9,3.1,3,5.7,12.4,28,2.6,6.1,5,11.9,5.6,13,.5,1.1,4.7,10.3,9.4,20.4,4.7,10.1,9.3,19.2,10.2,20.3l1.7,1.8h2.7v-2.5c0-1.4-1-7.9-2.1-14.3l-2.1-11.7.8-12.5c.4-6.9.7-16.5.6-21.5v-9c-.1,0-1.3-4.5-1.3-4.5l-1.2-4.5-3.3-5.5c-4.2-7.1-7.5-15.3-8.4-21l-.8-4.5.9-5.4c.5-3,1.5-7.8,2.4-10.7l1.5-5.3,2.6-3,2.6-3.1h8.1l-.8,5.2c-.5,2.9-.8,9.4-.9,14.3v9l2.2,3.8,2.3,3.9-1.3,2.6-1.3,2.7.3,2.3.4,2.3,2.1.9c1.2.5,3.8,1.1,5.8,1.5l3.7.5,2.3,5.3,2.4,5.2v46l3,8,2.9,8,3.3,5.4c1.8,3,3.5,6.3,3.9,7.3.3,1,.9,1.8,1.4,1.8h.9l1-3.7c1.7-6.7,2-12.2,3.5-50.3.9-20.6,2-45.8,2.6-56l1.1-18.5,1.1-5,1-5,1.6-1.3c.9-.6,2.4-1.2,3.4-1.2h1.8l1,2.6,1,2.6,1.5,23.1c.9,12.8,2,37.4,2.6,54.7,1,34,2,47.1,3.8,53.8l1.2,4.3,1.2-.4,1.2-.4,1.2-3.4,1.1-3.4.7-9.5.6-9.5,1.5-5.9,1.4-5.9,4.7-8.6c2.5-4.7,6.4-12,8.5-16.1l4-7.5-.6-8c-.3-4.4-.9-13-1.2-19.2l-.6-11.1,2.1-6.9,2.1-6.8,3.9-4.6,4-4.6,3.5-1.7,3.4-1.6h7.1l.9,1.6.9,1.7-.5,2.1c-.3,1.2-2,4-3.8,6.3-4.3,5.2-5.1,7.4-5.9,15.9l-.7,6.9,2.1,10.2,2.1,10.2v15.6l-1.1,4-1.1,4-4.8,8.5-4.8,8.5-1.1,5c-.5,2.8-1.5,9.5-2.2,15l-1.1,9.9.6,3.9c.4,2.1,1.3,5.4,2.1,7.3l1.4,3.5,2.1-1.1,2-1.1,1.6-3.2c1.6-2.9,6.2-14.2,13.4-32.2,2.5-6.4,11.6-26.1,16-34.5,2.8-5.4,13-29.6,13-30.8s.9-2.7,2-4.9c1-2.1,3-6.5,4.2-9.8l2.3-6h10l.3,3.5.3,3.5-2.5,7c-1.3,3.9-2.9,8.4-3.5,10-5.2,15-31.5,96.2-32.6,100.9l-1.4,6.1.5,2.3.6,2.2h1.9l2.7-4.6c1.5-2.5,5.8-9.4,9.7-15.2l7-10.7,5.5-5.5c3-3.1,8.5-8.3,12.3-11.7l6.7-6.1,2.5-5.6,2.4-5.5,1-5.9.9-5.9,3.7-7.8,3.7-7.8,4.7-4.5,4.6-4.5,4.3-1.9,4.2-1.9,4.8-.6,4.9-.5,2.1,1.1,2.2,1.2v2.7c0,3.6-.8,4.6-5.6,7l-4.1,2.1-2.8,3.3c-1.5,1.8-3.6,5.3-4.7,7.7l-1.8,4.3-1.5,8.2c-.8,4.4-1.7,9.7-2.1,11.6-.9,4.4-5.6,14.7-8.3,18l-1.9,2.4-4.1-.3-4-.2-3.8,2.5c-2.1,1.4-4.3,2.6-5,2.6h-1.3v2.4c0,2.6-1.3,5.5-4.7,10.3l-2.3,3.1v5l1.2.4,1.3.5-4.3,9-4.3,9.1.3,5.3.3,5.2,1.2.4,1.1.4,17.3-16.8c9.6-9.2,26.6-25.9,37.9-36.9,11.3-11.1,24.1-23.5,28.5-27.7l8-7.5,2.6-.7,2.7-.7,1.6,2.3c.9,1.3,1.6,3.1,1.6,3.9v1.6l-3,4.5c-4.1,6.1-12.8,16.9-21.3,26.5-4,4.5-9.2,10.8-11.7,14s-7,8.6-10,12-8.2,9.4-11.5,13.5c-3.3,4-8,9.6-10.5,12.4-2.5,2.9-6.6,7.8-9.2,11l-4.8,5.7v3.5l2,1.8,2,1.8,2.7-2.4c1.5-1.3,3.4-3.1,4.2-4,2.5-2.6,12.2-9.9,13.2-9.9s3-1.3,5.6-2.9l4.8-3,6.5-2c3.6-1.1,8.4-2.5,10.7-3.1l4.1-1,6.1-4.1,6.1-4,4.6-6.9,4.6-6.8,5.8-5.1,5.9-5.2,7.8-2,7.8-2,5.4.7,5.4.7,1.7,1.7,1.8,1.8-.4,3.3-.4,3.3-1.3.8-1.2.8h-10l-3.1,1.9-3.1,1.9-3.6,4.4c-2,2.5-6,8.4-8.7,13.3-2.8,4.8-5.6,9.2-6.3,9.9-5.8,5.4-17.1,11.5-27,14.6l-6.7,2.1-7.5,6-7.5,6.1-3.7,4.6c-2.1,2.6-4.1,4.9-4.4,5.2-1.3,1.1-2.9,5-2.9,6.9v2.1h2.3c1.3,0,5.8-.9,10.1-2l7.8-2.1,6.1-3.1c5.9-2.9,21.9-9.2,38.2-14.8,4.4-1.6,11.8-4.4,16.5-6.4,4.6-2,8.8-3.6,9.3-3.6s6.2-2,12.8-4.5l12-4.5,2.8-.2,2.9-.2,1.6,1.3,1.6,1.3v4.4l-1.2,1.7-1.3,1.7-34.5,17.4c-30.4,15.2-55.8,28.3-70,36-2.5,1.4-4.9,3.1-5.4,3.9l-.9,1.4.6,1.7.6,1.6h6.7l7.4-2.5,7.5-2.5,8.6-.7,8.6-.6,7.8,1.8,7.8,1.7,7.6-.4,7.6-.3,5.5-2.9c3-1.6,7.9-4.2,10.8-5.8l5.3-2.9,7-1.5,7-1.4,6.5,1.1,6.5,1.1,4.7,3.2,4.7,3.1.3,4.1.3,4.2-1.6,1.6-1.6,1.6-2.7-.7c-1.5-.3-4-1.5-5.7-2.5l-3-1.8h-5.4l-5.7,2.5-5.7,2.5-7.1,5.5-7.1,5.4-6,2.8-6,2.8-17.8-.3-17.8-.2-7.2,3c-13.7,5.9-16.7,7.3-18.3,9.1l-1.6,1.8.6,1.9.7,2,2.2.6c1.2.3,6.1.6,10.8.6s10.1.3,11.8.6l3.1.7v3.1l-2.7,2.8-2.8,2.9,1.4.8c1.5.9,10.5,2.4,13.6,2.2,1.1-.1,8-.4,15.3-.7l13.2-.6v2.2h56.9l.6,1,.6.9-2.5,1.6-2.4,1.6-3.3.4c-4.6.6-31.6,2.3-46.9,3-6.9.4-20.6,1.3-30.5,2.1-9.9.8-21.3,1.4-25.5,1.5-4.1.1-8.6.4-10,.8l-2.5.7-.3,2.8-.4,2.8.9.9.8.8,10,1.5,10,1.5,5.5,1.9c7.7,2.7,12.9,5.4,17,9.1l3.5,3.1,5.5,2.2,5.5,2.1h7.5c4.1.1,11.2-.2,15.6-.7l8.2-.9,7.2,2.2,7.2,2.2,5,5,4.9,4.9,1.5,3.5,1.4,3.4v5.7l-1.2,1.2c-.7.7-2,1.2-2.9,1.2h-1.7l-2.9-3.1-2.8-3-3.8-2-3.8-2-6.2-.5-6.2-.6-6.5,1.5c-3.6.9-9.6,1.8-13.5,2.2l-7,.7-6.6-1.6-6.6-1.5-11.3-5.5-11.3-5.6h-28.7v1.8c-.5,4.9,0,5.3,12,11.5,4.7,2.4,18.4,9.5,30.5,15.9,12.1,6.3,31,16.1,42,21.8l20,10.2,2.3,2.1,2.2,2v5.6l-2.2,1.5-2.2,1.6h-4.1l-4.3-2.5c-2.3-1.3-8.6-3.9-14-5.8-5.3-1.9-13.7-5-18.7-6.9-18.3-7.1-41.2-15.7-48-18.1-3.8-1.4-11.4-4.3-16.9-6.6-5.4-2.3-10.4-4.1-11.2-4.1h-1.3l-1.5,2.8-1.4,2.8,8,4.8c4.4,2.6,10.7,6.9,14,9.4l6.1,4.7,9.8,13.2,9.9,13.1,2.5,2,2.6,2.1,9.7,3.1,9.7,3.1,7,4.2,7,4.3,4.2,7.3,4.1,7.3,1,5.6,1,5.7-.9,1.7c-.5,1-1.8,2.2-2.9,2.8l-1.9,1-1.4-.6-1.4-.5-2.9-5.6-2.9-5.6-6.5-4.6-6.5-4.5-8.3-1.8c-4.5-.9-11.5-2.7-15.5-3.9l-7.2-2.1-7-7.3c-3.8-4-10.1-10.7-14-14.7l-7-7.4-8.5-4.1c-9.6-4.7-17.6-8.3-18.4-8.3s-1,.9-1.7,2.1l-1.1,2.1,3,3.2c3,3.1,6.2,7.2,17,21.6,3.1,4.1,9,11.6,13.2,16.5,8.9,10.6,25.6,31.1,32,39.3,2.5,3.2,7.3,9.1,10.8,13.1l6.2,7.2v4.9l-2.1,2.1-2,2-2.2-.7-2.2-.7-35-34c-19.2-18.8-39.9-39-45.8-44.9l-10.8-10.9-1.8.6-1.9.6-.6,1.5-.6,1.4,4.4,5.8,4.3,5.7,5.5,10.5c6,11.2,6.3,12.2,8.3,24.6l1.3,8.1,2.5,4.9,2.5,4.9,4.4,4.1c2.3,2.2,6,5.2,8,6.7s5.3,4.4,7.3,6.5l3.6,3.7,2.9,5.7,3,5.7,1.1,7.2,1.1,7.2-.6,4-.7,3.9-1.9,3.9-2,3.9h-4.8l-1.2-1.5-1.3-1.5-.8-8.5-.7-8.5-1.9-3.3-1.9-3.2-9.9-6.7-10-6.7-5.8-6.3-5.8-6.3-2.5-4.7-2.4-4.8-2.6-9.2c-1.5-5.1-3.6-11.1-4.7-13.3l-1.9-4-6.7-7c-3.7-3.8-8.7-9.4-11.2-12.4l-4.6-5.5-1.3,2.3-1.2,2.3,2.7,8.6c4,13.3,14.3,45.4,18.2,57.2,2,5.8,4.1,12.3,4.8,14.5,3.5,11.1,14.5,46.3,15,48.3l.7,2.3-1.2,1.4-1.2,1.5h-3.2c-1.7,0-3.6-.4-4.2-.8l-1.1-.7-6.7-16c-3.7-8.8-9.2-21.2-12.1-27.5s-6.9-15.3-9-20c-2-4.7-5.8-13.2-8.5-19-2.6-5.8-6.8-15-9.2-20.5-9.2-20.6-9.6-21.3-12.4-18.5l-1.1,1.1,1.9,8.7c1,4.8,2.3,10.1,2.9,11.7l1,3,.6,8,.5,8-2.1,12.4-2.2,12.4,1.1,5.1,1.1,5.1,4.8,9.5,4.9,9.5,1.6,5.4,1.6,5.5v14.4l-2.1,6.8-2.1,6.9-1.9,2.6-1.9,2.7-2.7.6-2.6.7-1.9-1.9-1.9-1.9,1.5-6,1.6-6.1v-8.7l-2.6-5.5c-1.4-3-3.6-6.8-4.8-8.5-3.4-4.4-10.1-18.2-12-24.4l-1.6-5.5v-5c0-2.8.5-9.4,1.2-14.7l1.2-9.6-4.3-13.4c-2.3-7.4-5.3-15.8-6.6-18.6l-2.4-5.3h-1.3c-.7,0-1.8.4-2.4.8l-1.2.7-.5,11.5c-.3,6.3-1,19.4-1.6,29-2.6,45.7-3.1,55.9-3.7,74.8l-.7,20.3-1.4,1.5-1.4,1.4h-2.2c-1.2,0-2.9-.4-3.7-.7h0Z" fill="#d2d2ae"/>
    <path d="M378.9,421.5c-3.1-.7-8.2-2.5-11.4-3.9l-5.7-2.6-6.3-4.5-6.2-4.4-4-4.8c-2.2-2.6-5.5-7-7.2-9.7l-3.1-5-2.7-8.5-2.7-8.6v-9.6c.1,0,.2-9.6.2-9.6l2.2-8.4c2.9-10.7,3.9-12.7,11.5-22.4l6.3-8,4.6-3,4.6-3v-2c.1,0,7.3-3.2,7.3-3.2l7.2-3.2,6.6-1c3.6-.6,8.6-1.1,11.1-1.1h4.6l7.9,1.6c4.3,1,9.6,1.7,11.8,1.8h4c0,.1.5-3.9.5-3.9l.5-4,.8,1.3.8,1.2,5-.6,4.9-.7,7.2,3.8,7.2,3.8,4-4.8,4-4.8,2.1-5.9,2.1-6h.9c0,.1,1,.1,1,.1l1.7,5.8c1.8,5.8,2.8,11.6,5,27.2l1.1,8.4-1.2,11.5-1.2,11.5-1.9,8.7c-1.1,4.8-3.7,13.6-5.8,19.6l-3.8,10.9-4.4,7.5-4.3,7.5-7.6,7.6-7.6,7.5-5.5,3.1c-3,1.7-8.4,4.1-12,5.3l-6.5,2.2-11,.4-11,.4-5.6-1.5h0Z" fill="#d2d2ae"/>
    <path d="M182.8,351.3c-1-4.3-2.2-10.5-2.8-13.7l-1-6v-20.1l1.1-9c.5-4.9,1.2-9.6,1.4-10.3l.5-1.2,2,1.2,2,1.3,2.3-1.4c1.2-.8,3.3-2,4.7-2.8l2.5-1.3h3.8c2,0,3.7.2,3.7.5s-1.4,2.9-3,5.9c-1.7,2.9-4.6,9.3-6.5,14.2l-3.5,8.9-2,9.6-2,9.6-.7,11.2-.8,11.1-1.7-7.7h0Z" fill="#d2d2ae"/>
    <path d="M314.5,302c-7.3-1.1-12.8-2.7-15-4.5l-2-1.5,3.9-3.5,3.9-3.5h9.8l4.3,2.9c2.3,1.6,4.8,3.6,5.5,4.5l1.3,1.6,5.4-.6,5.4-.7v5l-6.1.7c-7.1.7-9.5.6-16.4-.4h0Z" fill="#d2d2ae"/>
  </g>
  <g>
    <path d="M302.9,466c-18-2.3-40.7-11.4-59.1-23.7l-7.2-4.8-9.9-9.5-10-9.5-6.2-8-6.2-8-4.1-7.5c-2.2-4.1-5-10.4-6.2-14l-2.2-6.4-.5-10.6-.6-10.5,1.2-7.2,1.3-7.2,3.3-6.8,3.3-6.8,4.6-5.7,4.5-5.6,7-5.7,7-5.6,9.6-3.5,9.6-3.4,6.8-.6,6.8-.7,8.8,1.3,8.8,1.2,8.1,4.1,8.1,4.1,8.5,8.5,8.5,8.6,4.2,8,4.1,8,1.1,5,1.1,5,.2,11.5.2,11.5-2.6,7.3-2.7,7.4-3.2,5.4-3.3,5.3-7.3,8-7.3,7.9,3.7,3.2c4.2,3.7,11.4,8.5,19.6,12.9l5.6,3,10.8,3.6,10.8,3.6,6.5.9,6.5,1h18.3l9.8-2c5.5-1.1,12.2-2.8,14.9-3.6,6.1-2,22.4-10.4,27.9-14.5l4-2.9.5.6.6.6-8,7.5c-21.2,19.9-43.8,32.1-70.5,37.9l-6.5,1.4-18,.4-18,.5-6.6-.9h0Z" fill="#c7cfb8"/>
    <path d="M378.9,421.5c-3.1-.7-8.2-2.5-11.4-3.9l-5.7-2.6-6.3-4.5-6.2-4.4-4-4.8c-2.2-2.6-5.5-7-7.2-9.7l-3.1-5-2.7-8.5-2.7-8.6v-9.6c.1,0,.2-9.6.2-9.6l2.2-8.4c2.9-10.7,3.9-12.7,11.5-22.4l6.3-8,4.6-3,4.6-3v-2c.1,0,7.3-3.2,7.3-3.2l7.2-3.2,7.5-1.2,7.4-1.2,7.1.6,7,.6,7.2,1.9,7.2,1.9,3.8,2.9c4.5,3.4,7.9,5.4,9.2,5.4s3.9-1.8,7.5-4.1l6.6-4.1,3.7.5c2.1.3,5.7,1.1,8,1.8l4.2,1.3,2.6-1.4,2.5-1.3.6.6c.4.3,1.1,4.5,1.7,9.3l1,8.7-1.2,11.5-1.2,11.5-1.9,8.7c-1.1,4.8-3.7,13.6-5.8,19.6l-3.8,10.9-4.4,7.5-4.3,7.5-7.6,7.6-7.6,7.5-5.5,3.1c-3,1.7-8.4,4.1-12,5.3l-6.5,2.2-11,.4-11,.4-5.6-1.5h0Z" fill="#c7cfb8"/>
    <path d="M182.8,351.3c-1-4.3-2.2-10.5-2.8-13.7l-1-6v-9.5c0-5.3.3-12.7.7-16.4l.6-6.9,4.6.7c2.5.3,5.8,1.2,7.4,1.8l2.7,1.2v1.3c0,.7-1.1,4-2.5,7.5l-2.6,6.2-1.9,9.6-2,9.6-.7,11.2-.8,11.1-1.7-7.7h0Z" fill="#c7cfb8"/>
  </g>
  <g>
    <path d="M495.5,316l-13-.7-1.8-.8-1.7-.7-.4-2.2c-.3-1.1-.7-6.6-1-12.1l-.5-10.1-2.7-7.4-2.6-7.4.5-5,.5-5.1-1.9-3.7-1.9-3.8h-3.5c0-.1-2-1.8-2-1.8l-2.1-1.7-4.7-8.8-4.7-8.9-8.4-11.1-8.4-11.2-6.3-6.1c-12-11.6-20.7-17.8-38.7-27.7l-10.2-5.7-3.8-.9c-2-.5-9.1-2.3-15.7-4.1l-12-3.1-12.2-1.1-12.3-1.1v-.8c0-.4-1.3-1.4-3-2.2l-3-1.5-18.2.4c-10,.2-19,.6-19.9.9l-1.7.6-2.6,5.8-2.6,5.9-6.3,2.2-6.2,2.2-2.5-.2c-3.3-.2-4.5-.2-11,.3l-5.5.4-2.2,1.1c-1.2.7-3.4,2.7-4.8,4.6l-2.6,3.4-2.8.5-2.9.6-.6,2.3-.6,2.3-6.4,3.3c-7.4,3.6-8.7,3.8-12.1,1.6l-2.3-1.5-1,1.7-1,1.8,1.4,1.4,1.4,1.3v5.7c.2,3.1.1,6.5,0,7.6l-.2,1.9,1.2.7,1.1.7-4.8,6.5c-2.6,3.6-7.5,11.1-10.8,16.6l-6,10.1h-1.6c0,.1-1.7.1-1.7.1l-.9,1.3c-.5.6-2.6,5-4.6,9.5l-3.7,8.4v8.7l-2.4,3.8c-1.4,2.1-3.4,4.9-4.4,6.3-1.1,1.4-2.5,4.1-3.2,6.2l-1.3,3.6,2,5,2.1,4.9-.7,1c-.3.5-2.5,1.4-4.7,2.1l-4.1,1.2h-10.5l-3.8-3c-2.1-1.6-4.8-3.4-6.1-3.8l-2.3-.9,7.4-.7c4.1-.4,9.2-1.2,11.3-1.7l3.7-1v-4.8l-5.1-1.5c-2.8-.9-7.8-2-11.2-2.6s-8.7-1.8-11.7-2.6l-5.5-1.6-7.5-5.2-7.5-5.2-7.1-3.2-7.1-3.2h-3.2c-1.8,0-7.1.7-11.7,1.7l-8.5,1.6-5.2-1.2-5.1-1.2-7.3-4.5-7.2-4.5-3-3.8-3.1-3.9v-3.3l2.5-2.4,2.4-2.5h3.8l3.2,4,3.1,3.9,5.2,1.6c6.9,2,9.1,1.9,22.1-1.1l11.2-2.6,8.5.5,8.5.6,10.7,5.5,10.7,5.5,6.3,1.1c3.5.5,8.5,1,11.1,1h4.8l6.5-1.6,6.5-1.7-.3-1.4-.3-1.5-11-5.9c-6-3.3-14.8-7.7-19.5-9.9s-9.6-4.7-11-5.6c-1.4-.8-5-2.7-8.2-4.2l-5.6-2.7-.6-2.5-.6-2.5-4.5-4.7-4.6-4.8h-9.5l-2.2-1.5-2.2-1.6-4.3.2-4.3.3-6.8-3.2c-3.8-1.8-7.4-3.2-8.1-3.2h-1.3l-.4-5.2-.4-5.3.9-1.2.9-1.3h4.9l3.9,2,3.9,2h6.3l15.7,5.9c8.6,3.3,21,8.2,27.6,10.9s13.4,5.2,15,5.6c1.6.4,7.6,3,13.2,5.7l10.3,4.9,6.5,1.6,6.5,1.6,1.5-1.2,1.6-1.3-.3-2-.3-2-7-4.7c-3.8-2.5-9.5-6.3-12.7-8.4-3.1-2-7.2-5.3-9.1-7.1l-3.6-3.5-3.2-6.1-3.3-6.1-4.4-5-4.5-4.9-3.6-1.8c-2-1-6.5-2.6-10.1-3.5s-8.8-2.7-11.5-4.1l-5-2.4-5.8-5.8-5.7-5.7-2-4.1-1.9-4-.7-5.2-.7-5.3,1.7-2.5,1.6-2.5h5l2.6,5.8,2.5,5.7,3.2,2.8c1.8,1.5,5.2,3.9,7.6,5.2l4.4,2.5h6.5l8.6,2.5c9,2.6,17.7,6.5,21,9.4,1,.9,3.3,3.9,5.1,6.6,1.8,2.8,5.1,7.1,7.4,9.7l4.1,4.6,5.6,3.7c6.1,4.1,12.8,6.9,21.3,9l5.4,1.3,1.4-.5,1.3-.5v-2.8l-4.9-5.4c-2.7-2.9-6.6-7.8-8.8-10.7-2.2-3-6.7-8.3-9.9-11.9-3.3-3.6-7-8.1-8.3-10-1.4-1.9-4.3-5.7-6.6-8.5l-4.2-5-.7-3.5-.6-3.6,3-4.7,3-4.7h3.9l1,1.8c.5.9,5.9,6,12,11.2s11.1,9.7,11.1,10,3.8,3.9,8.4,7.9l8.5,7.4,1.1,2.6,1.1,2.6,4.3,2.8,4.4,2.7h1.8c1.1,0,2.5-.4,3.3-.9l1.5-.9-1.4-4.2-1.4-4.2-2.9-3.7c-2.9-3.7-6.6-6.3-7.9-5.5l-.7.4-.7-2.2c-.4-1.3-2.2-5.5-4-9.4l-3.3-7.1-2.6-11.4c-2.8-12.4-3.8-15.4-6.3-18.3-4.7-5.2-11.9-11.9-14.3-13.1l-2.6-1.4-4.6-5.1-4.5-5-2.2-6.3-2.1-6.2-.5-9-.6-9,2-3.5,1.9-3.5,2.6-.3,2.6-.3,1.4,2.3,1.5,2.3.5,5.3.6,5.3,3.3,6.1,3.3,6.2,6.2,4.5,6.3,4.6v4.6l1.5.5,1.5.6v2.7l5.4,3.3,5.4,3.3,1.7,2.8,1.6,2.7-.3,1.9-.3,1.8,1.4,1.6,1.3,1.7h2.7l1.1,4.3c2,7.4,2.2,8.1,6,15.7l3.8,7.5,5.8,5.5c7,6.6,14.8,13,15.8,13h.8l-.7-5-.7-4.9-5-13.3c-4.4-11.9-9.7-28.1-15.5-48.3-1.8-6.2-5.3-16.4-16.3-47.3-3.4-9.6-3.6-10.9-1.4-14l1.5-2.2h6.6l1.7,1.8,1.6,1.9,2.9,8.4c3.8,10.9,8.7,22.5,11.1,26.4,1.9,3.1,3,5.7,12.4,28,2.6,6.1,5,11.9,5.6,13,.5,1.1,4.7,10.3,9.4,20.4,4.7,10.1,9.3,19.2,10.2,20.3l1.7,1.8h2.7v-2.5c0-1.4-1-7.9-2.1-14.3l-2.1-11.7.8-12.5c.4-6.9.7-16.5.6-21.5v-9c-.1,0-1.3-4.5-1.3-4.5l-1.2-4.5-3.3-5.5c-4.2-7.1-7.5-15.3-8.4-21l-.8-4.5.9-5.4c.5-3,1.5-7.8,2.4-10.7l1.5-5.3,2.6-3,2.6-3.1h8.1l-.8,5.3c-.5,2.8-.8,9.3-.9,14.2v9l2.2,3.8,2.3,3.9-1.3,2.6-1.3,2.7.3,2.3.4,2.3,2.1.9c1.2.5,3.8,1.1,5.8,1.5l3.7.5,2.3,5.3,2.4,5.2v46l3,8,2.9,8,3.3,5.4c1.8,3,3.5,6.3,3.9,7.3.3,1,.9,1.8,1.4,1.8h.9l1-3.7c1.7-6.7,2-12.2,3.5-50.3.9-20.6,2-45.8,2.6-56l1.1-18.5,1.1-5,1-5,1.6-1.2c.9-.7,2.4-1.3,3.4-1.3h1.8l1,2.6,1,2.6,1.5,23.1c.9,12.8,2,37.4,2.6,54.7,1,34,2,47.1,3.8,53.8l1.2,4.3,1.2-.4,1.2-.4,1.2-3.4,1.1-3.4.7-9.5.6-9.5,1.5-5.9,1.4-5.9,4.7-8.6c2.5-4.7,6.4-12,8.5-16.1l4-7.5-.6-8c-.3-4.4-.9-13-1.2-19.2l-.6-11.1,2.1-6.9,2.1-6.8,3.9-4.6,4-4.6,3.5-1.7,3.4-1.6h7.1l.9,1.6.9,1.7-.5,2.1c-.3,1.2-2,4-3.8,6.3-4.3,5.2-5.1,7.4-5.9,15.9l-.7,6.9,2.1,10.2,2.1,10.2v15.6l-1.1,4-1.1,4-4.8,8.5-4.8,8.5-1.1,5c-.5,2.8-1.5,9.5-2.2,15l-1.1,9.9.6,3.9c.4,2.1,1.3,5.4,2.1,7.3l1.4,3.5,2.1-1.1,2-1.1,1.6-3.2c1.6-2.9,6.2-14.2,13.4-32.2,2.5-6.4,11.6-26.1,16-34.5,2.8-5.4,13-29.6,13-30.8s.9-2.7,2-4.9c1-2.1,3-6.5,4.2-9.8l2.3-6h10l.3,3.5.3,3.5-2.5,7c-1.3,3.9-2.9,8.4-3.5,10-5.2,15-31.5,96.2-32.6,100.9l-1.4,6.1.5,2.3.6,2.2h1.9l2.7-4.6c1.5-2.5,5.8-9.4,9.7-15.2l7-10.7,5.5-5.5c3-3.1,8.5-8.3,12.3-11.7l6.7-6.1,2.5-5.6,2.4-5.5,1-5.9.9-5.9,3.7-7.8,3.7-7.8,4.7-4.5,4.6-4.5,4.3-1.9,4.2-1.9,4.8-.6,4.9-.5,2.1,1.1,2.2,1.2v2.7c0,3.6-.8,4.6-5.6,7l-4.1,2.1-2.8,3.3c-1.5,1.8-3.6,5.3-4.7,7.7l-1.8,4.3-1.5,8.2c-.8,4.4-1.7,9.7-2.1,11.6-.9,4.4-5.6,14.7-8.3,18l-1.9,2.4-4.1-.3-4-.2-3.8,2.5c-2.1,1.4-4.3,2.6-5,2.6h-1.3v2.4c0,2.6-1.3,5.5-4.7,10.3l-2.3,3.1v5l1.2.4,1.3.5-4.3,9-4.3,9.1.3,5.3.3,5.2,1.2.4,1.1.4,17.3-16.8c9.6-9.2,26.6-25.9,37.9-36.9,11.3-11.1,24.1-23.5,28.5-27.7l8-7.5,2.6-.7,2.7-.7,1.6,2.3c.9,1.3,1.6,3.1,1.6,3.9v1.6l-3,4.5c-4.1,6.1-12.8,16.9-21.3,26.5-4,4.5-9.2,10.8-11.7,14s-7,8.6-10,12-8.2,9.4-11.5,13.5c-3.3,4-8,9.6-10.5,12.4-2.5,2.9-6.6,7.8-9.2,11l-4.8,5.7v3.5l2,1.8,2,1.8,2.7-2.4c1.5-1.3,3.4-3.1,4.2-4,2.5-2.6,12.2-9.9,13.2-9.9s3-1.3,5.6-2.9l4.8-3,6.5-2c3.6-1.1,8.4-2.5,10.7-3.1l4.1-1,6.1-4.1,6.1-4,4.6-6.9,4.6-6.8,5.8-5.1,5.9-5.2,7.8-2,7.8-2,5.4.7,5.4.7,1.7,1.7,1.8,1.8-.4,3.3-.4,3.3-1.3.8-1.2.8h-10l-3.1,1.9-3.1,1.9-3.6,4.4c-2,2.5-6,8.4-8.7,13.3-2.8,4.8-5.6,9.2-6.3,9.9-5.8,5.4-17.1,11.5-27,14.6l-6.7,2.1-7.5,6-7.5,6.1-3.7,4.6c-2.1,2.6-4.1,4.9-4.4,5.2-1.3,1.1-2.9,5-2.9,6.9v2.1h2.3c1.3,0,5.8-.9,10.1-2l7.8-2.1,6.1-3.1c5.9-2.9,21.9-9.2,38.2-14.8,4.4-1.6,11.8-4.4,16.5-6.4,4.6-2,8.8-3.6,9.3-3.6s6.2-2,12.8-4.5l12-4.5,2.8-.2,2.9-.2,1.6,1.3,1.6,1.3v4.4l-1.2,1.7-1.3,1.7-34.5,17.4c-30.4,15.2-55.8,28.3-70,36-2.5,1.4-4.9,3.1-5.4,3.9l-.9,1.4.6,1.7.6,1.6h6.7l7.4-2.5,7.5-2.5,8.6-.7,8.6-.6,7.8,1.8,7.8,1.7,7.6-.4,7.6-.3,5.5-2.9c3-1.6,7.9-4.2,10.8-5.8l5.3-2.9,7-1.5,7-1.4,6.5,1.1,6.5,1.1,4.7,3.2,4.7,3.1.3,4.1.3,4.2-1.6,1.6-1.6,1.6-2.7-.7c-1.5-.3-4-1.5-5.7-2.5l-3-1.8h-5.4l-5.7,2.5-5.7,2.5-7.1,5.5-7.1,5.4-6,2.8-6,2.8-17.8-.3-17.8-.2-7.2,3c-13.7,5.9-16.7,7.3-18.3,9.1l-1.6,1.8.6,1.9.7,2,2.2.6c1.2.3,6.1.6,10.8.6s10.1.3,11.8.6l3.1.7v3.2c0,0-2.9,3.1-2.9,3.1l-2.9,3.2-1.8.4c-1.1.3-7.7.1-14.9-.2h0Z" fill="#f3d585"/>
    <path d="M291.2,257.2l-2.2-.7-4.8-4.1-4.8-4.2-3.4,1.9-3.5,1.8h-2.2c0,.1-2.3.1-2.3.1v-1.9l-1.3.5-1.3.4-2.2-2-2.2-2.1v-4.1l-3.5.6-3.5.7v-1c0-.6-1.1-2.6-2.4-4.6l-2.5-3.6-3.4,3.1-3.5,3h-6.1l-1.2,2.3c-.7,1.2-1.9,2.7-2.8,3.4l-1.6,1.2h-2.2c0,.1-2.3.1-2.3.1v2.7l-3.7,1.1-3.8,1.1-7.7.4-7.8.4v-.8c0-.5.7-2.4,1.6-4.3l1.7-3.4-1.1-4.2-1-4.2,5.9-7.7,5.9-7.8,10.2-10,10.3-9.9,8.8-5.2c20-11.9,29.9-16.1,46.3-19.7l11.7-2.7,3.3,1.8,3.4,1.9v1.2c0,1.6.3,1.6,4.7-.2,1.9-.8,4.3-1.5,5.3-1.5h1.7l1.9-2.1,1.9-2.1,5.3.7c3,.4,7.6,1.3,10.4,2.1l5,1.5-.6,1.5-.6,1.5,2.5,2.3c1.4,1.3,2.5,2.8,2.5,3.3,0,1.6,3.2,3.9,8.4,5.9l4.9,1.9,3.2,3,3.2,3,1.7,5.6,1.8,5.7-1.1,2c-1.7,3.1-1.5,3.6,3.5,9.1l4.6,5.1-3.2,5.4-3.1,5.5-.3,5.8c-.2,3.2-.4,6.1-.5,6.5-.1.3-1.6,1.2-3.3,1.8l-3.3,1.3-11.2-.3-11.3-.2-3.4,2.2-3.5,2.1-6.3-.8c-3.5-.4-7-.7-7.8-.6-.8.1-3.7-.7-6.5-1.9-2.7-1.1-6.2-2.2-7.7-2.5l-2.7-.4-5.3,3.5c-5.5,3.7-5.8,3.8-9.6,2.8Z" fill="#f3d585"/>
    <path d="M423.6,234.3l-3.8-.4-.5-2c-.3-1-.9-1.9-1.3-1.9s-2.8-1.8-5.4-4.1l-4.6-4.1v-6.6l1.5-1.2c.8-.7,1.5-1.8,1.5-2.5s.9-2,2-3l2-1.8,2.5,1.1,2.4,1.1,5.8,7,5.7,7,.2,3.8c.1,2.1.2,4.3.4,4.8.1.6.2,1.6.1,2.3v1.2c-.1,0-2.3-.2-2.3-.2-1.3-.1-4-.3-6.2-.5h0Z" fill="#f3d585"/>
    <path d="M129.6,119.6l-12-15.1-.4-2.1-.4-2.2,1.1-2.1,1.2-2.1h5.6l3.8,3c3.9,3.1,26.9,26.8,27.1,27.9,0,.3.4,1.4.8,2.4l.8,1.7-.6,1.6-.6,1.7-4.7-.6-4.6-.5-2.6.8-2.6.7-11.9-15.1h0Z" fill="#f3d585"/>
  </g>
  <g>
    <path d="M302.9,466c-18-2.3-40.7-11.4-59.1-23.7l-7.2-4.8-9.9-9.5-10-9.5-6.2-8-6.2-8-4.1-7.5c-2.2-4.1-5-10.4-6.2-14l-2.2-6.4-.5-10.6-.6-10.5,1.2-7.2,1.2-7.1,3-6.2,2.9-6.1,4.5-5.9c2.5-3.2,6.6-7.7,9.2-9.9l4.8-4,2.5,2.3c3,2.8,6.3,4.6,8.4,4.6h1.6l4.2-3,4.1-3h4.8l2.9,2.2,2.9,2.1h12.8c0,.1,12.8.2,12.8.2l9.9-1.5,9.9-1.4,6.1,6.5,6.1,6.5,4.1,7.9,4.2,8,1.1,5,1.1,5,.2,11.5.2,11.5-2.6,7.3-2.7,7.4-3.2,5.4-3.3,5.3-7.3,8-7.3,7.9,3.7,3.2c4.2,3.7,11.4,8.5,19.6,12.9l5.6,3,10.8,3.6,10.8,3.6,6.5.9,6.5,1h18.3l9.8-2c5.5-1.1,12.2-2.8,14.9-3.6,6.1-2,22.4-10.4,27.9-14.5l4-2.9.5.6.6.6-8,7.5c-21.2,19.9-43.8,32.1-70.5,37.9l-6.5,1.4-18,.4-18,.5-6.6-.9h0Z" fill="#bcccbf"/>
    <path d="M378.9,421.5c-3.1-.7-8.2-2.5-11.4-3.9l-5.7-2.6-6.3-4.5-6.2-4.4-4-4.8c-2.2-2.6-5.5-7-7.2-9.7l-3.1-5-2.7-8.5-2.7-8.6v-9.6c.1,0,.2-9.6.2-9.6l2.2-8.4c1.3-4.6,3-9.7,3.8-11.4,2.2-4.4,13-18.1,15.6-19.8l2.2-1.5,3.5,1.5c4.8,2.1,14.9,5.3,16.6,5.3s3.1-.9,5.3-2l3.9-2h5.6c0,.1,1.9,1.5,1.9,1.5l2,1.5h5.5l1.8,1.9,1.8,1.9,3.4.7,3.3.7.7-.9c.3-.5,4-2.8,8.1-5.3l7.4-4.4h6.1c0-.1,6-.3,6-.3l5.2,2.6,5.3,2.5,4.2-1.3c2.4-.7,5.7-1.5,7.3-1.7,1.7-.3,4-1,5.2-1.6l2.3-1.1.7.7c.4.3.9,3.3,1.1,6.5l.4,5.9-1.2,10.4c-1.6,13.9-4.2,25.4-8.8,38.4l-3.8,10.9-4.4,7.5-4.3,7.5-7.6,7.6-7.6,7.5-5.5,3.1c-3,1.7-8.4,4.1-12,5.3l-6.5,2.2-11,.4-11,.4-5.6-1.5h0Z" fill="#bcccbf"/>
    <path d="M182.8,351.3c-1-4.3-2.2-10.5-2.8-13.7l-1-6v-19.6l2.3,1.4c1.2.8,3.7,1.7,5.5,2.1,1.7.4,3.2.9,3.2,1.2s-.9,4.9-2,10.3l-2,9.7-.7,11.2-.8,11.1-1.7-7.7h0Z" fill="#bcccbf"/>
  </g>
  <g>
    <path d="M302.9,466c-18-2.3-40.7-11.4-59.1-23.7l-7.2-4.8-9.9-9.5-10-9.5-6.2-8-6.2-8-4.1-7.5c-2.2-4.1-5-10.4-6.2-14l-2.2-6.4-.5-10.6-.6-10.5,1.2-7.2,1.3-7.2,3.3-6.8c1.9-3.7,4.1-7.7,4.9-8.7l1.6-1.9h3.2c1.8,0,5.7.6,8.7,1.3l5.5,1.2,3.5-.8c2-.5,4.3-.7,5.1-.6,3.6.4,7,.1,14.5-1.1l8-1.4,2.6,1.3c1.5.7,4.6,2,7,2.8l4.4,1.6h7.6l3.9-2,3.9-2,12.7.9,12.8.9,1.4,1.8c.7,1.1,2.6,4.4,4.1,7.4l2.8,5.5,1.2,5,1.1,5,.2,11.5.2,11.5-2.6,7.3-2.7,7.4-3.2,5.4-3.3,5.3-7.3,8-7.3,7.9,3.7,3.2c4.2,3.7,11.4,8.5,19.6,12.9l5.6,3,10.8,3.6,10.8,3.6,6.5.9,6.5,1h18.3l9.8-2c5.5-1.1,12.2-2.8,14.9-3.6,6.1-2,22.4-10.4,27.9-14.5l4-2.9.5.6.6.6-8,7.5c-21.2,19.9-43.8,32.1-70.5,37.9l-6.5,1.4-18,.4-18,.5-6.6-.9h0Z" fill="#b1cac7"/>
    <path d="M378.9,421.5c-3.1-.7-8.2-2.5-11.4-3.9l-5.7-2.6-6.3-4.5-6.2-4.4-4-4.8c-2.2-2.6-5.5-7-7.2-9.7l-3.1-5-2.7-8.5-2.7-8.6v-9.6c.1,0,.2-9.6.2-9.6l2.2-8.4c2.4-8.7,4.5-13.6,7.8-17.8l1.9-2.4,5.8,2.7,5.7,2.6h4l5.7-2.9c3.1-1.6,6.4-3.2,7.4-3.5l1.8-.6,2.9,1.5,2.9,1.5h36.6l5.1,2.4,5,2.3,6-2.2c5.8-2.2,11.4-4.2,14.4-5.1l1.5-.5,6.3,4,6.3,4.1h4.9v2h3.3l-.7,6.3c-1.1,9.8-4.2,22.5-8.4,34.3l-3.8,10.9-4.4,7.5-4.3,7.5-7.6,7.6-7.6,7.5-5.5,3.1c-3,1.7-8.4,4.1-12,5.3l-6.5,2.2-11,.4-11,.4-5.6-1.5h0Z" fill="#b1cac7"/>
  </g>
  <g>
    <path d="M302.9,466c-18-2.3-40.7-11.4-59.1-23.7l-7.2-4.8-9.9-9.5-10-9.5-6.2-8-6.2-8-4.1-7.5c-2.2-4.1-5-10.4-6.2-14l-2.2-6.4-.5-10.6-.6-10.6,1.2-6.9,1.2-7,1.9-4.3,1.9-4.3,4.4,2.5c5.3,3.1,6.2,3.2,11.1.6l3.9-1.9.8.5c.5.3,4.3.4,8.4.4,11-.3,11.5-.3,17.2.4l5.2.6,6.1-4,6-4.1,3.2,1.7c1.8.9,4.8,3,6.7,4.6l3.4,3,4.5-.7,4.5-.7,2.4-1.5,2.3-1.5,3.4.6,3.5.7,3.1-4,3.1-3.9,3.2,1.1c1.8.5,3.7,1.1,4.4,1.3l1.2.3,2.9,5.8,2.9,5.8,1.2,5,1.1,5,.2,11.5.2,11.5-2.6,7.3-2.7,7.4-3.2,5.4-3.3,5.3-7.3,8-7.3,7.9,3.7,3.2c4.2,3.7,11.4,8.5,19.6,12.9l5.6,3,10.8,3.6,10.8,3.6,6.5.9,6.5,1h18.3l9.8-2c5.5-1.1,12.2-2.8,14.9-3.6,6.1-2,22.4-10.4,27.9-14.5l4-2.9.5.6.6.6-8,7.5c-21.2,19.9-43.8,32.1-70.5,37.9l-6.5,1.4-18,.4-18,.5-6.6-.9h0Z" fill="#aac7cc"/>
    <path d="M378.9,421.5c-3.1-.7-8.2-2.5-11.4-3.9l-5.7-2.6-6.3-4.5-6.2-4.4-4-4.8c-2.2-2.6-5.5-7-7.2-9.7l-3.1-5-2.4-8c-1.3-4.5-2.7-9.9-3.1-12.1l-.6-4,1-8.5c.6-4.7,1.5-10.2,2.1-12.2l1.1-3.8h4.5l1.3-1.2,1.2-1.3,9.2-.2c5.1-.1,12.2-.4,15.8-.6l6.6-.4,2.1-1.2,2.1-1.1h5.3l3.9,2.2,3.8,2.1,4.3-1.6c5.7-2.2,6.2-2.2,12.4,1l5.4,2.7,3.9-2.2,3.9-2.2h2c1.2,0,3.3.5,4.7,1.2l2.7,1.2.9-1.7,1-1.7h13.4c0-.1,2.5-1.5,2.5-1.5l2.5-1.4h4.3c0-.1,4.3-.1,4.3-.1l2.7,1.4c1.5.8,3.5,2.4,4.5,3.5l1.7,2.1v2.5c0,4.5-3.9,20-7.8,31.1l-3.8,10.9-4.4,7.5-4.3,7.5-7.6,7.6-7.6,7.5-5.5,3.1c-3,1.7-8.4,4.1-12,5.3l-6.5,2.2-11,.4-11,.4-5.6-1.5h0Z" fill="#aac7cc"/>
  </g>
  <g>
    <path d="M320,628.3c-.8-.3-1.8-1.1-2.2-1.7l-.8-1.1v-30l-2-34c-1.1-18.7-2.6-42.5-3.2-52.8l-1.1-18.8-2.6.3-2.6.3-1.3,8c-.7,4.4-2.2,12.4-3.3,17.7l-2,9.8-2.5,5.7c-1.4,3.2-3.4,7.4-4.5,9.3-1.1,1.9-2.9,5.4-4,7.7l-1.9,4.2-1.1,5.8-1.1,5.8,1.1,12.6,1.1,12.6-1.5,6.8c-2.1,9-3.5,11.4-10.3,18.3l-5.7,5.9-2.9.7-2.9.7-2.9-3.1c-1.5-1.7-2.8-3.3-2.8-3.5s2-2.7,4.5-5.6l4.5-5.2,1.7-4.5,1.6-4.4-2.8-17-2.8-16.9,1.1-8.4,1.1-8.3,4.5-8.9,4.4-8.8,1.6-6.1,1.6-6.2v-29l-1.5-1.2-1.5-1.2-1.5.6-1.6.6-2.6,5.7c-1.4,3.2-5,11.7-8.1,18.8-12.4,29.4-14.3,33.7-21.5,49-4.1,8.8-8,17.8-8.7,20s-3.2,8.3-5.6,13.6c-2.4,5.3-4.4,10.3-4.4,11.1s-.5,1.9-1.2,2.6l-1.2,1.2h-6.1l-2.2-1.8-2.2-1.7,2.3-8c1.3-4.4,3.4-10.2,4.6-13,1.2-2.7,3.4-9.5,5-15,1.5-5.5,5.4-17.9,8.5-27.5,3.2-9.6,8.6-26.7,12.1-38s7.1-22.3,7.9-24.4l1.6-3.9-2-2-2-2-1.4,1.2c-.8.6-4.3,6.6-7.7,13.3l-6.2,12.1-3.1,3.9-3.2,3.9-6,4.4-6.1,4.3-5.8,6.6-5.8,6.7-3.8,11.7c-2.1,6.4-5,14.3-6.5,17.6l-2.8,5.9-3.7,3.7c-2.1,2.1-5.8,5-8.3,6.4l-4.5,2.7-4.8.5-4.9.6-1.8-2-1.9-2,.4-2.3.3-2.2,6-4.7,6-4.6,2.2-4,2.2-4,2.5-12.6,2.6-12.7,3.2-7.8,3.2-7.8,12.1-12,12.1-12,3.8-10c2.1-5.5,4.8-11.9,6.1-14.1l2.4-4.1-2.3-2.2c-1.2-1.1-2.6-2.1-3-2.1s-4.2,3.5-8.4,7.8c-4.3,4.3-15.2,14.9-24.4,23.6s-26,25-37.5,36.2l-20.8,20.4-2.3.6-2.3.6-1.9-1.7-2-1.8v-2.9l3.7-5.2c2-2.8,5.4-7.1,7.5-9.6,2.2-2.5,6.1-7.1,8.8-10.3,2.8-3.1,5-6.1,5-6.6s2.1-3.3,4.8-6.3c7.5-8.7,22.4-26.8,26.1-31.8,1.9-2.5,6-7.4,9.1-11s8-9.5,10.9-13.3l5.3-6.7-.5-1.3c-.2-.7-1.6-1.9-3-2.6l-2.6-1.4-6.7,6.2-6.8,6.2-5.6,3.4-5.6,3.4-8.8,2.5c-4.9,1.4-9.5,2.6-10.3,2.6s-4.2,1.4-7.4,3.2l-6,3.1-5.6,7.6c-10.2,13.9-15.7,18.6-25.8,22.3l-5,1.8h-9.1l-5.5-2.7-5.4-2.8-.3-1.8-.4-1.8,1.2-1.4,1.2-1.5h13.9l4.3-3,4.3-2.9,3.1-4.8c1.6-2.6,3.8-6.4,4.9-8.3,3-5.7,9.7-14.2,15.5-19.6l5.4-5.1,6-1.7c3.2-.9,8.5-2.7,11.8-4l5.8-2.3,4.3-3.4c2.3-1.9,5.3-4.9,6.6-6.8,1.3-1.8,4.5-5.7,7.2-8.6,2.6-2.8,4.7-5.5,4.7-5.8s-1.4-1.3-3.1-2.1l-3.2-1.6-9.1,3.5c-5,1.9-16.3,6.2-25.1,9.6-8.8,3.3-20.5,7.8-26,9.9s-12.5,4.8-15.5,6-8.2,3.2-11.5,4.4c-3.3,1.3-7.3,2.8-9,3.5-1.6.6-4.3,1.7-6,2.3-1.6.6-3.9,1.8-5,2.5l-1.9,1.3h-6.5l-1.6-1.6-1.6-1.7.3-3,.3-3.1,6-3.5c3.3-1.8,14.6-7.7,25-13.1,10.5-5.3,20.9-10.9,23.2-12.3,2.4-1.5,4.5-2.7,4.8-2.7,1.1,0,47.1-24.3,48.8-25.7l1.7-1.6v-5.7h-2.2c-1.3,0-5.9,1.2-10.3,2.6l-8,2.6-7.5.5-7.5.5-10.8-2.2-10.9-2.2-3.2.5c-3.6.6-9.2,3.2-21.5,10.1l-8.5,4.7-4.3,1.1-4.4,1.1-5.6-.6-5.6-.6-6.3-3.1-6.3-3.1-2.1-2.6c-2.5-3.2-2.5-4.4,0-7.4l1.9-2.3,5.4,1.7,5.5,1.7h7.8l5.4-2.5c3-1.4,7.5-4.1,10-5.9,5.9-4.4,13.4-8.7,19.1-11.1l4.5-1.9h17.5c0-.1,17.5-.1,17.5-.1l8.5-3.3c4.6-1.9,10.1-4.4,12.2-5.5l3.8-2.2v-4.4l-2.1-1.1-2-1.1-28.7-2c-15.8-1.1-34.8-2.4-42.2-2.9-7.4-.5-18.9-1.2-25.5-1.5s-14.2-.8-17-1.1l-5-.5-1.2-1.1c-.7-.6-1.3-1.7-1.3-2.4v-1.4h137.7l.7,3.8c.3,2,.6,5.7.6,8.2,0,5.5,2.3,19.3,4.4,27.8,5.9,22.6,19.1,47.4,34.9,65.3l7.6,8.7,6.5,5.5c7.6,6.4,20.7,15.2,31.1,20.9l7.5,4,11.7,3.9,11.8,4,11.3,2,11.4,1.9h26l9.6-1.1,9.7-1.2,11.5-3.9,11.5-4,10.7-5.3c12.7-6.3,20-11.2,31.6-21,11.9-10,15.7-14.1,25.1-27.4l8.1-11.4,6-12.1,6-12.1,4.1-15.5,4-15.5.7-13,.7-13,4,.2c2.2.1,33.1.2,68.7.2h64.6l.6,1,.7,1-2.5,1.6-2.4,1.6-3.3.4c-4.6.6-31.6,2.3-46.9,3-6.9.4-20.6,1.3-30.5,2.1-9.9.8-21.3,1.4-25.5,1.5-4.1.1-8.6.4-10,.8l-2.5.7-.3,2.8-.4,2.8.9.9.8.8,10,1.5,10,1.5,5.5,1.9c7.7,2.7,12.9,5.4,17,9.1l3.5,3.1,5.5,2.2,5.5,2.1h7.5c4.1.1,11.2-.2,15.6-.7l8.2-.9,7.2,2.2,7.2,2.2,5,5,4.9,4.9,1.5,3.5,1.4,3.4v5.7l-1.2,1.2c-.7.7-2,1.2-2.9,1.2h-1.7l-2.9-3.1-2.8-3-3.8-2-3.8-2-6.2-.5-6.2-.6-6.5,1.5c-3.6.9-9.6,1.8-13.5,2.2l-7,.7-6.6-1.6-6.6-1.5-11.3-5.5-11.3-5.6h-28.7v1.8c-.5,4.9,0,5.3,12,11.5,4.7,2.4,18.4,9.5,30.5,15.9,12.1,6.3,31,16.1,42,21.8l20,10.2,2.3,2.1,2.2,2v5.6l-2.2,1.5-2.2,1.6h-4.1l-4.3-2.5c-2.3-1.3-8.6-3.9-14-5.8-5.3-1.9-13.7-5-18.7-6.9-18.3-7.1-41.2-15.7-48-18.1-3.8-1.4-11.4-4.3-16.9-6.6-5.4-2.3-10.4-4.1-11.2-4.1h-1.3l-1.5,2.8-1.4,2.8,8,4.8c4.4,2.6,10.7,6.9,14,9.4l6.1,4.7,9.8,13.2,9.9,13.1,2.5,2,2.6,2.1,9.7,3.1,9.7,3.1,7,4.2,7,4.3,4.2,7.3,4.1,7.3,1,5.6,1,5.7-.9,1.7c-.5,1-1.8,2.2-2.9,2.8l-1.9,1-1.4-.6-1.4-.5-2.9-5.6-2.9-5.6-6.5-4.6-6.5-4.5-8.3-1.8c-4.5-.9-11.5-2.7-15.5-3.9l-7.2-2.1-7-7.3c-3.8-4-10.1-10.7-14-14.7l-7-7.4-8.5-4.1c-9.6-4.7-17.6-8.3-18.4-8.3s-1,.9-1.7,2.1l-1.1,2.1,3,3.2c3,3.1,6.2,7.2,17,21.6,3.1,4.1,9,11.6,13.2,16.5,8.9,10.6,25.6,31.1,32,39.3,2.5,3.2,7.3,9.1,10.8,13.1l6.2,7.2v4.9l-2.1,2.1-2,2-2.2-.7-2.2-.7-35-34c-19.2-18.8-39.9-39-45.8-44.9l-10.8-10.9-1.8.6-1.9.6-.6,1.5-.6,1.4,4.4,5.8,4.3,5.7,5.5,10.5c6,11.2,6.3,12.2,8.3,24.6l1.3,8.1,2.5,4.9,2.5,4.9,4.4,4.1c2.3,2.2,6,5.2,8,6.7s5.3,4.4,7.3,6.5l3.6,3.7,2.9,5.7,3,5.7,1.1,7.2,1.1,7.2-.6,4-.7,3.9-1.9,3.9-2,3.9h-4.8l-1.2-1.5-1.3-1.5-.8-8.5-.7-8.5-1.9-3.3-1.9-3.2-9.9-6.7-10-6.7-5.8-6.3-5.8-6.3-2.5-4.7-2.4-4.8-2.6-9.2c-1.5-5.1-3.6-11.1-4.7-13.3l-1.9-4-6.7-7c-3.7-3.8-8.7-9.4-11.2-12.4l-4.6-5.5-1.3,2.3-1.2,2.3,2.7,8.6c4,13.3,14.3,45.4,18.2,57.2,2,5.8,4.1,12.3,4.8,14.5,3.5,11.1,14.5,46.3,15,48.3l.7,2.3-1.2,1.4-1.2,1.5h-3.2c-1.7,0-3.6-.4-4.2-.8l-1.1-.7-6.7-16c-3.7-8.8-9.2-21.2-12.1-27.5s-6.9-15.3-9-20c-2-4.7-5.8-13.2-8.5-19-2.6-5.8-6.8-15-9.2-20.5-9.2-20.6-9.6-21.3-12.4-18.5l-1.1,1.1,1.9,8.7c1,4.8,2.3,10.1,2.9,11.7l1,3,.6,8,.5,8-2.1,12.4-2.2,12.4,1.1,5.1,1.1,5.1,4.8,9.5,4.9,9.5,1.6,5.4,1.6,5.5v14.4l-2.1,6.8-2.1,6.9-1.9,2.6-1.9,2.7-2.7.6-2.6.7-1.9-1.9-1.9-1.9,1.5-6,1.6-6.1v-8.7l-2.6-5.5c-1.4-3-3.6-6.8-4.8-8.5-3.4-4.4-10.1-18.2-12-24.4l-1.6-5.5v-5c0-2.8.5-9.4,1.2-14.7l1.2-9.6-4.3-13.4c-2.3-7.4-5.3-15.8-6.6-18.6l-2.4-5.3h-1.3c-.7,0-1.8.4-2.4.8l-1.2.7-.5,11.5c-.3,6.3-1,19.4-1.6,29-2.6,45.7-3.1,55.9-3.7,74.8l-.7,20.3-1.4,1.5-1.4,1.4h-2.2c-1.2,0-2.9-.4-3.7-.7h0Z" fill="#9fc4d4"/>
    <path d="M302.9,466c-18-2.3-40.7-11.4-59.1-23.7l-7.2-4.8-9.9-9.5-10-9.5-6.2-8-6.2-8-4.1-7.5c-2.2-4.1-5-10.4-6.2-14l-2.2-6.5-.5-11.2-.6-11.3h2.5l6.1-5.6,6-5.6,2.8.6,2.8.5.8-1.4.8-1.4,4.5,1.1c2.5.5,5.9,1.4,7.6,1.9,1.7.5,4.5.9,6.2.9h3.2v2h4.1l4.1,2.1,4,2.1,2.2-.7c1.1-.4,5.5-1.1,9.6-1.5,4.1-.3,9.6-1.3,12.1-2l4.6-1.3,5.5,2.3,5.5,2.3,6.9-3.7,6.9-3.6,2.5.7,2.5.6,4.4,3.3,4.4,3.4h3.4l.6,8.9.6,8.9-1.4,6c-2.9,12.3-7.9,21-18.9,32.8l-6.6,7.2,3.7,3.2c4.2,3.7,11.4,8.5,19.6,12.9l5.6,3,10.8,3.6,10.8,3.6,6.5.9,6.5,1h18.3l9.8-2c5.5-1.1,12.2-2.8,14.9-3.6,6.1-2,22.4-10.4,27.9-14.5l4-2.9.5.6.6.6-8,7.5c-21.2,19.9-43.8,32.1-70.5,37.9l-6.5,1.4-18,.4-18,.5-6.6-.9h0Z" fill="#9fc4d4"/>
    <path d="M378.9,421.5c-3.1-.7-8.2-2.5-11.4-3.9l-5.7-2.6-6.3-4.5-6.2-4.4-4-4.8c-2.2-2.6-5.5-7-7.2-9.7l-3.1-5-2.7-8.5-2.7-8.6v-9.2c.1-5.1.4-10.3.8-11.6l.6-2.4,3.1-.7,3-.6,2.8,1.5,2.8,1.4,5.9-.6,5.9-.6,3-1.6,3-1.6h8.5c4.7-.2,10.3-.6,12.5-1l4-.7,4.2,4.6,4.2,4.6h1.5c.9,0,3.6-1,6.1-2.2l4.5-2.2,2.8,1.1c1.5.6,4.3,1.7,6.2,2.6l3.5,1.5,6-2,6-2,2-1.8c1.1-1,3.3-2.3,4.8-2.9l2.8-1.1h17.7l1.1,1.3c.6.8,1.4,2.8,1.7,4.5l.7,3.2h2.7l-.7,3.3c-.3,1.7-2.5,8.6-4.7,15.2l-4.2,12-4.4,7.5-4.3,7.5-7.6,7.6-7.6,7.5-5.5,3.1c-3,1.7-8.4,4.1-12,5.3l-6.5,2.2-11,.4-11,.4-5.6-1.5h0Z" fill="#9fc4d4"/>
  </g>
  <g>
    <path d="M320,628.3c-.8-.3-1.8-1.1-2.2-1.7l-.8-1.1v-30l-2-34c-1.1-18.7-2.6-42.5-3.2-52.8l-1.1-18.8-2.6.3-2.6.3-1.3,8c-.7,4.4-2.2,12.4-3.3,17.7l-2,9.8-2.5,5.7c-1.4,3.2-3.4,7.4-4.5,9.3-1.1,1.9-2.9,5.4-4,7.7l-1.9,4.2-1.1,5.8-1.1,5.8,1.1,12.6,1.1,12.6-1.5,6.8c-2.1,9-3.5,11.4-10.3,18.3l-5.7,5.9-2.9.7-2.9.7-2.9-3.1c-1.5-1.7-2.8-3.3-2.8-3.5s2-2.7,4.5-5.6l4.5-5.2,1.7-4.5,1.6-4.4-2.8-17-2.8-16.9,1.1-8.4,1.1-8.3,4.5-8.9,4.4-8.8,1.6-6.1,1.6-6.2v-29l-1.5-1.2-1.5-1.2-1.5.6-1.6.6-2.6,5.7c-1.4,3.2-5,11.7-8.1,18.8-12.4,29.4-14.3,33.7-21.5,49-4.1,8.8-8,17.8-8.7,20s-3.2,8.3-5.6,13.6c-2.4,5.3-4.4,10.3-4.4,11.1s-.5,1.9-1.2,2.6l-1.2,1.2h-6.1l-2.2-1.8-2.2-1.7,2.3-8c1.3-4.4,3.4-10.2,4.6-13,1.2-2.7,3.4-9.5,5-15,1.5-5.5,5.4-17.9,8.5-27.5,3.2-9.6,8.6-26.7,12.1-38s7.1-22.3,7.9-24.4l1.6-3.9-2-2-2-2-1.4,1.2c-.8.6-4.3,6.6-7.7,13.3l-6.2,12.1-3.1,3.9-3.2,3.9-6,4.4-6.1,4.3-5.8,6.6-5.8,6.7-3.8,11.7c-2.1,6.4-5,14.3-6.5,17.6l-2.8,5.9-3.7,3.7c-2.1,2.1-5.8,5-8.3,6.4l-4.5,2.7-4.8.5-4.9.6-1.8-2-1.9-2,.4-2.3.3-2.2,6-4.7,6-4.6,2.2-4,2.2-4,2.5-12.6,2.6-12.7,3.2-7.8,3.2-7.8,12.1-12,12.1-12,3.8-10c2.1-5.5,4.8-11.9,6.1-14.1l2.4-4.1-2.3-2.2c-1.2-1.1-2.6-2.1-3-2.1s-4.2,3.5-8.4,7.8c-4.3,4.3-15.2,14.9-24.4,23.6s-26,25-37.5,36.2l-20.8,20.4-2.3.6-2.3.6-1.9-1.7-2-1.8v-2.9l3.7-5.2c2-2.8,5.4-7.1,7.5-9.6,2.2-2.5,6.1-7.1,8.8-10.3,2.8-3.1,5-6.1,5-6.6s2.1-3.3,4.8-6.3c7.5-8.7,22.4-26.8,26.1-31.8,1.9-2.5,6-7.4,9.1-11s8-9.5,10.9-13.3l5.3-6.7-.5-1.3c-.2-.7-1.6-1.9-3-2.6l-2.6-1.4-6.7,6.2-6.8,6.2-5.6,3.4-5.6,3.4-8.8,2.5c-4.9,1.4-9.5,2.6-10.3,2.6s-4.2,1.4-7.4,3.2l-6,3.1-5.6,7.6c-10.2,13.9-15.7,18.6-25.8,22.3l-5,1.8h-9.1l-5.5-2.7-5.4-2.8-.3-1.8-.4-1.8,1.2-1.4,1.2-1.5h13.9l4.3-3,4.3-2.9,3.1-4.8c1.6-2.6,3.8-6.4,4.9-8.3,3-5.7,9.7-14.2,15.5-19.6l5.4-5.1,6-1.7c3.2-.9,8.5-2.7,11.8-4l5.8-2.3,4.3-3.4c2.3-1.9,5.3-4.9,6.6-6.8,1.3-1.8,4.5-5.7,7.2-8.6,2.6-2.8,4.7-5.5,4.7-5.8s-1.4-1.3-3.1-2.1l-3.2-1.6-9.1,3.5c-5,1.9-16.3,6.2-25.1,9.6-8.8,3.3-20.5,7.8-26,9.9s-12.5,4.8-15.5,6-8.2,3.2-11.5,4.4c-3.3,1.3-7.3,2.8-9,3.5-1.6.6-4.3,1.7-6,2.3-1.6.6-3.9,1.8-5,2.5l-1.9,1.3h-6.5l-1.6-1.6-1.6-1.7.3-3,.3-3.1,6-3.5c3.3-1.8,14.6-7.7,25-13.1,10.5-5.3,20.9-10.9,23.2-12.3,2.4-1.5,4.5-2.7,4.8-2.7,1.1,0,47.1-24.3,48.8-25.7l1.7-1.6v-5.7h-2.2c-1.3,0-5.9,1.2-10.3,2.6l-8,2.6-7.5.5-7.5.5-10.8-2.2-10.9-2.2-3.2.5c-3.6.6-9.2,3.2-21.5,10.1l-8.5,4.7-4.3,1.1-4.4,1.1-5.6-.6-5.6-.6-6.3-3.1-6.3-3.1-2.1-2.6c-2.5-3.2-2.5-4.4,0-7.4l1.9-2.3,5.4,1.7,5.5,1.7h7.8l5.4-2.5c3-1.4,7.5-4.1,10-5.9,5.9-4.4,13.4-8.7,19.1-11.1l4.5-1.9h17.5c0-.1,17.5-.1,17.5-.1l8.5-3.3c4.6-1.9,10.1-4.4,12.2-5.5l3.8-2.2v-4.4l-2.1-1.1-2-1.1-28.7-2c-15.8-1.1-34.8-2.4-42.2-2.9-7.4-.5-18.9-1.2-25.5-1.5s-14.2-.8-17-1.1l-5-.5-1.2-1.1c-.7-.6-1.3-1.7-1.3-2.4v-1.4h137.7l.7,3.8c.3,2,.6,5.7.6,8.2,0,5.5,2.3,19.3,4.4,27.8,5.9,22.6,19.1,47.4,34.9,65.3l7.6,8.7,6.5,5.5c7.6,6.4,20.7,15.2,31.1,20.9l7.5,4,11.7,3.9,11.8,4,11.3,2,11.4,1.9h26l9.6-1.1,9.7-1.2,11.5-3.9,11.5-4,10.7-5.3c12.7-6.3,20-11.2,31.6-21,11.9-10,15.7-14.1,25.1-27.4l8.1-11.4,6-12.1,6-12.1,4-15.5,4-15.5.6-6,.6-6,2.4-2.2,2.3-2.3h3.1v-8.7l64.9-.2,64.9-.2.6,1,.7,1-2.5,1.6-2.4,1.6-3.3.4c-4.6.6-31.6,2.3-46.9,3-6.9.4-20.6,1.3-30.5,2.1-9.9.8-21.3,1.4-25.5,1.5-4.1.1-8.6.4-10,.8l-2.5.7-.3,2.8-.4,2.8.9.9.8.8,10,1.5,10,1.5,5.5,1.9c7.7,2.7,12.9,5.4,17,9.1l3.5,3.1,5.5,2.2,5.5,2.1h7.5c4.1.1,11.2-.2,15.6-.7l8.2-.9,7.2,2.2,7.2,2.2,5,5,4.9,4.9,1.5,3.5,1.4,3.4v5.7l-1.2,1.2c-.7.7-2,1.2-2.9,1.2h-1.7l-2.9-3.1-2.8-3-3.8-2-3.8-2-6.2-.5-6.2-.6-6.5,1.5c-3.6.9-9.6,1.8-13.5,2.2l-7,.7-6.6-1.6-6.6-1.5-11.3-5.5-11.3-5.6h-28.7v1.8c-.5,4.9,0,5.3,12,11.5,4.7,2.4,18.4,9.5,30.5,15.9,12.1,6.3,31,16.1,42,21.8l20,10.2,2.3,2.1,2.2,2v5.6l-2.2,1.5-2.2,1.6h-4.1l-4.3-2.5c-2.3-1.3-8.6-3.9-14-5.8-5.3-1.9-13.7-5-18.7-6.9-18.3-7.1-41.2-15.7-48-18.1-3.8-1.4-11.4-4.3-16.9-6.6-5.4-2.3-10.4-4.1-11.2-4.1h-1.3l-1.5,2.8-1.4,2.8,8,4.8c4.4,2.6,10.7,6.9,14,9.4l6.1,4.7,9.8,13.2,9.9,13.1,2.5,2,2.6,2.1,9.7,3.1,9.7,3.1,7,4.2,7,4.3,4.2,7.3,4.1,7.3,1,5.6,1,5.7-.9,1.7c-.5,1-1.8,2.2-2.9,2.8l-1.9,1-1.4-.6-1.4-.5-2.9-5.6-2.9-5.6-6.5-4.6-6.5-4.5-8.3-1.8c-4.5-.9-11.5-2.7-15.5-3.9l-7.2-2.1-7-7.3c-3.8-4-10.1-10.7-14-14.7l-7-7.4-8.5-4.1c-9.6-4.7-17.6-8.3-18.4-8.3s-1,.9-1.7,2.1l-1.1,2.1,3,3.2c3,3.1,6.2,7.2,17,21.6,3.1,4.1,9,11.6,13.2,16.5,8.9,10.6,25.6,31.1,32,39.3,2.5,3.2,7.3,9.1,10.8,13.1l6.2,7.2v4.9l-2.1,2.1-2,2-2.2-.7-2.2-.7-35-34c-19.2-18.8-39.9-39-45.8-44.9l-10.8-10.9-1.8.6-1.9.6-.6,1.5-.6,1.4,4.4,5.8,4.3,5.7,5.5,10.5c6,11.2,6.3,12.2,8.3,24.6l1.3,8.1,2.5,4.9,2.5,4.9,4.4,4.1c2.3,2.2,6,5.2,8,6.7s5.3,4.4,7.3,6.5l3.6,3.7,2.9,5.7,3,5.7,1.1,7.2,1.1,7.2-.6,4-.7,3.9-1.9,3.9-2,3.9h-4.8l-1.2-1.5-1.3-1.5-.8-8.5-.7-8.5-1.9-3.3-1.9-3.2-9.9-6.7-10-6.7-5.8-6.3-5.8-6.3-2.5-4.7-2.4-4.8-2.6-9.2c-1.5-5.1-3.6-11.1-4.7-13.3l-1.9-4-6.7-7c-3.7-3.8-8.7-9.4-11.2-12.4l-4.6-5.5-1.3,2.3-1.2,2.3,2.7,8.6c4,13.3,14.3,45.4,18.2,57.2,2,5.8,4.1,12.3,4.8,14.5,3.5,11.1,14.5,46.3,15,48.3l.7,2.3-1.2,1.4-1.2,1.5h-3.2c-1.7,0-3.6-.4-4.2-.8l-1.1-.7-6.7-16c-3.7-8.8-9.2-21.2-12.1-27.5s-6.9-15.3-9-20c-2-4.7-5.8-13.2-8.5-19-2.6-5.8-6.8-15-9.2-20.5-9.2-20.6-9.6-21.3-12.4-18.5l-1.1,1.1,1.9,8.7c1,4.8,2.3,10.1,2.9,11.7l1,3,.6,8,.5,8-2.1,12.4-2.2,12.4,1.1,5.1,1.1,5.1,4.8,9.5,4.9,9.5,1.6,5.4,1.6,5.5v14.4l-2.1,6.8-2.1,6.9-1.9,2.6-1.9,2.7-2.7.6-2.6.7-1.9-1.9-1.9-1.9,1.5-6,1.6-6.1v-8.7l-2.6-5.5c-1.4-3-3.6-6.8-4.8-8.5-3.4-4.4-10.1-18.2-12-24.4l-1.6-5.5v-5c0-2.8.5-9.4,1.2-14.7l1.2-9.6-4.3-13.4c-2.3-7.4-5.3-15.8-6.6-18.6l-2.4-5.3h-1.3c-.7,0-1.8.4-2.4.8l-1.2.7-.5,11.5c-.3,6.3-1,19.4-1.6,29-2.6,45.7-3.1,55.9-3.7,74.8l-.7,20.3-1.4,1.5-1.4,1.4h-2.2c-1.2,0-2.9-.4-3.7-.7h0Z" fill="#8dbcd9"/>
    <path d="M302.9,466c-18-2.3-40.7-11.4-59.1-23.7l-7.2-4.8-9.9-9.5-10-9.5-6.2-8-6.2-8-4.1-7.5c-2.2-4.1-5-10.2-6-13.5l-2-6-.7-7.1-.7-7.1,3.7-3.6,3.8-3.7h1.3c.7,0,2.5.5,4,1l2.7,1.1,5.1-3.6,5.1-3.5h4.5l4.2,4c2.4,2.2,5.1,4.3,6.1,4.6l1.7.5,4.8-1.5c2.6-.8,6.7-1.8,9.2-2.1l4.5-.7,3.6-2,3.7-2.1,3.8,3c2.2,1.7,5.9,4.4,8.3,6.1l4.4,3.1,1.8-.9c1-.6,2.7-1,3.9-1h2.1l2.4-1.6,2.5-1.6h7.7c0,.1,7.8.1,7.8.1l3.7-1.6,3.6-1.5,3,1.3,3,1.3.6,4.8.7,4.7-1.5,6.4c-3,12.8-7.8,21.3-19,33.3l-6.6,7.2,3.7,3.2c4.2,3.7,11.4,8.5,19.6,12.9l5.6,3,10.8,3.6,10.8,3.6,6.5.9,6.5,1h9.5c0-.1,9.5-.1,9.5-.1l8.6-1.8,8.5-1.8,2.2,1,2.2,1v4.8l-2.9,1-2.9,1-.6,1.5-.5,1.4h.9c.6,0,1,.4,1,1v.9l-6.7,3.2c-8.2,3.8-22.5,8.5-31.3,10.5l-6.5,1.4-18,.4-18,.5-6.6-.9h0Z" fill="#8dbcd9"/>
    <path d="M378.9,421.5c-3.1-.7-8.2-2.5-11.4-3.9l-5.7-2.6-6.3-4.5-6.2-4.4-4-4.8c-2.2-2.6-5.5-7-7.2-9.7l-3.1-5-2.4-8c-1.4-4.5-2.8-10.2-3.1-12.8l-.7-4.6,3-1.6,3.1-1.6h8.2l3.1,1.6,3.2,1.6,1.6-1,1.6-1,7.3-.7,7.4-.7,3.4-2,3.3-2,2.1.5,2.1.6,3.9-2.1,3.9-2,3.7.9,3.8.9,1.3,2.7,1.3,2.7h4.2l3.2,2,3.3,2,2.8-1.1c1.6-.6,4.6-1.3,6.8-1.5l3.8-.4,3.7-3.3c2-1.8,5.1-3.9,6.8-4.6l3.2-1.3,3.8,2.3c2.1,1.3,5.6,3.2,7.7,4.2l4,1.8,2.9-.7,2.9-.6.9,1.3c.5.8.9,2.8.9,4.6v3.1l1.3.5,1.2.4-2.4,7-2.3,7-4.6,7.9-4.5,7.9-7.6,7.6-7.6,7.5-5.5,3.1c-3,1.7-8.4,4.1-12,5.3l-6.5,2.2-11,.4-11,.4-5.6-1.5h0Z" fill="#8dbcd9"/>
  </g>
  <g>
    <path d="M74.9,326.6c-.2-.2-7.4-.7-15.9-1-22.4-1-26-1.7-26-5.2v-1.4h57.3l-4.1,3-4.2,3v2h-3.3c-1.9,0-3.6-.2-3.8-.4Z" fill="#90b8c8"/>
    <path d="M591.6,324.1c-.4-.6-2.4-1.8-4.4-2.7l-3.7-1.5-9,.6-9,.5-5.5-.9-5.5-.9h29.2c0-.1,29.2-.2,29.2-.2l.6,1,.6.9-2.8,1.8-2.7,1.8-8.2.3-8.2.4-.6-1.1h0Z" fill="#90b8c8"/>
  </g>
</svg>