<svg width="174" height="36" viewBox="0 0 174 36" fill="none" xmlns="http://www.w3.org/2000/svg">
<path d="M103.3 19.8651H105.73V18.7374H103.3V19.8651ZM150.87 24.0289L152.78 23.3349C152.085 21.6 151.304 19.9518 150.436 18.2169L148.613 18.9976C149.481 20.906 150.262 22.5542 150.87 24.0289ZM158.335 18.0434C158.248 19.6916 158.162 21.0795 157.814 22.2072C157.554 23.3349 157.033 24.2024 156.425 24.9831C155.818 25.7639 155.037 26.2843 154.082 26.7181C153.127 27.1518 151.912 27.412 150.436 27.5855L150.783 29.4072C153.04 29.147 154.863 28.5398 156.165 27.759C157.467 26.9783 158.509 25.7639 159.116 24.2024C159.724 22.641 160.158 20.6458 160.158 18.0434H158.335ZM162.068 23.6819H171.53C171.269 25.0699 170.488 26.1108 169.273 26.8048C168.058 27.4988 166.321 27.8458 164.238 28.0193L164.498 29.7542C167.624 29.5807 169.967 28.8867 171.443 27.6723C172.919 26.4578 173.7 24.6361 173.7 22.294V21.947H162.155L162.068 23.6819ZM172.745 19.8651V18.1301H163.11V19.8651H172.745ZM9.46192 33.8313C11.9793 35.2193 14.9307 36 18.0558 36C21.1808 36 24.0454 35.2193 26.6496 33.8313L18.0558 21.0795L9.46192 33.8313ZM7.03133 17.9566V15.0072H16.5801V11.9711H7.03133V9.02169H29.0802V11.9711H19.5315V15.0072H29.0802V17.9566H19.5315L29.0802 32.1831C33.3337 28.8867 36.0247 23.7687 36.0247 17.9566C36.0247 8.06747 27.9517 0 18.0558 0C8.07301 0 0 8.06747 0 17.9566C0 23.7687 2.69101 28.8867 6.94453 32.1831L16.4933 17.9566H7.03133ZM53.9069 30.3614C59.4625 30.3614 63.1084 27.412 63.1084 23.0747C63.1084 19.0843 59.8965 16.8289 55.0354 16.3952L52.8652 16.2217C50.5214 16.0482 49.393 14.747 49.393 13.2723C49.393 11.3639 50.7819 9.71566 53.7333 9.71566C56.6847 9.71566 58.0736 11.5373 58.0736 13.4458H62.0667C62.0667 9.02169 58.7681 6.15904 53.7333 6.15904C48.6985 6.15904 45.4867 8.93494 45.4867 13.2723C45.4867 17.0024 48.2645 19.5181 52.518 19.8651L54.6882 20.0386C57.6396 20.2988 59.1153 21.4265 59.1153 23.0747C59.1153 25.1566 57.466 26.8048 53.9069 26.8048C50.0006 26.8048 48.6117 24.8096 48.6117 22.9012H44.6186C44.6186 27.2386 48.004 30.3614 53.9069 30.3614ZM78.8204 30.3614C87.067 30.3614 90.8865 23.6819 90.8865 18.5639V17.8699C90.8865 12.3181 86.8934 6.15904 78.8204 6.15904C70.7474 6.15904 66.7543 12.3181 66.7543 17.8699V18.5639C66.7543 23.6819 70.5738 30.3614 78.8204 30.3614ZM78.8204 26.6313C73.9592 26.6313 70.8342 22.7277 70.8342 18.3036C70.8342 13.6193 73.8724 9.9759 78.8204 9.9759C83.6815 9.9759 86.7198 13.6193 86.7198 18.3036C86.7198 22.7277 83.6815 26.6313 78.8204 26.6313ZM110.678 29.7542H115.453L109.203 21.253C111.98 20.212 113.63 18.0434 113.63 14.5735V14.053C113.63 9.02169 110.244 6.67952 104.862 6.67952H96.7025V29.7542H100.782V21.947H104.949H105.21L110.678 29.7542ZM100.609 10.1494H105.296C107.901 10.1494 109.55 11.8843 109.55 14.3133C109.55 16.8289 107.901 18.4771 105.296 18.4771H100.609V10.1494ZM135.939 29.7542H140.106L131.946 6.85301H125.262L117.276 29.7542H121.356L123.526 23.4217H133.769L135.939 29.7542ZM124.654 20.0386L127.953 10.3229H129.081L132.467 20.0386H124.654Z" fill="#E3232C"/>
</svg>
