<svg width="171" height="40" viewBox="0 0 171 40" fill="none" xmlns="http://www.w3.org/2000/svg">
<path d="M67.5999 25.4684H72.056C72.056 27.6456 73.6257 29.8228 77.9805 29.8228C81.9301 29.8228 83.8037 27.9494 83.8037 25.7215C83.8037 23.8481 82.1833 22.6329 78.8919 22.2785L76.4614 22.0759C71.6509 21.6709 68.6127 18.9873 68.6127 14.7848C68.6127 9.97468 72.2585 6.88608 77.7779 6.88608C83.3986 6.88608 87.0444 10.0759 87.0444 14.9873H82.5884C82.5884 12.8608 81.0693 10.8354 77.7779 10.8354C74.5372 10.8354 72.9674 12.7089 72.9674 14.7848C72.9674 16.4557 74.1827 17.8734 76.8158 18.0759L79.2464 18.2785C84.6139 18.7848 88.2091 21.3165 88.2091 25.7215C88.2091 30.481 84.2088 33.7722 77.9805 33.7722C71.2964 33.7722 67.5999 30.2785 67.5999 25.4684ZM104.869 33.7722C114.034 33.7722 118.237 26.3291 118.237 20.6582V19.8987C118.237 13.7215 113.781 6.88608 104.869 6.88608C95.9058 6.88608 91.5005 13.7215 91.5005 19.8987V20.6582C91.5005 26.3291 95.7033 33.7722 104.869 33.7722ZM104.869 29.5696C99.3998 29.5696 96.0071 25.2658 96.0071 20.3038C96.0071 15.0886 99.3998 11.038 104.869 11.038C110.287 11.038 113.679 15.038 113.679 20.3038C113.679 25.2658 110.287 29.5696 104.869 29.5696ZM138.896 33.1139H144.213L137.225 23.6456C140.314 22.5316 142.188 20.1013 142.188 16.2025V15.6456C142.188 10.076 138.39 7.44304 132.415 7.44304H123.3V33.1139H127.807V24.3544H132.415H132.668L138.896 33.1139ZM127.807 11.2911H132.972C135.858 11.2911 137.63 13.2152 137.63 15.9494C137.63 18.6835 135.808 20.6076 132.972 20.6076H127.807V11.2911ZM166.341 33.1139H171L161.885 7.59494H154.492L145.631 33.1139H150.138L152.518 26.0759H163.911L166.341 33.1139ZM153.834 22.2278L157.48 11.443H158.797L162.544 22.2278H153.834ZM30.2301 24.4557C28.154 22.4304 25.8247 19.3924 26.3311 16.4557C26.5842 14.9367 27.4957 13.7215 29.0654 12.8608C28.9642 12.6076 28.8629 12.3544 28.8629 12.1013H24.8626H23.4954C22.5333 12.1013 21.7738 11.3418 21.7738 10.3797C21.7738 9.41772 22.5333 8.65823 23.4954 8.65823H24.8626H36.509C32.9138 3.44304 26.8881 0 20.0521 0C10.5831 0 2.63311 6.58228 0.557004 15.3924H15.8999H17.2671C18.2292 15.3924 18.9887 16.1519 18.9887 17.1139C18.9887 18.076 18.2292 18.8354 17.2671 18.8354H15.8999H11.8996C11.8996 19.7975 11.1401 20.557 10.178 20.557H8.81078H0C0 21.4177 0.101273 22.2785 0.253183 23.0886C6.32958 24.2025 13.2668 24.8101 20.6598 24.8101C23.9511 24.8101 27.1413 24.7089 30.2301 24.4557ZM31.3441 29.1139C31.2428 29.8734 31.2428 30.6329 31.2935 31.2911H22.0776V28.9114C25.2677 28.962 28.3565 29.0127 31.3441 29.1139ZM17.976 31.2911H3.49393C3.44329 31.2405 3.44329 31.1899 3.39266 31.1392V29.3671C7.89932 29.1139 12.8111 28.9114 17.9254 28.9114V31.2911H17.976ZM32.5087 35.1899V35.6456C29.0654 38.3797 24.7613 40 20.0015 40C15.2923 40 10.9375 38.3797 7.49423 35.6456V33.7722H31.6985C31.9517 34.2785 32.2049 34.7848 32.5087 35.1899ZM40.3068 27.3924C34.5848 24.7089 29.1667 19.5443 29.6224 17.0127C29.8756 15.6456 32.3568 14.6835 36.3065 14.3797C36.1039 15.1899 35.8001 16.1519 35.6482 16.7089C35.1418 18.3797 34.9899 18.8861 35.2431 19.4937C35.2938 19.5443 35.2938 19.6456 35.3444 19.6962C35.9014 20.6582 36.7622 21.519 37.6737 22.481C39.7498 24.6076 40.7625 25.924 40.3068 27.3924ZM36.7622 33.8228C35.7495 33.8228 35.3444 33.4684 35.1418 33.1646C34.7368 32.6582 34.0278 30.9873 35.1925 26.3797C35.9014 26.7848 36.7622 27.3924 37.2179 27.7468C38.5851 28.7089 38.9902 29.0127 39.6485 29.0127C39.6485 29.0127 39.6991 29.0127 39.7498 29.0127C39.8004 29.0127 39.9017 29.0127 39.9523 28.962C41.0157 28.7595 42.1297 28.2025 43.2943 27.5949C44.7122 26.8861 46.1806 26.1772 47.3959 26.1772C47.801 26.1772 48.2567 26.2278 48.7631 26.6329C45.1173 30.5316 39.7498 33.8228 36.7622 33.8228ZM51.4975 33.8228C50.5354 33.8228 48.7631 33.4177 45.8262 31.5443C46.4338 30.9873 47.2946 30.3797 47.7504 30.0253C49.1176 28.962 49.5733 28.6582 49.7252 28C49.7252 27.9494 49.7758 27.8481 49.7758 27.7975C49.8771 26.6835 49.7252 25.4684 49.5227 24.2025C49.0669 21.2658 49.0163 19.5949 50.2822 18.6835C53.1179 23.8481 54.5357 30.4304 53.1685 32.9114C52.814 33.5696 52.3077 33.8228 51.4975 33.8228ZM53.8774 22.2278C53.5736 21.4684 53.2191 20.5063 53.0166 19.9494C52.4596 18.3291 52.3077 17.8228 51.7 17.4177C51.6494 17.3671 51.5481 17.3671 51.4975 17.3165C50.4848 16.8608 49.2695 16.6582 48.0036 16.4557C45.0666 15.9494 43.4969 15.5443 42.9905 14.0253C44.7628 13.6709 46.7376 13.519 48.6618 13.519C53.4723 13.519 57.2701 14.6835 57.8271 16.3038C58.3334 17.7722 57.8271 18.9367 53.8774 22.2278ZM37.1673 19.5949C37.9775 13.0633 41.3195 6.17722 43.902 6.17722C44.4084 6.17722 46.1806 6.58228 48.2567 11.7468C47.4465 11.7975 46.3832 11.8481 45.8262 11.8481C44.1045 11.8987 43.5475 11.8987 43.0412 12.3544C42.9905 12.4051 42.9399 12.4557 42.8893 12.5063C42.1297 13.3165 41.5727 14.4304 40.9651 15.5443C39.6991 17.9747 38.7877 19.5949 37.1673 19.5949Z" fill="#E3232C"/>
</svg>
