<svg width="18" height="18" viewBox="0 0 18 18" xmlns="http://www.w3.org/2000/svg">
<path fill="#A19A9D" d="M7.5,17.4C7.9,17.8,8.4,18,9,18s1.1-0.2,1.5-0.6c0.1-0.1,0.2-0.2,0.4-0.5l1.9-3.4c0.2-0.2,0.3-0.4,0.4-0.5
	c0.1-0.1,0.3-0.2,0.5-0.3l3.4-1.9c0.2-0.1,0.3-0.2,0.5-0.4C17.8,10.1,18,9.6,18,9s-0.2-1.1-0.6-1.5c-0.2-0.2-0.3-0.3-0.5-0.4
	l-3.4-1.9C13.3,5.2,13.1,5.1,13,5c-0.1-0.1-0.2-0.2-0.4-0.5l-1.9-3.4c-0.1-0.2-0.2-0.3-0.4-0.5C10.1,0.2,9.6,0,9,0S7.9,0.2,7.5,0.6
	C7.4,0.7,7.3,0.8,7.2,1.1L5.3,4.5C5.2,4.7,5.1,4.8,5,5C4.8,5.1,4.6,5.2,4.5,5.3L1.1,7.2C0.9,7.3,0.7,7.4,0.6,7.5C0.2,7.9,0,8.4,0,9
	s0.2,1.1,0.6,1.5c0.1,0.1,0.3,0.2,0.5,0.3l3.4,1.9c0.2,0.1,0.3,0.2,0.5,0.4c0.1,0.1,0.2,0.3,0.3,0.5l1.9,3.4
	C7.3,17.1,7.4,17.3,7.5,17.4z"/>
</svg>