<svg width="22" height="22" viewBox="0 0 22 22" fill="none" xmlns="http://www.w3.org/2000/svg">
<path fill-rule="evenodd" clip-rule="evenodd" d="M22 11.0001C22 17.0752 17.0752 22 10.9999 22C4.92481 22 0 17.0752 0 11.0001C0 4.92501 4.92481 0 10.9999 0C17.0752 0 22 4.92501 22 11.0001" fill="#50AF95"/>
<path fill-rule="evenodd" clip-rule="evenodd" d="M12.4549 12.0456C12.3736 12.0517 11.9538 12.0769 11.0174 12.0769C10.2725 12.0769 9.74371 12.0545 9.55818 12.0456C6.67976 11.9187 4.53128 11.4166 4.53128 10.8154C4.53128 10.2142 6.67976 9.71275 9.55818 9.58383V11.5455C9.74642 11.5591 10.2854 11.591 11.0302 11.591C11.924 11.591 12.3716 11.5537 12.4522 11.5462V9.58519C15.3245 9.71343 17.4682 10.2156 17.4682 10.8154C17.4682 11.4153 15.3252 11.9174 12.4522 12.045L12.4549 12.0456ZM12.4549 9.3823V7.62687H16.4634V4.94995H5.54966V7.62687H9.5575V9.38162C6.2999 9.53158 3.8501 10.1782 3.8501 10.9532C3.8501 11.7281 6.2999 12.3741 9.5575 12.5247V18.15H12.4542V12.5227C15.7044 12.3727 18.1501 11.7267 18.1501 10.9525C18.1501 10.1782 15.7064 9.53226 12.4542 9.38162L12.4549 9.3823Z" fill="white"/>
</svg>
