<svg width="49" height="44" viewBox="0 0 49 44" fill="none" xmlns="http://www.w3.org/2000/svg">
<path d="M35.7109 28.875C36.4948 27.7448 37.0872 26.4414 37.4883 24.9648C37.9076 23.4883 38.1172 21.9388 38.1172 20.3164C38.1172 18.7122 37.8984 17.181 37.4609 15.7227C37.0417 14.2461 36.4401 12.9336 35.6562 11.7852C35.2552 11.2201 34.8815 10.7643 34.5352 10.418C34.4622 10.3268 34.3711 10.2995 34.2617 10.3359L32.5938 11.0742C32.5938 11.0742 32.5664 11.1016 32.5117 11.1562C32.4753 11.2109 32.457 11.2747 32.457 11.3477C32.457 11.4206 32.4844 11.4753 32.5391 11.5117C33.1224 12.0221 33.569 12.5326 33.8789 13.043C34.5352 14.0091 35.0365 15.1211 35.3828 16.3789C35.7474 17.6185 35.9297 18.931 35.9297 20.3164C35.9297 21.7018 35.7474 23.0234 35.3828 24.2812C35.0365 25.5208 34.5352 26.6237 33.8789 27.5898C33.2591 28.4831 32.5573 29.1758 31.7734 29.668C30.9896 30.1602 30.1784 30.4062 29.3398 30.4062C28.4831 30.4062 27.6628 30.1693 26.8789 29.6953C26.1133 29.2031 25.4206 28.5013 24.8008 27.5898C24.1445 26.6237 23.6341 25.5117 23.2695 24.2539C22.9049 22.9961 22.7227 21.6836 22.7227 20.3164C22.7227 19.569 22.8958 18.8672 23.2422 18.2109C23.5885 17.5547 23.9896 17.2266 24.4453 17.2266C24.9193 17.2266 25.3203 17.5547 25.6484 18.2109C25.9948 18.849 26.168 19.5508 26.168 20.3164C26.168 22.3581 25.7852 24.2357 25.0195 25.9492C24.9831 26.0221 24.9831 26.1042 25.0195 26.1953C25.0924 26.3229 25.2747 26.6237 25.5664 27.0977C25.7669 27.3711 25.9583 27.6081 26.1406 27.8086C26.1771 27.8451 26.1953 27.8633 26.1953 27.8633C26.2135 27.8815 26.25 27.8906 26.3047 27.8906C26.4141 27.8906 26.4961 27.8451 26.5508 27.7539C27.7721 25.457 28.3646 22.987 28.3281 20.3438C28.3281 19.3776 28.1549 18.4935 27.8086 17.6914C27.4622 16.8711 26.9883 16.2331 26.3867 15.7773C25.8034 15.3034 25.1562 15.0664 24.4453 15.0664C23.7344 15.0664 23.0781 15.3034 22.4766 15.7773C21.8932 16.2331 21.4284 16.8711 21.082 17.6914C20.7539 18.4935 20.5898 19.3776 20.5898 20.3438C20.5898 21.9479 20.7995 23.4883 21.2188 24.9648C21.6562 26.4232 22.2669 27.7266 23.0508 28.875C23.8893 30.0781 24.8464 31.0078 25.9219 31.6641C27.0156 32.3021 28.1641 32.6211 29.3672 32.6211C30.5885 32.6211 31.737 32.3021 32.8125 31.6641C33.9062 31.0078 34.8724 30.0781 35.7109 28.875ZM3.5 21C3.5 17.1901 4.4388 13.681 6.31641 10.4727C8.21224 7.26432 10.7643 4.72135 13.9727 2.84375C17.181 0.947917 20.6901 0 24.5 0C28.3099 0 31.819 0.947917 35.0273 2.84375C38.2357 4.72135 40.7786 7.26432 42.6562 10.4727C44.5339 13.681 45.4727 17.1901 45.4727 21C45.4727 24.8099 44.5247 28.319 42.6289 31.5273C40.7513 34.7357 38.2083 37.2786 35 39.1562C31.7917 41.0521 28.2917 42 24.5 42C20.6901 42 17.181 41.0521 13.9727 39.1562C10.7643 37.2786 8.21224 34.7357 6.31641 31.5273C4.4388 28.319 3.5 24.8099 3.5 21ZM10.8828 21.082C10.9375 23.9076 11.7487 26.5052 13.3164 28.875C14.1549 30.0964 15.112 31.026 16.1875 31.6641C17.263 32.3021 18.4115 32.6211 19.6328 32.6211C21.0365 32.6211 22.3398 32.1927 23.543 31.3359C23.5977 31.2812 23.625 31.2174 23.625 31.1445C23.6432 31.0716 23.6341 31.0169 23.5977 30.9805L22.5586 29.7227C22.5404 29.668 22.4948 29.6406 22.4219 29.6406C22.349 29.6224 22.2852 29.6315 22.2305 29.668C21.4648 30.1784 20.6081 30.4336 19.6602 30.4336C18.8216 30.4336 18.0104 30.1966 17.2266 29.7227C16.4427 29.2305 15.7409 28.5378 15.1211 27.6445C14.4648 26.6784 13.9544 25.5664 13.5898 24.3086C13.2435 23.0508 13.0703 21.7292 13.0703 20.3438L13.043 20.2617C12.9336 20.0977 12.8151 20.0521 12.6875 20.125L11.0469 20.8633C10.9375 20.8815 10.8828 20.9544 10.8828 21.082Z" fill="#A566FF"/>
</svg>
