<svg width="140" height="49" viewBox="0 0 140 49" xmlns="http://www.w3.org/2000/svg">
<path d="M24.01 16.0647V12.5297C24.01 11.2347 23.24 10.0797 22.05 9.58966L0 0.489655V2.44965L19.635 10.5347C20.055 10.7097 20.23 11.1997 20.055 11.6197C19.985 11.8297 19.81 11.9697 19.635 12.0397L0 20.1597V28.0697L11.83 23.2047L19.6 26.3897C20.02 26.5647 20.195 27.0197 20.055 27.4397C20.055 27.4397 20.055 27.4397 20.055 27.4747C19.985 27.6847 19.81 27.8247 19.635 27.8947L0.0350001 35.9797V48.4747L22.05 39.4097C23.24 38.9197 24.01 37.7647 24.01 36.4697V28.3497C24.01 27.0547 23.24 25.8997 22.05 25.4097L14.245 22.1897L22.05 18.9697C23.24 18.5147 24.01 17.3597 24.01 16.0647ZM42.175 3.42965C42.42 3.00965 42.84 2.79966 43.33 2.83466C44.135 2.83466 44.8 3.49965 44.8 4.65465C44.8 5.80966 44.1 6.47466 43.33 6.47466C42.875 6.50966 42.42 6.26466 42.175 5.87966V7.52466H41.58V2.86966H42.175V3.42965ZM44.135 4.61966C44.135 3.81466 43.715 3.32466 43.155 3.32466C42.63 3.32466 42.14 3.74466 42.14 4.61966C42.14 5.49466 42.63 5.91466 43.155 5.91466C43.785 5.91466 44.17 5.45966 44.135 4.61966ZM46.865 3.46465C46.34 3.46465 46.06 3.77966 46.06 4.51466V6.33465H45.465V2.83466H46.025V3.49966C46.2 3.11466 46.585 2.86966 47.005 2.86966H47.18V3.49966C47.075 3.46466 46.935 3.46465 46.865 3.46465ZM49.105 6.43966C48.3 6.43966 47.46 5.87966 47.46 4.61966C47.46 3.35966 48.3 2.79965 49.105 2.79965C49.91 2.79965 50.785 3.35966 50.785 4.61966C50.785 5.87966 49.91 6.43966 49.105 6.43966ZM50.12 4.61966C50.12 3.70966 49.595 3.32466 49.07 3.32466C48.545 3.32466 48.02 3.67466 48.02 4.61966C48.02 5.56466 48.545 5.91466 49.07 5.91466C49.63 5.91466 50.12 5.52966 50.12 4.61966ZM51.975 2.86966V6.50965C51.975 7.24466 51.835 7.45466 51.17 7.45466H50.855V6.96466H51.03C51.345 6.96466 51.38 6.85965 51.38 6.50965V2.86966H51.975ZM51.975 2.37965H51.38V1.67965H51.975V2.37965ZM54.32 5.91466C54.74 5.94966 55.125 5.70466 55.265 5.35466H55.86C55.65 6.05466 55.02 6.47466 54.32 6.43966C53.235 6.43966 52.605 5.63466 52.605 4.61966C52.535 3.70966 53.2 2.90466 54.145 2.83466C54.18 2.83466 54.25 2.83466 54.285 2.83466C55.335 2.83466 56 3.70965 55.895 4.82966H53.235C53.2 5.42465 53.69 5.91466 54.25 5.94966C54.285 5.91466 54.32 5.91466 54.32 5.91466ZM55.3 4.30466C55.265 3.74465 54.775 3.32466 54.215 3.35966C53.69 3.39466 53.305 3.81465 53.27 4.30466H55.3ZM58.905 4.02466C58.8 3.60466 58.45 3.32466 57.995 3.32466C57.47 3.32466 56.98 3.74466 56.98 4.61966C56.98 5.49466 57.47 5.91466 57.995 5.91466C58.415 5.91466 58.8 5.63466 58.905 5.21466H59.5C59.325 5.94966 58.695 6.43966 57.96 6.43966C56.98 6.43966 56.35 5.66966 56.35 4.61966C56.35 3.56966 57.015 2.79965 58.03 2.79965C58.765 2.79965 59.36 3.28966 59.465 4.02466H58.905ZM60.9 1.99466V2.86966H61.565V3.32466H60.9V5.38966C60.9 5.73966 60.935 5.84466 61.25 5.84466H61.53V6.33465H61.11C60.445 6.33465 60.305 6.19465 60.305 5.45965V3.32466H59.745V2.86966H60.27V1.99466H60.9ZM64.925 3.32466C64.575 3.32466 64.19 3.46465 64.19 3.77965C64.19 4.09466 64.4 4.19965 64.715 4.23465L65.205 4.33966C65.835 4.44466 66.395 4.68966 66.395 5.38966C66.395 6.05466 65.765 6.47466 64.995 6.47466C64.26 6.54466 63.595 5.98466 63.49 5.24966H64.12C64.155 5.70466 64.575 6.01966 64.995 5.94966C65.45 5.94966 65.8 5.73966 65.8 5.42466C65.8 5.10966 65.485 4.93466 65.1 4.86466L64.575 4.75965C64.12 4.65465 63.595 4.44465 63.595 3.77965C63.595 3.11465 64.225 2.79965 64.995 2.79965C65.66 2.72966 66.255 3.21966 66.36 3.88466H65.73C65.66 3.49966 65.31 3.25466 64.925 3.32466ZM68.145 6.43966C67.34 6.43966 67.025 5.91465 67.025 5.10965V2.86966H67.62V4.93465C67.62 5.45965 67.725 5.94966 68.355 5.94966C68.915 5.94966 69.23 5.52966 69.23 4.79466V2.86966H69.825V6.36966H69.23V5.87966C69.02 6.22966 68.6 6.47466 68.145 6.43966ZM71.26 3.42965C71.505 3.00965 71.925 2.79966 72.415 2.83466C73.22 2.83466 73.885 3.49965 73.885 4.65465C73.885 5.80966 73.185 6.47466 72.415 6.47466C71.96 6.50966 71.505 6.26466 71.26 5.87966V7.52466H70.665V2.86966H71.26V3.42965ZM73.255 4.61966C73.255 3.81466 72.835 3.32466 72.275 3.32466C71.75 3.32466 71.26 3.74466 71.26 4.61966C71.26 5.49466 71.75 5.91466 72.275 5.91466C72.835 5.91466 73.22 5.45966 73.255 4.61966ZM75.11 3.42965C75.355 3.00965 75.775 2.79966 76.265 2.83466C77.07 2.83466 77.735 3.49965 77.735 4.65465C77.735 5.80966 77.035 6.47466 76.265 6.47466C75.81 6.50966 75.355 6.26466 75.11 5.87966V7.52466H74.55V2.86966H75.145V3.42965H75.11ZM77.105 4.61966C77.105 3.81466 76.685 3.32466 76.125 3.32466C75.6 3.32466 75.11 3.74466 75.11 4.61966C75.11 5.49466 75.6 5.91466 76.125 5.91466C76.72 5.91466 77.105 5.45966 77.105 4.61966ZM79.87 6.43966C79.065 6.43966 78.19 5.87966 78.19 4.61966C78.19 3.35966 79.03 2.79965 79.87 2.79965C80.885 2.79965 81.69 3.60466 81.69 4.61966C81.69 5.63466 80.85 6.43966 79.87 6.43966ZM80.885 4.61966C80.885 3.70966 80.36 3.32466 79.835 3.32466C79.31 3.32466 78.785 3.67466 78.785 4.61966C78.785 5.56466 79.31 5.91466 79.835 5.91466C80.395 5.91466 80.885 5.52966 80.885 4.61966ZM83.58 3.46465C83.055 3.46465 82.775 3.77966 82.775 4.51466V6.33465H82.18V2.83466H82.74V3.49966C82.915 3.11466 83.3 2.86966 83.72 2.86966H83.895V3.49966C83.79 3.46466 83.685 3.46465 83.58 3.46465ZM85.365 1.99466V2.86966H86.03V3.32466H85.365V5.38966C85.365 5.73966 85.4 5.84466 85.715 5.84466H86.03V6.33465H85.61C84.945 6.33465 84.805 6.19465 84.805 5.45965V3.32466H84.245V2.86966H84.805V1.99466H85.365ZM87.99 5.91466C88.41 5.94966 88.795 5.70466 88.935 5.35466H89.53C89.32 6.05466 88.69 6.47466 87.99 6.43966C86.905 6.43966 86.275 5.63466 86.275 4.61966C86.205 3.70966 86.905 2.90466 87.815 2.83466C87.85 2.83466 87.92 2.83466 87.955 2.83466C89.005 2.83466 89.67 3.70965 89.565 4.82966H86.905C86.87 5.42465 87.325 5.91466 87.92 5.94966C87.955 5.91466 87.99 5.91466 87.99 5.91466ZM88.97 4.30466C88.97 3.74465 88.515 3.28965 87.955 3.28965C87.395 3.28965 86.94 3.74465 86.94 4.30466H88.97ZM93.24 1.67965V6.36966H92.645V5.84466C92.4 6.26466 91.98 6.47466 91.49 6.43966C90.685 6.43966 90.02 5.77466 90.02 4.61966C90.02 3.46466 90.72 2.79965 91.49 2.79965C91.945 2.76466 92.4 3.00966 92.645 3.39466V1.64466H93.24V1.67965ZM90.685 4.61966C90.685 5.42466 91.105 5.91466 91.665 5.91466C92.19 5.91466 92.68 5.49466 92.68 4.61966C92.68 3.74466 92.19 3.32466 91.665 3.32466C91.07 3.32466 90.685 3.81466 90.685 4.61966ZM96.25 3.42965C96.495 3.00965 96.915 2.79966 97.405 2.83466C98.21 2.83466 98.875 3.49965 98.875 4.65465C98.875 5.80966 98.175 6.47466 97.405 6.47466C96.95 6.50966 96.495 6.26466 96.25 5.87966V6.40466H95.655V1.67965H96.25V3.42965ZM98.245 4.61966C98.245 3.81466 97.825 3.32466 97.265 3.32466C96.74 3.32466 96.25 3.74466 96.25 4.61966C96.25 5.49466 96.74 5.91466 97.265 5.91466C97.86 5.91466 98.245 5.45966 98.245 4.61966ZM100.765 6.50965C100.52 7.27965 100.345 7.48966 99.54 7.48966H99.225V6.99966H99.47C99.89 6.99966 100.03 6.96466 100.205 6.43966L100.24 6.36966L98.98 2.90465H99.645L100.52 5.59966L101.395 2.90465H102.025L100.765 6.50965ZM46.55 14.7347L47.985 20.0197L49.35 14.7347H50.645L48.58 21.9097H47.46L45.885 16.0997L44.345 21.8747H43.26L41.195 14.6997H42.49L43.855 19.9847L45.29 14.6997L46.55 14.7347ZM54.425 20.9997C55.265 21.0697 56.07 20.6147 56.385 19.8097H57.645C57.33 21.0347 56.175 22.0497 54.425 22.0497C52.15 22.0497 50.925 20.4397 50.925 18.3047C50.925 16.0297 52.43 14.5947 54.39 14.5947C56.56 14.5947 57.89 16.4497 57.715 18.6897H52.22C52.185 19.9147 53.13 20.9297 54.32 20.9647C54.39 20.9997 54.425 20.9997 54.425 20.9997ZM56.455 17.6747C56.35 16.5197 55.3 15.6447 54.145 15.7847C53.13 15.8897 52.36 16.6597 52.255 17.6747H56.455ZM60.2 15.8547C60.69 15.0147 61.6 14.5597 62.545 14.5947C64.19 14.5947 65.59 15.9597 65.59 18.3397C65.59 20.7197 64.19 22.0497 62.545 22.0497C61.6 22.1197 60.69 21.6297 60.2 20.7897V21.8747H58.975V12.2147H60.2V15.8547ZM64.295 18.3397C64.295 16.6247 63.49 15.6447 62.23 15.6447C61.145 15.6447 60.13 16.4497 60.13 18.3397C60.13 20.2297 61.145 21.0347 62.23 21.0347C63.49 20.9997 64.295 20.0197 64.295 18.3397ZM69.3 17.3247H69.09V16.2047H69.265C70.945 16.2047 71.82 15.7497 71.82 14.5947C71.82 13.5447 70.98 13.0197 69.93 13.0197C68.845 12.9497 67.935 13.7197 67.83 14.8047C67.83 14.8397 67.83 14.8747 67.83 14.9097H66.57C66.71 13.1947 67.935 12.0047 69.965 12.0047C71.645 12.0047 73.08 12.6697 73.08 14.4547C73.08 15.4697 72.45 16.3447 71.505 16.6947C72.94 17.1497 73.36 18.0947 73.36 19.1097C73.36 21.0697 71.715 22.0147 69.86 22.0147C67.585 22.0147 66.57 20.6147 66.43 19.0047H67.69C67.83 20.1947 68.53 21.0347 69.895 21.0347C71.19 21.0347 72.065 20.3697 72.065 19.1797C72.065 17.7797 70.84 17.3247 69.3 17.3247ZM80.255 12.2147H80.885V13.2297H80.29C79.66 13.2297 79.555 13.3697 79.555 14.1047V14.6997H80.885V15.6797H79.555V21.8747H78.33V15.6797H77.35V14.6997H78.365V14.1747C78.33 12.7047 78.61 12.2147 80.255 12.2147ZM84.735 22.0497C83.09 22.0497 81.305 20.9297 81.305 18.3047C81.305 15.7147 83.09 14.5597 84.735 14.5597C86.38 14.5597 88.165 15.6797 88.165 18.3047C88.165 20.9297 86.415 22.0497 84.735 22.0497ZM86.87 18.3397C86.87 16.4497 85.82 15.6797 84.735 15.6797C83.65 15.6797 82.6 16.3797 82.6 18.3397C82.6 20.2997 83.65 20.9997 84.735 20.9997C85.82 20.9997 86.87 20.1597 86.87 18.3397ZM91.665 22.0497C90.02 22.0497 89.39 20.9297 89.39 19.2847V14.7347H90.615V18.9697C90.615 20.0897 90.79 21.0347 92.12 21.0347C93.275 21.0347 93.94 20.2297 93.94 18.6897V14.7347H95.165V21.9097H93.94V20.8947C93.45 21.6647 92.575 22.1197 91.665 22.0497ZM100.345 14.5947C102.095 14.5947 102.69 15.7147 102.69 17.3597V21.8747H101.5V17.7097C101.5 16.6247 101.325 15.6447 99.925 15.6447C98.735 15.6447 98.035 16.4497 98.035 17.9897V21.8747H96.81V14.7347H98.035V15.8197C98.525 14.9797 99.435 14.5247 100.345 14.5947ZM110.53 12.2147V21.8747H109.305V20.7897C108.815 21.6297 107.905 22.0847 106.96 22.0497C105.315 22.0497 103.915 20.6847 103.915 18.3047C103.915 15.9247 105.35 14.5597 106.96 14.5597C107.905 14.4897 108.815 14.9797 109.305 15.8197V12.2147H110.53ZM105.245 18.3397C105.245 20.0547 106.05 21.0347 107.31 21.0347C108.395 21.0347 109.41 20.2297 109.41 18.3397C109.41 16.4497 108.395 15.6447 107.31 15.6447C106.05 15.6447 105.245 16.6247 105.245 18.3397ZM116.62 17.4647V17.2897C116.62 15.9947 115.885 15.5397 115.01 15.5397C114.03 15.5397 113.435 16.0997 113.365 16.9747H112.105C112.21 15.4347 113.575 14.5597 114.975 14.5597C116.935 14.5597 117.845 15.5047 117.81 17.4997V19.1447C117.775 20.0547 117.845 20.9647 117.985 21.8397H116.76C116.69 21.5247 116.69 21.1747 116.655 20.8597C116.2 21.5947 115.465 22.0147 114.205 22.0147C112.875 22.0147 111.755 21.2797 111.755 19.9497C111.79 18.3047 113.68 17.8147 116.62 17.4647ZM113.12 19.9497C113.12 20.6147 113.645 21.0697 114.52 21.0697C115.64 21.0697 116.725 20.5447 116.725 18.8647V18.4097C114.52 18.6547 113.12 18.9697 113.12 19.9497ZM120.96 12.9147V14.6997H122.325V15.6797H120.96V19.9497C120.96 20.6847 121.03 20.8947 121.695 20.8947H122.325V21.9097H121.45C120.085 21.9097 119.77 21.5947 119.77 20.1247V15.6797H118.65V14.6997H119.77V12.9147H120.96ZM124.67 13.6847H123.445V12.2147H124.67V13.6847ZM124.67 21.8747H123.445V14.7347H124.67V21.8747ZM129.395 22.0497C127.715 22.0497 125.965 20.9297 125.965 18.3047C125.965 15.7147 127.75 14.5597 129.395 14.5597C131.075 14.5597 132.825 15.6797 132.825 18.3047C132.825 20.9297 131.04 22.0497 129.395 22.0497ZM131.53 18.3397C131.53 16.4497 130.48 15.6797 129.395 15.6797C128.31 15.6797 127.26 16.3797 127.26 18.3397C127.26 20.2997 128.31 20.9997 129.395 20.9997C130.48 20.9997 131.53 20.1597 131.53 18.3397ZM137.655 14.5947C139.37 14.5947 140 15.7147 140 17.3597V21.8747H138.775V17.7097C138.775 16.6247 138.6 15.6447 137.2 15.6447C136.045 15.6447 135.31 16.4497 135.31 17.9897V21.8747H134.085V14.7347H135.31V15.8197C135.8 14.9797 136.71 14.5247 137.655 14.5947ZM48.125 29.5397V35.7347C48.125 37.2047 47.845 37.7997 47.46 38.2547C46.795 38.9197 45.92 39.2697 44.975 39.1997C43.365 39.1997 42.245 38.4647 42.035 36.9947H43.33C43.47 37.6247 43.89 38.1147 44.975 38.1147C45.5 38.1497 46.06 37.9747 46.445 37.5897C46.725 37.3097 46.9 36.9597 46.9 36.0147V35.3497C46.445 36.1547 45.57 36.6447 44.625 36.5747C43.05 36.5747 41.58 35.2797 41.58 33.0047C41.58 30.6947 43.015 29.4347 44.625 29.4347C45.57 29.3647 46.445 29.8547 46.9 30.6947V29.5747L48.125 29.5397ZM42.91 33.0047C42.91 34.6497 43.75 35.5597 44.94 35.5597C46.025 35.5597 46.97 34.8247 46.97 33.0047C46.97 31.1847 46.025 30.4497 44.94 30.4497C43.75 30.4847 42.91 31.3597 42.91 33.0047ZM52.675 30.7647C51.555 30.7647 50.995 31.3947 50.995 32.9697V36.7147H49.77V29.5397H50.96V30.7997C51.31 29.9947 52.115 29.5047 52.99 29.5047C53.095 29.5047 53.235 29.5047 53.34 29.5047V30.7997C53.13 30.7647 52.92 30.7647 52.675 30.7647ZM58.695 32.3047V32.1297C58.695 30.8347 57.96 30.3797 57.085 30.3797C56.105 30.3797 55.51 30.9397 55.44 31.8147H54.18C54.285 30.2747 55.65 29.3997 57.05 29.3997C59.01 29.3997 59.92 30.3447 59.885 32.3397V33.9847C59.85 34.8947 59.92 35.8047 60.06 36.6797H58.835C58.8 36.3647 58.765 36.0147 58.73 35.6997C58.31 36.4347 57.54 36.8547 56.28 36.8547C54.95 36.8547 53.83 36.1197 53.83 34.7897C53.865 33.1447 55.755 32.6547 58.695 32.3047ZM55.195 34.7897C55.195 35.4547 55.72 35.9097 56.595 35.9097C57.715 35.9097 58.8 35.3847 58.8 33.7047V33.2497C56.595 33.4947 55.195 33.8097 55.195 34.7897ZM65.03 29.4347C66.745 29.4347 67.375 30.5547 67.375 32.1997V36.7147H66.15V32.5497C66.15 31.4297 65.975 30.4847 64.575 30.4847C63.42 30.4847 62.685 31.2897 62.685 32.8297V36.7147H61.46V29.5397H62.685V30.6247C63.21 29.8197 64.12 29.3647 65.03 29.4347ZM70.525 27.7547V29.5397H71.89V30.5197H70.525V34.7547C70.525 35.4897 70.56 35.6997 71.26 35.6997H71.89V36.7147H71.015C69.65 36.7147 69.335 36.3997 69.335 34.9297V30.5547H68.215V29.5747H69.335V27.7547H70.525ZM75.46 30.4497C74.76 30.4497 73.955 30.6947 73.955 31.3597C73.955 31.9197 74.375 32.1997 75.04 32.3397L76.055 32.5497C77.35 32.7947 78.505 33.2847 78.505 34.6847C78.505 36.0847 77.21 36.9247 75.6 36.9247C73.71 36.9247 72.66 35.6997 72.52 34.4397H73.815C73.92 35.3497 74.725 35.9797 75.635 35.9097C76.545 35.9097 77.28 35.4897 77.28 34.8597C77.28 34.1947 76.615 33.8447 75.845 33.6697L74.795 33.4597C73.815 33.2497 72.765 32.7947 72.765 31.4647C72.765 30.2047 74.06 29.4697 75.635 29.4697C77.21 29.4697 78.225 30.3447 78.47 31.7097H77.21C76.965 30.7997 76.3 30.4497 75.46 30.4497ZM84.35 30.6947C84.84 29.8547 85.75 29.3647 86.695 29.4347C88.34 29.4347 89.74 30.7997 89.74 33.1797C89.74 35.5597 88.305 36.9247 86.695 36.9247C85.75 36.9947 84.84 36.5047 84.35 35.6647V39.0597H83.125V29.5747H84.35V30.6947ZM88.445 33.1447C88.445 31.4297 87.64 30.4497 86.38 30.4497C85.295 30.4497 84.28 31.2547 84.28 33.1447C84.28 35.0347 85.295 35.8397 86.38 35.8397C87.64 35.8397 88.445 34.8597 88.445 33.1447ZM93.94 30.7647C92.82 30.7647 92.26 31.3947 92.26 32.9697V36.7147H91.035V29.5397H92.225V30.7997C92.575 29.9947 93.38 29.5047 94.255 29.5047C94.36 29.5047 94.5 29.5047 94.605 29.5047V30.7997C94.395 30.7647 94.15 30.7647 93.94 30.7647ZM98.49 36.8897C96.81 36.8897 95.06 35.7697 95.06 33.1447C95.06 30.5547 96.845 29.3997 98.49 29.3997C100.135 29.3997 101.92 30.5197 101.92 33.1447C101.92 35.7697 100.17 36.8897 98.49 36.8897ZM100.66 33.1447C100.66 31.2547 99.61 30.4847 98.525 30.4847C97.44 30.4847 96.39 31.1847 96.39 33.1447C96.39 35.1047 97.44 35.8047 98.525 35.8047C99.61 35.8047 100.66 34.9997 100.66 33.1447ZM109.34 29.5397V35.7347C109.34 37.2047 109.06 37.7997 108.675 38.2547C108.01 38.9197 107.135 39.2697 106.19 39.1997C104.58 39.1997 103.46 38.4647 103.25 36.9947H104.545C104.685 37.6247 105.105 38.1147 106.19 38.1147C106.715 38.1497 107.275 37.9747 107.66 37.5897C107.94 37.3097 108.115 36.9597 108.115 36.0147V35.3497C107.66 36.1547 106.785 36.6447 105.84 36.5747C104.265 36.5747 102.795 35.2797 102.795 33.0047C102.795 30.6947 104.23 29.4347 105.84 29.4347C106.785 29.3647 107.66 29.8547 108.115 30.6947V29.5747L109.34 29.5397ZM104.125 33.0047C104.125 34.6497 104.965 35.5597 106.155 35.5597C107.24 35.5597 108.185 34.8247 108.185 33.0047C108.185 31.1847 107.24 30.4497 106.155 30.4497C104.965 30.4847 104.125 31.3597 104.125 33.0047ZM113.89 30.7647C112.77 30.7647 112.21 31.3947 112.21 32.9697V36.7147H110.985V29.5397H112.175V30.7997C112.525 29.9947 113.33 29.5047 114.205 29.5047C114.31 29.5047 114.45 29.5047 114.555 29.5047V30.7997C114.345 30.7647 114.135 30.7647 113.89 30.7647ZM119.91 32.3047V32.1297C119.91 30.8347 119.175 30.3797 118.3 30.3797C117.32 30.3797 116.725 30.9397 116.655 31.8147H115.395C115.5 30.2747 116.865 29.3997 118.265 29.3997C120.225 29.3997 121.135 30.3447 121.1 32.3397V33.9847C121.065 34.8947 121.135 35.8047 121.275 36.6797H120.05C120.015 36.3647 119.98 36.0147 119.945 35.6997C119.49 36.4347 118.755 36.8547 117.495 36.8547C116.165 36.8547 115.045 36.1197 115.045 34.7897C115.045 33.1447 116.97 32.6547 119.91 32.3047ZM116.375 34.7897C116.375 35.4547 116.9 35.9097 117.775 35.9097C118.895 35.9097 119.98 35.3847 119.98 33.7047V33.2497C117.81 33.4947 116.375 33.8097 116.375 34.7897ZM122.71 36.7147V29.5397H123.935V30.6247C124.355 29.8547 125.195 29.3997 126.105 29.3997C127.19 29.3997 127.855 29.8897 128.17 30.6597C128.695 29.8197 129.605 29.3647 130.585 29.3997C132.265 29.3997 132.895 30.5197 132.895 32.1647V36.6797H131.67V32.5497C131.67 31.4297 131.46 30.4847 130.13 30.4847C129.08 30.4847 128.38 31.2897 128.38 32.8297V36.7147H127.155V32.5497C127.155 31.4297 126.945 30.4847 125.615 30.4847C124.565 30.4847 123.9 31.2897 123.9 32.8297V36.7147H122.71Z" fill="#D5CDD0"/>
</svg>
