<svg width="113" height="48" viewBox="0 0 113 48" fill="none" xmlns="http://www.w3.org/2000/svg">
<path d="M23.868 15.5544V12.0061C23.868 10.718 23.0934 9.5757 21.9072 9.06532L0 0V1.96861L19.535 10.0618C20.2128 10.3291 20.2128 11.3013 19.535 11.5686L0 19.6618V27.5605L11.7646 22.6754L19.5108 25.8835C20.1885 26.1509 20.1885 27.123 19.5108 27.3904L0 35.4835V48L21.9072 38.9347C23.0934 38.4486 23.868 37.282 23.868 35.9939V27.8521C23.868 26.564 23.0934 25.4218 21.9072 24.9114L14.1368 21.7033L21.9072 18.4952C23.0934 18.0091 23.868 16.8425 23.868 15.5544Z" fill="#0D0248"/>
<path d="M41.3213 12.0059L43.0642 18.8352L45.025 12.0059H46.8889L48.7287 18.8352L50.5442 12.0059H51.924L49.5759 20.2448H47.833L45.8965 13.1481L43.8873 20.2448H42.1202L39.8447 12.0059H41.3213Z" fill="#0D0248"/>
<path d="M54.0298 16.5271C54.0783 17.2076 54.1509 17.5479 54.3687 17.9853C54.7803 18.7631 55.7001 19.2734 56.62 19.2734C57.7335 19.2734 58.4597 18.7388 58.7744 17.6937H60.2994C59.9121 19.4679 58.5807 20.4643 56.5958 20.4643C54.1267 20.4643 52.5532 18.7631 52.5532 16.0896C52.5532 13.4891 54.1267 11.7393 56.4747 11.7393C58.9681 11.7393 60.3236 13.4405 60.3236 16.5028H54.0298V16.5271ZM58.4355 13.9995C58.0482 13.3433 57.2736 12.9544 56.4747 12.9544C55.0949 12.9544 54.2235 13.8294 54.054 15.4091H58.8228C58.7502 14.68 58.6534 14.3398 58.4355 13.9995Z" fill="#0D0248"/>
<path d="M61.7036 8.87109H63.1076V13.2458C63.6886 12.2736 64.4874 11.8119 65.6493 11.8119C67.6827 11.8119 69.1351 13.586 69.1351 16.1379C69.1351 18.6898 67.7553 20.4154 65.6735 20.4154C64.5358 20.4154 63.7854 19.9536 63.0592 18.8843V20.2453H61.7036V8.87109ZM63.1318 16.0893C63.1318 17.8878 64.1485 19.2245 65.4799 19.2245C66.7628 19.2245 67.6101 18.0093 67.6101 16.1379C67.6101 14.1693 66.7628 12.9541 65.4315 12.9541C64.1001 12.9541 63.1318 14.2422 63.1318 16.0893Z" fill="#0D0248"/>
<path d="M71.6765 16.7703C71.6523 18.2285 72.5721 19.1764 74.0245 19.1764C75.3317 19.1764 76.2758 18.35 76.2758 17.2078C76.2758 16.0412 75.3801 15.3364 73.9277 15.3364C73.7825 15.3364 73.6614 15.3364 73.4436 15.3607V14.0969C73.613 14.0969 73.7099 14.0969 73.8067 14.0969C75.3075 14.0969 76.179 13.4407 76.179 12.2741C76.179 11.1804 75.3317 10.4756 74.0487 10.4756C72.669 10.4756 71.8701 11.3019 71.8217 12.7602H70.3209C70.4177 10.4999 71.7975 9.1875 74.073 9.1875C76.179 9.1875 77.6556 10.4027 77.6556 12.1526C77.6556 13.3191 76.8325 14.3885 75.719 14.6802C77.0746 15.0204 77.8008 15.944 77.8008 17.305C77.8008 19.1521 76.2274 20.4645 74.0003 20.4645C71.6765 20.4645 70.103 18.9576 70.1272 16.7703H71.6765Z" fill="#0D0248"/>
<path d="M41.3941 28.9944H39.9175V27.8521H41.3941C41.4183 26.4911 41.4425 26.1994 41.6362 25.7133C41.9267 24.9356 42.6771 24.5225 43.7906 24.5225C44.0084 24.5225 44.2021 24.5468 44.5652 24.5711V25.8349C44.2263 25.7377 44.0811 25.7377 43.8632 25.7377C43.3791 25.7377 43.016 25.9807 42.8949 26.4182C42.7981 26.7098 42.7981 26.9285 42.7981 27.8278H44.5652V28.9701H42.7981V36.0668H41.3941V28.9944Z" fill="#0D0248"/>
<path d="M52.8197 31.9598C52.8197 34.6089 51.2463 36.3344 48.8256 36.3344C46.4533 36.3344 44.8799 34.5603 44.8799 31.9354C44.8799 29.3349 46.4775 27.6094 48.874 27.6094C51.2221 27.6337 52.8197 29.3836 52.8197 31.9598ZM46.4049 31.8868C46.4049 33.9041 47.3006 35.1436 48.8014 35.1436C50.3022 35.1436 51.2947 33.9041 51.2947 31.9841C51.2947 30.0398 50.3264 28.8003 48.8256 28.8003C47.3248 28.8003 46.4049 29.9911 46.4049 31.8868Z" fill="#0D0248"/>
<path d="M59.6462 35.1194C59.2347 35.8485 58.2906 36.286 57.1771 36.286C56.0394 36.286 55.1437 35.8242 54.6596 35.0222C54.3449 34.4875 54.248 33.9285 54.248 32.5432V27.8525H55.652V32.8105C55.652 34.366 56.233 35.0951 57.4192 35.0951C58.1938 35.0951 58.8716 34.7305 59.2589 34.1229C59.5009 33.7341 59.5494 33.2723 59.5494 31.8141V27.8768H60.9534V36.1158H59.5978V35.1194H59.6462Z" fill="#0D0248"/>
<path d="M64.0277 28.8492C64.6571 28.0229 65.4075 27.6826 66.521 27.6826C67.6587 27.6826 68.5544 28.1444 69.0385 28.9464C69.3532 29.4811 69.45 30.0401 69.45 31.4254V36.116H68.0218V31.1581C68.0218 29.5783 67.4408 28.8735 66.2547 28.8735C65.4559 28.8735 64.8023 29.2381 64.415 29.87C64.1729 30.2588 64.1245 30.6963 64.1245 32.1788V36.116H62.6963V27.877H64.0277V28.8492Z" fill="#0D0248"/>
<path d="M76.9299 36.091V34.73C76.2037 35.8236 75.4291 36.2611 74.3156 36.2611C72.258 36.2611 70.854 34.5355 70.854 32.0079C70.854 29.4317 72.2822 27.6576 74.3398 27.6576C75.5017 27.6576 76.3006 28.1193 76.8815 29.0915V24.7168H78.2855V36.0667H76.9299V36.091ZM72.379 32.0079C72.379 33.8793 73.2021 35.0945 74.5092 35.0945C75.8406 35.0945 76.8573 33.7578 76.8573 31.9593C76.8573 30.1122 75.9132 28.8241 74.5819 28.8241C73.2505 28.8241 72.379 30.0393 72.379 32.0079Z" fill="#0D0248"/>
<path d="M85.4021 36.0914C85.3295 35.6539 85.3052 35.5081 85.2568 35.0706C84.5548 35.9213 83.756 36.2858 82.6183 36.2858C80.8512 36.2858 79.665 35.2651 79.665 33.7825C79.665 32.6889 80.2702 31.9354 81.4806 31.5709C81.8679 31.4494 82.4972 31.3279 83.2234 31.2306C83.6834 31.1577 84.2159 31.0848 85.1358 31.0119C85.1116 29.9425 85.0632 29.6266 84.7727 29.3106C84.4822 28.9947 83.9739 28.8003 83.3445 28.8003C82.1341 28.8003 81.529 29.3349 81.4563 30.4529H79.9797C80.125 29.4322 80.3186 28.9218 80.8512 28.46C81.4321 27.9253 82.352 27.6094 83.3445 27.6094C84.579 27.6094 85.5473 28.0225 86.0799 28.8246C86.5156 29.4322 86.5882 30.0398 86.564 32.6646C86.5398 34.3172 86.6124 35.1922 86.8303 36.0914H85.4021ZM81.1901 33.8311C81.1901 34.6575 81.8195 35.1435 82.8361 35.1435C83.7076 35.1435 84.3854 34.8276 84.7969 34.1957C85.039 33.8311 85.1358 33.3451 85.1358 32.4215V32.1299C82.2068 32.3243 81.1901 32.7618 81.1901 33.8311Z" fill="#0D0248"/>
<path d="M90.2676 27.8766H92.1073V29.0189H90.2676V33.4179C90.2676 34.3414 90.2918 34.5115 90.4371 34.706C90.5823 34.9004 90.9212 35.0219 91.3085 35.0219C91.599 35.0219 91.8653 34.9733 92.1073 34.9004V36.1156C91.4538 36.2371 91.2117 36.2614 90.8728 36.2614C90.1224 36.2614 89.4688 35.9212 89.1299 35.3622C88.9362 34.9976 88.8636 34.6574 88.8636 33.8553V33.3206V28.9946H87.3628V27.8523H88.8636V25.8594H90.2676V27.8766Z" fill="#0D0248"/>
<path d="M93.3662 24.7412H94.7702V26.3939H93.3662V24.7412ZM94.7944 27.8764V36.1154H93.3904V27.8764H94.7944Z" fill="#0D0248"/>
<path d="M104.138 31.9598C104.138 34.6089 102.565 36.3344 100.144 36.3344C97.7717 36.3344 96.1982 34.5603 96.1982 31.9354C96.1982 29.3349 97.7959 27.6094 100.192 27.6094C102.54 27.6337 104.138 29.3836 104.138 31.9598ZM97.7233 31.8868C97.7233 33.9041 98.6189 35.1436 100.12 35.1436C101.621 35.1436 102.613 33.9041 102.613 31.9841C102.613 30.0398 101.645 28.8003 100.144 28.8003C98.6431 28.8003 97.7233 29.9911 97.7233 31.8868Z" fill="#0D0248"/>
<path d="M106.898 28.8492C107.527 28.0229 108.277 27.6826 109.391 27.6826C110.529 27.6826 111.424 28.1444 111.909 28.9464C112.223 29.4811 112.32 30.0401 112.32 31.4254V36.116H110.916V31.1581C110.916 29.5783 110.335 28.8735 109.149 28.8735C108.35 28.8735 107.697 29.2381 107.309 29.87C107.067 30.2588 107.019 30.6963 107.019 32.1788V36.116H105.615V27.877H106.946V28.8492H106.898Z" fill="#0D0248"/>
</svg>
