<svg width="38" height="38" viewBox="0 0 38 38" fill="none" xmlns="http://www.w3.org/2000/svg">
<path d="M29.8553 33.7763C34.3907 30.4388 37.3337 25.0634 37.3337 19.0005C37.3337 8.87534 29.1256 0.666992 19.0002 0.666992C8.875 0.666992 0.666992 8.87534 0.666992 19.0005C0.666992 25.0635 3.61008 30.439 8.14557 33.7764L17.5138 18.9628H7.92807V15.805H17.5138V12.555H7.92807V9.39716H30.0727V12.555H20.4888V15.805H30.0727V18.9628H20.4888L29.8553 33.7763Z" fill="#E3232C"/>
<path d="M27.2777 35.3631L19.0002 22.268L10.7228 35.3631C13.2093 36.6234 16.0218 37.3337 19.0002 37.3337C21.9787 37.3337 24.7912 36.6234 27.2777 35.3631Z" fill="#E3232C"/>
</svg>
