<svg width="100" height="100" viewBox="0 0 100 100" fill="none" xmlns="http://www.w3.org/2000/svg">
<path fill="#F8087B" d="M49.5,87.6c-8.8,0-17.2-3.2-23.8-8.9L23.5,80c-0.7,0.4-1.6,0.7-2.4,0.7c-2.5,0-4.5-2-4.6-4.5l-0.3-12.1
	c0-1.3,0.4-2.4,1.3-3.3c0.9-0.9,2.1-1.4,3.3-1.4c0.8,0,1.5,0.2,2.2,0.6l10.6,5.8c1.5,0.8,2.4,2.3,2.4,3.9c0,1.7-0.8,3.2-2.2,4
	l-0.7,0.4c4.8,3.4,10.6,5.3,16.4,5.3c15.6,0,28.2-12.7,28.2-28.2c0-2.2,1.8-4.1,4.1-4.1s4.1,1.8,4.1,4.1
	C85.9,71.3,69.6,87.6,49.5,87.6z M50,68.7c-2.8,0-5.1-2.3-5.1-5.1c0-2.8,2.3-5.1,5.1-5.1s5.1,2.3,5.1,5.1
	C55.1,66.4,52.8,68.7,50,68.7z M50,55.9c-2.8,0-5.1-2.3-5.1-5.1V36.4c0-2.8,2.3-5.1,5.1-5.1c2.8,0,5.1,2.3,5.1,5.1v14.4
	C55.1,53.6,52.8,55.9,50,55.9z M18.2,52.9c-2.2,0-4.1-1.8-4.1-4.1c0-20.1,16.3-36.4,36.4-36.4c8.8,0,17.2,3.2,23.8,8.9l2.2-1.3
	c0.7-0.4,1.6-0.7,2.4-0.7c2.5,0,4.5,2,4.6,4.5l0.3,12.1c0,1.3-0.4,2.4-1.3,3.3c-0.9,0.9-2.1,1.4-3.3,1.4c-0.8,0-1.5-0.2-2.2-0.6
	l-10.6-5.8C65,33.5,64.1,32,64,30.4c0-1.7,0.8-3.2,2.2-4l0.7-0.4c-4.8-3.4-10.6-5.3-16.4-5.3c-15.6,0-28.2,12.7-28.2,28.2
	C22.3,51.1,20.5,52.9,18.2,52.9z"/>
</svg>