<svg id="enhrqub73XN1" xmlns="http://www.w3.org/2000/svg" xmlns:xlink="http://www.w3.org/1999/xlink" viewBox="0 0 360 360" shape-rendering="geometricPrecision" text-rendering="geometricPrecision"><style><![CDATA[#enhrqub73XN2_ts {animation: enhrqub73XN2_ts__ts 1000ms linear infinite normal forwards}@keyframes enhrqub73XN2_ts__ts { 0% {transform: translate(180px,180px) scale(0.007901,0.007901);animation-timing-function: cubic-bezier(0.785,0.135,0.15,0.86)} 32% {transform: translate(180px,180px) scale(1,1);animation-timing-function: cubic-bezier(0.19,1,0.22,1)} 58% {transform: translate(180px,180px) scale(0.938935,0.938935);animation-timing-function: cubic-bezier(0.95,0.05,0.795,0.035)} 92% {transform: translate(180px,180px) scale(1,1);animation-timing-function: cubic-bezier(0.95,0.05,0.795,0.035)} 100% {transform: translate(180px,180px) scale(0.010077,0.010077)}} #enhrqub73XN3_ts {animation: enhrqub73XN3_ts__ts 1000ms linear infinite normal forwards}@keyframes enhrqub73XN3_ts__ts { 0% {transform: translate(180px,180px) scale(0.002748,0.002748);animation-timing-function: cubic-bezier(0.075,0.82,0.165,1)} 32% {transform: translate(180px,180px) scale(1,1);animation-timing-function: cubic-bezier(0.19,1,0.22,1)} 58% {transform: translate(180px,180px) scale(0.949646,0.949646);animation-timing-function: cubic-bezier(0.95,0.05,0.795,0.035)} 92% {transform: translate(180px,180px) scale(1,1);animation-timing-function: cubic-bezier(0.95,0.05,0.795,0.035)} 100% {transform: translate(180px,180px) scale(0.004828,0.004828)}} #enhrqub73XN4_ts {animation: enhrqub73XN4_ts__ts 1000ms linear infinite normal forwards}@keyframes enhrqub73XN4_ts__ts { 0% {transform: translate(180px,180px) scale(0.005316,0.005316);animation-timing-function: cubic-bezier(0.785,0.135,0.15,0.86)} 32% {transform: translate(180px,180px) scale(1,1);animation-timing-function: cubic-bezier(0.19,1,0.22,1)} 58% {transform: translate(180px,180px) scale(0.881532,0.881533);animation-timing-function: cubic-bezier(0.95,0.05,0.795,0.035)} 92% {transform: translate(180px,180px) scale(1,1);animation-timing-function: cubic-bezier(0.95,0.05,0.795,0.035)} 100% {transform: translate(180px,180px) scale(-0.002912,-0.002912)}} #enhrqub73XN5_ts {animation: enhrqub73XN5_ts__ts 1000ms linear infinite normal forwards}@keyframes enhrqub73XN5_ts__ts { 0% {transform: translate(180px,180px) scale(-0.002009,-0.002009);animation-timing-function: cubic-bezier(0.075,0.82,0.165,1)} 32% {transform: translate(180px,180px) scale(1,1);animation-timing-function: cubic-bezier(0.19,1,0.22,1)} 58% {transform: translate(180px,180px) scale(0.950528,0.950528);animation-timing-function: cubic-bezier(0.95,0.05,0.795,0.035)} 92% {transform: translate(180px,180px) scale(1,1);animation-timing-function: cubic-bezier(0.95,0.05,0.795,0.035)} 100% {transform: translate(180px,180px) scale(-0.011184,-0.011184)}} #enhrqub73XN6_ts {animation: enhrqub73XN6_ts__ts 1000ms linear infinite normal forwards}@keyframes enhrqub73XN6_ts__ts { 0% {transform: translate(180px,180px) scale(0.00994,0.00994);animation-timing-function: cubic-bezier(0.785,0.135,0.15,0.86)} 32% {transform: translate(180px,180px) scale(1,1);animation-timing-function: cubic-bezier(0.19,1,0.22,1)} 58% {transform: translate(180px,180px) scale(0.874914,0.874915);animation-timing-function: cubic-bezier(0.95,0.05,0.795,0.035)} 92% {transform: translate(180px,180px) scale(1,1);animation-timing-function: cubic-bezier(0.95,0.05,0.795,0.035)} 100% {transform: translate(180px,180px) scale(0.009567,0.009567)}} #enhrqub73XN7_ts {animation: enhrqub73XN7_ts__ts 1000ms linear infinite normal forwards}@keyframes enhrqub73XN7_ts__ts { 0% {transform: translate(180px,180px) scale(0,0);animation-timing-function: cubic-bezier(0.075,0.82,0.165,1)} 32% {transform: translate(180px,180px) scale(1,1);animation-timing-function: cubic-bezier(0.19,1,0.22,1)} 58% {transform: translate(180px,180px) scale(0.951872,0.951872);animation-timing-function: cubic-bezier(0.95,0.05,0.795,0.035)} 92% {transform: translate(180px,180px) scale(1,1);animation-timing-function: cubic-bezier(0.95,0.05,0.795,0.035)} 100% {transform: translate(180px,180px) scale(-0.008019,-0.008019)}} #enhrqub73XN8_ts {animation: enhrqub73XN8_ts__ts 1000ms linear infinite normal forwards}@keyframes enhrqub73XN8_ts__ts { 0% {transform: translate(180px,180px) scale(0.012742,0.012742);animation-timing-function: cubic-bezier(0.785,0.135,0.15,0.86)} 32% {transform: translate(180px,180px) scale(1,1);animation-timing-function: cubic-bezier(0.19,1,0.22,1)} 58% {transform: translate(180px,180px) scale(0.913835,0.913835);animation-timing-function: cubic-bezier(0.95,0.05,0.795,0.035)} 92% {transform: translate(180px,180px) scale(1,1);animation-timing-function: cubic-bezier(0.95,0.05,0.795,0.035)} 100% {transform: translate(180px,180px) scale(-0.00265,-0.00265)}} #enhrqub73XN9_ts {animation: enhrqub73XN9_ts__ts 1000ms linear infinite normal forwards}@keyframes enhrqub73XN9_ts__ts { 0% {transform: translate(180px,180px) scale(-0.003592,-0.003592);animation-timing-function: cubic-bezier(0.075,0.82,0.165,1)} 32% {transform: translate(180px,180px) scale(1,1);animation-timing-function: cubic-bezier(0.19,1,0.22,1)} 58% {transform: translate(180px,180px) scale(0.949493,0.949493);animation-timing-function: cubic-bezier(0.95,0.05,0.795,0.035)} 92% {transform: translate(180px,180px) scale(1,1);animation-timing-function: cubic-bezier(0.95,0.05,0.795,0.035)} 100% {transform: translate(180px,180px) scale(0.010803,0.010803)}}]]></style><g id="enhrqub73XN2_ts" transform="translate(180,180) scale(0.007901,0.007901)"><path id="enhrqub73XN2" d="M128.5,81.3C141.5,94.3,168.5,168.5,168.5,168.5C168.5,168.5,94.3,141.5,81.3,128.5C68.3,115.5,68.3,94.3,81.3,81.3C94.3,68.2,115.4,68.2,128.5,81.3Z" transform="translate(-179.999995,-180)" fill="rgb(255,0,102)" stroke="none" stroke-width="1"/></g><g id="enhrqub73XN3_ts" transform="translate(180,180) scale(0.002748,0.002748)"><path id="enhrqub73XN3" d="M160,180C160,180,51.7,213.5,33.3,213.5C14.9,213.5,0,198.5,0,180C0,161.5,14.9,146.5,33.3,146.5C51.7,146.5,160,180,160,180Z" transform="translate(-180,-180)" fill="rgb(255,0,102)" stroke="none" stroke-width="1"/></g><g id="enhrqub73XN4_ts" transform="translate(180,180) scale(0.005316,0.005316)"><path id="enhrqub73XN4" d="M168.5,191.5C168.5,191.5,141.5,265.7,128.5,278.7C115.5,291.7,94.3,291.7,81.3,278.7C68.3,265.7,68.3,244.5,81.3,231.5C94.3,218.5,168.5,191.5,168.5,191.5Z" transform="translate(-180,-180)" fill="rgb(255,0,102)" stroke="none" stroke-width="1"/></g><g id="enhrqub73XN5_ts" transform="translate(180,180) scale(-0.002009,-0.002009)"><path id="enhrqub73XN5" d="M180,360C161.5,360,146.5,345.1,146.5,326.7C146.5,308.3,180,200,180,200C180,200,213.5,308.3,213.5,326.7C213.5,345.1,198.5,360,180,360Z" transform="translate(-180,-180)" fill="rgb(255,0,102)" stroke="none" stroke-width="1"/></g><g id="enhrqub73XN6_ts" transform="translate(180,180) scale(0.00994,0.00994)"><path id="enhrqub73XN6" d="M278.7,231.5C291.7,244.5,291.7,265.7,278.7,278.7C265.7,291.7,244.5,291.7,231.5,278.7C218.5,265.7,191.5,191.5,191.5,191.5C191.5,191.5,265.7,218.5,278.7,231.5Z" transform="translate(-180,-180)" fill="rgb(255,0,102)" stroke="none" stroke-width="1"/></g><g id="enhrqub73XN7_ts" transform="translate(180,180) scale(0,0)"><path id="enhrqub73XN7" d="M360,180C360,198.5,345.1,213.5,326.7,213.5C308.3,213.5,200,180,200,180C200,180,308.3,146.5,326.7,146.5C345.1,146.5,360,161.5,360,180Z" transform="translate(-180,-180)" fill="rgb(255,0,102)" stroke="none" stroke-width="1"/></g><g id="enhrqub73XN8_ts" transform="translate(180,180) scale(0.012742,0.012742)"><path id="enhrqub73XN8" d="M278.7,81.3C291.7,94.3,291.7,115.5,278.7,128.5C265.7,141.5,191.5,168.5,191.5,168.5C191.5,168.5,218.5,94.3,231.5,81.3C244.6,68.2,265.7,68.2,278.7,81.3Z" transform="translate(-180,-180)" fill="rgb(255,0,102)" stroke="none" stroke-width="1"/></g><g id="enhrqub73XN9_ts" transform="translate(180,180) scale(-0.003592,-0.003592)"><path id="enhrqub73XN9" d="M180,160C180,160,146.5,51.7,146.5,33.3C146.5,14.9,161.5,0,180,0C198.5,0,213.5,14.9,213.5,33.3C213.5,51.7,180,160,180,160Z" transform="translate(-180,-180)" fill="rgb(255,0,102)" stroke="none" stroke-width="1"/></g></svg>