<svg width="16" height="16" viewBox="0 0 16 16" xmlns="http://www.w3.org/2000/svg">
<path fill="#F754A3" d="M8,15c3.9,0,7-3.1,7-7s-3.1-7-7-7S1,4.1,1,8S4.1,15,8,15z"/>
<path fill-rule="evenodd" fill="#FFF9FD" d="M11.4,4.6c-0.5-0.5-1.2-0.5-1.6,0l-1,1C8.4,6,7.6,6,7.2,5.6l-1-1C5.7,4.1,5,4.1,4.6,4.6
	C4.1,5,4.1,5.8,4.6,6.2l1,1C6,7.6,6,8.4,5.6,8.8l-1,1c-0.5,0.5-0.5,1.2,0,1.6c0.5,0.5,1.2,0.5,1.6,0l1-1c0.5-0.5,1.2-0.5,1.6,0l1,1
	c0.5,0.5,1.2,0.5,1.6,0c0.5-0.5,0.5-1.2,0-1.6l-1-1c-0.5-0.5-0.5-1.2,0-1.6l1-1C11.8,5.8,11.8,5,11.4,4.6z"/>
</svg>