<svg xmlns="http://www.w3.org/2000/svg" width="28" height="28" viewBox="0 0 40 46" fill="currentColor">
<path opacity="0.4" d="M39.331 36.3601L22.806 45.8229C22.5525 45.9684 22.2337 45.7865 22.2337 45.4883V25.5008C22.2337 25.3481 22.3134 25.2026 22.451 25.1226L38.976 15.6598C39.2295 15.5143 39.5483 15.6962 39.5483 15.9944V35.9819C39.5483 36.1346 39.4686 36.2801 39.331 36.3601Z" fill="#F8087B" class="svg-elem-1"></path>
<path opacity="0.4" d="M0.224601 36.3601L16.7495 45.8229C17.0031 45.9684 17.3219 45.7865 17.3219 45.4883V25.5008C17.3219 25.3481 17.2422 25.2026 17.1045 25.1226L0.579587 15.6598C0.326026 15.5143 0.00726318 15.6962 0.00726318 15.9944V35.9819C0.00726318 36.1346 0.0869538 36.2801 0.224601 36.3601Z" fill="#F8087B" class="svg-elem-2"></path>
<path opacity="0.4" d="M37.7082 10.7065L20.6326 20.5112C20.2921 20.7075 19.8647 20.7075 19.5242 20.5112L2.47766 10.7429C2.16614 10.5611 2.16614 10.1101 2.47766 9.93553L19.5387 0.421831C19.8792 0.232721 20.2849 0.232721 20.6254 0.421831L37.7082 9.89917C38.0269 10.0737 38.0269 10.532 37.7082 10.7065Z" fill="#F8087B" class="svg-elem-3"></path>
<path d="M22.2337 36.2437L30.833 41.2261L39.5411 36.2437V25.2535L30.594 20.4676V31.8578L22.2337 36.2437Z" fill="#F8087B" class="svg-elem-4"></path>
<path d="M17.3146 36.2437L8.77321 41.2552L0 36.2437V25.2535L8.95433 20.4676V31.8578L17.3146 36.2437Z" fill="#F8087B" class="svg-elem-5"></path>
<path d="M10.9756 15.6089L20.2994 10.6411L29.2465 15.6089V5.25872L20.111 0L10.9756 5.09143V15.6089Z" fill="#F8087B" class="svg-elem-6"></path>
</svg>