<svg width="282" height="43" viewBox="0 0 282 43" fill="none" xmlns="http://www.w3.org/2000/svg">
<g clip-path="url(#clip0_15657_348519)">
<rect x="0.566406" width="281" height="43" rx="21.5" fill="url(#paint0_linear_15657_348519)"/>
<g filter="url(#filter0_ii_15657_348519)">
<g clip-path="url(#clip1_15657_348519)">
<rect x="273.35" y="12.3569" width="43.8564" height="67.7395" transform="rotate(104.166 273.35 12.3569)" fill="#EE2233"/>
<path d="M224.106 36.9045C226.108 38.7396 228.583 40.1191 231.406 40.8315C234.229 41.5439 237.062 41.5042 239.696 40.8394L234.814 27.3295L224.106 36.9045Z" fill="white"/>
<path d="M225.511 22.0073L226.185 19.3348L234.85 21.5217L235.544 18.7728L226.879 16.5859L227.554 13.9135L247.571 18.9658L246.896 21.6382L238.234 19.4518L237.54 22.2007L246.203 24.3872L245.528 27.0596L236.865 24.8731L242.314 39.9441C246.917 37.9376 250.568 33.913 251.886 28.6886C254.155 19.6998 248.664 10.5632 239.622 8.28087C230.579 5.99853 221.41 11.4349 219.141 20.4238C217.822 25.6498 219.126 30.9249 222.227 34.874L234.177 24.1945L225.511 22.0073Z" fill="white"/>
<ellipse cx="4.22684" cy="4.22054" rx="4.22684" ry="4.22054" transform="matrix(0.968016 0.250889 -0.238727 0.971087 207.812 27.2146)" fill="#F79E1B"/>
<ellipse cx="4.22684" cy="4.22054" rx="4.22684" ry="4.22054" transform="matrix(0.968016 0.250889 -0.238727 0.971087 203.105 25.9949)" fill="#EB001B"/>
<path d="M207.717 35.1169C208.951 34.6478 209.94 33.6004 210.28 32.214C210.621 30.8277 210.235 29.424 209.366 28.4097C208.132 28.8788 207.143 29.9263 206.803 31.3126C206.462 32.699 206.848 34.1027 207.717 35.1169Z" fill="#FF5F00"/>
<mask id="path-9-outside-1_15657_348519" maskUnits="userSpaceOnUse" x="200.212" y="24.9794" width="16.9075" height="13.4742" fill="black">
<rect fill="white" x="200.212" y="24.9794" width="16.9075" height="13.4742"/>
<path fill-rule="evenodd" clip-rule="evenodd" d="M209.907 36.2202C212.173 36.8075 214.44 35.534 214.97 33.3757C215.501 31.2174 214.094 28.9917 211.828 28.4044C211.019 28.1948 210.21 28.2222 209.48 28.4424C208.939 27.8929 208.24 27.4745 207.431 27.2649C205.165 26.6776 202.898 27.9511 202.367 30.1094C201.837 32.2677 203.244 34.4934 205.51 35.0807C206.318 35.2904 207.127 35.2629 207.858 35.0428C208.398 35.5923 209.098 36.0106 209.907 36.2202Z"/>
</mask>
<path d="M209.48 28.4424L209.215 28.7068L209.375 28.8698L209.592 28.8045L209.48 28.4424ZM207.431 27.2649L207.521 26.899L207.431 27.2649ZM207.858 35.0428L208.123 34.7783L207.963 34.6153L207.746 34.6806L207.858 35.0428ZM214.605 33.2812C214.129 35.2197 212.079 36.3941 209.996 35.8543L209.817 36.5862C212.266 37.221 214.75 35.8483 215.335 33.4703L214.605 33.2812ZM211.738 28.7703C213.821 29.3101 215.082 31.3426 214.605 33.2812L215.335 33.4703C215.92 31.0922 214.367 28.6733 211.918 28.0385L211.738 28.7703ZM209.592 28.8045C210.257 28.6038 210.997 28.5781 211.738 28.7703L211.918 28.0385C211.042 27.8114 210.163 27.8407 209.369 28.0802L209.592 28.8045ZM207.341 27.6308C208.083 27.823 208.721 28.2058 209.215 28.7068L209.746 28.178C209.157 27.58 208.397 27.1261 207.521 26.899L207.341 27.6308ZM202.732 30.204C203.209 28.2654 205.259 27.0911 207.341 27.6308L207.521 26.899C205.072 26.2641 202.587 27.6368 202.003 30.0149L202.732 30.204ZM205.6 34.7148C203.517 34.175 202.256 32.1425 202.732 30.204L202.003 30.0149C201.418 32.3929 202.97 34.8118 205.42 35.4467L205.6 34.7148ZM207.746 34.6806C207.08 34.8814 206.341 34.907 205.6 34.7148L205.42 35.4467C206.296 35.6738 207.175 35.6445 207.969 35.4049L207.746 34.6806ZM209.996 35.8543C209.255 35.6622 208.616 35.2794 208.123 34.7783L207.592 35.3072C208.181 35.9052 208.94 36.3591 209.817 36.5862L209.996 35.8543Z" fill="white" mask="url(#path-9-outside-1_15657_348519)"/>
<g style="mix-blend-mode:overlay" opacity="0.5">
<rect x="263.444" y="52.3601" width="898.732" height="536.996" transform="rotate(-165.834 263.444 52.3601)" fill="url(#paint1_linear_15657_348519)"/>
</g>
<path d="M221.118 5.27583L221.36 5.23514C221.405 5.47038 221.443 5.70407 221.477 5.93409L221.232 5.96605C221.202 5.76864 221.163 5.53839 221.118 5.27583ZM222.525 5.52697C222.438 5.83635 222.333 6.07663 222.208 6.24648C222.085 6.41659 221.932 6.53066 221.75 6.58978C221.567 6.64889 221.339 6.66137 221.063 6.63015L221.076 6.39821C221.256 6.41551 221.408 6.41418 221.531 6.39448C221.654 6.37452 221.764 6.32759 221.862 6.25395C221.959 6.18006 222.041 6.08 222.11 5.95378C222.177 5.82704 222.239 5.66055 222.297 5.45588L222.525 5.52697Z" fill="white"/>
<path d="M222.616 6.04046L223.978 6.38422L223.968 6.42674C223.895 6.71268 223.751 6.91026 223.535 7.01735C223.318 7.12445 223.024 7.14164 222.65 7.06893L222.67 6.84437C222.927 6.89456 223.139 6.89599 223.305 6.84973C223.471 6.80346 223.593 6.69968 223.671 6.53732L222.562 6.2573L222.616 6.04152L222.616 6.04046ZM222.807 5.82054L222.861 5.60476L223.992 5.89019L223.938 6.10598L222.807 5.82054Z" fill="white"/>
<path d="M208.751 2.66689L209.221 2.78561C209.161 3.02371 209.267 3.30813 209.726 3.42401C210.144 3.52957 210.392 3.37503 210.455 3.12524C210.507 2.91796 210.37 2.73986 210.032 2.61704L209.782 2.52913C209.285 2.35861 209.036 1.97678 209.152 1.51546C209.285 0.988227 209.756 0.742992 210.345 0.891647C210.934 1.0403 211.238 1.48886 211.101 2.03203L210.63 1.91332C210.689 1.6784 210.583 1.41415 210.236 1.3264C209.888 1.23865 209.677 1.40248 209.619 1.63314C209.572 1.8181 209.663 2.00394 209.934 2.09726L210.184 2.18517C210.74 2.38313 211.048 2.75924 210.925 3.24395C210.792 3.77118 210.276 4.02523 209.617 3.85902C208.914 3.68146 208.619 3.19783 208.753 2.66741L208.751 2.66689Z" fill="white"/>
<path d="M211.49 2.79738L211.512 2.71234C211.684 2.03098 212.344 1.39606 213.291 1.63504C214.238 1.87403 214.518 2.74639 214.346 3.42774L214.325 3.51278C214.168 4.13568 213.513 4.84218 212.544 4.59752C211.57 4.35182 211.333 3.42027 211.49 2.79738ZM213.85 3.35218C213.995 2.77499 213.748 2.24222 213.175 2.09743C212.601 1.95265 212.126 2.30322 211.981 2.88041C211.843 3.42677 212.082 3.99038 212.66 4.13619C213.238 4.28201 213.712 3.89854 213.85 3.35218Z" fill="white"/>
<path d="M216.314 5.47064L215.894 4.34142L215.38 4.21161L215.137 5.17359L214.659 5.05306L215.373 2.22559L216.339 2.46947C216.972 2.62923 217.302 3.01897 217.147 3.63549L217.131 3.69714C217.023 4.12445 216.759 4.34383 216.399 4.38403L216.876 5.61365L216.314 5.4717L216.314 5.47064ZM215.484 3.80024L216.032 3.93857C216.335 4.01522 216.58 3.85646 216.657 3.55246C216.733 3.24845 216.594 2.9884 216.291 2.91175L215.743 2.77342L215.484 3.80024Z" fill="white"/>
<path d="M219.231 5.38536L218.024 5.08082L217.577 5.79117L217.1 5.67065L218.745 3.09871L219.529 3.29666L219.786 6.34863L219.294 6.22449L219.231 5.38536ZM219.193 4.92591L219.093 3.63661L218.956 3.60203L218.268 4.69235L219.193 4.92591Z" fill="white"/>
<g clip-path="url(#clip2_15657_348519)">
<path d="M258.214 27.7224C258.305 27.9189 258.354 28.1398 258.37 28.3523C258.387 28.5648 258.362 28.8017 258.304 29.0303C258.246 29.2589 258.156 29.4792 258.041 29.6586C257.925 29.8379 257.777 30.0089 257.604 30.139C257.382 30.3261 257.333 30.661 257.522 30.8823C257.711 31.1037 258.048 31.1541 258.27 30.967C258.533 30.7556 258.731 30.5275 258.945 30.2342C259.159 29.9408 259.274 29.6225 259.357 29.296C259.439 28.9694 259.456 28.6263 259.439 28.2748C259.415 27.956 259.325 27.6206 259.193 27.3095C259.086 27.0394 258.766 26.9237 258.494 27.0289C258.223 27.1341 258.108 27.4523 258.214 27.7224Z" fill="white"/>
<path d="M260.262 27.232C260.5 27.9521 260.541 28.7613 260.343 29.545C260.145 30.3288 259.726 31.0218 259.174 31.5426C258.952 31.7297 258.968 32.0812 259.157 32.3025C259.379 32.5322 259.7 32.509 259.922 32.3219C260.613 31.6627 261.14 30.823 261.396 29.8107C261.643 28.831 261.586 27.8092 261.29 26.901C261.184 26.6309 260.88 26.4499 260.608 26.5551C260.337 26.6602 260.164 26.9292 260.262 27.232Z" fill="white"/>
<path d="M262.417 26.7338C262.746 27.7893 262.77 28.9416 262.481 30.0846C262.193 31.2276 261.592 32.2222 260.835 33.0038C260.637 33.2318 260.629 33.5423 260.851 33.772C261.081 33.9691 261.393 33.9785 261.624 33.7587C262.554 32.8471 263.229 31.6975 263.566 30.3586C263.904 29.0196 263.856 27.6874 263.47 26.4437C263.404 26.1493 263.092 26.0009 262.796 26.0651C262.492 26.162 262.352 26.4393 262.417 26.7338Z" fill="white"/>
<path d="M264.572 26.2356C264.958 27.6182 265.031 29.1303 264.652 30.6325C264.273 32.1347 263.524 33.4393 262.495 34.4649C262.298 34.693 262.289 35.0035 262.511 35.2332C262.741 35.4302 263.054 35.4396 263.284 35.2199C264.42 34.0475 265.276 32.5963 265.704 30.8981C266.133 29.2 266.068 27.5163 265.625 25.9455C265.559 25.6511 265.247 25.5027 264.951 25.5669C264.655 25.6312 264.506 25.9411 264.572 26.2356Z" fill="white"/>
</g>
</g>
<rect x="263.335" y="52.1771" width="67.4557" height="40.1414" rx="2.86385" transform="rotate(-165.834 263.335 52.1771)" stroke="url(#paint2_linear_15657_348519)" stroke-opacity="0.5" stroke-width="0.301457"/>
</g>
</g>
<defs>
<filter id="filter0_ii_15657_348519" x="197.596" y="-3.58554" width="75.7455" height="56.2471" filterUnits="userSpaceOnUse" color-interpolation-filters="sRGB">
<feFlood flood-opacity="0" result="BackgroundImageFix"/>
<feBlend mode="normal" in="SourceGraphic" in2="BackgroundImageFix" result="shape"/>
<feColorMatrix in="SourceAlpha" type="matrix" values="0 0 0 0 0 0 0 0 0 0 0 0 0 0 0 0 0 0 127 0" result="hardAlpha"/>
<feOffset dy="0.301457"/>
<feGaussianBlur stdDeviation="0.150729"/>
<feComposite in2="hardAlpha" operator="arithmetic" k2="-1" k3="1"/>
<feColorMatrix type="matrix" values="0 0 0 0 1 0 0 0 0 1 0 0 0 0 1 0 0 0 0.15 0"/>
<feBlend mode="normal" in2="shape" result="effect1_innerShadow_15657_348519"/>
<feColorMatrix in="SourceAlpha" type="matrix" values="0 0 0 0 0 0 0 0 0 0 0 0 0 0 0 0 0 0 127 0" result="hardAlpha"/>
<feOffset dx="-0.150729" dy="-0.150729"/>
<feGaussianBlur stdDeviation="0.150729"/>
<feComposite in2="hardAlpha" operator="arithmetic" k2="-1" k3="1"/>
<feColorMatrix type="matrix" values="0 0 0 0 0 0 0 0 0 0 0 0 0 0 0 0 0 0 0.04 0"/>
<feBlend mode="normal" in2="effect1_innerShadow_15657_348519" result="effect2_innerShadow_15657_348519"/>
</filter>
<linearGradient id="paint0_linear_15657_348519" x1="-129.044" y1="43" x2="391.479" y2="-12.0362" gradientUnits="userSpaceOnUse">
<stop stop-color="#F8087B"/>
<stop offset="1" stop-color="#EE2233"/>
</linearGradient>
<linearGradient id="paint1_linear_15657_348519" x1="286.435" y1="18.5493" x2="1126.01" y2="620.208" gradientUnits="userSpaceOnUse">
<stop stop-color="white"/>
<stop offset="1" stop-opacity="0"/>
</linearGradient>
<linearGradient id="paint2_linear_15657_348519" x1="263.444" y1="50.2631" x2="298.426" y2="84.5362" gradientUnits="userSpaceOnUse">
<stop stop-color="#72000E"/>
<stop offset="1" stop-color="#EEC7CC" stop-opacity="0"/>
</linearGradient>
<clipPath id="clip0_15657_348519">
<rect x="0.566406" width="281" height="43" rx="21.5" fill="white"/>
</clipPath>
<clipPath id="clip1_15657_348519">
<rect x="263.444" y="52.3601" width="67.7572" height="40.4428" rx="3.01457" transform="rotate(-165.834 263.444 52.3601)" fill="white"/>
</clipPath>
<clipPath id="clip2_15657_348519">
<rect width="10.8548" height="10.7777" fill="white" transform="translate(257.813 23.3489) rotate(14.1655)"/>
</clipPath>
</defs>
</svg>
