<svg width="238" height="217" viewBox="0 0 238 217" fill="none" xmlns="http://www.w3.org/2000/svg">
<path d="M4.99609 200.204C2.28776 195.295 0.933594 189.963 0.933594 184.208C0.933594 178.791 2.28776 173.544 4.99609 168.466C7.19661 164.403 10.8359 160.764 15.9141 157.548C20.8229 154.67 25.3086 150.692 29.3711 145.614C32.5872 141.552 34.7031 138.251 35.7188 135.712C37.5807 132.665 39.4427 129.026 41.3047 124.794C43.1667 120.562 44.2669 115.484 44.6055 109.56V106.513C44.2669 100.757 43.1667 95.4255 41.3047 90.5166C39.1042 85.4385 37.2422 81.8838 35.7188 79.8525C34.3646 76.4671 32.3333 73.251 29.625 70.2041V69.4424C26.0703 65.0413 21.7539 61.0635 16.6758 57.5088H15.9141C11.1745 54.2926 7.70443 50.9072 5.50391 47.3525C2.79557 41.2588 1.44141 35.9268 1.44141 31.3564C1.44141 25.6012 2.79557 20.3538 5.50391 15.6143C8.21224 10.7054 11.9362 6.89681 16.6758 4.18848C21.0768 1.48014 26.1549 0.125977 31.9102 0.125977C34.957 0.125977 37.75 0.464518 40.2891 1.1416C48.2448 3.34212 54.5078 8.25098 59.0781 15.8682C61.1094 19.4229 62.3789 24.0778 62.8867 29.833V30.8486C63.056 36.6038 64.2409 42.359 66.4414 48.1143C68.1341 52.346 69.8268 56.1546 71.5195 59.54C75.0742 64.7874 77.3594 67.9189 78.375 68.9346C80.7448 72.4893 84.3841 75.79 89.293 78.8369C89.6315 79.1755 89.9701 79.514 90.3086 79.8525C90.8164 80.0218 91.1549 80.1911 91.3242 80.3604L92.8477 81.1221C96.9102 83.3226 100.211 84.5921 102.75 84.9307H103.258C104.781 85.4385 106.135 85.6924 107.32 85.6924H107.574C110.79 86.3695 114.599 86.708 119 86.708C123.74 86.708 127.548 86.3695 130.426 85.6924H130.68C132.711 85.3538 134.065 85.0999 134.742 84.9307H135.25C138.128 84.5921 142.105 83.0687 147.184 80.3604C153.277 76.6364 157.594 72.8278 160.133 68.9346L165.465 61.3174L166.988 59.2861C169.697 54.5465 171.474 50.8226 172.32 48.1143C174.521 42.8669 175.621 37.1117 175.621 30.8486C175.621 26.109 177.06 21.1156 179.938 15.8682C181.799 12.3135 184.339 9.2666 187.555 6.72754C190.94 4.18848 194.664 2.3265 198.727 1.1416C200.927 0.464518 203.551 0.125977 206.598 0.125977C212.353 0.125977 217.346 1.48014 221.578 4.18848C226.487 7.06608 230.296 10.8747 233.004 15.6143C235.712 20.3538 237.066 25.6012 237.066 31.3564C237.066 36.6038 235.712 41.9359 233.004 47.3525C230.634 51.415 226.995 54.8851 222.086 57.7627C217.177 60.8096 212.691 64.7874 208.629 69.6963C208.121 70.3734 207.021 71.7275 205.328 73.7588C203.805 75.79 202.62 77.8213 201.773 79.8525C199.404 84.4229 197.711 88.1468 196.695 91.0244C194.495 95.764 193.31 101.519 193.141 108.29C193.479 115.061 194.664 120.647 196.695 125.048C198.049 128.603 199.742 132.242 201.773 135.966C203.635 139.69 205.836 142.906 208.375 145.614V146.376C211.422 150.269 215.823 154.247 221.578 158.31H222.594C227.503 161.864 230.888 165.334 232.75 168.72C235.458 174.475 236.812 179.722 236.812 184.462C236.812 190.048 235.374 195.295 232.496 200.204C229.788 205.113 226.064 209.006 221.324 211.884C216.754 214.592 211.845 215.946 206.598 215.946C203.889 215.946 201.012 215.523 197.965 214.677C189.84 212.307 183.746 207.398 179.684 199.95C176.975 195.38 175.621 190.725 175.621 185.985V185.224C175.621 179.299 174.436 173.544 172.066 167.958C171.22 165.25 169.443 161.526 166.734 156.786C165.888 155.263 163.603 151.962 159.879 146.884C157.34 143.329 153.447 139.605 148.199 135.712L146.93 135.204C141.513 132.496 136.012 130.549 130.426 129.364C126.871 128.856 123.062 128.603 119 128.603C114.768 128.603 110.96 128.856 107.574 129.364C106.728 129.534 104.697 130.041 101.48 130.888C98.4336 131.734 95.6406 132.75 93.1016 133.935C92.9323 134.273 92.763 134.442 92.5938 134.442L91.832 134.95L89.5469 135.966C84.9766 139.013 81.0833 142.652 77.8672 146.884C75.4974 149.761 73.2969 152.893 71.2656 156.278C68.8958 160.51 67.0339 164.319 65.6797 167.704C63.6484 172.951 62.5482 178.791 62.3789 185.224C62.3789 190.471 61.0247 195.38 58.3164 199.95C53.4076 207.567 47.1445 212.561 39.5273 214.931C36.4805 215.777 33.6875 216.2 31.1484 216.2C26.0703 216.2 21.2461 214.846 16.6758 212.138C11.7669 209.091 7.8737 205.113 4.99609 200.204Z" fill="#479AEF"/>
</svg>
