<svg width="29" height="30" viewBox="0 0 29 30" fill="none" xmlns="http://www.w3.org/2000/svg">
<path fill-rule="evenodd" clip-rule="evenodd" d="M7.39378 3.57151L0.69636 7.13193L0.596715 8.62888L0.49707 10.1258H14.3999H28.3028V8.69357V7.26098L21.5237 3.71134C17.7954 1.75896 14.5976 0.127733 14.4179 0.0862415C14.2382 0.0450768 11.0774 1.61325 7.39378 3.57151ZM17.8944 5.14361L21.4443 7.02216L18.0309 7.11461C16.1537 7.16558 12.9553 7.16558 10.9238 7.11461L7.23043 7.02216L10.6608 5.18804C12.5475 4.17951 14.1481 3.334 14.2176 3.3095C14.2872 3.285 15.9417 4.11025 17.8944 5.14361ZM4.12675 18.2934V23.5207H5.59691H7.06708V18.2934V13.0662H5.59691H4.12675V18.2934ZM12.9477 18.2934V23.5207H14.4179H15.8881V18.2934V13.0662H14.4179H12.9477V18.2934ZM21.7687 18.2934V23.5207H23.2389H24.7091V18.2934V13.0662H23.2389H21.7687V18.2934ZM0.533008 27.9312V29.4013H14.4179H28.3028V27.9312V26.461H14.4179H0.533008V27.9312Z" fill="#479AEF"/>
</svg>
