<svg width="200" height="268" viewBox="0 0 200 268" fill="none" xmlns="http://www.w3.org/2000/svg">
<path d="M200 50.8824C200 78.4967 155.228 100.882 100 100.882C44.7715 100.882 0 78.4967 0 50.8824C0 23.2682 44.7715 0.882446 100 0.882446C155.228 0.882446 200 23.2682 200 50.8824Z" fill="#479AEF"/>
<path d="M200 217.549C200 245.163 155.228 267.549 100 267.549C44.7715 267.549 0 245.164 0 217.549V184.216C0 181.221 3.18576 180.673 5.69019 184.216C19.4181 203.636 56.4594 217.549 100 217.549C143.541 217.549 180.582 203.636 194.31 184.216C196.814 180.673 200 181.221 200 184.216V217.549Z" fill="#479AEF"/>
<path d="M200 134.216C200 161.83 155.228 184.216 100 184.216C44.7715 184.216 0 161.83 0 134.216V100.883C0 97.8879 3.18576 97.3398 5.69019 100.883C19.4181 120.303 56.4594 134.216 100 134.216C143.541 134.216 180.582 120.302 194.31 100.882C196.814 97.3396 200 97.8877 200 100.882V134.216Z" fill="#479AEF"/>
</svg>
