<svg width="188" height="259" viewBox="0 0 188 259" fill="none" xmlns="http://www.w3.org/2000/svg">
<path fill-rule="evenodd" clip-rule="evenodd" d="M87.5376 45.2703C87.5376 43.1298 89.2728 41.3947 91.4133 41.3947H100.126C102.266 41.3947 104.002 43.1298 104.002 45.2703V108.863H113.895C118.175 108.863 121.646 112.333 121.646 116.614V205.58C121.646 209.861 118.175 213.331 113.895 213.331H104.002V254.29C104.002 256.431 102.266 258.166 100.126 258.166H91.4133C89.2728 258.166 87.5376 256.431 87.5376 254.29V213.331H77.6361C73.3551 213.331 69.8848 209.861 69.8848 205.58V116.614C69.8848 112.333 73.3551 108.863 77.6361 108.863H87.5376V45.2703Z" fill="#479AEF"/>
<path fill-rule="evenodd" clip-rule="evenodd" d="M13.8981 14.2579C13.8981 12.1174 15.6333 10.3822 17.7737 10.3822H26.4863C28.6268 10.3822 30.362 12.1174 30.362 14.2578V54.5998H44.1341C48.415 54.5998 51.8853 58.0701 51.8853 62.3511V151.317C51.8853 155.598 48.415 159.068 44.1341 159.068H34.2408V207.772C34.2408 209.912 32.5056 211.647 30.3652 211.647H21.6525C19.5121 211.647 17.7769 209.912 17.7769 207.772V159.068H7.87556C3.59464 159.068 0.124268 155.598 0.124268 151.317V62.3511C0.124268 58.0702 3.59464 54.5998 7.87556 54.5998H13.8981V14.2579Z" fill="#479AEF"/>
<path fill-rule="evenodd" clip-rule="evenodd" d="M159.194 4.57303C159.194 2.43257 160.929 0.697388 163.069 0.697388H169.427C171.568 0.697388 173.303 2.43257 173.303 4.57303V57.9655H180.124C184.405 57.9655 187.876 61.4359 187.876 65.7168V139.741C187.876 144.022 184.405 147.492 180.124 147.492H173.305V178.729C173.305 180.869 171.57 182.604 169.429 182.604H163.071C160.931 182.604 159.196 180.869 159.196 178.729V147.492H151.269C146.988 147.492 143.518 144.022 143.518 139.741V65.7168C143.518 61.4359 146.988 57.9655 151.269 57.9655H159.194V4.57303Z" fill="#479AEF"/>
</svg>
