<svg width="188" height="244" viewBox="0 0 188 244" fill="none" xmlns="http://www.w3.org/2000/svg">
<path fill-rule="evenodd" clip-rule="evenodd" d="M68.8864 4.34356C66.8212 6.79698 66.0558 8.95301 66.0558 12.3139C66.0558 25.8044 58.3009 42.2666 38.2876 71.2626C-1.37703 128.73 -8.23654 158.599 10.1094 193.951C25.2454 223.115 70.7079 252.333 82.5399 240.501C87.4281 235.613 86.794 232.834 78.8062 224.129C51.4971 194.371 50.511 165.711 76.1472 146.84C84.5275 140.67 84.5461 140.677 82.7837 149.247C79.5682 164.881 83.5927 173.328 104.869 195.608C121.104 212.61 126.327 220.031 130.205 231.607C135.667 247.907 143.223 247.856 159.24 231.412C191.968 197.811 196.269 152.123 172.488 90.6855C165.209 71.8814 154.817 69.5012 149.645 85.4528C146.721 94.4673 141.786 103.012 136.511 108.188L131.655 112.953V107.38C131.655 83.6554 116.254 47.2532 93.2883 16.6981C80.7927 0.0741364 74.9631 -2.87783 68.8864 4.34356Z" fill="#479AEF"/>
</svg>
