<svg width="244" height="244" viewBox="0 0 244 244" fill="none" xmlns="http://www.w3.org/2000/svg">
<g filter="url(#filter0_ddi_7535_98661)">
<g clip-path="url(#clip0_7535_98661)">
<rect x="40" y="40" width="124" height="124" rx="12" fill="#141624"/>
<g filter="url(#filter1_ddi_7535_98661)">
<rect x="40" y="40" width="124" height="124" fill="white"/>
</g>
<g filter="url(#filter2_ddi_7535_98661)">
<rect x="40" y="39.5001" width="124" height="124" rx="12" fill="white"/>
</g>
<path d="M61.6435 57.6344H58.1343V61.1437H61.6435V57.6344Z" fill="black"/>
<path d="M65.1523 57.6344H61.6431V61.1437H65.1523V57.6344Z" fill="black"/>
<path d="M68.6621 57.6344H65.1528V61.1437H68.6621V57.6344Z" fill="black"/>
<path d="M72.1714 57.6344H68.6621V61.1437H72.1714V57.6344Z" fill="black"/>
<path d="M75.6806 57.6344H72.1714V61.1437H75.6806V57.6344Z" fill="black"/>
<path d="M79.1894 57.6344H75.6802V61.1437H79.1894V57.6344Z" fill="black"/>
<path d="M82.6992 57.6344H79.1899V61.1437H82.6992V57.6344Z" fill="black"/>
<path d="M96.7358 57.6344H93.2266V61.1437H96.7358V57.6344Z" fill="black"/>
<path d="M107.264 57.6344H103.754V61.1437H107.264V57.6344Z" fill="black"/>
<path d="M110.773 57.6344H107.264V61.1437H110.773V57.6344Z" fill="black"/>
<path d="M114.283 57.6344H110.773V61.1437H114.283V57.6344Z" fill="black"/>
<path d="M117.792 57.6344H114.283V61.1437H117.792V57.6344Z" fill="black"/>
<path d="M124.81 57.6344H121.301V61.1437H124.81V57.6344Z" fill="black"/>
<path d="M128.319 57.6344H124.81V61.1437H128.319V57.6344Z" fill="black"/>
<path d="M131.829 57.6344H128.32V61.1437H131.829V57.6344Z" fill="black"/>
<path d="M135.338 57.6344H131.829V61.1437H135.338V57.6344Z" fill="black"/>
<path d="M138.847 57.6344H135.338V61.1437H138.847V57.6344Z" fill="black"/>
<path d="M142.356 57.6344H138.847V61.1437H142.356V57.6344Z" fill="black"/>
<path d="M145.866 57.6344H142.357V61.1437H145.866V57.6344Z" fill="black"/>
<path d="M61.6435 61.1437H58.1343V64.6529H61.6435V61.1437Z" fill="black"/>
<path d="M82.6992 61.1437H79.1899V64.6529H82.6992V61.1437Z" fill="black"/>
<path d="M89.7178 61.1437H86.2085V64.6529H89.7178V61.1437Z" fill="black"/>
<path d="M93.2265 61.1437H89.7173V64.6529H93.2265V61.1437Z" fill="black"/>
<path d="M96.7358 61.1437H93.2266V64.6529H96.7358V61.1437Z" fill="black"/>
<path d="M107.264 61.1437H103.754V64.6529H107.264V61.1437Z" fill="black"/>
<path d="M110.773 61.1437H107.264V64.6529H110.773V61.1437Z" fill="black"/>
<path d="M114.283 61.1437H110.773V64.6529H114.283V61.1437Z" fill="black"/>
<path d="M124.81 61.1437H121.301V64.6529H124.81V61.1437Z" fill="black"/>
<path d="M145.866 61.1437H142.357V64.6529H145.866V61.1437Z" fill="black"/>
<path d="M61.6435 64.6529H58.1343V68.1622H61.6435V64.6529Z" fill="black"/>
<path d="M68.6621 64.6529H65.1528V68.1622H68.6621V64.6529Z" fill="black"/>
<path d="M72.1714 64.6529H68.6621V68.1622H72.1714V64.6529Z" fill="black"/>
<path d="M75.6806 64.6529H72.1714V68.1622H75.6806V64.6529Z" fill="black"/>
<path d="M82.6992 64.6529H79.1899V68.1622H82.6992V64.6529Z" fill="black"/>
<path d="M89.7178 64.6529H86.2085V68.1622H89.7178V64.6529Z" fill="black"/>
<path d="M110.773 64.6529H107.264V68.1622H110.773V64.6529Z" fill="black"/>
<path d="M114.283 64.6529H110.773V68.1622H114.283V64.6529Z" fill="black"/>
<path d="M124.81 64.6529H121.301V68.1622H124.81V64.6529Z" fill="black"/>
<path d="M131.829 64.6529H128.32V68.1622H131.829V64.6529Z" fill="black"/>
<path d="M135.338 64.6529H131.829V68.1622H135.338V64.6529Z" fill="black"/>
<path d="M138.847 64.6529H135.338V68.1622H138.847V64.6529Z" fill="black"/>
<path d="M145.866 64.6529H142.357V68.1622H145.866V64.6529Z" fill="black"/>
<path d="M61.6435 68.1622H58.1343V71.6714H61.6435V68.1622Z" fill="black"/>
<path d="M68.6621 68.1622H65.1528V71.6714H68.6621V68.1622Z" fill="black"/>
<path d="M72.1714 68.1622H68.6621V71.6714H72.1714V68.1622Z" fill="black"/>
<path d="M75.6806 68.1622H72.1714V71.6714H75.6806V68.1622Z" fill="black"/>
<path d="M82.6992 68.1622H79.1899V71.6714H82.6992V68.1622Z" fill="black"/>
<path d="M93.2265 68.1622H89.7173V71.6714H93.2265V68.1622Z" fill="black"/>
<path d="M103.755 68.1622H100.246V71.6714H103.755V68.1622Z" fill="black"/>
<path d="M110.773 68.1622H107.264V71.6714H110.773V68.1622Z" fill="black"/>
<path d="M124.81 68.1622H121.301V71.6714H124.81V68.1622Z" fill="black"/>
<path d="M131.829 68.1622H128.32V71.6714H131.829V68.1622Z" fill="black"/>
<path d="M135.338 68.1622H131.829V71.6714H135.338V68.1622Z" fill="black"/>
<path d="M138.847 68.1622H135.338V71.6714H138.847V68.1622Z" fill="black"/>
<path d="M145.866 68.1622H142.357V71.6714H145.866V68.1622Z" fill="black"/>
<path d="M61.6435 71.6714H58.1343V75.1806H61.6435V71.6714Z" fill="black"/>
<path d="M68.6621 71.6714H65.1528V75.1806H68.6621V71.6714Z" fill="black"/>
<path d="M72.1714 71.6714H68.6621V75.1806H72.1714V71.6714Z" fill="black"/>
<path d="M75.6806 71.6714H72.1714V75.1806H75.6806V71.6714Z" fill="black"/>
<path d="M82.6992 71.6714H79.1899V75.1806H82.6992V71.6714Z" fill="black"/>
<path d="M89.7178 71.6714H86.2085V75.1806H89.7178V71.6714Z" fill="black"/>
<path d="M93.2265 71.6714H89.7173V75.1806H93.2265V71.6714Z" fill="black"/>
<path d="M96.7358 71.6714H93.2266V75.1806H96.7358V71.6714Z" fill="black"/>
<path d="M103.755 71.6714H100.246V75.1806H103.755V71.6714Z" fill="black"/>
<path d="M110.773 71.6714H107.264V75.1806H110.773V71.6714Z" fill="black"/>
<path d="M114.283 71.6714H110.773V75.1806H114.283V71.6714Z" fill="black"/>
<path d="M117.792 71.6714H114.283V75.1806H117.792V71.6714Z" fill="black"/>
<path d="M124.81 71.6714H121.301V75.1806H124.81V71.6714Z" fill="black"/>
<path d="M131.829 71.6714H128.32V75.1806H131.829V71.6714Z" fill="black"/>
<path d="M135.338 71.6714H131.829V75.1806H135.338V71.6714Z" fill="black"/>
<path d="M138.847 71.6714H135.338V75.1806H138.847V71.6714Z" fill="black"/>
<path d="M145.866 71.6714H142.357V75.1806H145.866V71.6714Z" fill="black"/>
<path d="M61.6435 75.1807H58.1343V78.6899H61.6435V75.1807Z" fill="black"/>
<path d="M82.6992 75.1807H79.1899V78.6899H82.6992V75.1807Z" fill="black"/>
<path d="M89.7178 75.1807H86.2085V78.6899H89.7178V75.1807Z" fill="black"/>
<path d="M96.7358 75.1807H93.2266V78.6899H96.7358V75.1807Z" fill="black"/>
<path d="M103.755 75.1807H100.246V78.6899H103.755V75.1807Z" fill="black"/>
<path d="M107.264 75.1807H103.754V78.6899H107.264V75.1807Z" fill="black"/>
<path d="M114.283 75.1807H110.773V78.6899H114.283V75.1807Z" fill="black"/>
<path d="M124.81 75.1807H121.301V78.6899H124.81V75.1807Z" fill="black"/>
<path d="M145.866 75.1807H142.357V78.6899H145.866V75.1807Z" fill="black"/>
<path d="M61.6435 78.6899H58.1343V82.1992H61.6435V78.6899Z" fill="black"/>
<path d="M65.1523 78.6899H61.6431V82.1992H65.1523V78.6899Z" fill="black"/>
<path d="M68.6621 78.6899H65.1528V82.1992H68.6621V78.6899Z" fill="black"/>
<path d="M72.1714 78.6899H68.6621V82.1992H72.1714V78.6899Z" fill="black"/>
<path d="M75.6806 78.6899H72.1714V82.1992H75.6806V78.6899Z" fill="black"/>
<path d="M79.1894 78.6899H75.6802V82.1992H79.1894V78.6899Z" fill="black"/>
<path d="M82.6992 78.6899H79.1899V82.1992H82.6992V78.6899Z" fill="black"/>
<path d="M89.7178 78.6899H86.2085V82.1992H89.7178V78.6899Z" fill="black"/>
<path d="M96.7358 78.6899H93.2266V82.1992H96.7358V78.6899Z" fill="black"/>
<path d="M103.755 78.6899H100.246V82.1992H103.755V78.6899Z" fill="black"/>
<path d="M110.773 78.6899H107.264V82.1992H110.773V78.6899Z" fill="black"/>
<path d="M117.792 78.6899H114.283V82.1992H117.792V78.6899Z" fill="black"/>
<path d="M124.81 78.6899H121.301V82.1992H124.81V78.6899Z" fill="black"/>
<path d="M128.319 78.6899H124.81V82.1992H128.319V78.6899Z" fill="black"/>
<path d="M131.829 78.6899H128.32V82.1992H131.829V78.6899Z" fill="black"/>
<path d="M135.338 78.6899H131.829V82.1992H135.338V78.6899Z" fill="black"/>
<path d="M138.847 78.6899H135.338V82.1992H138.847V78.6899Z" fill="black"/>
<path d="M142.356 78.6899H138.847V82.1992H142.356V78.6899Z" fill="black"/>
<path d="M145.866 78.6899H142.357V82.1992H145.866V78.6899Z" fill="black"/>
<path d="M89.7178 82.1992H86.2085V85.7085H89.7178V82.1992Z" fill="black"/>
<path d="M96.7358 82.1992H93.2266V85.7085H96.7358V82.1992Z" fill="black"/>
<path d="M100.246 82.1992H96.7363V85.7085H100.246V82.1992Z" fill="black"/>
<path d="M110.773 82.1992H107.264V85.7085H110.773V82.1992Z" fill="black"/>
<path d="M114.283 82.1992H110.773V85.7085H114.283V82.1992Z" fill="black"/>
<path d="M61.6435 85.7085H58.1343V89.2178H61.6435V85.7085Z" fill="black"/>
<path d="M65.1523 85.7085H61.6431V89.2178H65.1523V85.7085Z" fill="black"/>
<path d="M72.1714 85.7085H68.6621V89.2178H72.1714V85.7085Z" fill="black"/>
<path d="M82.6992 85.7085H79.1899V89.2178H82.6992V85.7085Z" fill="black"/>
<path d="M86.2085 85.7085H82.6992V89.2178H86.2085V85.7085Z" fill="black"/>
<path d="M100.246 85.7085H96.7363V89.2178H100.246V85.7085Z" fill="black"/>
<path d="M103.755 85.7085H100.246V89.2178H103.755V85.7085Z" fill="black"/>
<path d="M107.264 85.7085H103.754V89.2178H107.264V85.7085Z" fill="black"/>
<path d="M124.81 85.7085H121.301V89.2178H124.81V85.7085Z" fill="black"/>
<path d="M128.319 85.7085H124.81V89.2178H128.319V85.7085Z" fill="black"/>
<path d="M131.829 85.7085H128.32V89.2178H131.829V85.7085Z" fill="black"/>
<path d="M138.847 85.7085H135.338V89.2178H138.847V85.7085Z" fill="black"/>
<path d="M142.356 85.7085H138.847V89.2178H142.356V85.7085Z" fill="black"/>
<path d="M61.6435 89.2177H58.1343V92.727H61.6435V89.2177Z" fill="black"/>
<path d="M79.1894 89.2177H75.6802V92.727H79.1894V89.2177Z" fill="black"/>
<path d="M89.7178 89.2177H86.2085V92.727H89.7178V89.2177Z" fill="black"/>
<path d="M93.2265 89.2177H89.7173V92.727H93.2265V89.2177Z" fill="black"/>
<path d="M100.246 89.2177H96.7363V92.727H100.246V89.2177Z" fill="black"/>
<path d="M103.755 89.2177H100.246V92.727H103.755V89.2177Z" fill="black"/>
<path d="M107.264 89.2177H103.754V92.727H107.264V89.2177Z" fill="black"/>
<path d="M110.773 89.2177H107.264V92.727H110.773V89.2177Z" fill="black"/>
<path d="M117.792 89.2177H114.283V92.727H117.792V89.2177Z" fill="black"/>
<path d="M121.301 89.2177H117.792V92.727H121.301V89.2177Z" fill="black"/>
<path d="M124.81 89.2177H121.301V92.727H124.81V89.2177Z" fill="black"/>
<path d="M145.866 89.2177H142.357V92.727H145.866V89.2177Z" fill="black"/>
<path d="M79.1894 92.727H75.6802V96.2362H79.1894V92.727Z" fill="black"/>
<path d="M82.6992 92.727H79.1899V96.2362H82.6992V92.727Z" fill="black"/>
<path d="M89.7178 92.727H86.2085V96.2362H89.7178V92.727Z" fill="black"/>
<path d="M100.246 92.727H96.7363V96.2362H100.246V92.727Z" fill="black"/>
<path d="M103.755 92.727H100.246V96.2362H103.755V92.727Z" fill="black"/>
<path d="M110.773 92.727H107.264V96.2362H110.773V92.727Z" fill="black"/>
<path d="M121.301 92.727H117.792V96.2362H121.301V92.727Z" fill="black"/>
<path d="M124.81 92.727H121.301V96.2362H124.81V92.727Z" fill="black"/>
<path d="M128.319 92.727H124.81V96.2362H128.319V92.727Z" fill="black"/>
<path d="M142.356 92.727H138.847V96.2362H142.356V92.727Z" fill="black"/>
<path d="M145.866 92.727H142.357V96.2362H145.866V92.727Z" fill="black"/>
<path d="M61.6435 96.2362H58.1343V99.7455H61.6435V96.2362Z" fill="black"/>
<path d="M72.1714 96.2362H68.6621V99.7455H72.1714V96.2362Z" fill="black"/>
<path d="M75.6806 96.2362H72.1714V99.7455H75.6806V96.2362Z" fill="black"/>
<path d="M79.1894 96.2362H75.6802V99.7455H79.1894V96.2362Z" fill="black"/>
<path d="M86.2085 96.2362H82.6992V99.7455H86.2085V96.2362Z" fill="black"/>
<path d="M93.2265 96.2362H89.7173V99.7455H93.2265V96.2362Z" fill="black"/>
<path d="M96.7358 96.2362H93.2266V99.7455H96.7358V96.2362Z" fill="black"/>
<path d="M100.246 96.2362H96.7363V99.7455H100.246V96.2362Z" fill="black"/>
<path d="M103.755 96.2362H100.246V99.7455H103.755V96.2362Z" fill="black"/>
<path d="M107.264 96.2362H103.754V99.7455H107.264V96.2362Z" fill="black"/>
<path d="M117.792 96.2362H114.283V99.7455H117.792V96.2362Z" fill="black"/>
<path d="M121.301 96.2362H117.792V99.7455H121.301V96.2362Z" fill="black"/>
<path d="M65.1523 99.7455H61.6431V103.255H65.1523V99.7455Z" fill="black"/>
<path d="M68.6621 99.7455H65.1528V103.255H68.6621V99.7455Z" fill="black"/>
<path d="M72.1714 99.7455H68.6621V103.255H72.1714V99.7455Z" fill="black"/>
<path d="M79.1894 99.7455H75.6802V103.255H79.1894V99.7455Z" fill="black"/>
<path d="M82.6992 99.7455H79.1899V103.255H82.6992V99.7455Z" fill="black"/>
<path d="M86.2085 99.7455H82.6992V103.255H86.2085V99.7455Z" fill="black"/>
<path d="M89.7178 99.7455H86.2085V103.255H89.7178V99.7455Z" fill="black"/>
<path d="M96.7358 99.7455H93.2266V103.255H96.7358V99.7455Z" fill="black"/>
<path d="M100.246 99.7455H96.7363V103.255H100.246V99.7455Z" fill="black"/>
<path d="M107.264 99.7455H103.754V103.255H107.264V99.7455Z" fill="black"/>
<path d="M110.773 99.7455H107.264V103.255H110.773V99.7455Z" fill="black"/>
<path d="M114.283 99.7455H110.773V103.255H114.283V99.7455Z" fill="black"/>
<path d="M117.792 99.7455H114.283V103.255H117.792V99.7455Z" fill="black"/>
<path d="M121.301 99.7455H117.792V103.255H121.301V99.7455Z" fill="black"/>
<path d="M124.81 99.7455H121.301V103.255H124.81V99.7455Z" fill="black"/>
<path d="M135.338 99.7455H131.829V103.255H135.338V99.7455Z" fill="black"/>
<path d="M142.356 99.7455H138.847V103.255H142.356V99.7455Z" fill="black"/>
<path d="M145.866 99.7455H142.357V103.255H145.866V99.7455Z" fill="black"/>
<path d="M68.6621 103.255H65.1528V106.764H68.6621V103.255Z" fill="black"/>
<path d="M72.1714 103.255H68.6621V106.764H72.1714V103.255Z" fill="black"/>
<path d="M75.6806 103.255H72.1714V106.764H75.6806V103.255Z" fill="black"/>
<path d="M79.1894 103.255H75.6802V106.764H79.1894V103.255Z" fill="black"/>
<path d="M86.2085 103.255H82.6992V106.764H86.2085V103.255Z" fill="black"/>
<path d="M100.246 103.255H96.7363V106.764H100.246V103.255Z" fill="black"/>
<path d="M110.773 103.255H107.264V106.764H110.773V103.255Z" fill="black"/>
<path d="M117.792 103.255H114.283V106.764H117.792V103.255Z" fill="black"/>
<path d="M121.301 103.255H117.792V106.764H121.301V103.255Z" fill="black"/>
<path d="M124.81 103.255H121.301V106.764H124.81V103.255Z" fill="black"/>
<path d="M128.319 103.255H124.81V106.764H128.319V103.255Z" fill="black"/>
<path d="M135.338 103.255H131.829V106.764H135.338V103.255Z" fill="black"/>
<path d="M138.847 103.255H135.338V106.764H138.847V103.255Z" fill="black"/>
<path d="M145.866 103.255H142.357V106.764H145.866V103.255Z" fill="black"/>
<path d="M61.6435 106.764H58.1343V110.273H61.6435V106.764Z" fill="black"/>
<path d="M68.6621 106.764H65.1528V110.273H68.6621V106.764Z" fill="black"/>
<path d="M79.1894 106.764H75.6802V110.273H79.1894V106.764Z" fill="black"/>
<path d="M82.6992 106.764H79.1899V110.273H82.6992V106.764Z" fill="black"/>
<path d="M86.2085 106.764H82.6992V110.273H86.2085V106.764Z" fill="black"/>
<path d="M89.7178 106.764H86.2085V110.273H89.7178V106.764Z" fill="black"/>
<path d="M100.246 106.764H96.7363V110.273H100.246V106.764Z" fill="black"/>
<path d="M107.264 106.764H103.754V110.273H107.264V106.764Z" fill="black"/>
<path d="M128.319 106.764H124.81V110.273H128.319V106.764Z" fill="black"/>
<path d="M131.829 106.764H128.32V110.273H131.829V106.764Z" fill="black"/>
<path d="M138.847 106.764H135.338V110.273H138.847V106.764Z" fill="black"/>
<path d="M145.866 106.764H142.357V110.273H145.866V106.764Z" fill="black"/>
<path d="M65.1523 110.273H61.6431V113.783H65.1523V110.273Z" fill="black"/>
<path d="M72.1714 110.273H68.6621V113.783H72.1714V110.273Z" fill="black"/>
<path d="M75.6806 110.273H72.1714V113.783H75.6806V110.273Z" fill="black"/>
<path d="M86.2085 110.273H82.6992V113.783H86.2085V110.273Z" fill="black"/>
<path d="M96.7358 110.273H93.2266V113.783H96.7358V110.273Z" fill="black"/>
<path d="M100.246 110.273H96.7363V113.783H100.246V110.273Z" fill="black"/>
<path d="M107.264 110.273H103.754V113.783H107.264V110.273Z" fill="black"/>
<path d="M110.773 110.273H107.264V113.783H110.773V110.273Z" fill="black"/>
<path d="M121.301 110.273H117.792V113.783H121.301V110.273Z" fill="black"/>
<path d="M131.829 110.273H128.32V113.783H131.829V110.273Z" fill="black"/>
<path d="M135.338 110.273H131.829V113.783H135.338V110.273Z" fill="black"/>
<path d="M142.356 110.273H138.847V113.783H142.356V110.273Z" fill="black"/>
<path d="M61.6435 113.783H58.1343V117.292H61.6435V113.783Z" fill="black"/>
<path d="M65.1523 113.783H61.6431V117.292H65.1523V113.783Z" fill="black"/>
<path d="M72.1714 113.783H68.6621V117.292H72.1714V113.783Z" fill="black"/>
<path d="M79.1894 113.783H75.6802V117.292H79.1894V113.783Z" fill="black"/>
<path d="M82.6992 113.783H79.1899V117.292H82.6992V113.783Z" fill="black"/>
<path d="M89.7178 113.783H86.2085V117.292H89.7178V113.783Z" fill="black"/>
<path d="M96.7358 113.783H93.2266V117.292H96.7358V113.783Z" fill="black"/>
<path d="M103.755 113.783H100.246V117.292H103.755V113.783Z" fill="black"/>
<path d="M114.283 113.783H110.773V117.292H114.283V113.783Z" fill="black"/>
<path d="M117.792 113.783H114.283V117.292H117.792V113.783Z" fill="black"/>
<path d="M121.301 113.783H117.792V117.292H121.301V113.783Z" fill="black"/>
<path d="M124.81 113.783H121.301V117.292H124.81V113.783Z" fill="black"/>
<path d="M128.319 113.783H124.81V117.292H128.319V113.783Z" fill="black"/>
<path d="M131.829 113.783H128.32V117.292H131.829V113.783Z" fill="black"/>
<path d="M135.338 113.783H131.829V117.292H135.338V113.783Z" fill="black"/>
<path d="M138.847 113.783H135.338V117.292H138.847V113.783Z" fill="black"/>
<path d="M89.7178 117.292H86.2085V120.801H89.7178V117.292Z" fill="black"/>
<path d="M93.2265 117.292H89.7173V120.801H93.2265V117.292Z" fill="black"/>
<path d="M96.7358 117.292H93.2266V120.801H96.7358V117.292Z" fill="black"/>
<path d="M103.755 117.292H100.246V120.801H103.755V117.292Z" fill="black"/>
<path d="M107.264 117.292H103.754V120.801H107.264V117.292Z" fill="black"/>
<path d="M114.283 117.292H110.773V120.801H114.283V117.292Z" fill="black"/>
<path d="M117.792 117.292H114.283V120.801H117.792V117.292Z" fill="black"/>
<path d="M131.829 117.292H128.32V120.801H131.829V117.292Z" fill="black"/>
<path d="M135.338 117.292H131.829V120.801H135.338V117.292Z" fill="black"/>
<path d="M138.847 117.292H135.338V120.801H138.847V117.292Z" fill="black"/>
<path d="M145.866 117.292H142.357V120.801H145.866V117.292Z" fill="black"/>
<path d="M61.6435 120.801H58.1343V124.31H61.6435V120.801Z" fill="black"/>
<path d="M65.1523 120.801H61.6431V124.31H65.1523V120.801Z" fill="black"/>
<path d="M68.6621 120.801H65.1528V124.31H68.6621V120.801Z" fill="black"/>
<path d="M72.1714 120.801H68.6621V124.31H72.1714V120.801Z" fill="black"/>
<path d="M75.6806 120.801H72.1714V124.31H75.6806V120.801Z" fill="black"/>
<path d="M79.1894 120.801H75.6802V124.31H79.1894V120.801Z" fill="black"/>
<path d="M82.6992 120.801H79.1899V124.31H82.6992V120.801Z" fill="black"/>
<path d="M89.7178 120.801H86.2085V124.31H89.7178V120.801Z" fill="black"/>
<path d="M93.2265 120.801H89.7173V124.31H93.2265V120.801Z" fill="black"/>
<path d="M100.246 120.801H96.7363V124.31H100.246V120.801Z" fill="black"/>
<path d="M103.755 120.801H100.246V124.31H103.755V120.801Z" fill="black"/>
<path d="M107.264 120.801H103.754V124.31H107.264V120.801Z" fill="black"/>
<path d="M114.283 120.801H110.773V124.31H114.283V120.801Z" fill="black"/>
<path d="M117.792 120.801H114.283V124.31H117.792V120.801Z" fill="black"/>
<path d="M124.81 120.801H121.301V124.31H124.81V120.801Z" fill="black"/>
<path d="M131.829 120.801H128.32V124.31H131.829V120.801Z" fill="black"/>
<path d="M142.356 120.801H138.847V124.31H142.356V120.801Z" fill="black"/>
<path d="M145.866 120.801H142.357V124.31H145.866V120.801Z" fill="black"/>
<path d="M61.6435 124.31H58.1343V127.82H61.6435V124.31Z" fill="black"/>
<path d="M82.6992 124.31H79.1899V127.82H82.6992V124.31Z" fill="black"/>
<path d="M96.7358 124.31H93.2266V127.82H96.7358V124.31Z" fill="black"/>
<path d="M103.755 124.31H100.246V127.82H103.755V124.31Z" fill="black"/>
<path d="M110.773 124.31H107.264V127.82H110.773V124.31Z" fill="black"/>
<path d="M117.792 124.31H114.283V127.82H117.792V124.31Z" fill="black"/>
<path d="M131.829 124.31H128.32V127.82H131.829V124.31Z" fill="black"/>
<path d="M135.338 124.31H131.829V127.82H135.338V124.31Z" fill="black"/>
<path d="M138.847 124.31H135.338V127.82H138.847V124.31Z" fill="black"/>
<path d="M142.356 124.31H138.847V127.82H142.356V124.31Z" fill="black"/>
<path d="M61.6435 127.82H58.1343V131.329H61.6435V127.82Z" fill="black"/>
<path d="M68.6621 127.82H65.1528V131.329H68.6621V127.82Z" fill="black"/>
<path d="M72.1714 127.82H68.6621V131.329H72.1714V127.82Z" fill="black"/>
<path d="M75.6806 127.82H72.1714V131.329H75.6806V127.82Z" fill="black"/>
<path d="M82.6992 127.82H79.1899V131.329H82.6992V127.82Z" fill="black"/>
<path d="M93.2265 127.82H89.7173V131.329H93.2265V127.82Z" fill="black"/>
<path d="M96.7358 127.82H93.2266V131.329H96.7358V127.82Z" fill="black"/>
<path d="M103.755 127.82H100.246V131.329H103.755V127.82Z" fill="black"/>
<path d="M107.264 127.82H103.754V131.329H107.264V127.82Z" fill="black"/>
<path d="M110.773 127.82H107.264V131.329H110.773V127.82Z" fill="black"/>
<path d="M117.792 127.82H114.283V131.329H117.792V127.82Z" fill="black"/>
<path d="M121.301 127.82H117.792V131.329H121.301V127.82Z" fill="black"/>
<path d="M124.81 127.82H121.301V131.329H124.81V127.82Z" fill="black"/>
<path d="M128.319 127.82H124.81V131.329H128.319V127.82Z" fill="black"/>
<path d="M131.829 127.82H128.32V131.329H131.829V127.82Z" fill="black"/>
<path d="M142.356 127.82H138.847V131.329H142.356V127.82Z" fill="black"/>
<path d="M61.6435 131.329H58.1343V134.838H61.6435V131.329Z" fill="black"/>
<path d="M68.6621 131.329H65.1528V134.838H68.6621V131.329Z" fill="black"/>
<path d="M72.1714 131.329H68.6621V134.838H72.1714V131.329Z" fill="black"/>
<path d="M75.6806 131.329H72.1714V134.838H75.6806V131.329Z" fill="black"/>
<path d="M82.6992 131.329H79.1899V134.838H82.6992V131.329Z" fill="black"/>
<path d="M89.7178 131.329H86.2085V134.838H89.7178V131.329Z" fill="black"/>
<path d="M100.246 131.329H96.7363V134.838H100.246V131.329Z" fill="black"/>
<path d="M114.283 131.329H110.773V134.838H114.283V131.329Z" fill="black"/>
<path d="M117.792 131.329H114.283V134.838H117.792V131.329Z" fill="black"/>
<path d="M128.319 131.329H124.81V134.838H128.319V131.329Z" fill="black"/>
<path d="M131.829 131.329H128.32V134.838H131.829V131.329Z" fill="black"/>
<path d="M138.847 131.329H135.338V134.838H138.847V131.329Z" fill="black"/>
<path d="M61.6435 134.838H58.1343V138.347H61.6435V134.838Z" fill="black"/>
<path d="M68.6621 134.838H65.1528V138.347H68.6621V134.838Z" fill="black"/>
<path d="M72.1714 134.838H68.6621V138.347H72.1714V134.838Z" fill="black"/>
<path d="M75.6806 134.838H72.1714V138.347H75.6806V134.838Z" fill="black"/>
<path d="M82.6992 134.838H79.1899V138.347H82.6992V134.838Z" fill="black"/>
<path d="M96.7358 134.838H93.2266V138.347H96.7358V134.838Z" fill="black"/>
<path d="M107.264 134.838H103.754V138.347H107.264V134.838Z" fill="black"/>
<path d="M110.773 134.838H107.264V138.347H110.773V134.838Z" fill="black"/>
<path d="M114.283 134.838H110.773V138.347H114.283V134.838Z" fill="black"/>
<path d="M117.792 134.838H114.283V138.347H117.792V134.838Z" fill="black"/>
<path d="M131.829 134.838H128.32V138.347H131.829V134.838Z" fill="black"/>
<path d="M135.338 134.838H131.829V138.347H135.338V134.838Z" fill="black"/>
<path d="M138.847 134.838H135.338V138.347H138.847V134.838Z" fill="black"/>
<path d="M145.866 134.838H142.357V138.347H145.866V134.838Z" fill="black"/>
<path d="M61.6435 138.347H58.1343V141.857H61.6435V138.347Z" fill="black"/>
<path d="M82.6992 138.347H79.1899V141.857H82.6992V138.347Z" fill="black"/>
<path d="M89.7178 138.347H86.2085V141.857H89.7178V138.347Z" fill="black"/>
<path d="M100.246 138.347H96.7363V141.857H100.246V138.347Z" fill="black"/>
<path d="M107.264 138.347H103.754V141.857H107.264V138.347Z" fill="black"/>
<path d="M110.773 138.347H107.264V141.857H110.773V138.347Z" fill="black"/>
<path d="M114.283 138.347H110.773V141.857H114.283V138.347Z" fill="black"/>
<path d="M117.792 138.347H114.283V141.857H117.792V138.347Z" fill="black"/>
<path d="M124.81 138.347H121.301V141.857H124.81V138.347Z" fill="black"/>
<path d="M135.338 138.347H131.829V141.857H135.338V138.347Z" fill="black"/>
<path d="M61.6435 141.857H58.1343V145.366H61.6435V141.857Z" fill="black"/>
<path d="M65.1523 141.857H61.6431V145.366H65.1523V141.857Z" fill="black"/>
<path d="M68.6621 141.857H65.1528V145.366H68.6621V141.857Z" fill="black"/>
<path d="M72.1714 141.857H68.6621V145.366H72.1714V141.857Z" fill="black"/>
<path d="M75.6806 141.857H72.1714V145.366H75.6806V141.857Z" fill="black"/>
<path d="M79.1894 141.857H75.6802V145.366H79.1894V141.857Z" fill="black"/>
<path d="M82.6992 141.857H79.1899V145.366H82.6992V141.857Z" fill="black"/>
<path d="M89.7178 141.857H86.2085V145.366H89.7178V141.857Z" fill="black"/>
<path d="M96.7358 141.857H93.2266V145.366H96.7358V141.857Z" fill="black"/>
<path d="M107.264 141.857H103.754V145.366H107.264V141.857Z" fill="black"/>
<path d="M110.773 141.857H107.264V145.366H110.773V141.857Z" fill="black"/>
<path d="M114.283 141.857H110.773V145.366H114.283V141.857Z" fill="black"/>
<path d="M117.792 141.857H114.283V145.366H117.792V141.857Z" fill="black"/>
<path d="M121.301 141.857H117.792V145.366H121.301V141.857Z" fill="black"/>
<path d="M124.81 141.857H121.301V145.366H124.81V141.857Z" fill="black"/>
<path d="M128.319 141.857H124.81V145.366H128.319V141.857Z" fill="black"/>
<path d="M142.356 141.857H138.847V145.366H142.356V141.857Z" fill="black"/>
<path d="M145.866 141.857H142.357V145.366H145.866V141.857Z" fill="black"/>
</g>
</g>
<defs>
<filter id="filter0_ddi_7535_98661" x="0" y="0" width="244" height="244" filterUnits="userSpaceOnUse" color-interpolation-filters="sRGB">
<feFlood flood-opacity="0" result="BackgroundImageFix"/>
<feColorMatrix in="SourceAlpha" type="matrix" values="0 0 0 0 0 0 0 0 0 0 0 0 0 0 0 0 0 0 127 0" result="hardAlpha"/>
<feOffset dx="20" dy="20"/>
<feGaussianBlur stdDeviation="30"/>
<feColorMatrix type="matrix" values="0 0 0 0 0 0 0 0 0 0 0 0 0 0 0 0 0 0 0.1 0"/>
<feBlend mode="normal" in2="BackgroundImageFix" result="effect1_dropShadow_7535_98661"/>
<feColorMatrix in="SourceAlpha" type="matrix" values="0 0 0 0 0 0 0 0 0 0 0 0 0 0 0 0 0 0 127 0" result="hardAlpha"/>
<feOffset dx="-10" dy="-10"/>
<feGaussianBlur stdDeviation="15"/>
<feColorMatrix type="matrix" values="0 0 0 0 1 0 0 0 0 1 0 0 0 0 1 0 0 0 0.9 0"/>
<feBlend mode="normal" in2="effect1_dropShadow_7535_98661" result="effect2_dropShadow_7535_98661"/>
<feBlend mode="normal" in="SourceGraphic" in2="effect2_dropShadow_7535_98661" result="shape"/>
<feColorMatrix in="SourceAlpha" type="matrix" values="0 0 0 0 0 0 0 0 0 0 0 0 0 0 0 0 0 0 127 0" result="hardAlpha"/>
<feOffset dx="1" dy="1"/>
<feGaussianBlur stdDeviation="5"/>
<feComposite in2="hardAlpha" operator="arithmetic" k2="-1" k3="1"/>
<feColorMatrix type="matrix" values="0 0 0 0 1 0 0 0 0 1 0 0 0 0 1 0 0 0 1 0"/>
<feBlend mode="normal" in2="shape" result="effect3_innerShadow_7535_98661"/>
</filter>
<filter id="filter1_ddi_7535_98661" x="25" y="25" width="150" height="150" filterUnits="userSpaceOnUse" color-interpolation-filters="sRGB">
<feFlood flood-opacity="0" result="BackgroundImageFix"/>
<feColorMatrix in="SourceAlpha" type="matrix" values="0 0 0 0 0 0 0 0 0 0 0 0 0 0 0 0 0 0 127 0" result="hardAlpha"/>
<feOffset dx="1" dy="1"/>
<feGaussianBlur stdDeviation="5"/>
<feColorMatrix type="matrix" values="0 0 0 0 0 0 0 0 0 0 0 0 0 0 0 0 0 0 0.1 0"/>
<feBlend mode="normal" in2="BackgroundImageFix" result="effect1_dropShadow_7535_98661"/>
<feColorMatrix in="SourceAlpha" type="matrix" values="0 0 0 0 0 0 0 0 0 0 0 0 0 0 0 0 0 0 127 0" result="hardAlpha"/>
<feOffset dx="-5" dy="-5"/>
<feGaussianBlur stdDeviation="5"/>
<feColorMatrix type="matrix" values="0 0 0 0 1 0 0 0 0 1 0 0 0 0 1 0 0 0 1 0"/>
<feBlend mode="normal" in2="effect1_dropShadow_7535_98661" result="effect2_dropShadow_7535_98661"/>
<feBlend mode="normal" in="SourceGraphic" in2="effect2_dropShadow_7535_98661" result="shape"/>
<feColorMatrix in="SourceAlpha" type="matrix" values="0 0 0 0 0 0 0 0 0 0 0 0 0 0 0 0 0 0 127 0" result="hardAlpha"/>
<feOffset dx="1" dy="1"/>
<feGaussianBlur stdDeviation="1"/>
<feComposite in2="hardAlpha" operator="arithmetic" k2="-1" k3="1"/>
<feColorMatrix type="matrix" values="0 0 0 0 1 0 0 0 0 1 0 0 0 0 1 0 0 0 0.8 0"/>
<feBlend mode="normal" in2="shape" result="effect3_innerShadow_7535_98661"/>
</filter>
<filter id="filter2_ddi_7535_98661" x="25" y="24.5001" width="150" height="150" filterUnits="userSpaceOnUse" color-interpolation-filters="sRGB">
<feFlood flood-opacity="0" result="BackgroundImageFix"/>
<feColorMatrix in="SourceAlpha" type="matrix" values="0 0 0 0 0 0 0 0 0 0 0 0 0 0 0 0 0 0 127 0" result="hardAlpha"/>
<feOffset dx="1" dy="1"/>
<feGaussianBlur stdDeviation="5"/>
<feColorMatrix type="matrix" values="0 0 0 0 0 0 0 0 0 0 0 0 0 0 0 0 0 0 0.1 0"/>
<feBlend mode="normal" in2="BackgroundImageFix" result="effect1_dropShadow_7535_98661"/>
<feColorMatrix in="SourceAlpha" type="matrix" values="0 0 0 0 0 0 0 0 0 0 0 0 0 0 0 0 0 0 127 0" result="hardAlpha"/>
<feOffset dx="-5" dy="-5"/>
<feGaussianBlur stdDeviation="5"/>
<feColorMatrix type="matrix" values="0 0 0 0 1 0 0 0 0 1 0 0 0 0 1 0 0 0 1 0"/>
<feBlend mode="normal" in2="effect1_dropShadow_7535_98661" result="effect2_dropShadow_7535_98661"/>
<feBlend mode="normal" in="SourceGraphic" in2="effect2_dropShadow_7535_98661" result="shape"/>
<feColorMatrix in="SourceAlpha" type="matrix" values="0 0 0 0 0 0 0 0 0 0 0 0 0 0 0 0 0 0 127 0" result="hardAlpha"/>
<feOffset dx="1" dy="1"/>
<feGaussianBlur stdDeviation="1"/>
<feComposite in2="hardAlpha" operator="arithmetic" k2="-1" k3="1"/>
<feColorMatrix type="matrix" values="0 0 0 0 1 0 0 0 0 1 0 0 0 0 1 0 0 0 0.8 0"/>
<feBlend mode="normal" in2="shape" result="effect3_innerShadow_7535_98661"/>
</filter>
<clipPath id="clip0_7535_98661">
<rect x="40" y="40" width="124" height="124" rx="12" fill="white"/>
</clipPath>
</defs>
</svg>
