<svg width="244" height="244" fill="none" viewBox="0 0 244 244" xmlns="http://www.w3.org/2000/svg">
<g filter="url(#c)">
<g clip-path="url(#d)">
<rect x="40" y="40" width="124" height="124" rx="12" fill="#141624"/>
<g filter="url(#b)">
<rect x="40" y="40" width="124" height="124" fill="#fff"/>
</g>
<g filter="url(#a)">
<rect x="40" y="39.5" width="124" height="124" rx="12" fill="#fff"/>
</g>
<path d="m61.644 57.634h-3.5092v3.5093h3.5092v-3.5093z" fill="#000"/>
<path d="m65.152 57.634h-3.5092v3.5093h3.5092v-3.5093z" fill="#000"/>
<path d="m68.662 57.634h-3.5093v3.5093h3.5093v-3.5093z" fill="#000"/>
<path d="m72.171 57.634h-3.5093v3.5093h3.5093v-3.5093z" fill="#000"/>
<path d="m75.681 57.634h-3.5092v3.5093h3.5092v-3.5093z" fill="#000"/>
<path d="m79.189 57.634h-3.5092v3.5093h3.5092v-3.5093z" fill="#000"/>
<path d="m82.699 57.634h-3.5093v3.5093h3.5093v-3.5093z" fill="#000"/>
<path d="m96.736 57.634h-3.5092v3.5093h3.5092v-3.5093z" fill="#000"/>
<path d="m107.26 57.634h-3.51v3.5093h3.51v-3.5093z" fill="#000"/>
<path d="m110.77 57.634h-3.509v3.5093h3.509v-3.5093z" fill="#000"/>
<path d="m114.28 57.634h-3.51v3.5093h3.51v-3.5093z" fill="#000"/>
<path d="m117.79 57.634h-3.509v3.5093h3.509v-3.5093z" fill="#000"/>
<path d="m124.81 57.634h-3.509v3.5093h3.509v-3.5093z" fill="#000"/>
<path d="m128.32 57.634h-3.509v3.5093h3.509v-3.5093z" fill="#000"/>
<path d="m131.83 57.634h-3.509v3.5093h3.509v-3.5093z" fill="#000"/>
<path d="m135.34 57.634h-3.509v3.5093h3.509v-3.5093z" fill="#000"/>
<path d="m138.85 57.634h-3.509v3.5093h3.509v-3.5093z" fill="#000"/>
<path d="m142.36 57.634h-3.509v3.5093h3.509v-3.5093z" fill="#000"/>
<path d="m145.87 57.634h-3.509v3.5093h3.509v-3.5093z" fill="#000"/>
<path d="m61.644 61.144h-3.5092v3.5092h3.5092v-3.5092z" fill="#000"/>
<path d="m82.699 61.144h-3.5093v3.5092h3.5093v-3.5092z" fill="#000"/>
<path d="m89.718 61.144h-3.5093v3.5092h3.5093v-3.5092z" fill="#000"/>
<path d="m93.226 61.144h-3.5092v3.5092h3.5092v-3.5092z" fill="#000"/>
<path d="m96.736 61.144h-3.5092v3.5092h3.5092v-3.5092z" fill="#000"/>
<path d="m107.26 61.144h-3.51v3.5092h3.51v-3.5092z" fill="#000"/>
<path d="m110.77 61.144h-3.509v3.5092h3.509v-3.5092z" fill="#000"/>
<path d="m114.28 61.144h-3.51v3.5092h3.51v-3.5092z" fill="#000"/>
<path d="m124.81 61.144h-3.509v3.5092h3.509v-3.5092z" fill="#000"/>
<path d="m145.87 61.144h-3.509v3.5092h3.509v-3.5092z" fill="#000"/>
<path d="m61.644 64.653h-3.5092v3.5093h3.5092v-3.5093z" fill="#000"/>
<path d="m68.662 64.653h-3.5093v3.5093h3.5093v-3.5093z" fill="#000"/>
<path d="m72.171 64.653h-3.5093v3.5093h3.5093v-3.5093z" fill="#000"/>
<path d="m75.681 64.653h-3.5092v3.5093h3.5092v-3.5093z" fill="#000"/>
<path d="m82.699 64.653h-3.5093v3.5093h3.5093v-3.5093z" fill="#000"/>
<path d="m89.718 64.653h-3.5093v3.5093h3.5093v-3.5093z" fill="#000"/>
<path d="m110.77 64.653h-3.509v3.5093h3.509v-3.5093z" fill="#000"/>
<path d="m114.28 64.653h-3.51v3.5093h3.51v-3.5093z" fill="#000"/>
<path d="m124.81 64.653h-3.509v3.5093h3.509v-3.5093z" fill="#000"/>
<path d="m131.83 64.653h-3.509v3.5093h3.509v-3.5093z" fill="#000"/>
<path d="m135.34 64.653h-3.509v3.5093h3.509v-3.5093z" fill="#000"/>
<path d="m138.85 64.653h-3.509v3.5093h3.509v-3.5093z" fill="#000"/>
<path d="m145.87 64.653h-3.509v3.5093h3.509v-3.5093z" fill="#000"/>
<path d="m61.644 68.162h-3.5092v3.5092h3.5092v-3.5092z" fill="#000"/>
<path d="m68.662 68.162h-3.5093v3.5092h3.5093v-3.5092z" fill="#000"/>
<path d="m72.171 68.162h-3.5093v3.5092h3.5093v-3.5092z" fill="#000"/>
<path d="m75.681 68.162h-3.5092v3.5092h3.5092v-3.5092z" fill="#000"/>
<path d="m82.699 68.162h-3.5093v3.5092h3.5093v-3.5092z" fill="#000"/>
<path d="m93.226 68.162h-3.5092v3.5092h3.5092v-3.5092z" fill="#000"/>
<path d="m103.76 68.162h-3.509v3.5092h3.509v-3.5092z" fill="#000"/>
<path d="m110.77 68.162h-3.509v3.5092h3.509v-3.5092z" fill="#000"/>
<path d="m124.81 68.162h-3.509v3.5092h3.509v-3.5092z" fill="#000"/>
<path d="m131.83 68.162h-3.509v3.5092h3.509v-3.5092z" fill="#000"/>
<path d="m135.34 68.162h-3.509v3.5092h3.509v-3.5092z" fill="#000"/>
<path d="m138.85 68.162h-3.509v3.5092h3.509v-3.5092z" fill="#000"/>
<path d="m145.87 68.162h-3.509v3.5092h3.509v-3.5092z" fill="#000"/>
<path d="m61.644 71.671h-3.5092v3.5092h3.5092v-3.5092z" fill="#000"/>
<path d="m68.662 71.671h-3.5093v3.5092h3.5093v-3.5092z" fill="#000"/>
<path d="m72.171 71.671h-3.5093v3.5092h3.5093v-3.5092z" fill="#000"/>
<path d="m75.681 71.671h-3.5092v3.5092h3.5092v-3.5092z" fill="#000"/>
<path d="m82.699 71.671h-3.5093v3.5092h3.5093v-3.5092z" fill="#000"/>
<path d="m89.718 71.671h-3.5093v3.5092h3.5093v-3.5092z" fill="#000"/>
<path d="m93.226 71.671h-3.5092v3.5092h3.5092v-3.5092z" fill="#000"/>
<path d="m96.736 71.671h-3.5092v3.5092h3.5092v-3.5092z" fill="#000"/>
<path d="m103.76 71.671h-3.509v3.5092h3.509v-3.5092z" fill="#000"/>
<path d="m110.77 71.671h-3.509v3.5092h3.509v-3.5092z" fill="#000"/>
<path d="m114.28 71.671h-3.51v3.5092h3.51v-3.5092z" fill="#000"/>
<path d="m117.79 71.671h-3.509v3.5092h3.509v-3.5092z" fill="#000"/>
<path d="m124.81 71.671h-3.509v3.5092h3.509v-3.5092z" fill="#000"/>
<path d="m131.83 71.671h-3.509v3.5092h3.509v-3.5092z" fill="#000"/>
<path d="m135.34 71.671h-3.509v3.5092h3.509v-3.5092z" fill="#000"/>
<path d="m138.85 71.671h-3.509v3.5092h3.509v-3.5092z" fill="#000"/>
<path d="m145.87 71.671h-3.509v3.5092h3.509v-3.5092z" fill="#000"/>
<path d="m61.644 75.181h-3.5092v3.5092h3.5092v-3.5092z" fill="#000"/>
<path d="m82.699 75.181h-3.5093v3.5092h3.5093v-3.5092z" fill="#000"/>
<path d="m89.718 75.181h-3.5093v3.5092h3.5093v-3.5092z" fill="#000"/>
<path d="m96.736 75.181h-3.5092v3.5092h3.5092v-3.5092z" fill="#000"/>
<path d="m103.76 75.181h-3.509v3.5092h3.509v-3.5092z" fill="#000"/>
<path d="m107.26 75.181h-3.51v3.5092h3.51v-3.5092z" fill="#000"/>
<path d="m114.28 75.181h-3.51v3.5092h3.51v-3.5092z" fill="#000"/>
<path d="m124.81 75.181h-3.509v3.5092h3.509v-3.5092z" fill="#000"/>
<path d="m145.87 75.181h-3.509v3.5092h3.509v-3.5092z" fill="#000"/>
<path d="m61.644 78.69h-3.5092v3.5093h3.5092v-3.5093z" fill="#000"/>
<path d="m65.152 78.69h-3.5092v3.5093h3.5092v-3.5093z" fill="#000"/>
<path d="m68.662 78.69h-3.5093v3.5093h3.5093v-3.5093z" fill="#000"/>
<path d="m72.171 78.69h-3.5093v3.5093h3.5093v-3.5093z" fill="#000"/>
<path d="m75.681 78.69h-3.5092v3.5093h3.5092v-3.5093z" fill="#000"/>
<path d="m79.189 78.69h-3.5092v3.5093h3.5092v-3.5093z" fill="#000"/>
<path d="m82.699 78.69h-3.5093v3.5093h3.5093v-3.5093z" fill="#000"/>
<path d="m89.718 78.69h-3.5093v3.5093h3.5093v-3.5093z" fill="#000"/>
<path d="m96.736 78.69h-3.5092v3.5093h3.5092v-3.5093z" fill="#000"/>
<path d="m103.76 78.69h-3.509v3.5093h3.509v-3.5093z" fill="#000"/>
<path d="m110.77 78.69h-3.509v3.5093h3.509v-3.5093z" fill="#000"/>
<path d="m117.79 78.69h-3.509v3.5093h3.509v-3.5093z" fill="#000"/>
<path d="m124.81 78.69h-3.509v3.5093h3.509v-3.5093z" fill="#000"/>
<path d="m128.32 78.69h-3.509v3.5093h3.509v-3.5093z" fill="#000"/>
<path d="m131.83 78.69h-3.509v3.5093h3.509v-3.5093z" fill="#000"/>
<path d="m135.34 78.69h-3.509v3.5093h3.509v-3.5093z" fill="#000"/>
<path d="m138.85 78.69h-3.509v3.5093h3.509v-3.5093z" fill="#000"/>
<path d="m142.36 78.69h-3.509v3.5093h3.509v-3.5093z" fill="#000"/>
<path d="m145.87 78.69h-3.509v3.5093h3.509v-3.5093z" fill="#000"/>
<path d="m89.718 82.199h-3.5093v3.5093h3.5093v-3.5093z" fill="#000"/>
<path d="m96.736 82.199h-3.5092v3.5093h3.5092v-3.5093z" fill="#000"/>
<path d="m100.25 82.199h-3.5097v3.5093h3.5097v-3.5093z" fill="#000"/>
<path d="m110.77 82.199h-3.509v3.5093h3.509v-3.5093z" fill="#000"/>
<path d="m114.28 82.199h-3.51v3.5093h3.51v-3.5093z" fill="#000"/>
<path d="m61.644 85.708h-3.5092v3.5093h3.5092v-3.5093z" fill="#000"/>
<path d="m65.152 85.708h-3.5092v3.5093h3.5092v-3.5093z" fill="#000"/>
<path d="m72.171 85.708h-3.5093v3.5093h3.5093v-3.5093z" fill="#000"/>
<path d="m82.699 85.708h-3.5093v3.5093h3.5093v-3.5093z" fill="#000"/>
<path d="m86.208 85.708h-3.5093v3.5093h3.5093v-3.5093z" fill="#000"/>
<path d="m100.25 85.708h-3.5097v3.5093h3.5097v-3.5093z" fill="#000"/>
<path d="m103.76 85.708h-3.509v3.5093h3.509v-3.5093z" fill="#000"/>
<path d="m107.26 85.708h-3.51v3.5093h3.51v-3.5093z" fill="#000"/>
<path d="m124.81 85.708h-3.509v3.5093h3.509v-3.5093z" fill="#000"/>
<path d="m128.32 85.708h-3.509v3.5093h3.509v-3.5093z" fill="#000"/>
<path d="m131.83 85.708h-3.509v3.5093h3.509v-3.5093z" fill="#000"/>
<path d="m138.85 85.708h-3.509v3.5093h3.509v-3.5093z" fill="#000"/>
<path d="m142.36 85.708h-3.509v3.5093h3.509v-3.5093z" fill="#000"/>
<path d="m61.644 89.218h-3.5092v3.5093h3.5092v-3.5093z" fill="#000"/>
<path d="m79.189 89.218h-3.5092v3.5093h3.5092v-3.5093z" fill="#000"/>
<path d="m89.718 89.218h-3.5093v3.5093h3.5093v-3.5093z" fill="#000"/>
<path d="m93.226 89.218h-3.5092v3.5093h3.5092v-3.5093z" fill="#000"/>
<path d="m100.25 89.218h-3.5097v3.5093h3.5097v-3.5093z" fill="#000"/>
<path d="m103.76 89.218h-3.509v3.5093h3.509v-3.5093z" fill="#000"/>
<path d="m107.26 89.218h-3.51v3.5093h3.51v-3.5093z" fill="#000"/>
<path d="m110.77 89.218h-3.509v3.5093h3.509v-3.5093z" fill="#000"/>
<path d="m117.79 89.218h-3.509v3.5093h3.509v-3.5093z" fill="#000"/>
<path d="m121.3 89.218h-3.509v3.5093h3.509v-3.5093z" fill="#000"/>
<path d="m124.81 89.218h-3.509v3.5093h3.509v-3.5093z" fill="#000"/>
<path d="m145.87 89.218h-3.509v3.5093h3.509v-3.5093z" fill="#000"/>
<path d="m79.189 92.727h-3.5092v3.5092h3.5092v-3.5092z" fill="#000"/>
<path d="m82.699 92.727h-3.5093v3.5092h3.5093v-3.5092z" fill="#000"/>
<path d="m89.718 92.727h-3.5093v3.5092h3.5093v-3.5092z" fill="#000"/>
<path d="m100.25 92.727h-3.5097v3.5092h3.5097v-3.5092z" fill="#000"/>
<path d="m103.76 92.727h-3.509v3.5092h3.509v-3.5092z" fill="#000"/>
<path d="m110.77 92.727h-3.509v3.5092h3.509v-3.5092z" fill="#000"/>
<path d="m121.3 92.727h-3.509v3.5092h3.509v-3.5092z" fill="#000"/>
<path d="m124.81 92.727h-3.509v3.5092h3.509v-3.5092z" fill="#000"/>
<path d="m128.32 92.727h-3.509v3.5092h3.509v-3.5092z" fill="#000"/>
<path d="m142.36 92.727h-3.509v3.5092h3.509v-3.5092z" fill="#000"/>
<path d="m145.87 92.727h-3.509v3.5092h3.509v-3.5092z" fill="#000"/>
<path d="m61.644 96.236h-3.5092v3.5093h3.5092v-3.5093z" fill="#000"/>
<path d="m72.171 96.236h-3.5093v3.5093h3.5093v-3.5093z" fill="#000"/>
<path d="m75.681 96.236h-3.5092v3.5093h3.5092v-3.5093z" fill="#000"/>
<path d="m79.189 96.236h-3.5092v3.5093h3.5092v-3.5093z" fill="#000"/>
<path d="m86.208 96.236h-3.5093v3.5093h3.5093v-3.5093z" fill="#000"/>
<path d="m93.226 96.236h-3.5092v3.5093h3.5092v-3.5093z" fill="#000"/>
<path d="m96.736 96.236h-3.5092v3.5093h3.5092v-3.5093z" fill="#000"/>
<path d="m100.25 96.236h-3.5097v3.5093h3.5097v-3.5093z" fill="#000"/>
<path d="m103.76 96.236h-3.509v3.5093h3.509v-3.5093z" fill="#000"/>
<path d="m107.26 96.236h-3.51v3.5093h3.51v-3.5093z" fill="#000"/>
<path d="m117.79 96.236h-3.509v3.5093h3.509v-3.5093z" fill="#000"/>
<path d="m121.3 96.236h-3.509v3.5093h3.509v-3.5093z" fill="#000"/>
<path d="m65.152 99.746h-3.5092v3.5095h3.5092v-3.5095z" fill="#000"/>
<path d="m68.662 99.746h-3.5093v3.5095h3.5093v-3.5095z" fill="#000"/>
<path d="m72.171 99.746h-3.5093v3.5095h3.5093v-3.5095z" fill="#000"/>
<path d="m79.189 99.746h-3.5092v3.5095h3.5092v-3.5095z" fill="#000"/>
<path d="m82.699 99.746h-3.5093v3.5095h3.5093v-3.5095z" fill="#000"/>
<path d="m86.208 99.746h-3.5093v3.5095h3.5093v-3.5095z" fill="#000"/>
<path d="m89.718 99.746h-3.5093v3.5095h3.5093v-3.5095z" fill="#000"/>
<path d="m96.736 99.746h-3.5092v3.5095h3.5092v-3.5095z" fill="#000"/>
<path d="m100.25 99.746h-3.5097v3.5095h3.5097v-3.5095z" fill="#000"/>
<path d="m107.26 99.746h-3.51v3.5095h3.51v-3.5095z" fill="#000"/>
<path d="m110.77 99.746h-3.509v3.5095h3.509v-3.5095z" fill="#000"/>
<path d="m114.28 99.746h-3.51v3.5095h3.51v-3.5095z" fill="#000"/>
<path d="m117.79 99.746h-3.509v3.5095h3.509v-3.5095z" fill="#000"/>
<path d="m121.3 99.746h-3.509v3.5095h3.509v-3.5095z" fill="#000"/>
<path d="m124.81 99.746h-3.509v3.5095h3.509v-3.5095z" fill="#000"/>
<path d="m135.34 99.746h-3.509v3.5095h3.509v-3.5095z" fill="#000"/>
<path d="m142.36 99.746h-3.509v3.5095h3.509v-3.5095z" fill="#000"/>
<path d="m145.87 99.746h-3.509v3.5095h3.509v-3.5095z" fill="#000"/>
<path d="m68.662 103.26h-3.5093v3.509h3.5093v-3.509z" fill="#000"/>
<path d="m72.171 103.26h-3.5093v3.509h3.5093v-3.509z" fill="#000"/>
<path d="m75.681 103.26h-3.5092v3.509h3.5092v-3.509z" fill="#000"/>
<path d="m79.189 103.26h-3.5092v3.509h3.5092v-3.509z" fill="#000"/>
<path d="m86.208 103.26h-3.5093v3.509h3.5093v-3.509z" fill="#000"/>
<path d="m100.25 103.26h-3.5097v3.509h3.5097v-3.509z" fill="#000"/>
<path d="m110.77 103.26h-3.509v3.509h3.509v-3.509z" fill="#000"/>
<path d="m117.79 103.26h-3.509v3.509h3.509v-3.509z" fill="#000"/>
<path d="m121.3 103.26h-3.509v3.509h3.509v-3.509z" fill="#000"/>
<path d="m124.81 103.26h-3.509v3.509h3.509v-3.509z" fill="#000"/>
<path d="m128.32 103.26h-3.509v3.509h3.509v-3.509z" fill="#000"/>
<path d="m135.34 103.26h-3.509v3.509h3.509v-3.509z" fill="#000"/>
<path d="m138.85 103.26h-3.509v3.509h3.509v-3.509z" fill="#000"/>
<path d="m145.87 103.26h-3.509v3.509h3.509v-3.509z" fill="#000"/>
<path d="m61.644 106.76h-3.5092v3.509h3.5092v-3.509z" fill="#000"/>
<path d="m68.662 106.76h-3.5093v3.509h3.5093v-3.509z" fill="#000"/>
<path d="m79.189 106.76h-3.5092v3.509h3.5092v-3.509z" fill="#000"/>
<path d="m82.699 106.76h-3.5093v3.509h3.5093v-3.509z" fill="#000"/>
<path d="m86.208 106.76h-3.5093v3.509h3.5093v-3.509z" fill="#000"/>
<path d="m89.718 106.76h-3.5093v3.509h3.5093v-3.509z" fill="#000"/>
<path d="m100.25 106.76h-3.5097v3.509h3.5097v-3.509z" fill="#000"/>
<path d="m107.26 106.76h-3.51v3.509h3.51v-3.509z" fill="#000"/>
<path d="m128.32 106.76h-3.509v3.509h3.509v-3.509z" fill="#000"/>
<path d="m131.83 106.76h-3.509v3.509h3.509v-3.509z" fill="#000"/>
<path d="m138.85 106.76h-3.509v3.509h3.509v-3.509z" fill="#000"/>
<path d="m145.87 106.76h-3.509v3.509h3.509v-3.509z" fill="#000"/>
<path d="m65.152 110.27h-3.5092v3.51h3.5092v-3.51z" fill="#000"/>
<path d="m72.171 110.27h-3.5093v3.51h3.5093v-3.51z" fill="#000"/>
<path d="m75.681 110.27h-3.5092v3.51h3.5092v-3.51z" fill="#000"/>
<path d="m86.208 110.27h-3.5093v3.51h3.5093v-3.51z" fill="#000"/>
<path d="m96.736 110.27h-3.5092v3.51h3.5092v-3.51z" fill="#000"/>
<path d="m100.25 110.27h-3.5097v3.51h3.5097v-3.51z" fill="#000"/>
<path d="m107.26 110.27h-3.51v3.51h3.51v-3.51z" fill="#000"/>
<path d="m110.77 110.27h-3.509v3.51h3.509v-3.51z" fill="#000"/>
<path d="m121.3 110.27h-3.509v3.51h3.509v-3.51z" fill="#000"/>
<path d="m131.83 110.27h-3.509v3.51h3.509v-3.51z" fill="#000"/>
<path d="m135.34 110.27h-3.509v3.51h3.509v-3.51z" fill="#000"/>
<path d="m142.36 110.27h-3.509v3.51h3.509v-3.51z" fill="#000"/>
<path d="m61.644 113.78h-3.5092v3.509h3.5092v-3.509z" fill="#000"/>
<path d="m65.152 113.78h-3.5092v3.509h3.5092v-3.509z" fill="#000"/>
<path d="m72.171 113.78h-3.5093v3.509h3.5093v-3.509z" fill="#000"/>
<path d="m79.189 113.78h-3.5092v3.509h3.5092v-3.509z" fill="#000"/>
<path d="m82.699 113.78h-3.5093v3.509h3.5093v-3.509z" fill="#000"/>
<path d="m89.718 113.78h-3.5093v3.509h3.5093v-3.509z" fill="#000"/>
<path d="m96.736 113.78h-3.5092v3.509h3.5092v-3.509z" fill="#000"/>
<path d="m103.76 113.78h-3.509v3.509h3.509v-3.509z" fill="#000"/>
<path d="m114.28 113.78h-3.51v3.509h3.51v-3.509z" fill="#000"/>
<path d="m117.79 113.78h-3.509v3.509h3.509v-3.509z" fill="#000"/>
<path d="m121.3 113.78h-3.509v3.509h3.509v-3.509z" fill="#000"/>
<path d="m124.81 113.78h-3.509v3.509h3.509v-3.509z" fill="#000"/>
<path d="m128.32 113.78h-3.509v3.509h3.509v-3.509z" fill="#000"/>
<path d="m131.83 113.78h-3.509v3.509h3.509v-3.509z" fill="#000"/>
<path d="m135.34 113.78h-3.509v3.509h3.509v-3.509z" fill="#000"/>
<path d="m138.85 113.78h-3.509v3.509h3.509v-3.509z" fill="#000"/>
<path d="m89.718 117.29h-3.5093v3.509h3.5093v-3.509z" fill="#000"/>
<path d="m93.226 117.29h-3.5092v3.509h3.5092v-3.509z" fill="#000"/>
<path d="m96.736 117.29h-3.5092v3.509h3.5092v-3.509z" fill="#000"/>
<path d="m103.76 117.29h-3.509v3.509h3.509v-3.509z" fill="#000"/>
<path d="m107.26 117.29h-3.51v3.509h3.51v-3.509z" fill="#000"/>
<path d="m114.28 117.29h-3.51v3.509h3.51v-3.509z" fill="#000"/>
<path d="m117.79 117.29h-3.509v3.509h3.509v-3.509z" fill="#000"/>
<path d="m131.83 117.29h-3.509v3.509h3.509v-3.509z" fill="#000"/>
<path d="m135.34 117.29h-3.509v3.509h3.509v-3.509z" fill="#000"/>
<path d="m138.85 117.29h-3.509v3.509h3.509v-3.509z" fill="#000"/>
<path d="m145.87 117.29h-3.509v3.509h3.509v-3.509z" fill="#000"/>
<path d="m61.644 120.8h-3.5092v3.509h3.5092v-3.509z" fill="#000"/>
<path d="m65.152 120.8h-3.5092v3.509h3.5092v-3.509z" fill="#000"/>
<path d="m68.662 120.8h-3.5093v3.509h3.5093v-3.509z" fill="#000"/>
<path d="m72.171 120.8h-3.5093v3.509h3.5093v-3.509z" fill="#000"/>
<path d="m75.681 120.8h-3.5092v3.509h3.5092v-3.509z" fill="#000"/>
<path d="m79.189 120.8h-3.5092v3.509h3.5092v-3.509z" fill="#000"/>
<path d="m82.699 120.8h-3.5093v3.509h3.5093v-3.509z" fill="#000"/>
<path d="m89.718 120.8h-3.5093v3.509h3.5093v-3.509z" fill="#000"/>
<path d="m93.226 120.8h-3.5092v3.509h3.5092v-3.509z" fill="#000"/>
<path d="m100.25 120.8h-3.5097v3.509h3.5097v-3.509z" fill="#000"/>
<path d="m103.76 120.8h-3.509v3.509h3.509v-3.509z" fill="#000"/>
<path d="m107.26 120.8h-3.51v3.509h3.51v-3.509z" fill="#000"/>
<path d="m114.28 120.8h-3.51v3.509h3.51v-3.509z" fill="#000"/>
<path d="m117.79 120.8h-3.509v3.509h3.509v-3.509z" fill="#000"/>
<path d="m124.81 120.8h-3.509v3.509h3.509v-3.509z" fill="#000"/>
<path d="m131.83 120.8h-3.509v3.509h3.509v-3.509z" fill="#000"/>
<path d="m142.36 120.8h-3.509v3.509h3.509v-3.509z" fill="#000"/>
<path d="m145.87 120.8h-3.509v3.509h3.509v-3.509z" fill="#000"/>
<path d="m61.644 124.31h-3.5092v3.51h3.5092v-3.51z" fill="#000"/>
<path d="m82.699 124.31h-3.5093v3.51h3.5093v-3.51z" fill="#000"/>
<path d="m96.736 124.31h-3.5092v3.51h3.5092v-3.51z" fill="#000"/>
<path d="m103.76 124.31h-3.509v3.51h3.509v-3.51z" fill="#000"/>
<path d="m110.77 124.31h-3.509v3.51h3.509v-3.51z" fill="#000"/>
<path d="m117.79 124.31h-3.509v3.51h3.509v-3.51z" fill="#000"/>
<path d="m131.83 124.31h-3.509v3.51h3.509v-3.51z" fill="#000"/>
<path d="m135.34 124.31h-3.509v3.51h3.509v-3.51z" fill="#000"/>
<path d="m138.85 124.31h-3.509v3.51h3.509v-3.51z" fill="#000"/>
<path d="m142.36 124.31h-3.509v3.51h3.509v-3.51z" fill="#000"/>
<path d="m61.644 127.82h-3.5092v3.509h3.5092v-3.509z" fill="#000"/>
<path d="m68.662 127.82h-3.5093v3.509h3.5093v-3.509z" fill="#000"/>
<path d="m72.171 127.82h-3.5093v3.509h3.5093v-3.509z" fill="#000"/>
<path d="m75.681 127.82h-3.5092v3.509h3.5092v-3.509z" fill="#000"/>
<path d="m82.699 127.82h-3.5093v3.509h3.5093v-3.509z" fill="#000"/>
<path d="m93.226 127.82h-3.5092v3.509h3.5092v-3.509z" fill="#000"/>
<path d="m96.736 127.82h-3.5092v3.509h3.5092v-3.509z" fill="#000"/>
<path d="m103.76 127.82h-3.509v3.509h3.509v-3.509z" fill="#000"/>
<path d="m107.26 127.82h-3.51v3.509h3.51v-3.509z" fill="#000"/>
<path d="m110.77 127.82h-3.509v3.509h3.509v-3.509z" fill="#000"/>
<path d="m117.79 127.82h-3.509v3.509h3.509v-3.509z" fill="#000"/>
<path d="m121.3 127.82h-3.509v3.509h3.509v-3.509z" fill="#000"/>
<path d="m124.81 127.82h-3.509v3.509h3.509v-3.509z" fill="#000"/>
<path d="m128.32 127.82h-3.509v3.509h3.509v-3.509z" fill="#000"/>
<path d="m131.83 127.82h-3.509v3.509h3.509v-3.509z" fill="#000"/>
<path d="m142.36 127.82h-3.509v3.509h3.509v-3.509z" fill="#000"/>
<path d="m61.644 131.33h-3.5092v3.509h3.5092v-3.509z" fill="#000"/>
<path d="m68.662 131.33h-3.5093v3.509h3.5093v-3.509z" fill="#000"/>
<path d="m72.171 131.33h-3.5093v3.509h3.5093v-3.509z" fill="#000"/>
<path d="m75.681 131.33h-3.5092v3.509h3.5092v-3.509z" fill="#000"/>
<path d="m82.699 131.33h-3.5093v3.509h3.5093v-3.509z" fill="#000"/>
<path d="m89.718 131.33h-3.5093v3.509h3.5093v-3.509z" fill="#000"/>
<path d="m100.25 131.33h-3.5097v3.509h3.5097v-3.509z" fill="#000"/>
<path d="m114.28 131.33h-3.51v3.509h3.51v-3.509z" fill="#000"/>
<path d="m117.79 131.33h-3.509v3.509h3.509v-3.509z" fill="#000"/>
<path d="m128.32 131.33h-3.509v3.509h3.509v-3.509z" fill="#000"/>
<path d="m131.83 131.33h-3.509v3.509h3.509v-3.509z" fill="#000"/>
<path d="m138.85 131.33h-3.509v3.509h3.509v-3.509z" fill="#000"/>
<path d="m61.644 134.84h-3.5092v3.509h3.5092v-3.509z" fill="#000"/>
<path d="m68.662 134.84h-3.5093v3.509h3.5093v-3.509z" fill="#000"/>
<path d="m72.171 134.84h-3.5093v3.509h3.5093v-3.509z" fill="#000"/>
<path d="m75.681 134.84h-3.5092v3.509h3.5092v-3.509z" fill="#000"/>
<path d="m82.699 134.84h-3.5093v3.509h3.5093v-3.509z" fill="#000"/>
<path d="m96.736 134.84h-3.5092v3.509h3.5092v-3.509z" fill="#000"/>
<path d="m107.26 134.84h-3.51v3.509h3.51v-3.509z" fill="#000"/>
<path d="m110.77 134.84h-3.509v3.509h3.509v-3.509z" fill="#000"/>
<path d="m114.28 134.84h-3.51v3.509h3.51v-3.509z" fill="#000"/>
<path d="m117.79 134.84h-3.509v3.509h3.509v-3.509z" fill="#000"/>
<path d="m131.83 134.84h-3.509v3.509h3.509v-3.509z" fill="#000"/>
<path d="m135.34 134.84h-3.509v3.509h3.509v-3.509z" fill="#000"/>
<path d="m138.85 134.84h-3.509v3.509h3.509v-3.509z" fill="#000"/>
<path d="m145.87 134.84h-3.509v3.509h3.509v-3.509z" fill="#000"/>
<path d="m61.644 138.35h-3.5092v3.51h3.5092v-3.51z" fill="#000"/>
<path d="m82.699 138.35h-3.5093v3.51h3.5093v-3.51z" fill="#000"/>
<path d="m89.718 138.35h-3.5093v3.51h3.5093v-3.51z" fill="#000"/>
<path d="m100.25 138.35h-3.5097v3.51h3.5097v-3.51z" fill="#000"/>
<path d="m107.26 138.35h-3.51v3.51h3.51v-3.51z" fill="#000"/>
<path d="m110.77 138.35h-3.509v3.51h3.509v-3.51z" fill="#000"/>
<path d="m114.28 138.35h-3.51v3.51h3.51v-3.51z" fill="#000"/>
<path d="m117.79 138.35h-3.509v3.51h3.509v-3.51z" fill="#000"/>
<path d="m124.81 138.35h-3.509v3.51h3.509v-3.51z" fill="#000"/>
<path d="m135.34 138.35h-3.509v3.51h3.509v-3.51z" fill="#000"/>
<path d="m61.644 141.86h-3.5092v3.509h3.5092v-3.509z" fill="#000"/>
<path d="m65.152 141.86h-3.5092v3.509h3.5092v-3.509z" fill="#000"/>
<path d="m68.662 141.86h-3.5093v3.509h3.5093v-3.509z" fill="#000"/>
<path d="m72.171 141.86h-3.5093v3.509h3.5093v-3.509z" fill="#000"/>
<path d="m75.681 141.86h-3.5092v3.509h3.5092v-3.509z" fill="#000"/>
<path d="m79.189 141.86h-3.5092v3.509h3.5092v-3.509z" fill="#000"/>
<path d="m82.699 141.86h-3.5093v3.509h3.5093v-3.509z" fill="#000"/>
<path d="m89.718 141.86h-3.5093v3.509h3.5093v-3.509z" fill="#000"/>
<path d="m96.736 141.86h-3.5092v3.509h3.5092v-3.509z" fill="#000"/>
<path d="m107.26 141.86h-3.51v3.509h3.51v-3.509z" fill="#000"/>
<path d="m110.77 141.86h-3.509v3.509h3.509v-3.509z" fill="#000"/>
<path d="m114.28 141.86h-3.51v3.509h3.51v-3.509z" fill="#000"/>
<path d="m117.79 141.86h-3.509v3.509h3.509v-3.509z" fill="#000"/>
<path d="m121.3 141.86h-3.509v3.509h3.509v-3.509z" fill="#000"/>
<path d="m124.81 141.86h-3.509v3.509h3.509v-3.509z" fill="#000"/>
<path d="m128.32 141.86h-3.509v3.509h3.509v-3.509z" fill="#000"/>
<path d="m142.36 141.86h-3.509v3.509h3.509v-3.509z" fill="#000"/>
<path d="m145.87 141.86h-3.509v3.509h3.509v-3.509z" fill="#000"/>
</g>
</g>
<defs>
<filter id="c" x="0" y="0" width="244" height="244" color-interpolation-filters="sRGB" filterUnits="userSpaceOnUse">
<feFlood flood-opacity="0" result="BackgroundImageFix"/>
<feColorMatrix in="SourceAlpha" result="hardAlpha" values="0 0 0 0 0 0 0 0 0 0 0 0 0 0 0 0 0 0 127 0"/>
<feOffset dx="20" dy="20"/>
<feGaussianBlur stdDeviation="30"/>
<feColorMatrix values="0 0 0 0 0 0 0 0 0 0 0 0 0 0 0 0 0 0 0.1 0"/>
<feBlend in2="BackgroundImageFix" result="effect1_dropShadow_7535_98661"/>
<feColorMatrix in="SourceAlpha" result="hardAlpha" values="0 0 0 0 0 0 0 0 0 0 0 0 0 0 0 0 0 0 127 0"/>
<feOffset dx="-10" dy="-10"/>
<feGaussianBlur stdDeviation="15"/>
<feColorMatrix values="0 0 0 0 1 0 0 0 0 1 0 0 0 0 1 0 0 0 0.9 0"/>
<feBlend in2="effect1_dropShadow_7535_98661" result="effect2_dropShadow_7535_98661"/>
<feBlend in="SourceGraphic" in2="effect2_dropShadow_7535_98661" result="shape"/>
<feColorMatrix in="SourceAlpha" result="hardAlpha" values="0 0 0 0 0 0 0 0 0 0 0 0 0 0 0 0 0 0 127 0"/>
<feOffset dx="1" dy="1"/>
<feGaussianBlur stdDeviation="5"/>
<feComposite in2="hardAlpha" k2="-1" k3="1" operator="arithmetic"/>
<feColorMatrix values="0 0 0 0 1 0 0 0 0 1 0 0 0 0 1 0 0 0 1 0"/>
<feBlend in2="shape" result="effect3_innerShadow_7535_98661"/>
</filter>
<filter id="b" x="25" y="25" width="150" height="150" color-interpolation-filters="sRGB" filterUnits="userSpaceOnUse">
<feFlood flood-opacity="0" result="BackgroundImageFix"/>
<feColorMatrix in="SourceAlpha" result="hardAlpha" values="0 0 0 0 0 0 0 0 0 0 0 0 0 0 0 0 0 0 127 0"/>
<feOffset dx="1" dy="1"/>
<feGaussianBlur stdDeviation="5"/>
<feColorMatrix values="0 0 0 0 0 0 0 0 0 0 0 0 0 0 0 0 0 0 0.1 0"/>
<feBlend in2="BackgroundImageFix" result="effect1_dropShadow_7535_98661"/>
<feColorMatrix in="SourceAlpha" result="hardAlpha" values="0 0 0 0 0 0 0 0 0 0 0 0 0 0 0 0 0 0 127 0"/>
<feOffset dx="-5" dy="-5"/>
<feGaussianBlur stdDeviation="5"/>
<feColorMatrix values="0 0 0 0 1 0 0 0 0 1 0 0 0 0 1 0 0 0 1 0"/>
<feBlend in2="effect1_dropShadow_7535_98661" result="effect2_dropShadow_7535_98661"/>
<feBlend in="SourceGraphic" in2="effect2_dropShadow_7535_98661" result="shape"/>
<feColorMatrix in="SourceAlpha" result="hardAlpha" values="0 0 0 0 0 0 0 0 0 0 0 0 0 0 0 0 0 0 127 0"/>
<feOffset dx="1" dy="1"/>
<feGaussianBlur stdDeviation="1"/>
<feComposite in2="hardAlpha" k2="-1" k3="1" operator="arithmetic"/>
<feColorMatrix values="0 0 0 0 1 0 0 0 0 1 0 0 0 0 1 0 0 0 0.8 0"/>
<feBlend in2="shape" result="effect3_innerShadow_7535_98661"/>
</filter>
<filter id="a" x="25" y="24.5" width="150" height="150" color-interpolation-filters="sRGB" filterUnits="userSpaceOnUse">
<feFlood flood-opacity="0" result="BackgroundImageFix"/>
<feColorMatrix in="SourceAlpha" result="hardAlpha" values="0 0 0 0 0 0 0 0 0 0 0 0 0 0 0 0 0 0 127 0"/>
<feOffset dx="1" dy="1"/>
<feGaussianBlur stdDeviation="5"/>
<feColorMatrix values="0 0 0 0 0 0 0 0 0 0 0 0 0 0 0 0 0 0 0.1 0"/>
<feBlend in2="BackgroundImageFix" result="effect1_dropShadow_7535_98661"/>
<feColorMatrix in="SourceAlpha" result="hardAlpha" values="0 0 0 0 0 0 0 0 0 0 0 0 0 0 0 0 0 0 127 0"/>
<feOffset dx="-5" dy="-5"/>
<feGaussianBlur stdDeviation="5"/>
<feColorMatrix values="0 0 0 0 1 0 0 0 0 1 0 0 0 0 1 0 0 0 1 0"/>
<feBlend in2="effect1_dropShadow_7535_98661" result="effect2_dropShadow_7535_98661"/>
<feBlend in="SourceGraphic" in2="effect2_dropShadow_7535_98661" result="shape"/>
<feColorMatrix in="SourceAlpha" result="hardAlpha" values="0 0 0 0 0 0 0 0 0 0 0 0 0 0 0 0 0 0 127 0"/>
<feOffset dx="1" dy="1"/>
<feGaussianBlur stdDeviation="1"/>
<feComposite in2="hardAlpha" k2="-1" k3="1" operator="arithmetic"/>
<feColorMatrix values="0 0 0 0 1 0 0 0 0 1 0 0 0 0 1 0 0 0 0.8 0"/>
<feBlend in2="shape" result="effect3_innerShadow_7535_98661"/>
</filter>
<clipPath id="d">
<rect x="40" y="40" width="124" height="124" rx="12" fill="#fff"/>
</clipPath>
</defs>
</svg>
