<svg width="138" height="139" viewBox="0 0 138 139" fill="none" xmlns="http://www.w3.org/2000/svg">
  <circle cx="71.0062" cy="71.5" r="55.7352" fill="#F8087B"/>
  <path fill-rule="evenodd" clip-rule="evenodd" d="M58.0703 46.2504C50.5365 48.9143 45.0115 55.2724 43.4623 63.0608C42.9792 65.4904 43.6316 66.7321 45.0034 65.9935C45.4019 65.7788 45.6501 65.1676 45.9775 63.5941C49.1726 48.2374 68.3277 42.0543 81.5378 52.1154C84.0688 54.043 84.1097 53.9309 80.5557 54.8058C77.3444 55.5962 76.9763 55.8153 77.217 56.7934C77.5121 57.9923 77.8805 57.9827 83.3654 56.6326L88.4538 55.38L87.1796 50.2036C85.8167 44.6669 85.7219 44.4678 84.5778 44.7495C83.5093 45.0125 83.4766 45.3912 84.2513 48.5387L84.9719 51.4657L83.0144 49.991C76.0883 44.7731 66.3696 43.3157 58.0703 46.2504ZM42.9123 70.9345C41.0033 72.5702 40.963 72.1845 44.5689 86.8334L47.7004 99.5552L48.4941 100.478C50.1388 102.39 47.8847 102.765 75.288 96.0192L99.3894 90.0865L100.167 89.2893C101.721 87.6975 101.757 87.9878 98.2258 73.616L95.1017 60.9019L94.3066 59.9739C93.7257 59.2959 93.1907 58.9723 92.3205 58.7725L91.1295 58.499L67.4849 64.3192L43.8403 70.1395L42.9123 70.9345ZM51.9299 85.0215L55.2031 98.3188L53.1135 98.8332C50.1864 99.5537 50.7833 100.825 47.1808 86.1905C43.5784 71.5556 43.64 72.959 46.5671 72.2385L48.6567 71.7241L51.9299 85.0215ZM89.6849 75.7279L92.9581 89.0253L75.2731 93.3785L57.5883 97.7317L54.3085 84.436L51.0288 71.1402L68.7203 66.7854L86.4117 62.4306L89.6849 75.7279ZM92.1332 61.3244C92.6454 61.6342 98.8492 86.837 98.5394 87.3492C98.4178 87.5501 97.6756 87.864 96.8286 88.0725L95.3326 88.4408L92.0594 75.1434L88.7862 61.8461L90.2822 61.4778C91.1292 61.2693 91.9323 61.2028 92.1332 61.3244ZM47.6405 81.2493C47.3972 81.7011 47.5081 82.4046 48.386 85.9709L49.4175 90.1615L50.1069 90.4043C50.7455 90.6291 50.8329 90.6076 51.2942 90.112L51.7921 89.577L50.7446 85.3218C49.7285 81.1937 49.6788 81.0594 49.0783 80.8269C48.2768 80.5162 47.99 80.6004 47.6405 81.2493Z" fill="#F7F3F4"/>
</svg>
