<svg width="39" height="39" viewBox="0 0 39 39" fill="none" xmlns="http://www.w3.org/2000/svg">
<path d="M30.2392 24.5436C31.6246 25.9329 31.6246 28.191 30.2392 29.5803C28.8537 30.9695 26.6018 30.9695 25.2164 29.5803C23.831 28.191 20.9545 20.27 20.9545 20.27C20.9545 20.27 28.8537 23.1544 30.2392 24.5436Z" fill="#FF0066"/>
<path d="M18.8786 20.27C18.8786 20.27 16.0021 28.1866 14.6167 29.5803C13.2313 30.9695 10.9794 30.9695 9.59395 29.5803C8.20851 28.191 8.20851 25.9329 9.59395 24.5436C10.9794 23.1544 18.8786 20.27 18.8786 20.27Z" fill="#FF0066"/>
<path d="M30.2392 8.87817C31.6246 10.2674 31.6246 12.5255 30.2392 13.9148C28.8537 15.3041 20.9545 18.1884 20.9545 18.1884C20.9545 18.1884 23.831 10.2718 25.2164 8.87817C26.6062 7.4845 28.8537 7.4845 30.2392 8.87817Z" fill="#FF0066"/>
<path d="M14.6167 8.87817C16.0021 10.2674 18.8786 18.1884 18.8786 18.1884C18.8786 18.1884 10.9838 15.3041 9.59395 13.9148C8.20851 12.5255 8.20851 10.2674 9.59395 8.87817C10.9794 7.4845 13.2313 7.4845 14.6167 8.87817Z" fill="#FF0066"/>
<path d="M39.0005 19.229C39.0005 21.196 37.4127 22.7881 35.4511 22.7881C33.4895 22.7881 21.9574 19.229 21.9574 19.229C21.9574 19.229 33.4895 15.6698 35.4511 15.6698C37.4127 15.6698 39.0005 17.262 39.0005 19.229Z" fill="#FF0066"/>
<path d="M17.6955 19.229C17.6955 19.229 6.16337 22.7881 4.20177 22.7881C2.24016 22.7881 0.652405 21.196 0.652405 19.229C0.652405 17.262 2.24016 15.6698 4.20177 15.6698C6.16337 15.6698 17.6955 19.229 17.6955 19.229Z" fill="#FF0066"/>
<path d="M19.8239 38.4583C17.8623 38.4583 16.2746 36.8662 16.2746 34.8992C16.2746 32.9322 19.8239 21.3682 19.8239 21.3682C19.8239 21.3682 23.3733 32.9322 23.3733 34.8992C23.3733 36.8662 21.7855 38.4583 19.8239 38.4583Z" fill="#FF0066"/>
<path d="M19.8239 17.0901C19.8239 17.0901 16.2746 5.52618 16.2746 3.55916C16.2746 1.59214 17.8623 0 19.8239 0C21.7855 0 23.3733 1.59214 23.3733 3.55916C23.3733 5.52618 19.8239 17.0901 19.8239 17.0901Z" fill="#FF0066"/>
</svg>
