<svg width="33" height="32" viewBox="0 0 33 32" fill="none" xmlns="http://www.w3.org/2000/svg">
<path fill-rule="evenodd" clip-rule="evenodd" d="M15.8327 2.66699C14.7281 2.66699 13.8327 3.56242 13.8327 4.66699V7.33366H19.166V4.66699C19.166 3.56242 18.2706 2.66699 17.166 2.66699H15.8327ZM6.16602 9.33366C4.50916 9.33366 3.16602 10.6768 3.16602 12.3337V26.3337C3.16602 27.9905 4.50916 29.3337 6.16601 29.3337H26.8327C28.4895 29.3337 29.8327 27.9905 29.8327 26.3337V12.3337C29.8327 10.6768 28.4895 9.33366 26.8327 9.33366H6.16602ZM11.4993 18.667C9.84249 18.667 8.49935 20.0101 8.49935 21.667V23.0003C8.49935 23.5526 8.94706 24.0003 9.49935 24.0003H15.4993C16.0516 24.0003 16.4993 23.5526 16.4993 23.0003V21.667C16.4993 20.0101 15.1562 18.667 13.4993 18.667H12.4993C13.9721 18.667 15.166 17.4731 15.166 16.0003C15.166 14.5276 13.9721 13.3337 12.4993 13.3337C11.0266 13.3337 9.83268 14.5276 9.83268 16.0003C9.83268 17.4731 11.0266 18.667 12.4993 18.667H11.4993ZM25.2493 16.0003C25.2493 16.4145 24.9136 16.7503 24.4993 16.7503L20.4993 16.7503C20.0851 16.7503 19.7493 16.4145 19.7493 16.0003C19.7493 15.5861 20.0851 15.2503 20.4993 15.2503L24.4993 15.2503C24.9136 15.2503 25.2493 15.5861 25.2493 16.0003ZM24.4993 22.0837C24.9136 22.0837 25.2493 21.7479 25.2493 21.3337C25.2493 20.9194 24.9136 20.5837 24.4993 20.5837H20.4993C20.0851 20.5837 19.7493 20.9194 19.7493 21.3337C19.7493 21.7479 20.0851 22.0837 20.4993 22.0837H24.4993Z" fill="#D5CDD0"/>
</svg>
