<svg xmlns="http://www.w3.org/2000/svg" width="17" height="17" viewBox="0 0 17 17" fill="none">
  <g clip-path="url(#clip0_16777_9535)">
    <path d="M8.51765 16.4983C8.69181 16.5029 8.86509 16.4719 9.02694 16.4072C9.18879 16.3425 9.33584 16.2455 9.45914 16.1219L12.6506 12.871C12.8965 12.6211 13.0366 12.2854 13.0416 11.9342C13.0386 11.5802 12.8984 11.2413 12.6506 10.9894C12.3975 10.7458 12.0598 10.6109 11.7091 10.613C11.5438 10.6183 11.381 10.6564 11.2304 10.7251C11.0798 10.7938 10.9442 10.8918 10.8315 11.0134L10.1692 11.654C10.1557 11.6707 10.1387 11.6844 10.1194 11.6941C10.1002 11.7037 10.0791 11.7092 10.0575 11.71C10.0075 11.7066 9.95987 11.6869 9.92191 11.654C9.89828 11.6426 9.87872 11.6242 9.86587 11.6013C9.85303 11.5784 9.84752 11.552 9.8501 11.5259V6.12905C9.85139 5.95567 9.81738 5.78386 9.75015 5.62414C9.68292 5.46442 9.5839 5.32017 9.45914 5.20022C9.3385 5.07649 9.19455 4.97809 9.03566 4.91073C8.87676 4.84337 8.7061 4.80841 8.53361 4.80787C8.36198 4.80625 8.19187 4.84026 8.03396 4.90778C7.87606 4.9753 7.73378 5.07487 7.61606 5.20022C7.49023 5.31977 7.38997 5.46377 7.32139 5.62345C7.2528 5.78314 7.21733 5.95516 7.21712 6.12905L7.21712 11.5259C7.2197 11.552 7.21419 11.5784 7.20135 11.6013C7.1885 11.6242 7.16894 11.6426 7.14531 11.654C7.10803 11.688 7.06003 11.7078 7.00967 11.71C6.96663 11.7065 6.92662 11.6864 6.89797 11.654L6.24372 11.0134C6.1242 10.8882 5.98046 10.7888 5.8213 10.7214C5.66215 10.6539 5.49095 10.6198 5.31818 10.621C5.1418 10.6193 4.96687 10.6531 4.80376 10.7205C4.64066 10.7879 4.49272 10.8875 4.36872 11.0134C4.11872 11.2645 3.97569 11.6033 3.96978 11.9582C3.97773 12.3104 4.12061 12.6459 4.36872 12.8951L7.56021 16.146C7.68791 16.2664 7.83855 16.3597 8.00308 16.4202C8.16761 16.4808 8.34264 16.5073 8.51765 16.4983Z" fill="#D5CDD0"/>
    <path d="M8.51765 2.91819C9.84443 2.91322 11.1307 3.37643 12.1517 4.22682C13.1726 5.07722 13.8632 6.2607 14.1028 7.57033C14.1404 7.85228 14.2766 8.11166 14.487 8.30229C14.6974 8.49291 14.9684 8.6024 15.2517 8.61126H15.3235C15.4972 8.6083 15.6682 8.56743 15.8245 8.49149C15.9809 8.41555 16.1189 8.30636 16.229 8.1715C16.3391 8.03664 16.4186 7.87935 16.462 7.71055C16.5054 7.54174 16.5117 7.36549 16.4804 7.194C16.1466 5.31507 15.1638 3.61421 13.7047 2.39007C12.2457 1.16593 10.4035 0.496761 8.5017 0.500046C6.59905 0.493591 4.75525 1.16162 3.29551 2.38631C1.83576 3.611 0.853859 5.31367 0.522973 7.194C0.488163 7.36851 0.492964 7.54865 0.537023 7.72104C0.581081 7.89342 0.663266 8.05364 0.777473 8.18979C0.89168 8.32594 1.03498 8.43453 1.19673 8.50749C1.35848 8.58046 1.53452 8.61593 1.7118 8.61126H1.79159C2.07392 8.60487 2.34491 8.49848 2.55663 8.31092C2.76835 8.12336 2.90716 7.86671 2.9485 7.58635C3.18567 6.27718 3.87292 5.09297 4.89056 4.23997C5.9082 3.38697 7.19174 2.91922 8.51765 2.91819Z" fill="#D5CDD0"/>
  </g>
  <defs>
    <clipPath id="clip0_16777_9535">
      <rect width="16" height="16" fill="white" transform="matrix(-1 0 0 -1 16.5 16.5)"/>
    </clipPath>
  </defs>
</svg>