<svg xmlns="http://www.w3.org/2000/svg" width="17" height="17" viewBox="0 0 17 17" fill="none">
  <g clip-path="url(#clip0_16777_9538)">
    <path d="M8.48235 0.501726C8.30819 0.497105 8.13491 0.528083 7.97306 0.59278C7.81121 0.657476 7.66416 0.754539 7.54086 0.878062L4.34937 4.12895C4.10349 4.37892 3.96341 4.71458 3.95841 5.06578C3.96135 5.41977 4.10159 5.75868 4.34937 6.01063C4.6025 6.25415 4.94021 6.38914 5.29086 6.38696C5.45625 6.38171 5.61896 6.34363 5.7696 6.27491C5.92024 6.20619 6.05583 6.10821 6.16852 5.98661L6.83075 5.34603C6.84434 5.32926 6.86132 5.31559 6.88058 5.30593C6.89984 5.29626 6.92094 5.29083 6.94245 5.28998C6.99253 5.29341 7.04013 5.31308 7.07809 5.34603C7.10172 5.35741 7.12128 5.37581 7.13413 5.39873C7.14697 5.42165 7.15248 5.44798 7.1499 5.47415V10.871C7.14861 11.0443 7.18262 11.2161 7.24985 11.3759C7.31708 11.5356 7.4161 11.6798 7.54086 11.7998C7.6615 11.9235 7.80545 12.0219 7.96434 12.0893C8.12324 12.1566 8.2939 12.1916 8.46639 12.1921C8.63802 12.1938 8.80813 12.1597 8.96604 12.0922C9.12394 12.0247 9.26622 11.9251 9.38394 11.7998C9.50977 11.6802 9.61003 11.5362 9.67861 11.3765C9.7472 11.2169 9.78267 11.0448 9.78288 10.871V5.47415C9.7803 5.44798 9.78581 5.42165 9.79865 5.39873C9.8115 5.37581 9.83106 5.35741 9.85469 5.34603C9.89197 5.312 9.93997 5.29217 9.99033 5.28998C10.0334 5.29352 10.0734 5.3136 10.102 5.34603L10.7563 5.98661C10.8758 6.1118 11.0195 6.21118 11.1787 6.27865C11.3378 6.34612 11.5091 6.38025 11.6818 6.37895C11.8582 6.38072 12.0331 6.3469 12.1962 6.27951C12.3593 6.21211 12.5073 6.1125 12.6313 5.98661C12.8813 5.73547 13.0243 5.3967 13.0302 5.04176C13.0223 4.68961 12.8794 4.35409 12.6313 4.10493L9.43979 0.854035C9.31209 0.733603 9.16145 0.640317 8.99692 0.579774C8.83239 0.519231 8.65736 0.492685 8.48235 0.501726Z" fill="#D5CDD0"/>
    <path d="M8.48235 14.0818C7.15557 14.0868 5.86925 13.6236 4.84831 12.7732C3.82737 11.9228 3.13677 10.7393 2.89724 9.42967C2.85958 9.14772 2.72343 8.88834 2.51302 8.69771C2.30262 8.50709 2.03163 8.3976 1.7483 8.38874H1.6765C1.5028 8.3917 1.33184 8.43257 1.17547 8.50851C1.0191 8.58445 0.881082 8.69364 0.770997 8.8285C0.660911 8.96336 0.581398 9.12065 0.537981 9.28945C0.494565 9.45826 0.488286 9.63451 0.51958 9.806C0.853423 11.6849 1.83616 13.3858 3.29525 14.6099C4.75434 15.8341 6.59651 16.5032 8.4983 16.5C10.4009 16.5064 12.2447 15.8384 13.7045 14.6137C15.1642 13.389 16.1461 11.6863 16.477 9.806C16.5118 9.63149 16.507 9.45135 16.463 9.27896C16.4189 9.10658 16.3367 8.94636 16.2225 8.81021C16.1083 8.67406 15.965 8.56547 15.8033 8.49251C15.6415 8.41954 15.4655 8.38407 15.2882 8.38874H15.2084C14.9261 8.39513 14.6551 8.50152 14.4434 8.68908C14.2317 8.87664 14.0928 9.13329 14.0515 9.41365C13.8143 10.7228 13.1271 11.907 12.1094 12.76C11.0918 13.613 9.80826 14.0808 8.48235 14.0818Z" fill="#D5CDD0"/>
  </g>
  <defs>
    <clipPath id="clip0_16777_9538">
      <rect width="16" height="16" fill="white" transform="translate(0.5 0.5)"/>
    </clipPath>
  </defs>
</svg>