<?xml version="1.0" encoding="UTF-8"?>
<svg enable-background="new 0 0 226.1 226.1" version="1.1" viewBox="0 0 226.1 226.1" xml:space="preserve" xmlns="http://www.w3.org/2000/svg">
<style type="text/css">
.st0{display:none;fill:#E4232D;}
.st1{display:none;}
.st2{display:inline;fill:none;stroke:#FFFFFF;stroke-width:1.438;}
.st3{display:inline;fill:none;stroke:#FFFFFF;stroke-width:1.445;}
.st4{display:inline;}
.st5{fill:none;stroke:#FFFFFF;stroke-width:1.438;}
.st6{fill:#FFFFFF;stroke:#FFFFFF;stroke-width:1.438;}
.st7{display:none;fill:#2F3034;}
.st8{display:inline;fill:#FF0000;}
.st9{display:none;fill:#E3242D;}
.st10{fill:#E3242D;}
</style>
<path class="st0" d="m237.6 94.4-20.5-4.5 13.9-16.2c-12.1-12-38-15.1-64.7-6.5-3.8 1.2-7.5 2.7-11.1 4.3 0.4-3.9 0.7-7.9 0.7-11.8 0-28-11-51.7-26.1-59.5l-11.1 18.2-10.8-18.1c-15.1 7.8-26.1 31.5-26.1 59.5 0 4 0.2 7.9 0.7 11.8-3.6-1.7-7.4-3.1-11.1-4.3-26.7-8.7-52.6-5.5-64.7 6.5l13.9 16.2-20.6 4.4c2.8 16.8 21.9 34.5 48.5 43.2 3.7 1.2 7.5 2.2 11.4 3-2.6 2.9-5.1 5.9-7.4 9.1-16.5 22.7-21.5 48.3-13.9 63.5l19.7-8.2-2.1 20.9c16.8 2.6 39.6-10.1 56.1-32.8 2.4-3.3 4.5-6.7 6.5-10.2 2 3.5 4.2 6.9 6.5 10.2 16.5 22.7 39.3 35.4 56.1 32.8l-2.1-20.9 19.7 8.2c7.7-15.2 2.6-40.8-13.8-63.5-2.3-3.2-4.8-6.2-7.4-9.1 3.8-0.8 7.6-1.8 11.4-3 26.5-8.7 45.6-26.4 48.4-43.2z"/>
<g class="st1">
	<path class="st2" d="m179.6 141.4-58.8 42.5-58.8-42.5 22.5-68.8h72.6l22.5 68.8z"/>
	<path class="st3" d="m120.5 147.7 34.9-3.1m-69.8 0 34.9 3.1"/>
	<g class="st4">
		<path class="st5" d="m155.3 144.6-34.9 20.1-34.9-20.1v-40.3l34.9-20.1 34.9 20.1v40.3zm0-40.4-34.9-3m-34.8 3.1 34.9-3.2m34.8 3.2-14.7 31.7m-20.1 28.7 20.1-28.7m-55-31.7 14.7 31.7m20.2 28.7-20.1-28.7"/>
		<path class="st5" d="m140.6 136.1-20.1-34.9-20.1 34.9h40.2z"/>
		<path class="st5" d="m100.3 112.6 20.1 34.9 20.1-34.9h-40.2zm-14.7-8.3 14.7 8.2m40.3 0.1 14.7-8.2m-34.8 43v17.3"/>
		<g transform="translate(81 83)">
			<circle class="st6" cx="39.5" cy="81.7" r="2.4"/>
			<circle class="st6" cx="4.6" cy="21.3" r="2.4"/>
			<circle class="st6" cx="19.3" cy="53.1" r="2.4"/>
			<circle class="st6" cx="59.6" cy="53.1" r="2.4"/>
			<circle class="st6" cx="39.5" cy="18.2" r="2.4"/>
			<circle class="st6" cx="74.3" cy="21.3" r="2.4"/>
		</g>
		<path class="st5" d="m155.3 144.6-14.7-32m-20.1-28.4 20.1 28.3m-55 32.1 14.7-32m20.2-28.4-20.1 28.3m20.1 52.2-29.1-2.3m58.1 0.6-29.1 1.8m-47.2-57.5 12.4-2.9m82.8 2.9-13.1-2.9m-69.7 40.2-23.6-3.3m93.3 3.3 24.2-3.3m-95-68.8 36 11.7m36.6-11.7-36.6 11.7"/>
	</g>
	<path class="st2" d="m120.8 72.6-0.3-54.1m-47.3 88.8-50.7-17.4m37.8 115.1 31.1-42.5m89.9 42.5-31.8-42m69.6-73.1-50.7 17.4m11.2 34.1 39.5-51.5m-62-17.3 62 17.4m-134.6-17.4 36-54.1m36.6 54.1-36.6-54.1m-58.6 122.1-39.4-50.7m62-17.3-62 17.4m39.4 50.6-1.6 64.4m60.5-21.1-60.5 21.1m119.3-63.6 1.7 63.6m-60.5-21.1 60.5 21.1"/>
</g>
<path class="st7" d="m291.4 18.4 11.7-0.1 0.1 19.8 22.8-0.1-0.1-19.8 11.7-0.1 0.3 53.1-11.7 0.1-0.2-22.9-22.7 0.1 0.1 22.9-11.7 0.1-0.3-53.1zm69.4 30.1-20.1-30.3 14.6-0.1 11.4 19.8 11.7-19.9 13.9-0.1-19.8 30.5 0.1 22.6-11.7 0.1-0.1-22.6zm34.7-30.6 19.7-0.1c2.6 0 5.2 0.2 7.8 0.7 2.3 0.4 4.5 1.3 6.4 2.5s3.4 2.9 4.4 4.9c1.2 2.4 1.7 5.1 1.7 7.8 0.1 2.7-0.4 5.3-1.5 7.8-0.9 2-2.3 3.7-4.1 5-1.9 1.3-4 2.2-6.2 2.7-2.6 0.6-5.2 0.8-7.8 0.8h-8.6l0.1 20.7-11.7 0.3-0.2-53.1zm11.8 22.4h7.8c1 0 2-0.1 3-0.3 0.9-0.2 1.8-0.5 2.6-1s1.4-1.2 1.9-2c0.5-1 0.7-2 0.7-3.1 0-1.2-0.3-2.3-1-3.3-0.6-0.8-1.5-1.5-2.4-1.9-1-0.5-2.1-0.7-3.3-0.8-1.1-0.1-2.3-0.2-3.5-0.2h-6l0.2 12.6zm35.1-22.7 36.1-0.2 0.1 10.8-24.4 0.1 0.1 9.9 23-0.1 0.1 10.8-23 0.1 0.1 10.8 25.7-0.1 0.1 10.8-37.4 0.2-0.5-53.1zm46.1-0.2 20.6-0.1c2.6 0 5.2 0.2 7.7 0.7 2.3 0.5 4.4 1.3 6.4 2.6 1.9 1.2 3.4 2.9 4.4 4.9 1.2 2.4 1.7 5.1 1.7 7.7 0.1 3.4-0.9 6.8-2.9 9.6-2.1 2.7-5.1 4.5-8.5 5l13.6 22.3-14 0.1-11.2-21.2h-5.8l0.1 21.2-11.7 0.1-0.4-52.9zm11.8 21.9h6.9c1.1 0 2.2-0.1 3.3-0.1 1.1-0.1 2.2-0.3 3.2-0.7 0.9-0.4 1.7-1 2.4-1.8 0.7-1 1-2.2 0.9-3.4 0.1-1.1-0.2-2.3-0.8-3.2-0.5-0.8-1.3-1.4-2.1-1.8-0.9-0.4-1.9-0.7-2.9-0.8-1.1-0.1-2.1-0.2-3.2-0.2h-7.7v12zm36.5-22.2 11.7-0.1 0.2 42.3 21.7-0.1 0.1 10.8-33.4 0.2-0.3-53.1zm39.5-0.2 36.1-0.2 0.1 10.8-24.4 0.1 0.1 9.9 23-0.1 0.1 10.8-23 0.1 0.1 10.8 25.6-0.1 0.1 10.8-37.5 0.2-0.3-53.1zm46.1-0.2 17.6-0.1c4.1 0 8.2 0.4 12.1 1.4 3.6 0.8 7 2.4 10 4.6 2.9 2.2 5.2 5 6.8 8.2 1.8 3.9 2.7 8.1 2.6 12.4 0.1 3.9-0.7 7.8-2.4 11.4-1.5 3.2-3.8 6-6.5 8.3-2.8 2.3-6 4-9.5 5.1-3.7 1.2-7.5 1.8-11.3 1.8l-19.1 0.1-0.3-53.2zm11.9 42.2h6.1c2.5 0 5.1-0.3 7.5-0.9 2.2-0.5 4.2-1.4 6-2.8 1.7-1.3 3.1-3.1 4-5 1-2.4 1.5-5 1.4-7.6 0-2.3-0.5-4.7-1.5-6.8-0.9-1.9-2.3-3.5-4-4.7-1.8-1.3-3.7-2.2-5.8-2.8-2.3-0.6-4.6-0.9-7-0.9h-6.9l0.2 31.5zm92.6 6.6c-3.4 1.8-7 3.1-10.8 4-3.8 0.8-7.6 1.2-11.5 1.3s-7.8-0.6-11.5-1.9c-3.4-1.2-6.5-3.1-9.1-5.5-2.6-2.5-4.7-5.5-6-8.8-1.5-3.7-2.2-7.6-2.2-11.5-0.1-4 0.6-7.9 2.1-11.6 1.3-3.3 3.3-6.3 5.9-8.8s5.7-4.4 9-5.6c3.7-1.4 7.6-2 11.5-2 4-0.1 7.9 0.4 11.7 1.5 3.5 1 6.8 2.8 9.4 5.2l-8.2 9c-1.5-1.6-3.4-2.9-5.4-3.7-2.4-0.9-4.9-1.3-7.5-1.2-2.3 0-4.6 0.4-6.8 1.3-2 0.8-3.7 2-5.2 3.6s-2.6 3.4-3.3 5.5c-1.5 4.4-1.5 9.3 0.1 13.7 0.7 2 1.9 3.8 3.4 5.4 1.5 1.5 3.3 2.7 5.2 3.5 2.2 0.9 4.5 1.3 6.8 1.2 2.2 0 4.5-0.3 6.6-0.9 1.5-0.5 3-1 4.4-1.8v-8.6h-9.5v-11l20.8-0.1 0.1 27.8zm9.8-49.4 36.1-0.2 0.1 10.8-24.4 0.1 0.1 9.9 23-0.1 0.1 10.8-23 0.1 0.1 10.8 25.7-0.1 0.1 10.8-37.4 0.2-0.5-53.1zm46-0.2 20.6-0.1c2.6 0 5.2 0.2 7.7 0.7 2.3 0.5 4.4 1.3 6.4 2.6 1.9 1.2 3.4 2.9 4.4 4.9 1.2 2.4 1.7 5.1 1.7 7.8 0.1 3.4-0.9 6.8-2.9 9.6-2.1 2.7-5.1 4.5-8.5 5l13.6 22.3-14 0.1-11.2-21.2h-5.8l0.1 21.2-11.8 0.1-0.3-53zm11.8 21.9h6.9c1.1 0 2.2 0 3.3-0.1s2.2-0.3 3.2-0.7c0.9-0.4 1.7-1 2.4-1.8 0.7-1 1-2.2 0.9-3.4 0-1.1-0.2-2.3-0.8-3.2-0.5-0.8-1.3-1.4-2.1-1.8-0.9-0.4-1.9-0.7-2.9-0.8-1.1-0.1-2.1-0.2-3.2-0.2h-7.7v12z"/>
<path class="st0" d="m291.4 100.9h14.1v103.7h-14.1v-103.7zm36.9 0h36.5c26.5 0 33.3 16 33.3 29 0 13.2-9.8 25.6-25.5 27.4l29.4 47.3h-17.6l-26.4-45.7h-15.7v45.7h-14.1v-103.7zm14 45.7h18.5c11.1 0 22.3-2.6 22.3-16.7s-11.1-16.7-22.3-16.7h-18.5v33.4zm65.1 6.2c0-30.8 22.4-54.5 54.1-54.5 31.6 0 54.1 23.7 54.1 54.5s-22.4 54.5-54.1 54.5c-31.6 0-54.1-23.8-54.1-54.5zm93.2 0c0-22.7-15.4-41.3-39.1-41.3s-39.1 18.6-39.1 41.3 15.4 41.3 39.1 41.3 39.1-18.6 39.1-41.3zm31.9-51.9h14.1v43.1h53.8v-43.1h14.1v103.7h-14.1v-47.5h-53.8v47.5h-14.1v-103.7zm138.4 0h12.7l44.4 103.7h-16.4l-10.3-25.6h-49.4l-10.3 25.6h-16.4l45.7-103.7zm25.2 65.8-19.3-47.6h-0.3l-19.6 47.6h39.2z"/>
<g class="st1">
	<path class="st8" d="m172.5 78.3c-5.4 0-9.7-4.4-9.7-9.7h-30.4c-5.4 0-9.7-4.4-9.7-9.7s4.4-9.7 9.7-9.7h73.6c-20.4-29.5-54.4-48.8-93-48.8-53.5-0.1-98.2 36.9-110 86.8h94.3c5.4 0 9.7 4.4 9.7 9.7s-4.4 9.7-9.7 9.7h-30.4c0 5.4-4.4 9.7-9.7 9.7h-57.2c0.1 4.9 0.6 9.7 1.3 14.4h0.1c34.4 6.3 73.6 9.8 115.1 9.8 38.7 0 75.3-3.1 107.9-8.6 1-6.1 1.5-12.3 1.5-18.7 0-12.2-1.9-24-5.5-35h-40.2l-7.7 0.1z"/>
	<path class="st8" d="m42.5 191v10.6c19.3 15.4 43.8 24.7 70.5 24.7s51.2-9.2 70.5-24.7v-10.6h-141z"/>
	<path class="st8" d="m19.7 177.1h81.6v-13.4c-28.9 0.2-56.6 1.1-82.1 2.6v10c0.1 0.3 0.3 0.5 0.5 0.8"/>
	<path class="st8" d="m206.3 177.1c0.2-0.2 0.3-0.5 0.5-0.7v-10c-25.5-1.5-53.2-2.4-82.1-2.6v13.4l81.6-0.1z"/>
</g>
<g transform="translate(-532 -1231)">
	<g transform="translate(0 900)">
		<g transform="translate(532 331)">
			<path class="st9" d="m768.7 175.2c7.8 0.9 15.4 2.7 22.9 5.5l-1.6 4.3c-4-1.7-7.9-3.1-12.2-3.8-3.5-0.9-7.2-1.5-10.8-2l1.7-4zm2.7-9.7c6.1 0.8 12 2.1 17.8 4l-1.4 4.3c-3-1.2-6.3-2.1-9.5-2.7-2.9-0.6-5.8-1.2-8.7-1.5l1.8-4.1zm0.5-9.5c6.3 0.8 12.5 2 18.6 3.7l-1.4 4.3c-6.1-2-12.4-3.4-18.8-4l1.6-4z"/>
			<path class="st9" d="m800.1 158.6c1.8 3.2 3.2 6.7 4.3 10.4l-4.3 1.4c-0.9-3.7-2.1-7.2-4-10.5l4-1.3zm24.9 0.2c-0.5 1.1-0.8 2.3-0.9 3.4-2.4 11.4-8.1 18.5-18.6 23.6-0.8-1.5-1.8-2.9-3.1-4 3.7-1.4 7-3.4 9.9-6.1 2.7-2.7 4.9-5.9 6.1-9.8 1.1-2.6 1.7-5.5 1.8-8.4l4.8 1.3zm-15.8-1.9c1.8 3.2 3.2 6.6 4.3 10.1l-4.3 1.4c-0.9-3.5-2.1-7-4-10.2l4-1.3z"/>
		</g>
	</g>
</g>
<path class="st9" d="m612.1 81.4v65.2h-11.4v-52.3l-16.6 38.9h-12.2l-16.5-38.8v52.2h-10.5v-65.2h15.5l17.2 40.3h1.6l17.1-40.3h15.8z"/>
<path class="st9" d="m629.3 81.4h11.5v65.2h-11.5v-65.2z"/>
<path class="st9" d="m701.3 91.6h-19.1v55h-11.5v-55h-19.1v-10.2h49.8l-0.1 10.2z"/>
<path class="st9" d="m705.6 127.1h11.3c0 5.5 4 11.2 15.1 11.2 10.1 0 14.8-4.7 14.8-10.5 0-4.8-4.1-8-12.5-8.8l-6.2-0.5c-12.2-1-20.1-8-20.1-18.7 0-12.2 9.3-20.2 23.5-20.2 14.4 0 23.7 8.1 23.7 20.7h-11.3c0-5.4-3.9-10.6-12.3-10.6-8.3 0-12.2 4.7-12.2 10.1 0 4.3 3.1 7.9 9.8 8.4l6.2 0.5c13.8 1.3 22.9 7.8 22.9 19 0 12.2-10.3 20.6-26.2 20.6-17.1 0-26.5-8.9-26.5-21.2z"/>
<path class="st9" d="m769.5 120.5v-39h11.5v39.8c0 9.9 5.8 16.3 16.3 16.3 10.4 0 16.2-6.3 16.2-16.3v-39.9h11.5v39c0 16.8-9.6 27.9-27.7 27.9s-27.8-11-27.8-27.8z"/>
<path class="st10" d="m43.9 112.9v-18.6h59.8v-19.1h-59.8v-18.5h138.2v18.6h-59.8v19.1h59.8v18.6h-59.8l60.1 89.4c26.6-20.7 43.7-53 43.7-89.3 0-62.5-50.6-113.1-113-113.1-62.5 0-113.1 50.6-113.1 113.1 0 36.3 17.1 68.6 43.7 89.3l60.1-89.4c0-0.1-59.9-0.1-59.9-0.1z"/>
<path class="st10" d="m59.2 212.5c16 8.7 34.3 13.6 53.8 13.6s37.8-4.9 53.8-13.6l-53.8-80.2-53.8 80.2z"/>
</svg>
