<svg width="14" height="14" viewBox="0 0 14 14" fill="none" xmlns="http://www.w3.org/2000/svg">
<path d="M6.99812 3.40832C5.01056 3.40832 3.40651 5.01241 3.40651 7C3.40651 8.98759 5.01056 10.5917 6.99812 10.5917C8.98567 10.5917 10.5897 8.98759 10.5897 7C10.5897 5.01241 8.98567 3.40832 6.99812 3.40832ZM6.99812 9.33433C5.71277 9.33433 4.66383 8.28537 4.66383 7C4.66383 5.71463 5.71277 4.66567 6.99812 4.66567C8.28346 4.66567 9.3324 5.71463 9.3324 7C9.3324 8.28537 8.28346 9.33433 6.99812 9.33433ZM10.7368 2.42416C10.2728 2.42416 9.89802 2.79891 9.89802 3.26297C9.89802 3.72704 10.2728 4.10179 10.7368 4.10179C11.2009 4.10179 11.5756 3.72879 11.5756 3.26297C11.5758 3.15278 11.5542 3.04364 11.5121 2.94181C11.47 2.83998 11.4082 2.74745 11.3303 2.66953C11.2523 2.59161 11.1598 2.52983 11.058 2.48773C10.9562 2.44562 10.847 2.42402 10.7368 2.42416ZM13.9992 7C13.9992 6.03335 14.008 5.07545 13.9537 4.11055C13.8994 2.98979 13.6437 1.99512 12.8242 1.17556C12.0029 0.35426 11.01 0.100338 9.88927 0.0460516C8.92263 -0.00823506 7.96475 0.000520879 6.99987 0.000520879C6.03323 0.000520879 5.07536 -0.00823506 4.11047 0.0460516C2.98973 0.100338 1.99508 0.356011 1.17554 1.17556C0.354253 1.99687 0.100336 2.98979 0.0460508 4.11055C-0.00823491 5.0772 0.00052087 6.0351 0.00052087 7C0.00052087 7.9649 -0.00823491 8.92455 0.0460508 9.88945C0.100336 11.0102 0.356004 12.0049 1.17554 12.8244C1.99683 13.6457 2.98973 13.8997 4.11047 13.9539C5.07711 14.0082 6.03499 13.9995 6.99987 13.9995C7.9665 13.9995 8.92438 14.0082 9.88927 13.9539C11.01 13.8997 12.0047 13.644 12.8242 12.8244C13.6455 12.0031 13.8994 11.0102 13.9537 9.88945C14.0097 8.92455 13.9992 7.96665 13.9992 7ZM12.4582 11.1293C12.3304 11.448 12.1763 11.6862 11.9294 11.9313C11.6824 12.1782 11.446 12.3324 11.1273 12.4602C10.2062 12.8262 8.01904 12.7439 6.99812 12.7439C5.9772 12.7439 3.78826 12.8262 2.86715 12.4619C2.54844 12.3341 2.31029 12.18 2.06513 11.9331C1.81822 11.6862 1.66411 11.4498 1.53628 11.131C1.17204 10.2082 1.25434 8.02094 1.25434 7C1.25434 5.97906 1.17204 3.79008 1.53628 2.86896C1.66411 2.55024 1.81822 2.31208 2.06513 2.06692C2.31204 1.82175 2.54844 1.6659 2.86715 1.53806C3.78826 1.17381 5.9772 1.25612 6.99812 1.25612C8.01904 1.25612 10.208 1.17381 11.1291 1.53806C11.4478 1.6659 11.6859 1.82 11.9311 2.06692C12.178 2.31383 12.3321 2.55024 12.46 2.86896C12.8242 3.79008 12.7419 5.97906 12.7419 7C12.7419 8.02094 12.8242 10.2082 12.4582 11.1293Z" fill="#FF758E"/>
</svg>
