<?xml version="1.0" encoding="utf-8"?>
<!-- Generator: Adobe Illustrator 24.3.0, SVG Export Plug-In . SVG Version: 6.00 Build 0)  -->
<svg version="1.1" id="Layer_1" xmlns="http://www.w3.org/2000/svg" xmlns:xlink="http://www.w3.org/1999/xlink" x="0px" y="0px"
	 viewBox="0 0 80 80" style="enable-background:new 0 0 80 80;" xml:space="preserve">
<style type="text/css">
	.st0{fill:#FFFFFF;}
</style>
<g>
	<path class="st0" d="M79.6,61.3c0-4.6-16-8.3-36.2-8.6c2.9-6.4,9-10.3,16.6-11.1c8.5-1,17.3-1.3,19.2-1.3c0.2,0,0.3-0.2,0.3-0.3
		l0,0c0-0.2-0.2-0.3-0.3-0.3c-2,0-10.6-0.3-19.2-1.3C49.9,37,42.6,30.6,41.6,20.1c-1-9.3-1.1-16.9-1.1-18.9c0-0.3-0.2-0.5-0.5-0.5
		s-0.5,0.2-0.5,0.5c0,2-0.2,9.6-1.1,18.9C37.2,30.6,30,37,19.9,38.3c-8.5,1-17.3,1.3-19.2,1.3c-0.2,0-0.3,0.2-0.3,0.3l0,0
		c0,0.2,0.2,0.3,0.3,0.3c2,0,10.6,0.3,19.2,1.3c7.7,1,13.5,4.7,16.6,11.1C16.4,53,0.4,56.7,0.4,61.3c0,4.7,17.3,8.6,38.8,8.8
		c0.2,4.2,0.3,7.3,0.3,8.5c0,0.3,0.2,0.5,0.5,0.5s0.5-0.2,0.5-0.5c0-1.1,0.2-4.2,0.3-8.5C62.1,69.9,79.6,66,79.6,61.3z M8.4,59.3
		c0-2.9,12.5-5.2,28.5-5.5c0.7,1.8,1.1,3.7,1.3,5.9c0.2,1.8,0.3,3.6,0.5,5.4C21.9,64.9,8.4,62.4,8.4,59.3z M41,64.9
		c0.2-1.6,0.3-3.4,0.5-5.4c0.2-2.1,0.7-4.1,1.3-5.9c16,0.3,28.5,2.6,28.5,5.5C71.3,62.4,57.9,64.9,41,64.9z"/>
</g>
</svg>
