<svg width="17" height="14" viewBox="0 0 17 14" fill="none" xmlns="http://www.w3.org/2000/svg">
<path d="M4.79119 13.9946C6.18681 14.0379 7.57764 13.8214 8.88146 13.358C10.1853 12.8945 11.3757 12.1936 12.3822 11.2964C13.3888 10.3993 14.1912 9.32428 14.7419 8.13485C15.2926 6.94542 15.5805 5.66574 15.5885 4.37143C16.2281 3.6378 16.703 2.79308 16.9854 1.8869C17.0064 1.81531 17.0047 1.73959 16.9805 1.66887C16.9562 1.59815 16.9104 1.53544 16.8485 1.4883C16.7867 1.44115 16.7115 1.41158 16.6319 1.40314C16.5524 1.3947 16.4719 1.40776 16.4002 1.44074C16.0656 1.59003 15.6889 1.63825 15.3231 1.57861C14.9574 1.51898 14.6211 1.35448 14.3615 1.1083C14.0302 0.771995 13.6294 0.500755 13.1829 0.310651C12.7364 0.120547 12.2533 0.015447 11.7622 0.00157833C11.2711 -0.0122903 10.782 0.0653546 10.3238 0.229912C9.86567 0.39447 9.44781 0.642592 9.09501 0.959578C8.61196 1.3932 8.25815 1.93527 8.06796 2.53312C7.87777 3.13096 7.85767 3.76425 8.00962 4.37143C4.84782 4.54639 2.67703 3.15541 0.940403 1.24827C0.888232 1.19351 0.819985 1.15401 0.743997 1.13461C0.668009 1.1152 0.587569 1.11672 0.512499 1.13899C0.437429 1.16125 0.370979 1.2033 0.321263 1.25999C0.271547 1.31668 0.240717 1.38557 0.232538 1.45823C-0.0983001 3.15928 0.140354 4.91343 0.916447 6.48508C1.69254 8.05674 2.9689 9.37063 4.57411 10.2503C3.49781 11.3944 1.98635 12.109 0.355235 12.2449C0.267848 12.2584 0.18718 12.2968 0.124519 12.3548C0.0618582 12.4128 0.0203416 12.4876 0.00577916 12.5686C-0.00878327 12.6496 0.0043375 12.7327 0.0433051 12.8065C0.0822727 12.8802 0.145137 12.9408 0.2231 12.9798C1.64215 13.6371 3.20485 13.9843 4.79119 13.9946Z" fill="#00C2FF"/>
</svg>
