<svg width="26" height="26" viewBox="0 0 26 26" fill="none" xmlns="http://www.w3.org/2000/svg">
<path fill-rule="evenodd" clip-rule="evenodd" d="M26 13C26 18.7423 22.2515 23.6074 17.1472 25.362C16.5092 25.5215 16.2699 25.1227 16.2699 24.7239C16.2699 24.3252 16.2699 22.8896 16.2699 21.135C16.2699 19.9387 15.8712 19.1411 15.3926 18.7423C18.2638 18.4233 21.2945 17.3067 21.2945 12.362C21.2945 10.9264 20.816 9.80982 19.9387 8.85276C20.0982 8.53374 20.4969 7.17791 19.7791 5.42331C19.7791 5.42331 18.6626 5.10429 16.1902 6.77914C15.1534 6.46012 14.0368 6.38037 12.9202 6.38037C11.8037 6.38037 10.6871 6.53988 9.65031 6.77914C7.25767 5.02454 6.1411 5.42331 6.1411 5.42331C5.42331 7.17791 5.90184 8.53374 6.06135 8.85276C5.2638 9.73006 4.70552 10.9264 4.70552 12.362C4.70552 17.3067 7.7362 18.4233 10.6074 18.8221C10.2086 19.1411 9.88957 19.6994 9.80982 20.5767C9.09202 20.8957 7.17791 21.454 6.06135 19.4601C6.06135 19.4601 5.34356 18.184 4.06748 18.1043C4.06748 18.1043 2.79141 18.1043 3.98773 18.9018C3.98773 18.9018 4.86503 19.3006 5.42331 20.816C5.42331 20.816 6.22086 23.3681 9.80982 22.5706C9.80982 23.6871 9.80982 24.4847 9.80982 24.8037C9.80982 25.1227 9.57055 25.5215 8.93252 25.4417C3.74847 23.6074 0 18.7423 0 13C0 5.82209 5.82209 0 13 0C20.1779 0 26 5.82209 26 13Z" fill="#D5CDD0"/>
</svg>
