<svg width="26" height="15" viewBox="0 0 26 15" fill="none" xmlns="http://www.w3.org/2000/svg">
<path d="M14.674 7.38447C14.674 11.4685 11.3973 14.7689 7.33699 14.7689C3.27671 14.7689 0 11.4685 0 7.38447C0 3.30046 3.27671 0 7.33699 0C11.3973 0 14.674 3.30046 14.674 7.38447ZM22.6995 7.38447C22.6995 11.231 21.0612 14.3416 19.0429 14.3416C17.0247 14.3416 15.3863 11.231 15.3863 7.38447C15.3863 3.5379 17.0247 0.427397 19.0429 0.427397C21.0612 0.427397 22.6995 3.5379 22.6995 7.38447ZM26 7.38447C26 10.8274 25.4301 13.6055 24.7178 13.6055C24.0055 13.6055 23.4356 10.8274 23.4356 7.38447C23.4356 3.94155 24.0055 1.16347 24.7178 1.16347C25.4301 1.16347 26 3.94155 26 7.38447Z" fill="#D5CDD0"/>
</svg>
