<svg width="26" height="26" viewBox="0 0 26 26" fill="none" xmlns="http://www.w3.org/2000/svg">
<path d="M9.97219 15.606C9.24913 15.606 8.67671 15.0336 8.67671 14.3105C8.67671 13.5875 9.24913 13.0151 9.97219 13.0151C10.6952 13.0151 11.2677 13.5875 11.2677 14.3105C11.2677 15.0336 10.6952 15.606 9.97219 15.606ZM15.7265 17.4137C14.9432 17.9861 13.9791 18.2572 13.0151 18.197C12.051 18.2572 11.0869 17.956 10.3036 17.3835C10.1831 17.263 9.97219 17.263 9.85168 17.3835C9.70104 17.5041 9.67092 17.7149 9.79143 17.8656C10.7254 18.5585 11.8401 18.92 13.0151 18.8598C14.1599 18.92 15.3048 18.5585 16.2387 17.8656V17.9258C16.3893 17.7752 16.3893 17.5643 16.2387 17.4137C16.0881 17.263 15.847 17.263 15.7265 17.4137ZM26 13.0151C26 20.1854 20.1854 26 13.0151 26C5.84473 26 0 20.1854 0 13.0151C0 5.84473 5.8146 0 13.0151 0C20.2155 0 26 5.8146 26 13.0151ZM21.6616 13.0151C21.6315 11.9606 20.7578 11.1472 19.7034 11.1773C19.2514 11.2074 18.7995 11.3882 18.4681 11.6895C16.9919 10.6952 15.2445 10.1228 13.467 10.0927L14.3105 6.02549L17.0823 6.59791C17.1727 7.32097 17.8053 7.83314 18.5284 7.74276C19.2514 7.65238 19.7636 7.0197 19.6732 6.29664C19.5829 5.57358 18.9502 5.06141 18.2271 5.1518C17.8053 5.18192 17.4438 5.42294 17.2329 5.78447L14.0394 5.1518C13.8285 5.09154 13.6176 5.24218 13.5574 5.45307L12.5933 9.97219C10.7856 10.0023 9.00811 10.5446 7.53187 11.5689C6.77868 10.8459 5.57358 10.876 4.85052 11.6593C4.12746 12.4125 4.15759 13.6176 4.9409 14.3407C5.09154 14.4913 5.27231 14.6118 5.45307 14.6721C5.45307 14.8528 5.45307 15.0637 5.45307 15.2445C5.45307 18.1669 8.85747 20.5168 13.0452 20.5168C17.2329 20.5168 20.6373 18.1367 20.6373 15.2445C20.6373 15.0637 20.6373 14.8528 20.6373 14.6721C21.27 14.4009 21.6918 13.7381 21.6616 13.0151ZM15.9977 13.0452C15.2746 13.0452 14.7022 13.6176 14.7022 14.3407C14.7022 15.0637 15.2746 15.6362 15.9977 15.6362V15.6964C16.0278 15.6964 16.0278 15.6964 16.0579 15.6964C16.781 15.6663 17.3233 15.0637 17.2932 14.3407C17.2932 13.6477 16.7207 13.0452 15.9977 13.0452Z" fill="#D5CDD0"/>
</svg>
