<svg width="26" height="26" viewBox="0 0 26 26" fill="none" xmlns="http://www.w3.org/2000/svg">
<path d="M20.6971 23.4775C23.9131 21.1109 26 17.2993 26 13.0001C26 5.82046 20.1798 0 12.9999 0C5.82022 0 0 5.82046 0 13.0001C0 17.2993 2.08692 21.1111 5.30299 23.4776L11.9459 12.9734H5.14876V10.7342H11.9459V8.42969H5.14876V6.19048H20.8513V8.42969H14.0555V10.7342H20.8513V12.9734H14.0555L20.6971 23.4775Z" fill="#D5CDD0"/>
<path d="M18.8694 24.6027L12.9999 15.3171L7.13046 24.6027C8.89362 25.4964 10.888 26 12.9999 26C15.1119 26 17.1063 25.4964 18.8694 24.6027Z" fill="#D5CDD0"/>
</svg>
