<svg width="26" height="23" viewBox="0 0 26 23" fill="none" xmlns="http://www.w3.org/2000/svg">
<path fill-rule="evenodd" clip-rule="evenodd" d="M1.80995 9.7835C8.79718 6.73274 13.4553 4.7317 15.7844 3.74758C22.4436 0.992058 23.8214 0.5 24.7071 0.5C24.9039 0.5 25.3631 0.532804 25.6256 0.762431C25.8552 0.959254 25.9208 1.22169 25.9536 1.41851C25.9864 1.61533 26.0192 2.04178 25.9864 2.36982C25.6256 6.14227 24.0838 15.3274 23.2637 19.5591C22.9357 21.3633 22.2796 21.9537 21.6235 22.0194C20.2457 22.1506 19.1632 21.1008 17.8182 20.2151C15.7188 18.8374 14.5379 17.9845 12.4712 16.6395C10.1093 15.0977 11.6511 14.212 12.9961 12.8343C13.3569 12.4734 19.4584 6.89676 19.5897 6.4047C19.5897 6.33909 19.6225 6.10947 19.4912 5.97825C19.36 5.84703 19.1304 5.91264 18.9992 5.94545C18.8024 5.97825 15.4236 8.20891 8.89559 12.6046C7.94427 13.2607 7.09137 13.5888 6.30408 13.5559C5.45118 13.5231 3.81098 13.0639 2.59724 12.6702C1.08826 12.1782 -0.0926788 11.9158 0.00573292 11.0957C0.104145 10.6692 0.694615 10.21 1.80995 9.7835Z" fill="#D5CDD0"/>
</svg>
