<svg width="26" height="22" viewBox="0 0 26 22" fill="none" xmlns="http://www.w3.org/2000/svg">
<path d="M23.3377 5.25064C23.3482 5.48307 23.3482 5.70493 23.3482 5.93735C23.3482 12.9841 17.9813 21.119 8.1666 21.119C5.28241 21.119 2.44047 20.2949 0 18.7208C0.422592 18.7736 0.845185 18.7947 1.26778 18.7947C3.66599 18.7947 6.00081 17.9918 7.89191 16.5022C5.60991 16.4599 3.6026 14.9703 2.90532 12.7939C3.70825 12.9524 4.5323 12.9207 5.3141 12.6988C2.83137 12.2129 1.04592 10.0259 1.04592 7.49038C1.04592 7.46925 1.04592 7.44812 1.04592 7.42699C1.78545 7.83902 2.62007 8.07145 3.46526 8.09258C1.11987 6.51842 0.390898 3.4018 1.80658 0.96133C4.52174 4.29981 8.51524 6.31769 12.8046 6.53955C12.3714 4.69071 12.963 2.74678 14.347 1.44731C16.4917 -0.570567 19.8724 -0.464919 21.8903 1.67974C23.0841 1.44731 24.2251 1.00359 25.2816 0.380265C24.8801 1.61635 24.0455 2.66226 22.9362 3.32785C23.9927 3.20107 25.028 2.91582 26 2.48266C25.2922 3.56027 24.3836 4.48998 23.3377 5.25064Z" fill="#D5CDD0"/>
</svg>
