<svg width="372" height="372" viewBox="0 0 372 372" fill="none" xmlns="http://www.w3.org/2000/svg">
<path d="M371.548 186.432L186 371.981L0.452393 186.432H65.3941L186 307.039L306.606 186.432H371.548Z" fill="#479AEF"/>
<path d="M347.639 276.862C345.561 280.571 343.357 284.199 341.036 287.745L186 75.102L30.967 287.745C28.6456 284.199 26.4417 280.571 24.3635 276.862L185.786 1.24927C185.858 1.24927 185.928 1.24927 186 1.24927C186.072 1.24927 186.143 1.24927 186.215 1.24927L347.639 276.864V276.862Z" fill="#479AEF"/>
<path d="M186 75.1021C165.505 75.1021 148.89 58.4872 148.89 37.9923C148.89 17.4973 165.505 0.882446 186 0.882446C206.495 0.882446 223.109 17.4973 223.109 37.9923C223.109 58.4872 206.495 75.1021 186 75.1021Z" fill="#479AEF"/>
<path d="M186.103 43.1464L200.897 65.2061C196.376 67.474 191.445 68.9171 186.103 68.9171C180.761 68.9171 175.624 67.6801 171.309 65.2061L186.103 43.1464ZM186.103 7.06738C168.843 7.06738 155.075 20.8805 155.075 37.9923C155.075 48.0944 159.596 56.7533 166.994 62.526L183.431 37.9923H167.198V32.8381H183.635V27.684H167.198V22.5298H205.006V27.684H188.569V32.8381H205.006V37.9923H188.569L205.006 62.526C212.403 56.7533 216.924 48.0944 216.924 37.9923C216.924 20.8805 202.953 7.06738 186.103 7.06738Z" fill="white"/>
<path d="M224.398 149.142V162.234H229.294V171.637H224.398V184.636H204.068V189.06H225.6V197.911H204.068V202.428H227.171V211.738H204.068V217.086H228.371L227.818 227.042H203.145C192.424 227.042 183.738 226.304 177.085 224.83C170.43 223.356 164.794 220.773 160.174 217.086C156.663 221.696 152.626 225.506 148.068 228.518L142.708 219.115C146.897 215.919 150.224 212.693 152.688 209.436C149.977 205.995 147.173 201.416 144.278 195.699L152.041 188.6C154.197 193.025 156.259 196.744 158.232 199.756C159.834 195.699 160.972 190.905 161.652 185.374H146.128V175.602C151.488 169.701 156.015 163.894 159.712 158.179H145.204V148.037H170.525V158.179C170.402 158.424 169.63 159.776 168.214 162.236H191.593V157.902H173.851V149.144H191.593V144.351H204.068V149.144H224.398V149.142ZM191.591 176.152V171.635H167.379V163.522C164.544 168.132 161.743 172.159 158.97 175.6H171.999V185.372C171.014 193.73 168.826 201.414 165.437 208.419C166.732 209.526 167.901 210.386 168.948 211V202.426H191.589V197.909H172.923V189.058H191.589V184.634H174.77V176.152H191.589H191.591ZM191.591 216.808V211.738H170.059C175.11 214.567 182.287 216.256 191.591 216.808ZM204.066 157.9V162.234H213.492V157.9H204.066ZM204.066 176.152H213.492V171.635H204.066V176.152Z" fill="#479AEF"/>
</svg>
