<svg width="224" height="209" viewBox="0 0 224 209" fill="none" xmlns="http://www.w3.org/2000/svg">
<path d="M112 0.533679C113.955 0.533679 115.829 1.02245 117.621 1.99999C119.413 2.97753 120.798 4.28091 121.775 5.91014L154.279 58.9416L213.908 71.1609C216.026 71.6496 218.063 72.7087 220.018 74.3379C222.299 76.4559 223.439 79.2256 223.439 82.647C223.439 85.9054 222.299 88.6751 220.018 90.956L176.518 134.701L184.094 195.064C184.256 195.553 184.338 196.123 184.338 196.775C184.338 200.033 183.116 202.803 180.672 205.084C178.391 207.365 175.703 208.505 172.607 208.505C170.978 208.505 169.512 208.179 168.208 207.528L112.244 183.089L56.2803 207.528C53.8364 208.505 51.7184 208.75 49.9263 208.261C46.6678 207.935 44.061 206.469 42.106 203.862C40.3138 201.092 39.5806 198.16 39.9065 195.064L47.4824 134.701L3.98193 90.956C3.16731 89.9785 2.02685 87.8605 0.56054 84.602C0.397617 84.1133 0.316155 83.3801 0.316155 82.4026C0.316155 79.6329 1.21223 77.189 3.00439 75.071C4.95947 72.7901 7.32185 71.4053 10.0915 70.9165L70.2102 58.6973L102.225 5.91014C104.668 2.32583 107.927 0.533679 112 0.533679Z" fill="#479AEF"/>
</svg>
