<svg width="260" height="263" viewBox="0 0 260 263" fill="none" xmlns="http://www.w3.org/2000/svg">
<path fill-rule="evenodd" clip-rule="evenodd" d="M92.9991 18.8913C75.0751 28.8609 54.5271 40.2635 47.3348 44.2313C19.5291 59.5755 3.6822 69.0878 2.1435 71.3591C-1.7534 77.1127 0.469667 87.5766 6.46975 91.7165C24.1649 103.929 124.808 157.564 130.028 157.564C134.95 157.564 246.783 97.6638 257.109 89.4996C261.13 86.3179 260.437 73.8461 256.019 69.9022C248.812 63.4693 134.612 0.768311 130.1 0.768311C127.616 0.768311 110.921 8.92387 92.9991 18.8913ZM6.65282 119.217C1.27171 121.887 -0.715965 128.566 1.38286 136.924C2.48568 141.31 73.8001 183.133 119.693 206.308C130.689 211.859 131.251 211.637 195.362 176.153C259.986 140.386 259.748 140.556 259.801 130.064C259.89 111.823 248.707 113.642 202.077 139.454C180.5 151.399 155.428 165.228 146.359 170.186L129.871 179.202L75.147 149.082C15.144 116.055 14.0173 115.563 6.65282 119.217ZM5.32117 171.844C-0.325843 175.796 -1.36109 188.085 3.54272 192.983C8.95652 198.394 125.835 262.095 130.346 262.095C132.74 262.095 142.992 257.367 153.131 251.59C163.27 245.81 188.238 231.936 208.616 220.755C257.928 193.701 260.249 191.927 259.408 181.931C258.905 175.944 257.29 173.226 252.739 170.698C245.684 166.78 247.271 166.055 174.834 206.35L130.155 231.204L115.988 223.405C108.197 219.118 98.8793 213.976 95.2832 211.981C8.30923 163.736 13.5574 166.077 5.32117 171.844Z" fill="#479AEF"/>
</svg>
