<svg width="16" height="16" viewBox="0 0 16 16" fill="none" xmlns="http://www.w3.org/2000/svg">
<path d="M14.2771 2.83993L9.72291 0.422776C8.65988 -0.140925 7.34011 -0.140925 6.27708 0.422776L1.72291 2.83993C0.659881 3.40424 0 4.45499 0 5.583V10.4173C0 11.5453 0.660538 12.5961 1.72291 13.1604L6.27708 15.5769C6.80827 15.8588 7.40446 16 8 16C8.59553 16 9.19172 15.8588 9.72291 15.5769L14.2771 13.1604C15.3401 12.5961 16 11.5453 16 10.4173V5.583C16.0007 4.45559 15.3401 3.40424 14.2771 2.83993ZM14.48 10.4173C14.48 11.0474 14.111 11.6346 13.5167 11.9503L8.96257 14.3668C8.36901 14.6819 7.63099 14.6819 7.03677 14.3668L2.4826 11.9503C1.88838 11.6352 1.51937 11.0474 1.51937 10.4173V5.583C1.51937 4.95291 1.88838 4.36567 2.4826 4.05002L7.03677 1.63286C7.33355 1.47534 7.66644 1.39627 7.99934 1.39627C8.33223 1.39627 8.66513 1.47534 8.96191 1.63286L13.5161 4.05002C14.1103 4.36506 14.4793 4.95291 14.4793 5.583V10.4173H14.48Z" fill="url(#paint0_linear_61_7371)"/>
<path d="M11.7034 5.19199L7.5471 7.40696C7.29497 7.54095 7.16102 7.78719 7.17087 8.03766C7.17021 8.04973 7.16693 8.06059 7.16693 8.07266V11.1314C7.16693 11.517 7.50705 11.8303 7.92727 11.8303C8.34684 11.8303 8.68762 11.5176 8.68762 11.1314V8.41668L12.4637 6.40328C12.8275 6.21015 12.9516 5.78285 12.7421 5.44849C12.532 5.11353 12.0665 4.99886 11.7034 5.19199Z" fill="url(#paint1_linear_61_7371)"/>
<defs>
<linearGradient id="paint0_linear_61_7371" x1="1.86213" y1="1.84133" x2="7.44536" y2="8.47224" gradientUnits="userSpaceOnUse">
<stop offset="0.1249" stop-color="#D274F7"/>
<stop offset="1" stop-color="#9A74F7"/>
</linearGradient>
<linearGradient id="paint1_linear_61_7371" x1="2.23964" y1="0.671434" x2="8.13205" y2="7.66956" gradientUnits="userSpaceOnUse">
<stop offset="0.1249" stop-color="#D274F7"/>
<stop offset="1" stop-color="#9A74F7"/>
</linearGradient>
</defs>
</svg>
