<svg xmlns="http://www.w3.org/2000/svg" width="48" height="48" fill="none" viewBox="0 0 48 48">
  <rect width="48" height="48" fill="#F2F2F2" rx="24"/>
  <path fill="#1B4ADD" d="M24.058 5.607c.103 0 .198.026.293.077l15.402 8.958c.181.103.293.293.284.499l-.06 17.82a.57.57 0 0 1-.293.499L24.23 42.314a.602.602 0 0 1-.586 0L8.243 33.357a.55.55 0 0 1-.284-.499l.06-17.82c0-.207.112-.396.293-.499l15.462-8.863a.66.66 0 0 1 .284-.069M24.068 3c-.552 0-1.102.138-1.593.422L7.021 12.276A3.18 3.18 0 0 0 5.42 15.03l-.06 17.82c0 1.137.603 2.186 1.583 2.762l15.402 8.958a3.18 3.18 0 0 0 3.184.01l15.454-8.855a3.18 3.18 0 0 0 1.601-2.753l.06-17.82a3.2 3.2 0 0 0-1.583-2.762L25.66 3.43A3.2 3.2 0 0 0 24.067 3"/>
  <path fill="#1B4ADD" d="M27.19 12.714h-2.254a.4.4 0 0 0-.38.267l-7.261 19.902c-.052.13.052.267.189.267h2.254a.4.4 0 0 0 .379-.267l7.262-19.902c.052-.129-.052-.267-.19-.267m-3.95 0h-2.254a.4.4 0 0 0-.378.267l-7.254 19.894c-.052.13.051.267.188.267h2.255a.4.4 0 0 0 .378-.267l7.255-19.894c.052-.129-.043-.267-.19-.267m2.927 7.71c-.06-.18-.32-.18-.38 0l-1.17 3.218a.4.4 0 0 0 0 .276l3.27 8.957a.41.41 0 0 0 .38.267h2.254c.137 0 .24-.138.188-.267zm8.484 12.451-6.514-17.863c-.06-.181-.319-.181-.378 0l-1.17 3.218a.4.4 0 0 0 0 .275l5.24 14.37a.41.41 0 0 0 .378.267h2.255a.193.193 0 0 0 .189-.267"/>
</svg>
