<?xml version="1.0" encoding="UTF-8"?>
<svg viewBox="0 0 1543 2499.2" xmlns="http://www.w3.org/2000/svg">
<defs>
<style>.cls-1{fill:#3ab83a;}.cls-2{fill:#0b8311;}.cls-3{fill:#146714;}</style>
</defs>
<title>e</title>
<g data-name="Layer 2">
<path class="cls-1" d="M0,1361.05c271.87,144.38,555.56,295.51,774.67,412.45L1543,1361.05c-278.2,413.29-510,757.36-768.33,1138.15C515.88,2119.25,230.08,1700,0,1361.05Zm29.55-114L775.51,849l736.25,395.14L775.93,1642.63ZM774.67,721.47,0,1129.28,771.29,0,1543,1131.81,774.67,721.47Z"/>
<path class="cls-2" d="M774.67,1773.5,1543,1361.05C1264.8,1774.34,774.67,2499.2,774.67,2499.2ZM775.51,849l736.25,395.14L775.93,1642.63,775.51,849Zm-.84-127.5L771.29,0,1543,1131.81Z"/>
<path class="cls-2" d="m29.55 1247.1 746 61.22 736.25-63.75-735.87 398.52z"/>
<path class="cls-3" d="m775.51 1308.3 736.25-63.75-735.83 398.52-0.42-334.77z"/>
</g>
</svg>
