<svg width="48" height="48" viewBox="0 0 48 48" fill="none" xmlns="http://www.w3.org/2000/svg">
<circle cx="24" cy="24" r="24" fill="white"/>
<path d="M23.9999 5.99991L34.9199 24.1199L23.9999 19.4399V5.99991Z" fill="#B8FBF6"/>
<path d="M13.0803 24.1199L23.9999 5.99991V19.4399L13.0803 24.1199Z" fill="#EECBC0"/>
<path d="M24.0003 30.8402L13.0803 24.1199L23.9999 19.4399L24.0003 30.8402Z" fill="#87A9F0"/>
<path d="M34.9199 24.1199L23.9999 19.4399L24.0003 30.8402L34.9199 24.1199Z" fill="#C9B3F5"/>
<path d="M23.9999 33.1201L34.9199 26.6401L23.9999 42.0001V33.1201Z" fill="#C9B3F5"/>
<path d="M23.9999 33.1201L13.0803 26.6401L18.5403 34.3201L23.9999 42.0001V33.1201Z" fill="#EECBC0"/>
<path d="M23.9999 5.99991L34.9199 24.1199M23.9999 5.99991V19.4399M23.9999 5.99991L13.0803 24.1199M34.9199 24.1199L23.9999 19.4399M34.9199 24.1199L24.0003 30.8402M23.9999 19.4399L13.0803 24.1199M23.9999 19.4399L24.0003 30.8402M13.0803 24.1199L24.0003 30.8402M23.9999 33.1201L34.9199 26.6401L23.9999 42.0001M23.9999 33.1201V42.0001M23.9999 33.1201L13.0803 26.6401L18.5403 34.3201L23.9999 42.0001" stroke="#125AF2"/>
</svg>
