<?xml version="1.0" encoding="UTF-8"?>
<svg enable-background="new 0 0 40 40" viewBox="0 0 40 40" xml:space="preserve" xmlns="http://www.w3.org/2000/svg"><linearGradient id="a" x1="7.1339" x2="30.75" y1="34.06" y2="11.924" gradientTransform="matrix(1 0 0 -1 0 42)" gradientUnits="userSpaceOnUse"><stop stop-color="#0360b6" offset="0"/><stop stop-color="#043a9c" offset="1"/></linearGradient><path d="M20 0c11 0 20 9 20 20s-9 20-20 20S0 31 0 20 9 0 20 0z" fill="url(#a)"/><path d="M30.5 7.3c-2.6 1.1-5.1 1.5-7.2 1.4-1.7-.1-2.8-.5-3-.6L20 8l-.2.1c-.3.1-1.3.5-3 .6-2.2.1-4.6-.3-7.2-1.4l-.8-.2v.8c0 .1 0 5.5.4 9.2.2 2.7 1.4 6.1 3.3 9.7 1 1.7 2 3.4 3.2 5.1 1.3 1.7 2.6 3.2 4 4.5l.3.3.3-.3c1.4-1.3 2.7-2.8 4-4.5 1.2-1.6 2.3-3.3 3.2-5.1 1.8-3.5 3-6.9 3.3-9.7.3-3.9.4-9.2.4-9.2v-.8c.2 0-.7.2-.7.2zM16.8 9.7c1.6-.1 2.7-.4 3.2-.6.5.2 1.6.6 3.2.6h.8c1.9 0 4-.4 6.1-1.2 0 1.6-.1 5.5-.3 8.5h-9.7v-.2c.1-.5.1-1 0-1.5 0-.1 0-.3-.1-.4 0-.2 0-.3.1-.5v-.1c.2 0 .2.1.2.2 0 .2 0 .3.2.4.2.2.4.2.8.2v-.2c.2 0 .3 0 .3-.1s0-.2-.1-.4h.1c.3.1.6-.1 1-.3.1-.1.1-.1 0-.2-.1-.2-.2-.3-.5-.3l.2-.2c.1-.1.1-.2.2-.2.1-.2.1-.2-.1-.4s-.5-.2-.9-.2h-.2c.1-.1.1-.2.2-.3.2-.3.1-.6 0-1 0-.1-.1-.1-.1-.1-.2 0-.4.1-.5.1 0 0-.1 0-.1.1 0-.2-.1-.4-.2-.5s-.1-.1-.2-.1c-.3.1-.5.2-.6.5 0-.2-.1-.3-.1-.4-.1-.2-.2-.4-.4-.5-.1-.1-.2-.1-.4 0s-.3.3-.4.6H18c-.1 0-.2 0-.2.2-.1.2-.1.5 0 .8-.2.1-.3.1-.5.2-.1 0-.1.1-.1.1 0 .3 0 .5.2.8-.2.1-.4.1-.5.3.1.3.3.6.8.8-.1.1-.3.2-.4.3s-.1.2 0 .3c.2.3.5.5 1 .5h.4c.1 0 .3-.1.3-.3 0-.1 0-.2.1-.3h.1c.3-.1.3-.1.5.2.1.1.1.2.1.4-.1.5-.1 1.1-.4 1.6 0 .2 0 .2-.4.2h-8.5c-.3-2.9-.3-6.9-.3-8.5 2.1.9 4.4 1.2 6.6 1.1zm8.1 13.8c-1.2 0-2.2-1-2.2-2.2 0-1.2 1-2.2 2.2-2.2 1.2 0 2.2 1 2.2 2.2 0 1.2-1 2.2-2.2 2.2zm-6.2 2s0 .1-.1.1c-.1.2-.3.3-.5.3-.2-.1-.5-.1-.8-.1-.1 0-.2 0-.3.1-.1.1-.2.1-.3 0-.1 0-.2.1-.3.1h-.2c-.1.1-.3 0-.3-.1-.1 0-.2.2-.4.1v-.2c-.2 0-.3.2-.5.2.1-.1.2-.3.3-.4-.1.1-.2.2-.3.2s-.2.1-.4.1l.4-.4c-.3.1-.6.4-1 .3.2-.1.3-.2.4-.3-.2 0-.4.2-.6.1.3-.2.8-.4 1.1-.6-.2-.1-.3 0-.4.1-.2.1-.4.1-.6.1.2-.1.4-.1.6-.2l.9-.3c.1 0 .2-.1.3-.1.3-.1.4-.3.6-.5.2-.2.5-.4.9-.4.1 0 .2 0 .3.1.1 0 .2.1.3.2v-.2c-.1-.1-.1-.2 0-.3.1-.1.2-.1.3-.1.1 0 .2.1.3.2.1 0 .2 0 .2-.1v-.4c-.1-.4.1-.9.5-1.1.3-.2.6-.5 1-.8l.6-.6c.1-.1.1-.1.2-.1-.1.2-.2.3-.3.5.3-.1.5-.3.9-.3-.1.1-.1.2-.2.2.1.1.2-.1.4 0 .1.1-.1.2-.1.3.1 0 .1.1.1.1 0 .1-.1.1-.1.2s-.1.1-.1.2c.1 0 .2 0 .4.1l-.3.2v.1c-.1.1-.2.2-.2.3 0 .1-.1.2-.2.3 0 .1 0 .1-.1.2 0 0 0 .1-.1.1-.2.1-.2.3-.2.5s0 .3-.1.5l-.1.1c-.1.1-.3.2-.4.3.5-.2 1-.4 1.5-.5.1.1.1.2.2.3v1.3c0 .1-.1.1-.1.2s-.1.1-.1.2c0 .2 0 .3-.2.3-.1.2-.2.3-.3.5H21c-.1 0-.2 0-.2.1s-.1.1-.1.1h-.1c-.1.2-.3.2-.4.3H20c-.1 0-.2-.1-.2 0-.1.1-.2 0-.2 0-.1-.1-.2-.1-.3 0H19c-.2-.1-.4-.1-.6-.2-.1-.1-.2-.1-.1-.2.1-.2.2-.5.2-.8.1-.2.1-.4.2-.6.1.2.1.1 0 .1zm1.2-11.9c.1 0 .2.1.3.1 0 .2-.1.3-.2.5 0-.2 0-.4-.1-.6zm-.2.9c-.1-.1-.2-.1-.3-.2-.1-.1-.2-.1-.2-.2 0 0 0-.1.1-.2s.2-.1.3 0v.1c.1 0 .1.2.1.5zm.3 20.8c-2.5-2.4-4.7-5.5-6.6-8.8h.1c.2 0 .3.1.5.1.3 0 .6.1 1 .1.2 0 .4 0 .6.1.4 0 .8-.1 1.1-.2.2-.1.5-.1.8-.1 0 .1 0 .2-.1.3-.2.4.1.9.5 1.1.2.1.5.2.8.3h.9c.2 0 .4 0 .6-.1.1 0 .3-.1.4-.2l1-.6c.1-.1.1-.1.1-.2.1-.1.1-.2.2-.2.2-.1.2-.3.3-.4.1-.2.1-.2.2-.2.8 0 1.5 0 2.2.1.3 0 .6 0 1.1.1.2 0 .4 0 .6.1-1.6 3.2-3.8 6.3-6.3 8.7z" fill="#fff"/></svg>
