<svg width="48" height="48" viewBox="0 0 48 48" fill="none" xmlns="http://www.w3.org/2000/svg">
<circle cx="24" cy="24" r="24" fill="#E6007A"/>
<path d="M24.0003 14.1318C27.3892 14.1318 30.1365 12.5353 30.1365 10.5659C30.1365 8.5965 27.3892 7 24.0003 7C20.6114 7 17.8641 8.5965 17.8641 10.5659C17.8641 12.5353 20.6114 14.1318 24.0003 14.1318Z" fill="white"/>
<path d="M24.0003 41C27.3892 41 30.1365 39.4035 30.1365 37.4341C30.1365 35.4647 27.3892 33.8682 24.0003 33.8682C20.6114 33.8682 17.8641 35.4647 17.8641 37.4341C17.8641 39.4035 20.6114 41 24.0003 41Z" fill="white"/>
<path d="M15.4491 19.0678C17.1435 16.1354 17.1325 12.9594 15.4245 11.974C13.7165 10.9887 10.9582 12.5671 9.2637 15.4995C7.56922 18.4319 7.58022 21.6079 9.28826 22.5932C10.9963 23.5786 13.7546 22.0002 15.4491 19.0678Z" fill="white"/>
<path d="M38.7343 32.5003C40.4288 29.5679 40.4187 26.3924 38.7118 25.4078C37.0049 24.4231 34.2476 26.002 32.5531 28.9344C30.8586 31.8668 30.8687 35.0423 32.5756 36.027C34.2825 37.0116 37.0398 35.4327 38.7343 32.5003Z" fill="white"/>
<path d="M15.4254 36.0261C17.1334 35.0408 17.1444 31.8648 15.4499 28.9324C13.7554 26 10.9972 24.4216 9.28913 25.4069C7.58109 26.3923 7.57009 29.5683 9.26456 32.5007C10.959 35.4331 13.7173 37.0115 15.4254 36.0261Z" fill="white"/>
<path d="M38.7132 22.594C40.4201 21.6093 40.4302 18.4339 38.7357 15.5015C37.0412 12.5691 34.2839 10.9901 32.577 11.9748C30.8701 12.9595 30.8601 16.1349 32.5545 19.0674C34.249 21.9998 37.0063 23.5787 38.7132 22.594Z" fill="white"/>
</svg>
