<svg width="625" height="625" viewBox="0 0 625 625" fill="none" xmlns="http://www.w3.org/2000/svg">
<path d="M445.713 156.157C399.222 169.278 330.652 196.686 267.81 252.868C204.667 311.681 247.528 364.133 247.994 364.665C247.994 364.665 224.849 322.437 280.831 270.385C281.53 269.786 352.965 208.708 456.87 179.402C470.124 175.672 483.512 172.542 496.666 170.177L497.566 170.011L514.284 143.168L510.187 143.468C509.921 143.468 483.812 145.433 445.713 156.157Z" fill="#5928B1"/>
<path d="M517.215 80.9589C506.525 72.0338 495.835 64.9736 495.701 64.907L495.069 64.5073L494.303 64.6072C494.003 64.6405 465.163 68.1706 425.466 79.3604C354.398 99.4087 258.819 140.471 207.066 222.396C182.489 259.595 202.27 304.121 202.27 304.121L201.671 292.798C201.604 291.599 198.207 171.543 446.813 101.44C468.56 95.3124 491.938 89.6509 516.283 84.6222L520.545 83.7563L517.215 80.9589Z" fill="#764BC4"/>
<path d="M532.268 96.6443C531.935 96.6776 499.23 100.108 453.673 112.963C405.451 126.55 335.248 152.926 274.604 201.315C238.837 228.79 216.223 261.959 212.526 292.298C210.695 307.118 228.246 338.523 228.246 338.523L224.55 327.366C224.383 326.867 208.698 276.013 288.125 217.001C332.617 183.931 378.974 161.318 434.023 145.799C462.397 137.807 489.573 132.545 519.646 126.983L520.711 126.783L521.177 125.818C523.441 120.989 534.265 99.9079 534.398 99.6748L536.164 96.2446L532.333 96.6443H532.268Z" fill="#764BC4"/>
<path d="M184.785 251.003C187.783 203.347 224.249 159.32 293.219 120.123C329.586 97.6435 370.215 79.993 414.009 67.671C451.141 57.2139 482.546 54.0834 482.546 54.0834L457.302 36C457.069 36 433.79 38.864 400.554 48.2221C187.316 108.367 160.874 211.939 163.238 253.567C167.368 326.167 253.756 377.787 253.756 377.787C253.756 377.787 180.323 322.004 184.785 251.003Z" fill="#BBA5E1"/>
<path d="M187.416 470.635C233.907 457.514 302.477 430.105 365.32 373.924C428.462 315.111 385.601 262.659 385.135 262.126C385.135 262.126 408.28 304.354 352.298 356.406C351.599 357.006 280.164 418.083 176.26 447.389C163.005 451.119 149.617 454.25 136.463 456.614L135.564 456.781L118.846 483.623L122.942 483.323C123.208 483.323 149.318 481.358 187.416 470.635Z" fill="#5928B1"/>
<path d="M115.916 545.832C126.606 554.758 137.296 561.818 137.43 561.884L138.062 562.284L138.828 562.184C139.128 562.151 167.968 558.621 207.665 547.431C278.733 527.383 374.312 486.32 426.065 404.395C450.643 367.196 430.861 322.67 430.861 322.67L431.46 333.993C431.527 335.192 434.924 455.249 186.318 525.351C164.571 531.479 141.193 537.14 116.849 542.169L112.586 543.035L115.916 545.832Z" fill="#764BC4"/>
<path d="M100.896 530.181C101.229 530.147 133.933 526.717 179.491 513.862C227.713 500.275 297.916 473.899 358.56 425.51C394.327 398.035 416.94 364.865 420.636 334.527C422.468 319.707 404.918 288.302 404.918 288.302L408.614 299.459C408.781 299.958 424.466 350.812 345.039 409.824C300.547 442.894 254.189 465.506 199.14 481.026C170.766 489.018 143.59 494.28 113.518 499.842L112.452 500.041L111.986 501.007C109.721 505.836 98.898 526.917 98.765 527.15L97 530.58L100.83 530.181H100.896Z" fill="#764BC4"/>
<path d="M448.377 375.789C445.38 423.445 408.914 467.471 339.943 506.669C303.577 529.148 262.947 546.799 219.154 559.121C182.022 569.578 150.617 572.708 150.617 572.708L175.861 590.792C176.094 590.792 199.372 587.928 232.609 578.569C445.846 518.458 472.256 414.853 469.891 373.224C465.761 300.624 379.374 249.005 379.374 249.005C379.374 249.005 452.807 304.787 448.344 375.789H448.377Z" fill="#BBA5E1"/>
</svg>
