<svg width="48" height="48" viewBox="0 0 48 48" fill="none" xmlns="http://www.w3.org/2000/svg">
<circle cx="24" cy="24" r="24" fill="white"/>
<path d="M24.0579 48C19.894 48 15.9614 46.959 12.6072 45.1084L24.0579 28.106L35.5085 45.1084C32.0386 46.959 28.2217 48 24.0579 48Z" fill="black"/>
<path d="M9.36869 20.0096V23.9422H21.9759L9.25297 42.9108C3.58549 38.5157 0 31.6916 0 23.9422C0 10.7566 10.7567 0 24.0579 0C37.2434 0 48 10.7566 48 23.9422C48 31.6916 44.4145 38.5157 38.747 42.9108L26.0241 23.9422H38.747V20.0096H26.0241V15.9614H38.747V12.0289H9.36869V15.9614H22.0916V20.0096H9.36869Z" fill="black"/>
</svg>
