<svg width="16" height="19" viewBox="0 0 16 19" fill="none" xmlns="http://www.w3.org/2000/svg">
<path d="M13.3177 10.0722C13.336 8.6827 14.0989 7.36791 15.309 6.64012C14.5456 5.57354 13.2669 4.8973 11.9366 4.85658C10.5176 4.71088 9.14208 5.68717 8.41903 5.68717C7.68198 5.68717 6.56874 4.87104 5.36995 4.89517C3.80739 4.94456 2.35069 5.81363 1.59047 7.15003C-0.0437048 9.91784 1.17524 13.9856 2.74064 16.2229C3.52384 17.3184 4.43918 18.5422 5.63689 18.4988C6.80891 18.4512 7.24664 17.7676 8.66137 17.7676C10.063 17.7676 10.4737 18.4988 11.6957 18.4712C12.9533 18.4512 13.7457 17.3708 14.5014 16.2649C15.0641 15.4842 15.4971 14.6215 15.7844 13.7086C14.3065 13.0971 13.3195 11.642 13.3177 10.0722Z" fill="#D5CDD0"/>
<path d="M11.0096 3.38523C11.6953 2.57995 12.0331 1.54489 11.9513 0.499878C10.9037 0.607518 9.93597 1.09733 9.24099 1.87171C8.5614 2.62833 8.20773 3.64517 8.27459 4.65024C9.32259 4.6608 10.3529 4.18427 11.0096 3.38523Z" fill="#D5CDD0"/>
</svg>
