<?xml version="1.0" encoding="UTF-8"?>
<svg viewBox="0 0 48 48" xmlns="http://www.w3.org/2000/svg">
<path d="m24 0c13.256 0 24 10.744 24 24s-10.744 24-24 24-24-10.744-24-24 10.744-24 24-24z" clip-rule="evenodd" fill="#F0B90B" fill-rule="evenodd"/>
<path d="m13.19 24 0.0173 6.3462 5.3923 3.173v3.7154l-8.5481-5.0134v-10.077l3.1385 1.8558zm0-6.3462v3.6981l-3.1404-1.8577v-3.698l3.1404-1.8577 3.1557 1.8577-3.1557 1.8576zm7.6615-1.8576 3.1404-1.8577 3.1558 1.8577-3.1558 1.8576-3.1404-1.8576z" fill="#fff"/>
<path d="m15.46 29.031v-3.7154l3.1404 1.8577v3.6981l-3.1404-1.8404zm5.3923 5.8192 3.1404 1.8577 3.1558-1.8577v3.6981l-3.1558 1.8577-3.1404-1.8577v-3.6981zm10.8-19.054 3.1404-1.8577 3.1558 1.8577v3.698l-3.1558 1.8577v-3.6981l-3.1404-1.8576zm3.1404 14.55 0.0173-6.3462 3.1404-1.8577v10.077l-8.5481 5.0135v-3.7154l5.3904-3.1711z" fill="#fff"/>
<path d="m32.54 29.031-3.1404 1.8404v-3.6981l3.1404-1.8577v3.7154z" fill="#fff"/>
<path d="m32.54 18.969 0.0173 3.7154-5.4077 3.1731v6.3615l-3.1404 1.8404-3.1404-1.8404v-6.3615l-5.4077-3.1731v-3.7154l3.1539-1.8577 5.375 3.1885 5.4077-3.1885 3.1557 1.8577h-0.0134zm-17.081-6.3442 8.5327-5.0308 8.5481 5.0308-3.1404 1.8577-5.4077-3.1885-5.3923 3.1885-3.1404-1.8577z" fill="#fff"/>
</svg>
