<svg width="17" height="18" viewBox="0 0 17 18" fill="none" xmlns="http://www.w3.org/2000/svg">
<path fill-rule="evenodd" clip-rule="evenodd" d="M1.50296 0.552431C1.59642 0.710655 2.12606 1.26682 3.84607 3.01291C5.55196 4.74469 7.55492 6.78596 8.79109 8.05252C9.30919 8.58338 9.73775 9.01772 9.74344 9.01772C9.75487 9.01772 11.8786 6.88972 12.0954 6.66103C12.1702 6.58211 12.2314 6.51009 12.2314 6.50093C12.2314 6.47162 11.6239 6.11977 9.78013 5.08114C6.18313 3.05491 1.55766 0.499878 1.4865 0.499878C1.47848 0.499878 1.48588 0.523527 1.50296 0.552431ZM0.59003 0.804087C0.559644 0.8453 0.511571 0.927921 0.483195 0.987652C0.433305 1.09269 0.431048 1.10905 0.414718 1.48144C0.373945 2.4117 0.350014 11.5962 0.380452 14.6346C0.396624 16.2495 0.412319 16.7244 0.460834 17.0654C0.509137 17.4051 0.540175 17.4554 0.830222 17.665L0.98894 17.7796L5.18169 13.5883L9.37443 9.39698L8.79669 8.81497C7.78355 7.79431 6.96338 6.96256 4.79701 4.7588C1.26992 1.17087 0.818565 0.729507 0.67602 0.729207C0.659107 0.729172 0.620415 0.762855 0.59003 0.804087ZM12.7953 6.883C12.6724 6.94802 12.3991 7.20763 11.289 8.31366L10.1613 9.43719L10.897 10.1842C11.3016 10.595 11.823 11.1155 12.0557 11.3408L12.4788 11.7505L12.58 11.706C12.9126 11.5596 15.0994 10.3667 15.8543 9.91985C16.1278 9.75792 16.2012 9.6895 16.2806 9.52226C16.4375 9.1919 16.3827 8.94427 16.0936 8.67812C15.9437 8.54012 15.7943 8.44783 14.9384 7.96487C13.3636 7.07616 12.9468 6.84838 12.897 6.84935C12.8753 6.8498 12.8295 6.86493 12.7953 6.883ZM8.85052 10.7579C7.41881 12.1638 2.18893 17.3923 2.20165 17.4051C2.21814 17.4215 2.26977 17.3938 4.64826 16.0894C8.06418 14.216 11.2102 12.4942 11.4972 12.3409C11.7853 12.187 11.8611 12.1214 11.8611 12.0259C11.8611 11.9039 11.7447 11.772 10.8548 10.8857C10.3817 10.4145 9.94664 9.98734 9.88793 9.93648L9.7812 9.84402L8.85052 10.7579Z" fill="#D5CDD0"/>
</svg>
