<?xml version="1.0" encoding="UTF-8"?>
<svg viewBox="0 0 48 48" xmlns="http://www.w3.org/2000/svg">
<circle cx="24" cy="24" r="24" fill="#fff"/>
<path d="m38.129 15.997c-0.48-0.3627-1.0546-0.8574-2.1013-0.9814-0.9813-0.124-1.9813 0.504-2.6573 0.92-0.676 0.4147-1.9534 1.636-2.4814 2.0067-0.528 0.372-1.88 0.7173-4.056 1.964s-10.713 6.48-10.713 6.48l2.2227 0.0267-9.9067 4.8733h0.98933l-1.4253 1.0347s1.2587 0.3186 2.3147-0.3187v0.292s11.796-4.44 14.075-3.2893l-1.3893 0.388c0.12 0 2.36 0.1426 2.36 0.1426s0.0747 1.3347 1.4267 2.192c1.352 0.8494 1.38 1.3187 1.38 1.3187s-0.704 0.2733-0.704 0.6187c0 0 1.0373-0.3014 2-0.2747 0.9626 0.0267 1.8053 0.2747 1.8053 0.2747s-0.0733-0.372-1.0093-0.6187c-0.944-0.2573-1.86-1.2213-2.3147-1.752-0.276-0.332-0.4569-0.7325-0.5236-1.1591-0.0667-0.4265-0.0166-0.8632 0.1449-1.2636 0.324-0.804 1.4534-1.2466 3.7867-2.396 2.7493-1.3626 3.38-2.3706 3.768-3.1573 0.3893-0.7867 0.9627-2.352 1.288-3.0867 0.4067-0.9466 0.9067-1.4506 1.324-1.7506 0.4067-0.3014 2.268-0.964 2.268-0.964s-1.4173-1.176-1.8707-1.52z" fill="#2A171F"/>
</svg>
