<?xml version="1.0" encoding="UTF-8"?>
<svg viewBox="0 0 48 48" xmlns="http://www.w3.org/2000/svg">
<circle cx="24" cy="24" r="24" fill="#E6007A"/>
<path d="m24 14.132c3.3889 0 6.1362-1.5965 6.1362-3.5659s-2.7473-3.5659-6.1362-3.5659-6.1362 1.5965-6.1362 3.5659 2.7473 3.5659 6.1362 3.5659z" fill="#fff"/>
<path d="m24 41c3.3889 0 6.1362-1.5965 6.1362-3.5659s-2.7473-3.5659-6.1362-3.5659-6.1362 1.5965-6.1362 3.5659 2.7473 3.5659 6.1362 3.5659z" fill="#fff"/>
<path d="m15.449 19.068c1.6944-2.9324 1.6834-6.1084-0.0246-7.0938-1.708-0.9853-4.4663 0.5931-6.1608 3.5255-1.6945 2.9324-1.6835 6.1084 0.02456 7.0937 1.708 0.9854 4.4663-0.593 6.1608-3.5254z" fill="#fff"/>
<path d="m38.734 32.5c1.6945-2.9324 1.6844-6.1079-0.0225-7.0925-1.7069-0.9847-4.4642 0.5942-6.1587 3.5266s-1.6844 6.1079 0.0225 7.0926c1.7069 0.9846 4.4642-0.5943 6.1587-3.5267z" fill="#fff"/>
<path d="m15.425 36.026c1.708-0.9853 1.719-4.1613 0.0245-7.0937s-4.4527-4.5108-6.1608-3.5255c-1.708 0.9854-1.719 4.1614-0.02457 7.0938 1.6944 2.9324 4.4527 4.5108 6.1608 3.5254z" fill="#fff"/>
<path d="m38.713 22.594c1.7069-0.9847 1.717-4.1601 0.0225-7.0925s-4.4518-4.5114-6.1587-3.5267-1.7169 4.1601-0.0225 7.0926c1.6945 2.9324 4.4518 4.5113 6.1587 3.5266z" fill="#fff"/>
</svg>
