<svg xmlns="http://www.w3.org/2000/svg" viewBox="0 0 22 22">
<path fill="#ED145B" d="M11,0C4.9,0,0,4.9,0,11s4.9,11,11,11s11-4.9,11-11S17.1,0,11,0z"/>
<path fill="#FFFFFF" d="M16,6.1c0.7,0.7,0.7,1.7,0,2.4c-0.7,0.7-4.4,2-4.4,2s1.4-3.8,2-4.4S15.3,5.4,16,6.1z M11,1.8
	c0.9,0,1.7,0.8,1.7,1.7C12.7,4.5,11,10,11,10S9.3,4.5,9.3,3.5C9.3,2.6,10.1,1.8,11,1.8z M6.1,6.1c0.7-0.7,1.7-0.7,2.4,0
	c0.7,0.7,2,4.4,2,4.4s-3.8-1.4-4.4-2C5.4,7.8,5.4,6.7,6.1,6.1z M1.8,11c0-0.9,0.8-1.7,1.7-1.7S10,11,10,11s-5.5,1.7-6.5,1.7
	S1.8,11.9,1.8,11z M6.1,15.9c-0.7-0.7-0.7-1.7,0-2.4c0.7-0.7,4.4-2,4.4-2s-1.4,3.8-2,4.4C7.8,16.6,6.8,16.6,6.1,15.9z M11,20.2
	c-0.9,0-1.7-0.8-1.7-1.7S11,12,11,12s1.7,5.5,1.7,6.5S11.9,20.2,11,20.2z M16,15.9c-0.7,0.7-1.7,0.7-2.4,0c-0.7-0.7-2-4.4-2-4.4
	s3.8,1.4,4.4,2C16.6,14.2,16.6,15.3,16,15.9z M18.5,12.7C17.5,12.7,12,11,12,11s5.5-1.7,6.5-1.7c0.9,0,1.7,0.8,1.7,1.7
	C20.2,11.9,19.4,12.7,18.5,12.7z"/>
</svg>