<svg width="112" height="113" fill="none" xmlns="http://www.w3.org/2000/svg"><circle cx="56.006" cy="56.5" r="55.735" fill="#F8087B"/><path fill-rule="evenodd" clip-rule="evenodd" d="M43.07 31.25c-7.534 2.664-13.058 9.022-14.608 16.81-.483 2.43.17 3.672 1.541 2.933.399-.214.647-.825.974-2.399 3.196-15.357 22.35-21.54 35.56-11.479 2.532 1.928 2.573 1.816-.981 2.69-3.212.791-3.58 1.01-3.339 1.988.295 1.2.663 1.19 6.148-.16l5.089-1.253-1.274-5.176c-1.363-5.537-1.458-5.736-2.602-5.454-1.069.262-1.101.641-.327 3.789l.72 2.927-1.957-1.475c-6.926-5.218-16.644-6.675-24.944-3.74zM27.912 55.934c-1.909 1.636-1.949 1.25 1.657 15.9L32.7 84.554l.794.923c1.645 1.912-.61 2.287 26.794-4.459l24.101-5.933.778-.797c1.554-1.591 1.59-1.301-1.941-15.673l-3.124-12.714-.795-.928c-.581-.678-1.116-1.002-1.987-1.201l-1.19-.274-23.645 5.82-23.645 5.82-.928.795zm9.018 14.088 3.273 13.297-2.09.514c-2.927.72-2.33 1.992-5.932-12.642-3.603-14.635-3.541-13.232-.614-13.953l2.09-.514 3.273 13.298zm37.755-9.294 3.273 13.297-17.685 4.353-17.685 4.354-3.28-13.296-3.28-13.296 17.692-4.355 17.692-4.354 3.273 13.297zm2.448-14.404c.512.31 6.716 25.513 6.406 26.025-.121.201-.863.515-1.71.724l-1.496.368-3.274-13.298-3.273-13.297 1.496-.368c.847-.209 1.65-.275 1.851-.154zM32.641 66.25c-.244.452-.133 1.156.745 4.722l1.031 4.19.69.243c.639.225.726.204 1.187-.292l.498-.535-1.047-4.255c-1.017-4.128-1.066-4.263-1.667-4.495-.801-.31-1.088-.227-1.438.422z" fill="#F7F3F4"/></svg>