<?xml version="1.0" encoding="UTF-8"?>
<svg viewBox="0 0 48 48" xmlns="http://www.w3.org/2000/svg">
<circle cx="24" cy="24" r="24" fill="#fff"/>
<path d="m24.058 48c-4.1639 0-8.0965-1.041-11.451-2.8916l11.451-17.002 11.451 17.002c-3.4699 1.8506-7.2868 2.8916-11.451 2.8916z"/>
<path d="M9.36869 20.0096V23.9422H21.9759L9.25297 42.9108C3.58549 38.5157 0 31.6916 0 23.9422C0 10.7566 10.7567 0 24.0579 0C37.2434 0 48 10.7566 48 23.9422C48 31.6916 44.4145 38.5157 38.747 42.9108L26.0241 23.9422H38.747V20.0096H26.0241V15.9614H38.747V12.0289H9.36869V15.9614H22.0916V20.0096H9.36869Z"/>
</svg>
